<?xml version="1.0" encoding="utf-8"?>
<!-- Generator: Adobe Illustrator 14.0.0, SVG Export Plug-In . SVG Version: 6.00 Build 43363)  -->
<!DOCTYPE svg PUBLIC "-//W3C//DTD SVG 1.1//EN" "http://www.w3.org/Graphics/SVG/1.1/DTD/svg11.dtd">
<svg version="1.1" id="Layer_1" xmlns="http://www.w3.org/2000/svg" xmlns:xlink="http://www.w3.org/1999/xlink" x="0px" y="0px"
	 width="424.44px" height="329.4px" viewBox="0 0 424.44 329.4" enable-background="new 0 0 424.44 329.4" xml:space="preserve">
<path d="M397.8,255.24c-1.33,0-1.99,0.3-3.24,0.72c0.37,1.86,2.979,2.391,4.68,3.24c1.671,0.84,3.421,1.55,5.041,2.52
	c3.479,2.09,5.399,5.601,5.399,9.72c0,4.601-3.91,13.32-9.36,13.32c-9.78,0-22.74-8.51-29.88-14.76
	c7.66-9.59,15.479-24.35,15.479-37.08c0-0.88-0.109-1.91-0.719-2.52c-0.5-0.5-1.181-0.771-1.801-1.08
	c-4.51,10.13-7.9,16.04-15.119,24.48l-1.44-3.601c5.38-9.69,9.72-24.061,9.72-35.28c0-8.319-1.98-18.72-5.76-26.28
	c-1.87-3.729-4.25-7.359-5.761-11.159l-4.319-10.8c0-0.78,1.49-0.931,1.8-1.08c8.649,11.55,16.42,28.06,19.8,42.119
	c0.771,3.23,1,6.101,1.44,9.36c0.12,0.971-0.021,7.56,1.8,7.56c2.2,0,2.16-13.459,2.16-16.199c0-10.07-3.29-24.271-6.48-33.84
	c-1.63-4.881-3.43-10.331-5.399-15.121c-0.9-2.17-7.2-13.23-7.2-14.4c0-0.68,1.13-0.84,1.439-1.44c0.371-0.76,0.36-1.67,0.36-2.52
	c0-4.62-5.68-6.25-8.64-6.84c1.779-1.28,8.73-3.95,9.36-4.68c0.169-0.21,2.529-5.58,2.879-6.12c1.08-1.73,0.83-5.4,2.88-5.4
	c0.91,0,1.08,1.6,1.08,2.52c0,1.5,0.701,3.59,2.161,3.96c1.659-2.77,2.399-4.28,2.879-7.56c2.171-0.31,7.2-0.91,7.2-3.96
	c0-1.73-2.6-2.71-4.32-2.88c-1.8-0.18-3.6-0.36-5.399-0.36c-0.51-5.54-1.89-8.01-5.76-11.88c-1.29,3.86-2.41,7.02-3.96,10.8
	c-0.66,1.59-0.67,3.82-2.16,4.68c-1.65,0.94-3.51,1.8-5.4,1.8c-2.26,0-4.32-2.47-4.32-4.68c0-1.96-0.18-4.26,1.08-5.76
	c1.15-1.39,2.311-2.78,3.24-4.32c0.921-1.55,2.08-2.94,3.24-4.32c1.13-1.37,1.801-3.26,1.801-5.04c0-0.73,0.149-1.65-0.361-2.16
	c-0.38-0.38-0.909-0.72-1.439-0.72c-2.39,2.38-4.85,4.68-8.64,4.68c-0.62,0-1.261-0.51-1.801-0.72c0-0.92,0.36-1.5,0.36-2.52
	c0-1.82-0.32-1.94,0.36-3.96c1.229-0.5,5.64-2.16,6.84-2.16c0.41,0,1.13,1.29,1.439,1.44c0.83-0.84,1.271-2.07,1.44-3.24
	c0.16-1.19,0-2.4,0-3.6c0-1.08,0.51-2.33,1.439-2.88c1.041-0.63,2.37-0.72,3.601-0.72v-1.44c0-2.43-1.65-3.9-3.96-4.32
	c-2.25-0.41-4.609,0.08-6.84-0.36v-0.72l3.6-1.08v-2.52c0-3.12-0.57-5.23-3.24-6.84c0,0.84,0,1.68,0,2.52c0,0.7-0.46,1.48-1.08,1.8
	c-1.67-3.33-5.33-7.49-7.92-10.08c-0.5,0.99-0.359,1.6-0.359,2.52c0,1.22,1.99,8.5,2.52,10.08l-2.88,1.44
	c0-0.83,0.01-1.84,0.36-2.52c-0.681-0.34-1.7-1.44-2.52-1.44c-1.081,0-2.131,0.68-2.881,1.44c-0.76,0.75-1.109,1.86-1.439,2.88
	c0-1.21-0.811-2.52-2.16-2.52c-1.37,0-2.61,0.88-3.96,1.08h-4.32c-1.85,0-5.04-0.36-6.84-0.72c0-1.03-0.36-1.96-0.36-2.88
	c0-1.03,0.16-2.43,1.08-2.88c0.98-0.5,2.24-0.23,3.24-0.72c-0.399-2.72-1.63-5.62-2.16-8.28h1.08c1.36,1.36,2.721,2.52,5.4,2.52
	c1.17,0,2.63-0.43,3.239-1.44c0.681-1.14,0.36-2.64,0.36-3.96c0-2.76-0.58-5.44-2.16-7.56c-0.42,1.66-0.64,3.25-1.08,5.04
	c-2.47,0.82-7.289,2.52-9.72,2.52c-0.76,0-1.63-0.19-2.16-0.72c-0.5-0.5-1.11-1.08-1.8-1.08c-1.2,0-3.29,0.72-5.04,0.72l-0.359,2.16
	c-0.721-1.44-0.061-3.55,1.079-4.68c1.221-1.23,2.88-2.59,2.88-4.32c0-1.41-0.989-3.18-2.159-3.96c-0.791,0.78-1.5,1.75-2.521,2.16
	c-0.96,0.38-1.97,0.62-2.88,1.08c-0.38-1.52,0.859-3.39,0-4.68c-0.76-1.14-2.16-1.92-2.521-3.24c-0.569-2.05-0.1-4.85-1.8-6.12
	c-0.89,1.17-2.459,4.7-3.24,5.76c-1.239,1.65-3.13,2.83-5.039,3.6c0.399-1.62,2.159-2.46,2.159-4.32c0-1.46-1.29-2.47-2.52-2.88
	c-0.819,1.21-2.2,2.12-3.601,2.52c-1.43,0.4-2.92-0.61-4.319-1.08l-0.36,1.8h-1.08c0-1.4,1.061-2.73,2.16-3.6
	c0.96-0.78,2.21-1.12,3.24-1.8c1.66-1.11,3.24-3.05,3.24-5.04c0-1.72-1.211-6.17-2.881-6.84c-0.359,1.08-0.5,2.26-1.08,3.24
	c-0.619,1.03-1.209,2.16-2.159,2.88c-0.99,0.73-2.511,0.17-3.6,0.72c-0.931,0.46-1.491,1.8-2.521,1.8c-1.74,0-2.391-2.67-2.88-4.32
	c-0.33-1.09-0.721-2.16-1.08-3.24c-0.36-1.05-1.391-1.74-2.16-2.52c-0.351,0.69-0.359,1.66-0.359,2.16c0,1.57,0.399,3.13,0.72,4.68
	c0.229,1.2,0.72,2.37,0.72,3.6c0,0.96-0.76,1.83-1.439,2.52c-0.73,0.72-1.971,0.62-2.88,1.08c0.479-1.46,0-3.17,0-4.68
	c-0.701-0.28-0.951-0.72-1.801-0.72c-1.64,0-2.02,2.57-2.88,3.96c-0.66,1.04-1.17,2.18-1.8,3.24c-0.67,1.11-1.95,2.16-3.24,2.16
	c-1.12-2.79-4.22-3.57-4.68-4.68c-0.33-0.78,0.369-1.771,0-2.521c-0.4-0.78-0.521-1.68-0.72-2.52c-0.38-1.52-1.221-3.09-2.521-3.96
	l-1.439,7.56c-1.781-0.89-3.79-1.37-5.4-2.52c-1.551-1.11-2.52-2.93-3.24-4.68c-1.859-4.51-1.38-7.13-5.04-10.8
	c0,3.37,1.54,9.72,0.36,12.6c-1.44,3.49-6.32,1.82-9.36,7.92h-0.359c0.359-2.55,2.52-5.39,2.52-7.56c0-0.98-1.78-4.32-2.88-4.32
	c-1.24,0-1.42,2.06-1.801,3.24c-0.33,0.98-1.489,1.8-2.52,1.8c-0.35-0.7-1.87-1.12-2.52-1.44c-1.141,2.27-0.671,3.18-2.521,5.04
	c-4.84-6.78-9.92-12.47-12.6-20.52L210.24,0c-4,9.99-12.15,19.76-20.52,26.28c0-0.6-0.66-1.02-1.08-1.44
	c-0.38-0.38-0.91-0.72-1.44-0.72c4.5-1.51,5.2-1.56,6.12-6.12c0.2-1.06,1.44-1.81,1.44-2.88c0-1.17-0.92-1.36-1.8-1.8
	c-5.42,3.86-7.12,5.04-14.04,5.04c-1.21,0-2.53,0.18-3.6-0.36c-0.97-0.48-2.13-0.69-2.88-1.44c-1.78,1.32-3.63,2.63-5.4,3.96
	c-1.64,1.22-3.96,2.63-3.96,4.68c0,1.1,0.3,2.21,0.72,3.24c0.38,0.96,1.47,1.54,1.8,2.52l-5.4,3.24c-0.44-0.86-0.72-1.9-0.72-2.88
	c0-2.33,2.83-6.66,3.6-9.72l-1.8-0.36l-1.44,1.8h-8.28c0.52-0.8,0.95-3.38,0.72-4.32c-1.62-0.81-3.76-1.54-4.32-3.24
	c-0.64-1.91-0.38-4.34-1.8-5.76c-0.59-0.59-5.37-2.49-7.56-4.68c-0.41,0.81-0.72,0.34-0.72,1.44c0,1.46,0.25,2.93,0.72,4.32
	c0.44,1.32,1.81,2.24,2.16,3.6l-1.44,1.08c0,2.9,0.94,4.54,3.24,6.84l-0.72,3.6h-0.72c-0.39-0.78-0.84-1.55-1.44-2.16
	c-0.62-0.62-1.65-0.72-2.52-0.72c-1.08,0-0.99,0.39-1.8,0.72l1.08,5.04c-0.76,0.75-1.83,1.26-2.88,1.44
	c-0.96,0.16-1.01,1.65-1.44,2.52h-2.52c1.16-3.51,2.52-4.32,2.52-8.28c0-4.27-0.09-7.29-2.88-10.08
	c-4.09,5.72-1.66,9.45-3.24,15.479c-0.98,3.7-7.92,6.92-7.92,9.36c0,2.38,0.79,2.01,1.44,3.96c-1.01,0.67-3.88,1.84-4.32,2.52
	c-0.93-3.22,0.36-5.71,0.36-9.36c-0.88-0.29-1.61-1.28-2.52-0.36c0-1.31-0.1-4.68-1.8-4.68c-0.14,0-8.11,5.45-8.28,5.76
	c-0.97,1.68,0.3,4.12-0.72,5.76c-1.91,3.04-2.75,2.39-5.76,3.6c-0.93-1.38-2.09-1.75-3.24-2.52c0,2.99,0.41,4.99,2.88,6.84
	c-0.9,1.34-1.72,2.77-2.16,4.32c-0.33,1.13-0.27,3.24-1.44,3.24c-0.6,0-1.65-0.82-2.16-1.08c-0.47-5.12,0.53-10.27-0.36-14.76
	c-2.85-1.71-4.51-2.76-7.92-3.24c0.33,1.32,1.45,2.38,2.52,3.24c0.88,0.7,1.8,1.74,1.8,2.88c0,3.61-0.7,4.37-3.6,6.12
	c-1.16-1.73-1.39-1.97-3.6-2.52c-1.07,2.12-1.44,3.65-1.44,6.12c-0.33,0.06-1.65,0.36-1.8,0.36c-3.34,0-7.05-0.29-10.08-1.8
	c0,1.5,0.9,3.12,2.16,3.96c1.35,0.9,2.65,1.9,3.96,2.88c1.03,0.77,5.76,5.77,5.76,6.84c0,0.7-0.7,1.21-1.08,1.8
	c-0.36,0.53-0.39,1.24-0.72,1.8c-0.4,0.65-0.72,1.4-0.72,2.16v2.52c0,2.32,0.03,3.99,1.8,5.76c-0.48,0.95-0.35,1.61-1.44,2.16
	c-1.52-2.12-5.14-7.78-6.84-9c-3.12-2.23-6.6-3.24-10.44-3.24c-3.36,0-5.76,1.53-5.76,5.04c0,0.72-0.33,1.51,0,2.16
	c0.3,0.6,0.75,1.44,1.44,1.44c0.74,0,3.41-1.49,4.68-1.8c-0.38,0.75-0.38,1.76,0,2.52c0.41,0.83,1.32,1.38,2.16,1.8
	c-0.45,2.23-0.57,4.75,0.36,6.84c1.09,2.47,3.91,2.34,5.4,4.32c-0.54,0.53-1.01,1.45-0.72,2.16c0.4,1.02-0.23,2.25-0.72,3.24
	c-0.87,0.43-1.9,0.72-2.88,0.72c-1.93,0-4.49-1.37-5.04-3.6c-0.33-1.31-0.3-2.69-0.72-3.96c-0.38-1.13-1.4-2.15-2.52-2.52
	c-0.28,1.37-1.08,5.62-1.08,6.84c0,0.56,5.63,12.28,6.12,12.96c-0.92,0.91-1.98,1.95-2.16,3.24c-0.19,1.31,0.77,2.7,0.36,3.96
	c-2.19,0.43-4.29,0.08-6.48-0.36c0.33,2.01,2.17,3.68,3.96,4.68c1.83,1.02,3.71,1.98,5.4,3.24c-0.98,0.73-3.4,4.95-3.6,6.12
	c-0.36,1.93-2.72,3.6-4.68,3.6c0.33,1.02,0.58,2.23,1.44,2.88c0.88,0.66,2.13,0.72,3.24,0.72v0.72l-5.4,3.24l1.08,3.24
	c-5.4,7.55-9.09,13.79-11.52,23.04c-2.42,9.15-3.01,15.98-4.32,25.2c-0.92,6.41-2.16,12.1-2.16,18.721
	c0,4.449,0.68,7.91,1.08,12.239c1.04,0,1.66-0.3,2.52-0.72c0.91-14.71,7.75-31.72,14.4-45c3.54-7.1,7.27-13,11.88-19.44
	c2.23-3.14,4.33-6.05,6.84-9c2.75-3.26,5.25-4.78,9.36-4.32c-5.73,11.44-15.6,20.161-21.6,31.68
	c-6.57,12.57-11.16,21.96-11.16,36.721c0,7.399,1.57,16.609,3.96,23.76c1.19,3.589,3.71,7.22,5.04,10.439
	c1.11,2.71,0.78,7.551,1.44,10.801c-5.49-5.49-11.34-12.371-13.68-19.801l-2.16-6.84c-0.62-1.95-0.85-5.399-2.88-5.399
	c-0.61,0-1.44,0.479-1.44,1.079v1.801c0,14.47,5.45,28.42,14.4,39.6c-5.49,4.689-18.73,11.88-25.92,11.88
	c-4.69,0-14.04-1.979-14.04-8.28c0-5.529,2.33-9.449,7.2-11.88c4.12-2.069,9.17-1.979,12.24-5.04c-2.74-0.909-4.94-1.08-7.92-1.08
	C12.12,254.88,0,261.57,0,274.681c0,11.569,12.82,20.879,23.76,20.879c16.61,0,27.43-8.359,38.52-19.439
	c5.75,5.75,17.38,15.12,25.92,15.12c0.87,0,1.1-0.78,1.44-1.439c-4.86-2.431-9.82-7.021-12.24-11.881
	c12.44,3.11,25.07,3.77,37.8,4.681c-1.83,1.209-1.3,1.85-3.96,2.52v1.8l39.24-6.84c4.86-0.85,8.27,1.06,10.44,5.4
	c1.9,3.82,1.33,8.09,1.8,12.239c1.59-0.8,3.03-2.27,3.6-3.96c0.57-1.729,0.72-3.59,0.72-5.399c0-10.2-3.21-14.11-13.68-16.2
	c5.81-5.819,9.59-6.601,16.56-10.08c-0.29,1.68-1.44,5.351-1.44,6.84c0,3.89,9.66,12.04,12.96,14.4
	c-6.32,13.67-13.91,20.67-27,28.08c-6.34,3.58-13.46,6.95-20.16,9.72c-5.34,2.189-11.76,1.67-15.84,5.76
	c11.61,1.29,25.71-0.579,37.8,0c8.3,0.391,17.04,1.44,25.2,1.44c8.78,0,17.84-0.72,26.64-0.72c9.201,0,18.53-0.36,27.72-0.36
	c9.31,0,20.27-0.13,29.52,0.36c9.1,0.479,18.641,1.8,27.72,1.8c3.07,0,5.991-0.36,9-0.36l0.721-2.52
	c-24.45-6.67-42.471-13.54-56.16-36.36c3.479-2.5,5.71-3.221,9.36-5.04c1.81,5.431,0.979,8.5,4.68,13.681
	c0-1.73,0.17-0.361,1.439-0.361c0-2.63-1.439-6.329-1.439-9c0-5.149,2.979-8.639,8.279-8.639c14.261,0,29.281,5.85,43.2,8.639
	l0.721-1.8c-2.601-1.729-6.07-3.7-9-4.68v-0.359c4.05,0.81,7.39,1.08,11.52,1.08c10.091,0,20.21-2.33,30.24-3.241
	c-3,2.991-4.771,5.28-8.28,7.921c-1.24,0.92-2.189,2.27-3.6,2.88c-1.26,0.54-3.24,1.149-3.24,2.52c0,0.891,1.7,0.721,2.16,0.721
	c10.57-6.351,20.1-8.95,29.16-18c10.67,9.7,26.71,20.159,41.76,20.159c12.12,0,20.88-12.83,20.88-24.119
	C424.44,261.46,406.59,255.24,397.8,255.24z M369.36,260.28c0.13-1.221-1.02-2.42-0.72-3.6c0.49-1.98,3.12-2.681,4.32-4.32
	c3.6-4.971,7.779-10.4,9.72-16.2h0.359v0.72c-1.71,8.51-4.14,16.961-8.64,24.48c-1.5,2.48-3.699,5.17-5.4,7.56l-1.439-1.079
	C368.56,264.83,368.98,263.65,369.36,260.28z M358.919,149.4c0-0.81,0.511-1.6,1.08-2.16c0.49-0.5,0.761-1.18,1.08-1.8
	c2.771,3.88,3.99,7.99,6.121,12.24v0.72h-0.721C362.83,157.18,358.919,153.69,358.919,149.4z M383.04,188.64
	c1.28,6.03,1.591,13.24,2.161,19.44c-3.431-10.271-8.11-23.38-13.32-32.76c-1.35-2.42-3.1-4.58-4.68-6.84
	c-1.4-1.99-3.961-3.69-3.961-6.12c0-1.39,1.08-1.03,1.08-2.52c1.28,0.32,3.87,1.8,5.04,1.8c0.66,0,1.08-0.44,1.08-1.08
	c0-1.66-5.93-14.41-7.2-16.2h0.721C372.75,154.91,380.14,175.13,383.04,188.64z M355.68,59.04c0.439,0.45,2.16,2.65,2.16,3.24
	c0,0.64-0.801,1.22-1.08,1.8c-1.54-2.3-1.16-2.44-1.8-5.04H355.68z M344.88,66.24v0.72c-1.24,3.07-1.381,3.14-4.32,4.32
	C341.531,68.84,342.08,67.35,344.88,66.24z M212.04,3.6c3.8,7.62,8.29,13.52,12.959,20.52h-0.719c-3.141-3.14-5.281-6.01-7.561-9.72
	c-0.83-1.34-1.66-2.66-2.52-3.96C213.44,9.3,213.04,7.2,211.68,7.2c-1.04,0-1.35,1.59-1.8,2.52c-0.62,1.22-1.74,2.12-2.52,3.24
	c-1.52,2.16-2.84,4.53-4.68,6.84L201.6,18L212.04,3.6z M213.84,18c-0.61,1.5-1.84,5.46-2.52,6.84c-1.18,2.35-3.34,3.96-6.12,3.96
	c-1.29,0-2.16-2.97-2.16-3.96c0-2.34,7.38-11.35,9.36-13.32c3.25,6.51,5.62,9.03,9.72,14.76c-0.8,0.39-2.339,0.72-3.239,0.72
	c-1.45,0-2.711-1.81-2.881-3.24c-0.199-1.55,0-3.12,0-4.68L213.84,18z M200.16,20.16c0.55,2.23,0,1.97,0,3.96
	c-0.66-1.32-1.58-0.64-2.16-1.8L200.16,20.16z M129.6,17.28h0.72c-0.3,0.89-0.36,2.97-0.36,3.96c0,1.56,0.69,3.28,0,4.68
	c-0.65,1.29-1,2.75-1.8,3.96C128.16,25.1,128.49,21.7,129.6,17.28z M113.04,36.36h0.36c-0.46,4.94-3.96,10.67-3.96,14.04
	c0,2.29,1.45,4.06,3.24,5.4v0.36h-0.72c-0.79-0.78-1.96-1.22-2.52-2.16c-0.67-1.11-1.44-2.31-1.44-3.6
	C108,48.77,112.12,38.18,113.04,36.36z M88.56,43.2c0.41,0.82,0.36,1.51,0.36,2.52l-1.08-2.52H88.56z M71.64,146.52
	C54.17,165,42.94,189.301,36.72,214.2c-0.8-10.38,1.34-29.35,4.32-39.96c1.54-5.521,3.92-12.32,6.12-17.64
	c1.95-4.76,5.51-10.68,10.08-12.96c0,0.64,0.1,1.59,0.72,1.8c0.69,0.23,1.42,0.36,2.16,0.36c-1.22,2.42-2.96,4.7-4.32,7.2
	c-0.65,1.18-2.88,6.15-2.88,7.2c0,1.11,1.16,1.12,1.8,1.44c2.29-3.22,4.24-7.02,6.84-10.08c3.5-4.15,4.61-5.27,10.08-5.76V146.52z
	 M61.2,148.32c0.32-0.66,1-1.29,1.44-2.16H63c-0.44,0.87-1.01,1.27-1.44,2.16H61.2z M78.84,154.44c0.59-1,3.6-6.75,3.6-7.56
	c0-1.96-1.21-4.68-3.6-4.68c-3.96,0-9.57,1.34-13.68,1.8c0-1.14-0.18-1.8-1.44-1.8c-0.54,0-1.07,0.34-1.44,0.72
	c-0.38,0.37-0.91,0.72-1.44,0.72c-0.92,0-2.24-0.22-2.52-1.08c-0.28-0.83-0.34-1.74-0.72-2.52c0.89-0.45,1.44-1.03,1.44-2.16
	c0-0.61-1.79-1.78-2.16-2.16c2.46-2.47,1.04-3.2,3.24-6.12c1.19-1.6,3.24-3.05,3.24-5.04c0-1.2-1.14-2.27-2.16-2.88
	c-1.07-0.64-2.07-1.41-3.24-1.8c0.5-0.26,1.31-1.02,2.16-1.44c0-1.35-1.22-2.72-0.72-3.96c0.5-1.27,1.38-2.49,2.52-3.24
	c-0.84-2.9-2.19-4.39-3.24-7.56c-0.79-2.36-3.6-3.93-3.6-6.12c0-0.5,0.23-0.96,0.36-1.44c0.45,0.91,0.46,2.06,1.08,2.88
	c0.72,0.96,1.78,1.67,2.88,2.16c1.91,0.85,4.06,1.03,6.12,1.44c1.16-1.17,3.96-4.95,3.96-6.48c0-2.35-2.28-5.1-3.96-6.48
	c-0.76-0.62-2.09-0.58-2.52-1.44c-0.44-0.86-0.11-1.93,0-2.88c0.19-1.78-0.54-3.78-1.8-5.04c0.44-0.23,1.44-1.44,1.44-2.16
	c0-1.3-1.95-2.16-3.24-2.16c-1.7,0-3.4,0.3-5.04,0.72c1.4-1.41,2.86-2.88,5.04-2.88c4.74,0,7.75,1.28,10.44,5.04
	c1.09,1.53,1.74,3.29,3.24,5.04c1.27,1.49,2.91,2.72,4.68,3.6c0.36-1.45,1.8-3.05,1.8-4.32c0-1.08-0.9-1.96-1.44-2.88
	c-0.64-1.05-0.72-2.38-0.72-3.6c0-1.52,0.59-3.06,1.44-4.32c0.38-0.59,0.76-1.18,1.08-1.8c0.33-0.68,0.72-1.41,0.72-2.16
	c0-3.16-6.33-8.43-8.64-10.08V57.6h7.56c0.42-0.86,0-1.92,0-2.88c0-0.97,0.57-2.09,1.44-2.52c0,0.73,0.12,1.46,0.36,2.16
	c0.15,0.48,0.72,0.72,1.08,1.08c1.17-0.39,2.36-0.93,3.24-1.8c0.9-0.91,1.61-1.98,2.52-2.88c0,2.29,0.05,4.64,0.72,6.84
	c0.41,1.4,3.46,3.6,5.04,3.6c0.6,0,4.68-8.94,4.68-9.72c0-1.44-0.89-1.4-1.44-2.52c6.86-1.38,8.6-4.72,9.36-11.52
	c1.85-1.4,2.97-2.78,5.04-3.6c-1.01,5.02-5.4,9.92-5.4,15.84c0,3.02,4.39,10.08,7.56,10.08c1.05,0,1.8-1.36,1.8-2.16
	c0-0.76-0.31-1.53-0.72-2.16c-0.34-0.5-1.02-0.66-1.44-1.08c-0.5-0.5-0.7-1.22-1.08-1.8c-0.34-0.5-1.08-0.84-1.08-1.44
	c0-1.56,1.42-2.81,1.8-4.32c1.11,0.37,2.04,1.8,2.88,1.8c1.72,0,5.76-2.32,5.76-4.32c0-1.1-1.21-3.43-1.8-4.32
	c3.37-2.42,5.3-3.87,8.28-6.84c0.42,1.28,1.11,2.16,2.52,2.16c1.64,0,4.97-2.1,6.12-3.24c1.85-1.86,1.81-3.38,0.72-6.12h1.44
	c2.76,3.86,1.74,6.78,5.4,10.44c0.41-0.83,0.36-1.52,0.36-2.52c0-4.16-1.43-4.08-0.72-9c0.66-4.66-2.52-4.93-2.52-6.84
	c0-0.68,0.87-1.07,1.44-1.44c0.53-0.36,0.72-1.16,0.72-1.8c0-0.97-0.76-1.84-1.44-2.52c-0.67-0.67-1.33-1.39-2.16-1.8v-0.36h0.72
	c2.75,2.06,4.31-0.02,5.04,4.32c1.07,6.44,0.64,1.22,3.24,5.76c0.9,1.58,0.56,4.15,2.16,5.04c1.39,0.77,5.31,0.34,7.2,0.72
	c-0.81,2.01-0.92,4.31-0.72,6.48c0.18,2.05,1.53,5.04,3.6,5.04c2.26,0,7.2-3.91,7.2-6.48c0-0.92-0.44-1.88-1.08-2.52
	c-0.61-0.6-1.8-0.95-1.8-1.8c0-1.7,2.08-2.85,3.6-3.6c1.72-0.87,3.3-2.02,5.04-2.88c0.9,1.36,3.05,1.23,4.68,1.44
	c1.66,0.2,3.35,0,5.04,0c-1,0.99-2.63,0.99-3.96,1.44c-1.14,0.37-2.88,0.96-2.88,2.16c0,1.12,10.39,10.59,12.24,11.52
	c0.41-2.96-0.72-5.49-0.72-8.64c2.17,2.17,2.45,2.52,5.76,2.52c0.77,0,1.21-0.25,1.8-0.36c0.17-0.69,1.12-4.68,2.16-4.68
	c1.7,0,3.11,1.76,3.96,3.24c0.8,1.41,2.32,2.88,3.96,2.88c1.78,0,3.66-0.66,5.04-1.8c1.25-1.05,1.969-2.6,2.88-3.96l2.159,4.32
	c0.79,0,1.96-0.36,2.521-0.36c1.439,0,3.02,0.28,4.32-0.36c1.219-0.61,2.33-1.5,3.239-2.52c2.44-2.76,2.65-3.88,4.32-7.2
	c0.93,1.41,2.71,1.19,3.96,0.36c-0.46,2.25-1.221,4.6-0.721,6.84c0.44,1.99,2.631,3.96,4.681,3.96c0-1.21-0.601-2.42-0.36-3.6
	c0.2-1.06,0.68-2.13,1.44-2.88c0.87-0.88,2.06-1.41,3.239-1.8c1.181-0.4,2.4-0.69,3.601-1.08c0.931-1.88,1.439-4.29,1.439-6.48
	h0.721c0.46,1.4,0.409,2.99,1.08,4.32c0.64,1.29,1.86,2.42,3.239,2.88c2.881,0.96,4.78,1.85,7.561,3.24
	c0.57-2.31,0.09-2.31,1.439-4.32c0,1.57-0.529,3.71,0.721,4.68c1.34,1.04,3.11,1.76,3.96,3.24c0.67,1.17,1.521,2.88,2.88,2.88
	c1.271,0,1.939-1.74,2.521-2.88c0.68-1.38,2.02-2.32,2.879-3.6c0,0.6-0.189,1.23,0,1.8c0.181,0.56,0.83,1.08,1.44,1.08
	c3.12,0,7.28-3.78,8.64-6.48c0.221,0.45,2.03,1.44,2.521,1.44c2.359,0,7.96-4.17,9.359-6.12h0.721v1.44
	c-0.79,0.78-1.58,1.59-2.52,2.16c-0.931,0.55-1.951,0.92-2.881,1.44c-1.83,1.01-3.6,2.83-3.6,5.4c0,0.75,0.37,1.48,0.72,2.16
	c0.3,0.6,0.83,1.13,1.44,1.44c3.59-0.52,4.93,0.15,8.64-1.08c-0.5,0.99-0.94,2.15-0.72,3.24c0.18,0.92,0.86,2.16,1.8,2.16
	c1.931,0,4.02-0.79,5.399-2.16c1.411-1.42,2.341-3.26,3.24-5.04c0.91,4.57,3.061,5.15,2.521,10.08c1.159,1.16,0.87,1.44,2.88,1.44
	c2.24,0,2.07-1.44,4.32-1.44c-1.33,1.32-2.65,2.64-3.961,3.96c-1.489,1.48-1.439,4.02-1.439,6.12c0,1.31,5.359,2.33,6.479,2.52
	c0-0.81,0.511-1.6,1.08-2.16c0.541-0.55,1.11-1.1,1.8-1.44c0.341,0.68,1.041,1.28,1.801,1.44c0.83,0.16,1.66,0.36,2.52,0.36
	l1.44,5.04c-1.57,0.39-3.21,1.67-3.601,3.24c-0.439,1.75,0.36,3.59,0.36,5.4c0,1.07-1.44,1.8-1.44,2.88c0,1.23,4.32,1.62,6.841,1.8
	c3.13,0.22,5.19-1.22,8.64-0.72c-1.029,2.04-1.311,2.45-3.6,3.6v1.8c0,1.07,0.72,1.16,0.72,2.52c1.47-0.5,3.12,0.19,4.681,0
	c1.549-0.2,3.199-1.15,3.959-2.52c0.65-1.2,0.7-2.65,1.08-3.96c0.156-0.564,0.415-1.113,0.725-1.633
	c0.043-0.21,0.137-0.381,0.304-0.488c0.416-0.58,0.916-1.096,1.492-1.479h0.72v0.72c-0.69,0.34-1.49,0.38-2.16,0.72
	c-0.021,0.01-0.033,0.027-0.052,0.039c-0.112,0.157-0.205,0.323-0.304,0.488c-0.079,0.389-0.005,0.892-0.005,1.273
	c0,2.07-0.12,2.52,2.161,2.52c0.789,0,6.069-2.75,7.56-3.24c0.38,0.77,1.15,0.68,1.8,0.36c0,1.66,0.93,3.79,2.52,4.32
	c1.701,0.56,3.601,0,5.4,0v0.72c-2.92,2.91-2.76,3.42-2.16,7.56l-9.359,2.52c-0.391,1.92-0.721,4.52-0.721,6.48
	c0,2.62-0.13,7.2,3.961,7.2c2.109,0,3.56-1.44,5.399-1.44c-2.021,1.61-3.37,4.43-5.04,6.84c-1.13,1.61-1.44,6.18-1.44,8.28
	c0,2.05,1.07,4.02,2.161,5.76c1.13,1.82,3.609,2.88,5.759,2.88c3.57,0,6.2-3.15,7.2-6.12c1.041-3.13,2.51-6.46,3.601-9.72
	c2.779,3.48,2.1,4.67,3.239,8.64l7.201,1.44c-1.591,0.39-3.781,0.08-4.681,1.44c-0.851,1.26-0.601,3.05-1.439,4.32
	c-0.391-0.78-0.841-1.55-1.44-2.16c-0.62-0.61-1.301-1.44-2.16-1.44c-1.279,0-2.71,1.25-2.88,2.52c-0.17,1.12-0.399,2.33-1.08,3.24
	c-0.8,1.06-2.75,5.23-3.24,6.48c-4.06,0.81-6.43,2.98-10.44,4.32c0,1.02-0.359,1.6-0.359,2.52c0,0.93,1.04,1.59,1.8,2.16
	c0.97,0.73,2.39,0.48,3.601,0.72c1.909,0.38,4.32,2,4.32,3.96c0,0.9-1.791,1.8-2.521,1.8c-0.54,0-1.07-0.35-1.44-0.72
	c-0.31-0.31-0.65-0.72-1.08-0.72c-4.39,0-6.12,3.89-6.12,7.56c0,2.09,0.221,4.41,1.44,6.12c0.5,0.7,0.82,1.55,1.439,2.16
	c0.591,0.6,1.801,0.95,1.801,1.8c0,1.4-0.721,2.75-1.44,3.96c-0.36,0.58-0.88,1.06-1.44,1.44c-0.609,0.4-0.359,1.43-0.359,2.161
	c0,2.01,0.93,2.3,1.439,4.319c-2.839-0.71-3.399,0.36-5.399,0.36c-0.811,0-1.439-0.721-2.16-1.08h-2.159
	c-5.061,0-4.591,1.59-4.32,6.12c0.1,1.81,0.459,3.6,0.72,5.4c0.21,1.489-0.979,3.029-2.16,3.959c-3.79,2.971-9.06,2.541-12.601,4.32
	c-1.219,0.601-2.979,3.851-3.959,5.04c-0.55,0.65-1.48,1.01-1.8,1.8c-0.48,1.131,0.47,2.4,0.72,3.601
	c0.22,1.109-1.08,2.1-1.08,3.239c0,0.641,0.47,1.2,0.72,1.8h3.24c-1.75,1.301-3.87,2.531-5.761,3.961
	c-1.659,1.229-4.229,1.699-5.039,3.6c-0.66,1.52,1.189,3.689-1.08,7.92c-2.11,3.899-3.4,4.69-7.561,6.48c0,1.32,0.25,2.66,0,3.96
	c-0.26,1.25-1.82,1.81-2.88,2.52c-0.989,0.65-1.44,2.06-1.44,3.24c0,1.36,0.641,2.66,1.08,3.96c-2.369,0.939-5.049,0.689-7.56,1.08
	c-1.44,0.22-3.73,0.37-3.96,1.8c-0.18,1.011-0.359,2.15-1.08,2.88c-2.76,0-5.65-0.359-8.279-0.359c-1.461,0-7.021,2.24-8.281,2.88
	c-4.209,2.1-8.109,8.92-12.239,11.88c0.38-2.31,0.58-5.59,0-7.921c-0.94-3.72-2.5-3.22-4.681-5.399
	c-0.969-0.97-1.26-2.72-2.52-3.239c-4.84-2.021-4.029-0.851-6.48-5.761l-5.399-0.72c-0.89-1.77-0.819-3.89-1.439-5.761
	c-0.601-1.77-2.101-3.959-3.96-3.959c-1.621,0-2.161,2.709-2.161,4.319c0,1.931,0.241,3.881,0.721,5.761h-1.08
	c-1.72-2.141-3.83-4.541-5.761-6.48c-2.609-2.609-6.869-2.95-8.279-3.96c-3.07-2.189,0.18-3.78-6.84-6.12
	c-3.11-1.04-5.73-3.96-9-3.96c-1.83,0-1.96,4.84-6.12,4.32c-1.83-0.23-3.58-1.291-5.4-1.08c-1.61,0.17-4.32,0.55-4.32,2.159
	c0,2.75,4.12,6.491,6.12,7.921c-10.98-1-14.39-9.721-25.92-9.721c-1.62,0-2.56,2.011-3.6,3.24c-0.78,0.9-1.69,1.681-2.52,2.521
	c-0.88,0.869-2.07,1.41-3.24,1.8c-0.84-0.511-5.23-2.52-6.12-2.52c-1.15,0-2.98,1.209-3.6,2.159h-0.72
	c0.45-2.74,1.16-4.89-1.44-6.84c-4.06-3.04-1.83-1.48-2.52-5.4c-0.61-3.449-1.55-4.51-5.04-5.039c-2.74-0.421-5.52,0.359-8.28,0.359
	c0.54-3.8,3.6-4.93,3.6-7.199c0-1.36-1.54-2.711-2.88-2.881c-1.14-0.14-2.64-0.119-3.24-1.08c-1.52-2.39-1.85-5-4.32-7.92
	c-3.31-3.9-4.82-3.07-9.36-2.159c0-8.181-2.76-10.161-10.08-12.601c0.61-1.859,1.08-2.19,1.08-4.32c-0.64-0.42-3.98-1.8-4.68-1.8
	c-0.87,0-1.47,0.92-2.16,1.44c-0.83,0.619-1.69,1.199-2.52,1.8c-0.84,0.59-1.35,1.55-2.16,2.16c-0.7,0.52-1.3,1.439-2.16,1.439
	c-0.62,0-0.72-1.13-0.72-1.439c0-1.11,0.22-2.25,0.72-3.24c0.44-0.89,0.72-1.89,0.72-2.88c0-1.67-2.24-2.27-3.24-2.52
	c0.66-2.331,2.52-7.581,2.52-9.721c0-2.09-2.16-2.16-3.6-2.16c-5.28,0-10.89,3.75-15.84,5.4c0.44-2.24,2.52-3.97,2.52-5.76
	C80.28,155.63,79.65,154.84,78.84,154.44z M186.48,24.48v7.2c-1.86-2.32-3.8-3.91-6.12-5.76C183.03,25.92,183.9,24.99,186.48,24.48z
	 M346.32,200.521c0.19,1.789,0.36,3.59,0.36,5.399c0,13.64-1.261,22.55-7.92,34.561l-19.44-15.841c0.37-1.899,1.54-3.569,2.16-5.399
	c0.56-1.71-0.36-3.64,0-5.399c3.49-1.75,16.92-10.211,16.92-14.4c0-0.881-0.98-1.75-1.8-2.16c-1.681,2.09-4.87,3.87-7.2,5.04
	l-1.08-3.601c0.9-0.91,1.61-1.979,2.521-2.879c0.829-0.841,1.06-2.121,1.44-3.24c6.369-0.58,16.92-2.471,16.92-10.8
	c0-2.141-1.44-4.911-1.44-7.921h0.72c5.37,7.53,9,18.44,9,27.721c0,4.72-0.38,10.109-2.52,14.399c-0.921-4.58-0.99-8-2.521-12.6
	c-0.58-1.73-4.47-10.44-6.479-10.44c-0.841,0-1.08,0.73-1.08,1.44C344.88,196.49,346.08,198.431,346.32,200.521z M313.201,231.12
	l20.52,15.12c-1.9,3.78-5.851,5.55-9.721,6.84c-3.359-2.391-6.719-3.72-10.08-6.12c-3.459-2.47-5.759-4.96-5.759-9.72
	C308.161,235.4,312.49,236.021,313.201,231.12z M315.72,259.92c-3.641,1.03-6.83,1.08-10.439,1.08
	c-10.791,0-19.601-1.25-29.881-4.68c7.59-11.4,16.561-2.53,23.04-9C303.85,252.73,309.68,255.61,315.72,259.92z M241.56,262.439
	c-0.63,0.311-1.13,0.911-1.8,1.081c-0.591,0.14-1.44-0.48-1.44-1.081c0.43-0.22,2.03-1.079,2.521-1.079
	C241.83,261.36,241.201,261.9,241.56,262.439z M236.88,253.801c2.489-2.5,3.239-3.341,3.239-7.2c0-1.521-1.149-4.08-1.8-5.4
	c0.67,0.34,1.41,0.57,2.16,0.72c0.681,0.131,1.48-0.46,1.801-1.079c0.889,1.34,1.759,2.75,2.159,4.319
	c0.38,1.55,1.08,3.08,1.08,4.681c0,2.51-1.569,5.359-2.88,7.56L236.88,253.801z M246.96,259.2c-0.69-0.34-1.73-0.21-2.16-1.08
	C245.911,257.56,245.919,258.681,246.96,259.2z M220.32,244.801l3.24-2.521c2.79,5.58,5.59,6.67,9.721,10.8h-0.721
	C227.69,250.65,224.21,248.689,220.32,244.801z M232.201,257.76c0,0.98-0.61,2.16-1.801,2.16c-0.36,0-0.72-0.369-0.72-0.72
	c0-1.1,0.31-0.63,0.72-1.44H232.201z M171.72,227.521c-0.72,3.58-2.68,11.16-7.56,11.16c-1.56,0-1.8-1.69-1.8-2.88
	c0-1.841,0.57-1.73,1.08-3.241c1.55,0,2.96-1.029,4.32-1.8C169.23,229.91,170.51,228.72,171.72,227.521z M147.24,215.28v2.88
	c-9.51,4.22-15.15,10.34-23.4,15.84c-4.36,2.89-8.73,5.41-12.96,8.64l-7.56,5.761c-0.75,0.56-7.38,4.68-7.92,4.68
	c-1.48,0-5.17-4.93-5.76-6.12C107.62,232.15,123.87,220.14,147.24,215.28z M73.44,178.56c1.38-3.759,7.94-13.549,11.16-15.839
	c2.58-1.85,6.61-2.21,9.72-3.24c-0.41,2.82-2.16,6.26-2.16,8.64c0,2.35,1.1,2.7,3.24,3.24c-1.09,3.24-0.29,6.27-0.72,8.64
	c-0.43,2.32-1.8,4.48-1.8,6.841c0,0.76,0.89,1.799,1.44,1.799c0.47,0,4.23-5.459,4.68-6.119c2.46-3.7,4.65-5.93,8.64-7.92
	c0.38,0.779-0.72,1.64-0.72,2.52c0,0.99,0.72,1.89,0.72,2.88c2.54,0.51,7.34,2.47,9,4.681c0.61,0.819,1.25,7.439,1.8,9.359
	c1.5-0.31,5.23-1.439,6.48-1.439c1.68,0,4.79,5.26,5.4,6.479c0.64,1.29,0.99,2.75,1.8,3.96c0.74,1.11,2.25,1.801,3.6,1.801v0.719
	c-0.63,0.311-1.58,0.41-1.8,1.08c-0.2,0.58-0.09,1.25-0.36,1.801c-7.94,2.64-17.54,7.819-24.48,12.6
	c-7.85,5.391-16.54,13.12-23.76,19.44c-5.06-7.591-7.56-23.16-7.56-32.4c0-3.33-0.33-6.66,0.36-10.08c0.36-1.85,2.52-8.13,2.52-9.36
	c0-0.839-0.74-1.08-1.44-1.08c-3.26,0-10.85,20.291-11.88,23.4C67.32,199.21,69.39,189.54,73.44,178.56z M41.04,237.96
	c5.4,10.8,9.91,15.86,16.92,25.2L54,267.12C47.16,260.28,41.91,247.56,41.04,237.96z M60.48,274.32c-3.83,3.819-4.68,6.11-9.72,9.72
	c-7.94,5.66-16.36,9-26.28,9c-9.41,0-22.32-7.739-22.32-18.359c0-12.08,10.82-16.891,20.88-18l0.36,0.72
	c-7.32,2.44-13.32,5.19-13.32,14.4c0,8.56,8.71,11.52,15.84,11.52c6.4,0,15.74-4.631,21.24-7.92c2.88-1.73,14.76-11.62,14.76-14.761
	c0-1.14-1.58-1.77-1.8-2.88c-0.29-1.439-0.72-2.859-0.72-4.32c0-8.699,5.02-12.099,12.96-13.68v0.721
	c-3.61,3.6-5.04,5.01-5.04,10.439c0,1.171,0.04,5.4,2.16,5.4c1.17,0,5.87-4.69,6.84-5.4c2.46-1.85,5.11-4.42,7.56-6.48
	c5.13-4.349,10.04-9.009,15.12-13.319c8.62-7.33,21.79-15.37,32.4-19.439c0.34,1.399,1.43,3.239,2.88,3.239
	c1.8,0,3.59-0.36,5.4-0.36c-13.18,5.061-23.78,10.491-35.28,18.721c-4.6,3.271-28.08,20.939-28.08,25.92c0,0.97,3.17,1.8,3.96,1.8
	c7.01,0,10.57-4.02,16.56-4.68c3.01-4.229,8.4-6.05,12.6-9.36c12.16-9.609,24.69-18.95,38.16-26.64c1.21,2.439,1.68,2.399,3.6,4.319
	c-11.47,8.591-21.49,19.48-33.12,28.08c-5.34,3.94-11.26,7.391-16.92,10.801c-7.42,4.449-13.21,4.68-21.6,4.68h-5.04
	c-1.94,0-3.47-2.16-5.4-2.16c-1.96,0-2.84,2.69-4.32,3.96C63.25,271.32,61.92,272.88,60.48,274.32z M159.84,276.48
	c3.58,2.56,5.04,6.04,5.04,10.439c0,1.381,0.18,1.601-0.36,3.24c-1.01-9.021-4.33-12.24-13.68-12.24c-10.2,0-22.89,4.261-33.12,6.12
	c0.86-0.439,1.65-1.01,2.52-1.439c0.83-0.42,2.16-0.87,2.16-1.8c0-2.051-4.08-0.361-6.12-0.361c-2.44,0-6.03,0.12-8.28,0
	c-6.69-0.38-14.43-1.77-21.24-2.52c-3.19-0.36-6.31-1.8-9.72-1.8h-2.52l-0.36,1.8c2.5,3.511,5.31,6.39,8.28,9.36h-0.72
	c-6.77-4.83-11.67-6.63-18-12.96c1.89-1.9,3.08-3.3,5.4-4.681c11.09,7.4,23.22,7.92,36.36,7.92c14.63,0,26.82-3.009,41.04-5.039
	c-0.58,1.149-0.13,0.83,0.36,1.8C150.99,273.86,156.29,273.95,159.84,276.48z M117.36,259.2c-0.97,0-1.92-0.359-2.88-0.359
	c-0.62,0-1.26-0.091-1.8-0.36c13.92-8.95,24.48-20.28,37.44-30.24c-0.15,1.311,0.11,12.93,0.36,13.68
	c1.34,4.05,6.02,6.101,9.72,6.84C147.88,254.91,131.37,259.2,117.36,259.2z M161.28,246.601c-5.25,0-9-3.78-9-9
	c0-2.12,2.58-7.2,5.04-7.2c1.36,0,2.44,1.18,4.32,0.72c-0.58,1.15-1.8,4.439-1.8,5.76c0,3.16,2.81,3.891,5.4,4.32
	c6.86-4.91,8.28-7.73,8.28-16.561c2.48,0.49,5.19-0.189,7.56,0.721c4.87,1.87,8.52,6.68,13.32,8.279c3.62,1.211,5.78-0.13,9,1.8
	c1.84,1.111,3.59,3.411,5.04,4.32c1.58,0.99,2.44,3.601,4.32,3.601c1.521,0,2.26-2.07,3.239-3.24c1.08-1.311,2.301-2.51,3.601-3.6
	c1.229-1.051,2.45-2.101,3.601-3.24c1.129-1.141,2.699-2.16,4.319-2.16c1.229,0,3.04,2.4,3.6,3.24c-2.62,2.09-5.01,2.99-7.56,5.04
	c-1.08,0.85-6.12,4.979-6.12,6.12c0,1.1,4.53,4.52,5.4,5.039c1.59,0.95,5.27,3.121,6.479,4.32l-1.08,0.721
	c-2.49-1.24-4.5-3.28-6.84-4.681c-1.119-0.67-2.33-1.25-3.239-2.16c-0.741-0.729-1.491-1.8-2.521-1.8
	c-0.62,0-0.721,1.131-0.721,1.44c0,1.03,1.061,1.789,1.801,2.52c0.79,0.8,1.25,1.89,1.8,2.881c0.99,1.79,2.46,4.18,3.24,6.119
	l-3.6,2.52c-0.73-2.169-3.75-11.159-6.84-11.159c-0.61,0-1.02,0.65-1.44,1.08c-0.38,0.37-0.91,0.72-1.44,0.72
	c-1.21,0-2.04-1.31-2.88-2.16c-0.91-0.91-1.98-1.619-2.88-2.52c0.72-0.36,1.59-0.521,2.16-1.08c0.56-0.57,1.08-1.36,1.08-2.16
	c0-1.05-12.39-10.44-14.04-10.44c-1.9,0-2.4,2.98-3.24,4.681c-0.97,1.93-1.74,3.989-2.16,6.12h-5.76c0.99-4,9.36-10.79,9.36-11.881
	c0-1.839-2.95-2.299-4.68-2.88c-2.06-0.689-4.19-1.2-6.12-2.159c-2.31,4.609-2.91,7.649-6.48,11.88
	C170.88,242.74,164.37,246.601,161.28,246.601z M192.96,280.801h-1.08l1.08-2.161C194.47,279.14,193.62,280.13,192.96,280.801z
	 M205.56,259.56c-0.32,0.621-1.08,1.16-1.08,1.801v3.96c1.12,0.56,1.47,1.08,2.88,1.08c-0.52,2.569-1.24,8.28-2.52,10.44
	c-0.88,1.46-2.37,2.64-3.96,3.239c-1.64,0.609-3.35,1.011-5.04,1.44c0.64-1.95,0.36-2.07,0.36-3.961c-0.3-0.3-2.95-1.8-3.24-1.8
	c-1.46,0-3.6,3.36-3.6,4.68c0,1.091,2.21,2.261,3.24,2.521c-0.46,0.221-4.63,2.16-5.4,2.16c-1.48,0-16.92-14.1-16.92-15.12
	c0-3.319,1.47-8.8,2.16-12.24c0.3,0.601,0.87,1.061,1.44,1.44c0.53,0.351,1.15,0.72,1.8,0.72c1.7,0,3.24-2.42,3.24-3.96
	c0-1.3-1.05-2.58-2.16-3.24c-1.04-0.619-2.47-0.379-3.6,0c0-0.85,0.36-1.669,0.36-2.52c0-0.7,0.45-1.49,1.08-1.8
	c4.47-0.9,12.77-1.44,17.28-1.44c4.58,0,15.11,7.55,18.36,10.8l-1.08,3.24C208.5,260.021,206.67,259.56,205.56,259.56z
	 M207.36,262.08l-0.36,1.8h-0.72l0.36-1.8H207.36z M174.24,254.88h1.44l0.72,1.44l-1.8,1.08
	C174.18,256.57,174.24,255.88,174.24,254.88z M208.08,274.32c0-0.22,0.72-1.67,0.72-2.52c0.51,0.169,3.04,0.72,3.6,0.72
	c0.381,1.55,0.98,3.229,1.44,5.039C212.01,277.56,208.08,277.16,208.08,274.32z M216.36,276.12l-1.079-1.8H216l0.721,1.8H216.36z
	 M219.6,287.64l-0.36-2.159h1.08c0.47,0.95,0.72,0.899,0.72,2.159H219.6z M236.88,292.32h-1.08c-0.19-0.55-0.36-0.311-0.36-1.08
	c0-1.59,0.33-1.25,1.44-1.801C237.35,290.38,237.36,291.351,236.88,292.32z M250.919,284.04h-1.8v-1.08l2.161-0.359L250.919,284.04z
	 M250.919,279.72c-1.459,0.36-3.13,0.9-3.959,2.16c-0.811,1.2,0,2.91,0.359,4.32c-3.01,1.5-4.479,2.13-7.2,4.32
	c-0.419-0.82-0.439-1.881-1.08-2.521c-0.649-0.649-1.609-1.08-2.52-1.08c-2.04,0-3.96,2.32-3.96,4.32c0,0.87,1.81,2.77,2.52,3.24
	c-0.58,0.279-1.16,1.079-1.799,1.079c-0.971,0-1.841-0.759-2.521-1.439c-0.69-0.689,0.069-2.02-0.36-2.88
	c-0.84-1.681-2.449-3.601-4.32-3.601c-0.34,0-0.72,3.601-0.72,4.32c-1.68-0.56-2.04-0.95-3.24-2.159
	c1.141-0.57,1.44-0.911,1.44-2.521c0-2.95-3.23-4.32-5.76-4.32l-0.721-4.32c0.881,0,1.79-0.359,2.521-0.72
	c0-1.439-0.36-2.17-0.36-3.6l4.32,2.88h-2.16c-0.439,0.87-1.08,1.859-1.08,2.88c0,1.29,0.92,2.83,2.16,3.24
	c1.25,0.41,2.63,0.36,3.96,0.36l0.721,2.16c0.649-0.331,1.439-0.57,1.439-1.44c0-0.83-2.8-6.58-3.24-7.92
	c1.771-0.591,7.921-2.66,7.921-5.041c0-1.139-2.82-0.029-3.241-1.079c-0.399-1-1.81-1.44-2.879-1.44
	c-2.291,0-4.681,0.83-4.681,3.601c0,1.359,1.91,0.109,1.08,1.8c-2.359-1.42-4.5-3.22-7.2-3.601v1.44
	c-0.44-0.15-2.88-2.28-2.88-2.521c0-1.25,0.58-1.38,1.439-1.799c0.311,0.619,0.491,1.409,1.08,1.799c0.601,0.4,1.42,0.36,2.161,0.36
	c1.43,0,4.319-1.96,4.319-3.6c0-0.49-1.48-2.2-1.8-2.521l0.72-0.72c0.62,0.94,2.45,2.16,3.6,2.16c3.131,0,3.24-2.95,3.24-5.04
	c0.421,0.42,0.87,0.89,1.44,1.08c0.609,0.199,1.149,0.72,1.8,0.72c1.73,0,3.6-2.22,3.6-3.6c0-0.7-0.5-1.421-1.08-1.8
	c-0.51-0.34-1.02-0.66-1.439-1.08c1.359,0,2.891,0.22,3.96,1.08c1.09,0.87,2.431,1.379,3.6,2.16c-1.29,0.64-3.959,2.43-3.959,3.96
	c0,1.8,2.379,2.88,3.959,2.88c0.721,0,1.641,0.149,2.161-0.36c0.42-0.431,0.649-1.02,1.079-1.44c0-2.13-0.13-1.82-0.72-3.6
	c1.58,0.79,3.54,1.15,4.68,2.521c1.021,1.229,1.26,2.979,2.16,4.319v0.721c-0.63-0.32-1.18-0.771-1.8-1.081
	c-0.63-0.32-1.11-1.079-1.8-1.079c-2.29,0-3.24,2.449-3.24,4.319c0,2.53,1.58,3.96,3.96,3.96c0.88,0,1.79-0.359,2.52-0.72
	c0.57-1.73,0.721-2.01,0.721-3.96l3.239,11.88C252.12,280.681,251.46,280.81,250.919,279.72z M223.919,281.521h-0.719
	c-0.581-0.29-1.121-1.021-0.721-1.801h1.08L223.919,281.521z M246.96,270.72c-0.36,0.36-0.58,1.081-1.08,1.081
	c-0.711-0.361-1.08-1.101-1.08-1.801c0-0.62,0.5-1.26,0.72-1.8l1.8,0.359C247.32,269.29,247.47,270.2,246.96,270.72z M255.24,279.72
	c-1.279-6.39-3.34-12.539-5.399-18.72h0.72c5.84,3.9,10.75,4.48,16.92,7.56c0.33,1.021,0.681,2.121,1.439,2.88
	c0.721,0.73,1.531,1.471,2.521,1.801v0.72C264.05,273.96,260.5,274.45,255.24,279.72z M343.44,286.92h-0.72
	c1-1.01,6.48-7.03,6.48-7.92c0-1.14-0.181-1.8-1.44-1.8c-2.641,0-12,2.33-15.479,2.88c-5.061,0.79-10.741,1.44-15.841,1.44
	c-2.771,0-5.529-0.15-8.279-0.36c-2.411-0.19-4.801-0.721-7.2-0.721c-0.74,0-1.471-0.589-2.16-0.359c-0.57,0.18-1.02,0.65-1.44,1.08
	c1.301,1.3,2.16,2.34,3.96,3.24c-10.71-1.95-21.359-5.761-32.4-5.761c-6.119,0-8.189,1.161-10.079,6.841
	c-0.32-0.63-0.95-1.12-1.08-1.8c-0.19-0.95,0-1.921,0-2.88c3.819-3.831,6.529-4.32,11.88-4.32c1.55,0,3.141-0.261,4.68,0
	c1.2,0.2,3.6,0.5,3.6-0.721c0-0.479-3.869-2.479-4.68-2.88v-0.72c11.48,4.779,28.541,6.84,41.041,6.84
	c13.81,0,30.359-1.909,43.199-6.84c0.301,0.6,0.87,1.06,1.439,1.44c0.491,0.33,1.08,0.839,1.08,1.439
	C360,276.87,345.69,285.79,343.44,286.92z M402.48,294.48c-10.21,0-28.069-9.57-35.64-16.2c-2.2-1.92-4.4-4.4-6.48-6.479
	c-0.74-0.73-0.86-2.111-1.8-2.521c-4.359-1.91-11.34-0.091-16.561-1.439c-15.979-4.151-30.33-10.891-42.119-22.681
	c3.01,0,4.369-0.521,7.199-1.08c5.511,5.511,10.73,8.07,17.641,11.521c4.609,2.31,17.34,6.479,22.319,6.479
	c0.771,0,3.96-0.489,3.96-1.8c0-1.79-2.35-2.7-3.6-3.96l-3.96-3.96c-3.1-3.101-5.8-4.851-9-7.56c-6.729-5.69-13.46-9.861-19.8-16.2
	c1.67-0.561,2.021-0.95,3.24-2.161c8.21,4.561,15.199,11.901,22.32,18c3.01,2.581,5.649,4.57,8.64,7.561
	c1.31,1.32,2.52,2.76,3.96,3.96c1.17,0.979,2.06,2.881,3.6,2.881c2.74,0,4.68-6.421,4.68-8.641c0-1.561-0.699-3.22-1.799-4.32
	c-1.15-1.14-2.351-2.26-3.241-3.6c6.38,3.189,11.161,10.17,11.161,17.64c0,1.75-1.081,3.72-1.081,5.761h-0.72
	c-0.439-0.88-0.239-1.44-1.439-1.44c-0.65,0-1.08,0.41-1.08,1.08c0,7.5,29.88,21.6,37.08,21.6c6.439,0,12.6-8.819,12.6-14.76
	c0-3.39-0.779-6.01-2.88-8.64c-2.33-2.91-4.061-3.54-6.84-5.761c8.04,1.61,19.079,6.541,19.079,16.2
	C421.919,283.351,412.12,294.48,402.48,294.48z M92.16,128.88c1.64,3.3,3.66,5.16,4.68,9c0.47,1.8,0.4,3.85,1.44,5.4
	c0.86,1.29,0,3.12,0,4.68c2.55,5.1,3.77,6.38,9,9c-2.71,4.5,0.51,3.65,2.16,5.76c1.8,2.33,0.96,3.589,3.96,6.121
	c1.36,1.149,3.25,1.96,3.96,3.6c0.42,0.979,0.77,2.029,1.44,2.88c1.26,1.62,4.03,1.79,5.04,3.6c1.04,1.89,0.83,4.431,3.24,6.84
	c1.72,1.73,2.82,3.55,4.68,5.4c2.06,2.06,2.6,2.69,5.04,4.32c1.08,0.72,1.97,1.95,2.16,3.239c0.17,1.261,1.24,2.881,2.52,2.881
	c3.46,0,3.96-8.51,3.96-10.8c0-0.65-0.52-1.19-0.72-1.801c-0.21-0.62-0.72-1.159-0.72-1.8c0-1.13,0.42-2.02,1.44-2.52
	c0.66,7.279,4.82,9.899,5.76,16.92c0.33,2.5-1.08,5.14-0.36,7.56c0.55,1.899,5.93,5.399,7.56,5.399c0.88,0,1.44-1.06,1.44-1.8
	c0-2.709-1.44-6.63-1.44-10.439c0.26,0.66,2.28,5.05,2.88,6.12c1.07,1.93,1.65,4.279,1.44,6.479c-0.19,1.82-1.08,3.561-1.08,5.4
	c0,1.63,1.29,3.56,2.88,3.96c0.51-0.521,0.87-1.65,0.36-2.16c-0.36-0.36-0.72-0.72-1.08-1.08c1.74-0.88,3.08-2.58,3.96-4.32
	c0.88-1.779,3.44-2.129,5.4-2.52c0.38,0.77,0.82,1.55,1.44,2.16c0.56,0.56,1.35,1.079,2.16,1.079c1.08,0,3.96-0.779,3.96-2.159
	c0-1.8-2.72-2.439-4.32-3.24c-1.32-0.66-2.79-1.31-3.6-2.52c-0.84-1.261-1.33-2.711-2.16-3.961v-0.719h0.72
	c0.34,0.68,1.11,1.09,1.8,1.439c0.67,0.34,1.4,0.72,2.16,0.72c0.96,0,1.75-0.63,2.16-1.44c1.25,1.25,2.9,2.521,4.68,2.521
	c1.8,0,3.67-0.87,5.4-0.36l13.32,3.961c1.51-1.521,0.77-0.74,2.88-1.44c-0.66-1.96-0.81-1.23-2.52-1.8l-0.72-5.76
	c3.6,2.569,5.04,3.06,9,5.039c1.58,0.79,3.14,1.641,4.681,2.521c1.39,0.79,2.699,2.16,4.319,2.16c1.479,0,1.8-1.41,1.8-2.521
	c0-2.029-3.89-5.63-5.4-6.84v-0.72h0.721c3.859,1.93,7.54,3.05,11.521,5.04c0,0.84,0,1.68,0,2.52c0,0.641,0.259,1.34,0.72,1.801
	c1.81,0.6,2.53,0.699,3.96-0.721c0.899,0.9,1.329,2.4,2.52,2.881c1.47,0.579,10.86,3.96,11.88,3.96c0.66,0,1.08-0.44,1.08-1.081
	c0-2.319-3.02-5.51-4.68-6.84v-0.72c3.85,0.771,8.141,1.21,11.521,3.24c1.39,0.84,3.14,1.46,3.959,2.88
	c0.891,1.57-0.72,3.58-0.72,5.4c0.67,0.67,4.46,1.8,5.4,1.8c1.51,0,6.84-1.601,6.84-3.601c0-0.62-2.851-6.84-3.24-7.56
	c-1.34-2.45-2.949-5.011-3.96-7.561h1.44c2.31,6.931,10.439,6.561,10.439,12.601c0,0.91-0.909,1.62-1.08,2.52
	c-0.18,0.851-0.38,1.711-0.72,2.521c-0.319,0.739-0.72,1.44-1.08,2.159c-0.36,0.721-1.08,1.351-1.08,2.16
	c0,1.101,0.61,1.381,1.44,1.801c7.52-3.771,10.119-5.5,14.04-13.32c0,2.52-0.23,8.33-1.801,10.439
	c-1.029,1.36-4.259,2.931-5.759,3.601c-1.721,0.76-3.601,2.44-3.601,4.319c0,3.891,10.43,4.681,13.319,4.681
	c0.961,0,7.061-0.84,8.281-1.08c2.399-0.49,4.689-1.24,6.119-3.601c-1.01-0.67-2.199-2.279-2.52-3.6c0.82,0.41,1.51,0.36,2.52,0.36
	c0.73-0.37,1.44-1.14,1.44-2.16c0-1.18-1.28-2.069-1.44-3.24c-0.16-1.079,0.36-2.16,0.36-3.239c0-1.53-0.75-1.73,0-3.961
	c2.12-0.43,4.34-0.3,6.479-0.72c1.73-0.35,4.68-0.75,4.68-2.52c0-3.64-3.1-8.921-4.319-12.601c1.64,0.41,3.399,1.18,5.04,0.721
	c1.279-0.37,1.561-2.28,1.8-3.601c0.29-1.67-0.13-3.569,0.721-5.04c0.87-1.54,3.089-1.729,4.68-2.52c1.409-4.24,3.51-5.6,5.04-8.64
	c1.83-3.681-0.2-5.671,3.239-9.721c2.32-2.75,2.19-2.649,3.24-6.12c0.58-1.96-0.61-4.17,0-6.12c0.64-2.11,2.521-3.92,2.521-6.12
	c0-1.35-0.301-2.69-0.72-3.96c-0.4-1.19-1.081-2.35-1.081-3.6c0-4.49,0.73-6.22,3.24-9.72c1.961-2.75,3.72-5.79,5.76-8.64
	c3.721-5.23,6.84-13.22,6.84-19.8c0-1.33,0.32-2.83-0.359-3.96c-0.529-0.88-1.82-1.2-2.16-2.16c-0.58-1.6,0.03-3.53-0.72-5.04
	c-0.42-0.82-1-1.61-1.08-2.52c-0.17-1.82-0.34-5.04-2.16-5.04c-1.37,0-1.85,2.05-2.521,3.24c-0.889,1.55-2.009,3.16-3.6,3.96
	c0-0.97,0.66-1.97,0.36-2.88c-0.22-0.65-1.141-0.84-1.44-1.44c-0.84,1.25-1.229,2.78-2.16,3.96c-0.819,1.01-1.949,2.16-3.239,2.16
	c-1.841,0-3.39-1.59-4.68-2.88c-1.391-1.39-2.65-2.96-4.32-3.96c-1.62-0.97-3.721-1.2-5.04-2.52c-1.4-1.39-2.73-2.92-3.6-4.68
	c1.189,0,2.39,0,3.6,0c1.069,0,2.88-0.37,2.88-1.44c0-2.15-1.649-3.53-3.24-4.32c0.96-2.42,2.521-3.49,2.521-6.48
	c0-4.55-3.421-8.46-6.48-11.52c-0.44,0.86-1.84,0.75-2.52,1.44c-0.65,0.64-1.08,1.6-1.08,2.52c0,1.63,2.18,3.97,3.6,4.68v0.36
	c-2.1-1.57-3.18-2.93-5.76-3.96c-0.58,1.72-0.721,2-0.721,3.96c-2.35-1.88-3.949-3.22-6.119-5.4c-2.83-2.82-3.66-2.85-7.561-3.24
	c-5.45-0.55-10.869,0.59-15.84,0.36c-4.91-0.24-9.65-4.96-14.04-6.84l-0.72,5.04c-1.351-1.35-2.141-3.14-3.24-4.68
	c-1.05-1.47-2.52-3.24-4.319-3.24c-1.991,0-4.15,0.29-5.761,1.44c-1.489,1.06-3.22,2.16-5.04,2.16c-0.71,0-1.49-0.46-1.8-1.08
	c-0.32-0.63-0.59-1.31-1.08-1.8c-1.029-1.03-2.52-1.8-3.96-1.8c-3.04,0-7.46,0.58-10.44,1.44c0.301-0.62,0.41-1.55,0.721-2.16
	c-0.62-0.41-4.08-2.16-4.681-2.16c-1.609,0-3.13,0.69-4.68,1.08c-1.56,0.38-3.09,1.08-4.68,1.08c-1.28,0-2.23-1.43-2.88-2.52
	c-0.56-0.92-0.52-2.35-1.44-2.88c-0.99-0.57-2.16-0.72-3.24-1.08c-1.83,1.82-3.65,2.47-6.12,3.96
	c-2.72,8.13-12.52,10.35-20.16,11.88c0.31-0.63,0.9-1.12,1.08-1.8c0.15-0.63-0.72-1.16-0.72-1.8l-5.04,0.36
	c-1.49-3.46-4.19-3.83-6.84-6.48l-3.6,5.04c-3.03-2.16-6.63-2.41-10.44-4.32c0,0.96-0.18,1.93-0.36,2.88
	c-0.16,0.75-0.68,1.8-1.44,1.8c-1.08,0-1.89-1.05-2.88-1.44c-1.03-0.41-2.14-0.72-3.24-0.72c-4.42,0-10.65,3.8-13.68,6.84
	c-2.33-0.58-2.35-1.81-3.96-2.88c-0.89,1.76-1.42,3.54-2.16,5.04c-1.24,0-1.73-0.94-2.88-0.36c-1.23,3.67-2.9,10.72-5.04,13.68
	c-1.21,1.65-2.92,2.92-3.96,4.68c-5.62,9.35-8.26,13.31-20.16,14.4c-0.32,0.62-1.08,1.1-1.08,1.8c0,0.96,0,1.92,0,2.88
	c-7.09,0.64-14.36,4.18-21.24,6.48c-0.24,0.7-0.36,2.35-0.36,3.24c0,0.96-0.19,1.93,0,2.88c0.13,0.68,0.76,1.17,1.08,1.8l6.84,1.44
	c0.63,0.95,0.69,2.78,1.08,4.32c5.96,1.19,11.19,3.99,15.48,8.28C94.86,127.61,92.9,128.63,92.16,128.88z M147.24,186.841
	c0-1.32,0.74-3.371,1.08-4.681c0.92,2.79,1.17,5.69,2.16,8.641C148.93,190.021,147.24,188.76,147.24,186.841z M150.12,192.24
	c0.08,0.21,0.5,1.27,0.72,1.8C149.96,193.601,149.58,193.301,150.12,192.24z M153.36,210.601c-0.36-0.7-0.72-1.32-0.72-2.16
	c0-1.1,0.31-0.631,0.72-1.44c0,2.12,0.12,1.81,0.72,3.601H153.36z M287.64,63c3.79,0,8.2,0.73,11.16,3.24
	c1.42,1.2,2.439,2.87,3.96,3.96c1.44,1.03,2.9,2.52,4.68,2.52c0.69,0,1.21-1.12,1.08-1.8c-0.16-0.75-0.39-1.48-0.72-2.16h0.72
	c0.729,0.97,4.03,3.6,5.399,3.6c0.83,0,1.08-0.74,1.08-1.44c0-0.76-0.189-1.63-0.719-2.16c-0.491-0.48-1.021-0.91-1.44-1.44
	c-0.43-0.53-1.07-0.88-1.44-1.44c-0.34-0.5-1.08-0.84-1.08-1.44c0-0.61,1.12-0.72,1.44-0.72c1.92,0,5.04,5.84,5.04,7.56
	c0,0.99-0.131,2.08-0.721,2.88c-0.629,0.82-1.479,1.54-1.799,2.52L285.84,66.6c-0.16-0.06-4.64-2.84-5.04-3.24
	C283.68,63.84,285.031,63,287.64,63z M255.24,55.44c1.69,0,2.57,2.24,3.601,3.6c1.76,2.35,2.42,3.47,5.04,5.04V57.6
	c15.4,10.26,35.07,13.78,50.039,23.76c-1-0.5-2.159-0.51-3.239-0.72c-0.899-0.18-2.52,0.16-2.52,1.08c0,1.66,0.949,3.73,2.52,4.32
	c1.66,0.62,2.8,2.23,3.96,3.6c3.5,4.14,5.779,3.45,9.359,6.48c1.161,0.98,1.961,2.39,3.24,3.24c1.33,0.89,2.7,2.16,4.32,2.16
	c1.01,0,3.391-2.03,3.96-2.88l1.08,1.8c1.25-0.84,2.89-1.1,3.96-2.16c1.03-1.04,1.3-2.79,2.52-3.6c0.391,1.97,1.801,3.75,1.801,5.76
	c0,1.22-0.341,2.97,0.72,3.6c0.87,0.52,2.16,1.14,2.16,2.16c0,5.6-3.521,15.51-6.841,20.16c-2.05,2.86-4.009,5.82-6.119,8.64
	c-2.25,2.98-2.881,5.6-2.881,9.36c0,1.69,0.25,3.41,0.721,5.04c0.32,1.16,0.359,2.39,0.359,3.6c0,3.48-2.14,4.22-2.88,7.2
	c-0.529,2.09,0.75,4.45,0,6.48c-1.189,3.16-3.62,4.129-4.319,6.479c-0.67,2.21-0.25,4.69-1.08,6.84c-0.75,1.92-2.58,3.24-3.601,5.04
	c-0.54,0.93-0.819,2.011-1.439,2.88c-1.22,1.671-4.011,1.811-5.04,3.601c-1.29,2.189-0.67,5.05-1.08,7.56
	c-2.87,0-4.08-0.63-5.76-2.88l-1.08,1.08c0.59,5.34,3.319,10.43,4.68,15.84c-2.02,0.4-4.08,0.49-6.119,0.721
	c-2.041,0.219-4.32,0.71-5.761,2.159c0.74,3.72,0.181,6.851,1.8,10.08v0.721c-3.21-1.611-4.53-1.9-7.56-4.32l-0.721,2.88l6.121,6.84
	c-2.891,1.439-9.5,2.52-12.601,2.52c-2,0-8.35-0.93-10.08-1.8c2.14-1.53,7.2-3.7,8.64-5.399c2.25-2.66,2.88-7.43,2.88-10.801
	c0-4.59-0.6-5.949-3.96-8.64c-1.819,3.011-0.189,4.78-2.52,8.28c-1.69,2.52-3.92,5-6.48,6.84h-0.72c0.69-1.75,2.16-4.57,2.16-6.48
	c0-2.869-1.779-5.5-3.96-7.199c-1.41-1.101-5.53-3.011-6.48-4.32c-0.71-0.97-0.239-2.43,0-3.6c0.161-0.841-1-1.541-1.8-1.8
	c-1.88,1.869-3.22,0.689-5.399,2.88c2.76,5.529,5.87,9.35,7.92,15.479c-2.83,1.41-3.19,1.44-6.479,1.44
	c1.479-5.961-2.601-8.4-7.561-10.44c-3.96-1.63-9.931-2.47-14.4-3.96l-0.72,1.08c1.61,3.24,3.91,4.99,6.479,7.561v0.719
	c-1.66-0.239-5.919-2.199-7.56-2.879c-1.271-0.53-2.81-1.23-3.239-2.521c-0.421-1.229-0.37-2.89-1.44-3.601
	c-0.43,1.271-0.87,2.66-1.801,3.601h-0.72c0-1.51-0.909-3.13-2.159-3.96c-1.44-0.96-3.101-1.51-4.681-2.16
	c-3.27-1.35-6.49-2.34-9.72-3.96c-0.36,0.7-0.72,1.32-0.72,2.16c0,1.5,1.19,2.8,2.161,3.96c1.08,1.3,2.39,2.4,3.6,3.601v0.72
	c-2-0.801-4.051-1.601-5.76-2.881c-0.86-0.649-2.13-0.689-2.88-1.439c-0.74-0.73-1.08-1.79-1.8-2.52
	c-8.17,2.039-4.44-7.561-8.64-7.561c-2.06,0-0.72,4.061-0.72,6.12c0,2.04-0.14,4.13,0.36,6.12c-1.37-0.91-2.69-1.86-3.96-2.88
	c-1.05-0.841-1.8-2.261-1.8-3.601c0-6.72,6.08-16.84,8.64-23.039c3.01-7.32,5.5-14.051,9-21.241c9.92-20.43,17.58-42.31,27.72-63
	c3.06-6.28,6.07-14.26,8.279-20.88C247.169,69.89,251.919,55.44,255.24,55.44z M207,48.24c1.62,0,1.05-0.39,2.52,1.08
	c-0.43,0.42-1.08,0.84-1.08,1.44s0.47,1.44,1.08,1.44c2.32,0,4.5-1.44,6.84-1.44c2.18,0,4.521-0.1,6.48-1.08l0.36,0.72
	c-0.911,0.9-1.98,1.61-2.881,2.52c-0.789,0.78-2.52,1.05-2.52,2.16c0,0.34,1.13,1.19,1.439,1.8c6.061-1.22,11.59-3.96,18-3.96
	c0.8,0,1.8,0.36,2.16,1.08c0.311,0.62,0.69,1.21,1.08,1.8c0.77,1.16,2.189,2.16,3.6,2.16c2.121,0,4.91-0.78,5.761-2.88h1.44
	c-6.601,8.79-7.771,20.56-12.601,30.24c-9.391,18.77-16.77,37.29-24.84,56.52c-5.48,13.04-11.91,25.73-17.28,38.879
	c-2.23,5.42-7.2,12.69-7.2,18.721c0,4.35,1.92,5.689,5.04,7.92c-3.36,0-5.14-1.38-8.28-2.16c-2.11-0.53-6.48,1.45-6.48-0.72
	c0-1.18,1.06-2.12,1.44-3.24c0.4-1.24,1.49-2.13,2.16-3.24c0.66-1.12,1.24-2.33,2.16-3.24c0.79-0.8,1.8-1.75,1.8-2.88
	c0-1.17-1.2-1.32-2.16-1.8c-0.43,0.84-0.73,1.62-1.8,2.16l3.24-33.84c1.26-13.19,5.08-27.68,7.2-41.04
	c3.58-22.73,4.75-46.03,10.08-68.4C205.5,48.37,205.27,48.24,207,48.24z M187.92,133.2c-2.64-2.64-8.64-9.12-8.64-12.96
	c0-5.4,6.18-9.36,11.16-9.36c1.07,0,0.98,0.39,1.8,0.72c-1.43,7.13-2.18,14.47-3.6,21.6H187.92z M129.96,61.2l2.52,0.72
	c3.89-5.46,7.12-6.12,14.04-6.12c0.49,0,0.94-0.36,1.44-0.36c0.53,0,0.97,0.44,1.44,0.72c0.91,0.55,1.8,1.44,2.88,1.44
	c1.48,0,2.16-2.96,2.16-4.32c1.22,0.61,9.44,3.6,10.44,3.6c0.93,0,1.45-1.29,1.8-2.16c0.38-0.96,1.06-1.79,1.8-2.52
	c2,2.01,4.48,4.94,6.84,6.12v0.72c-0.74,0-1.47,0.13-2.16,0.36c-0.57,0.18-1.08,0.84-1.08,1.44c0,0.32,0.2,0.61,0.36,1.08
	c12.04-1.01,18.31-2.02,27.72-10.08c0-0.84,0-1.68,0-2.52c0-0.68,0.83-1.14,1.44-1.44h0.72c-6.07,19.21-6.97,41.71-9.72,61.92
	c-1.22-0.81-3.13-1.44-4.68-1.44c-5.85,0-10.8,5.53-10.8,11.16c0,3.01,1.66,7.06,3.6,9.36c2.06,2.44,4.9,4.9,7.2,7.2l-5.4,34.92
	c-1.14,7.351-0.17,16.54-2.16,24.12c-0.4,1.51-1.22,3.09-2.52,3.96c-1.35,0.89-2.16,2.71-2.16,4.32c-0.7,0.27-0.95,0.72-1.8,0.72
	c-1.41,0-2.44-1.39-3.6-2.16c-1.39-0.93-2.94-1.6-4.32-2.52c0.77,3.9,3.74,9.27,6.12,12.6c-2.15,0.42-4.15,0.811-6.12,1.801
	c-0.9,0.89-0.72,2.489-0.72,3.599h-0.36c0-2.289,1.53-4.889,0.36-6.839c-1.07-1.771-3.07-3.05-3.6-5.041
	c-1.12-4.189-0.08-6.43-1.8-10.439c-1.35,0.89-2.61,2.11-3.24,3.6c-0.67,1.561-0.72,3.34-0.72,5.04c-2.95-8.84-3.25-18.04-5.04-27
	c-4.67-23.31-11.79-46.64-15.48-70.2L128.52,63C129.14,62.68,129.58,61.95,129.96,61.2z M84.96,111.24h0.72l0.36,1.08h-0.72
	L84.96,111.24z M95.04,117c-2.7,0-4.68,0.51-5.76,3.24c-0.99-0.33-2.14-0.84-2.52-1.8c-0.37-0.92-0.28-2-0.72-2.88
	c1.07-0.36,1.76-1.58,2.88-1.8c0.96-0.2,1.93,0.4,2.88,0.72c0.65-0.33,1.44-0.57,1.44-1.44c0-2-3.35-2.18-5.04-3.24
	c-1.58-0.99-4.38-2.54-6.12-3.24l-0.72,0.72l2.52,10.44c-0.77-0.38-1.78-0.35-2.52-0.72c0.63-2.54-0.75-3.73-2.88-4.68
	c-1.82-0.81-3.83-1.06-5.76-1.44c0-1.31,0.36-2.34,0.36-3.6c4.36-1.46,8-2.2,12.24-4.32c1.89-0.95,3.99-1.63,6.12-1.8
	c1.06-0.09,2.66-0.39,2.88-1.44c0.18-0.95,0-1.92,0-2.88c4.81-1.61,8.64-1.96,12.96-5.04c2.63-1.88,3.12-2.17,5.04-5.04
	c1.32-2,2.06-4.04,3.24-6.12c1.39-2.49,4.15-5.08,5.4-7.56c1.23-2.47,2.32-6.99,3.24-9.72c3.57,1.43,2.18,4.06,2.88,6.84
	c0.67,2.69,1.36,5.52,1.8,8.28c0.92,5.9,1.44,11.72,2.52,17.64c2.1,11.59,3.75,23.4,6.48,34.92c2.5,10.57,4.2,21.48,6.84,32.04
	c0.94,3.78,3.24,10.261,3.24,14.04c0,0.64-6.19,6.59-6.48,8.28c-0.22,1.2,0.72,2.37,0.72,3.6c0,3.4-0.06,6.75-0.72,10.08h-0.72
	c0-3.46-0.86-4.79-3.96-6.479c-2.78-1.521-4.38-2.971-6.48-5.4c-3.15-3.62-3.84-8.46-6.12-11.16c-2.67-3.16-8.74-7.109-11.16-10.439
	c-1.22-1.67-1.96-3.811-3.6-5.041v-0.72c1.28,0,1.8,0.89,1.8-1.08c0-2.04-2.6-3.25-4.32-4.32c-1.65-1.03-3.8-1.41-5.04-2.88
	c-1.33-1.56,0.24-4.17-0.36-6.12c-1.49-4.84-3.57-11.04-6.48-15.12c2.76-0.56,3.29-1.31,5.76-1.8c0.32-0.66-0.88-1.65-0.36-2.16
	c0.68-0.69,1.44-1.56,1.44-2.52c0-2.02-0.94-2.3-1.44-4.32c-1.04-0.35-2.48,0.41-3.24-0.36C96.48,118.44,95.76,117.72,95.04,117z
	 M137.88,82.8c-0.38,0.74-1.08,1.23-1.08,2.16c0,2.03,4.75,10.08,6.84,10.08c2.14,0,4.68-8.82,4.68-10.44
	c0-1.25-2.66-3.24-3.96-3.24C142.82,81.36,141.33,82.8,137.88,82.8z M145.8,84.6c0,1.5-1.86,6.17-2.88,7.2
	c-0.91-0.91-1.62-1.98-2.52-2.88c-0.76-0.76-1.44-1.81-1.44-2.88c0-1.03,1.87-0.88,2.88-1.08c1.01-0.21,1.48-1.8,2.52-1.8
	C145.38,83.16,145.8,83.57,145.8,84.6z M249.48,89.28c0.431,0,5.04-4,5.04-4.68c0-1.27-0.021-6.48-2.16-6.48
	c-1.13,0-4.77,2.49-5.76,3.24c0.45,1.38,0.311,2.91,0.72,4.32C247.701,87.02,248.07,89.28,249.48,89.28z M252,81.72
	c0,0.83,0.011,1.83,0.36,2.52c-0.949,0.31-1.94,1.12-2.88,1.44c-0.15-0.72-0.36-1.06-0.36-1.8C249.12,82.82,250.96,82.06,252,81.72z
	 M250.919,74.52c1.011-0.34,2.851-1.8,3.241-1.8c1.029,0,1.979,0.91,2.52,1.8c0.53,0.88,0.76,2.52,1.8,2.52
	c1.5,0,1.439-5.71,1.439-7.2c0-1.88-0.31-4.68-2.88-4.68c-1.009,0-7.199,6.36-7.199,7.56C249.84,73.88,250.47,73.63,250.919,74.52z
	 M257.04,69.48v2.16h-0.72C255.79,70.59,255.97,70.01,257.04,69.48z M207.72,72.36c0.84,0,1.42-1.05,1.8-1.8
	c0.36-0.72,0.72-1.44,1.08-2.16c2.649,1.06,3.62,2.04,4.681,4.68h2.159c-0.44-2.18-2.42-12.24-5.76-12.24
	c-0.33,0-5.76,8.22-5.76,9.36C205.92,70.95,206.57,72.36,207.72,72.36z M212.4,65.52l0.36,1.44l-1.08-0.36L212.4,65.52z
	 M137.52,80.28c0.45-0.91,0.72-2.13,0.72-3.24c0.82-0.42,1.51-0.36,2.52-0.36c0.8,0,1.59,0.51,2.16,1.08
	c0.61,0.61,1.64,0.72,2.52,0.72c0.91,0,0.64-0.87,1.08-1.44c-0.29-0.38-3.5-4.5-3.96-5.04c-1.23-1.43-2.45-3.6-4.32-3.6
	c-1.73,0-2.52,7.43-2.52,9c0,1.08-0.1,1.98,0.36,2.88H137.52z M139.32,73.08c0.84,0,0.54,0,1.08,1.08h-1.08V73.08z M203.4,85.32
	c0-1.67,6.73-9.72,7.2-9.72c1.36,0,6.12,9.01,6.12,10.44c0,1.18-0.27,1.6-0.721,2.52l-3.959,0.36c0,0.84-0.47,3.96-1.8,3.96
	c-1.08,0-1.36-0.72-2.52-0.72c-0.3-0.6-0.72-2.18-0.36-2.88C204.95,88.8,203.4,88.15,203.4,85.32z M252.72,141.48
	c2.23,6.72,4.01,16.96,5.04,24.121c0.94,6.6,1.26,11.17,4.319,17.279c12.29-6.63,22.69-18.06,35.28-24.84
	c-2.27-6.79-3.64-13.87-5.04-20.88c-0.689-3.43-0.99-6.97-1.8-10.44c-0.859-3.62-0.87-6.75-3.239-10.08l-32.041,21.6
	C253.85,139.17,253.49,140.31,252.72,141.48z M286.201,119.88l8.279,36.72l-20.88,14.04c-3.33,2.23-6.66,6.19-10.08,8.641h-0.72
	l-5.4-30.96c-0.199-1.11-1.689-5.3-2.16-6.48l21.601-14.4C279.94,125.37,283.14,122.06,286.201,119.88z"/>
</svg>
