<?xml version="1.0" encoding="utf-8"?>
<!-- Generator: Adobe Illustrator 14.0.0, SVG Export Plug-In . SVG Version: 6.00 Build 43363)  -->
<!DOCTYPE svg PUBLIC "-//W3C//DTD SVG 1.1//EN" "http://www.w3.org/Graphics/SVG/1.1/DTD/svg11.dtd">
<svg version="1.1" id="Layer_1" xmlns="http://www.w3.org/2000/svg" xmlns:xlink="http://www.w3.org/1999/xlink" x="0px" y="0px"
	 width="1031.855px" height="551.36px" viewBox="0 0 1031.855 551.36" enable-background="new 0 0 1031.855 551.36"
	 xml:space="preserve">
<path d="M97.338,136.348c16.888,0,23.492-3.577,36.252-14.205l0.723,14.205h68.928c2.545-6.775,3.508-15.409,4.265-22.735
	c1.685,7.567,2.545,15.099,4.265,22.735h75.325h52.59c26.175,0,27.86,0.826,47.603-15.615h1.411l0.722,15.615h112.988h71.783
	c11.454,0,23.457,0.551,34.808,0c12.864-0.584,20.912-6.157,30.577-14.205l0.723,14.205h68.928l4.953-22.735
	c0.825,8.323,1.754,14.583,3.577,22.735h299.892l4.952-65.351l-52.59-1.445V51.805c3.439,0,3.405,0.068,6.397-1.444V2.035L975,0.625
	l-81,2.132V50.36c3.232,1.65,2.304,1.444,6.397,1.444v17.748H852.76V51.805c1.444,0,2.924,0.447,4.265,0
	c0.963-0.344,1.445-1.444,2.133-2.133V2.757l-2.133-2.132l-80.313,1.41V50.36c3.268,1.65,2.339,1.444,6.397,1.444v34.086h-2.82
	c-1.479-14.756-5.503-29.305-7.808-44.061c-1.032-6.501-7.498-41.206-10.663-41.206c-32.297,0-64.938,0.722-97.372,0.722
	l-14.205,71.061h-1.445l-5.675-7.12c1.754-1.307,7.12-7.98,7.12-9.94V42.552c0-23.182-8.221-26.931-27.001-37.663
	c-8.254-4.712-15.615-4.265-24.867-4.265h-27.034c-37.457,0-74.81,0.722-112.266,0.722c-41.274,0-82.411-0.722-123.651-0.722
	c-10.043,0-19.295-0.757-29.133,1.41c-10.938,2.442-16.269,6.879-24.868,13.517c-4.093,3.13-8.908,7.773-10.663,12.795
	c-2.029,5.778-0.722,23.664-0.722,30.543L257.242,0.625l-98.783,0.722l-14.205,71.749l-7.12-7.808
	c1.548-1.548,3.68-2.511,4.987-4.265c1.204-1.616,2.132-3.818,2.132-5.675V42.552c0-4.987,1.135-10.284-0.722-14.927
	c-2.374-5.985-4.334-7.292-9.218-11.351c-6.879-5.744-13.07-11.006-22.047-13.518C96.031-1.749,71.404,0.625,54,0.625
	c-15.306,0-35.152-1.823-49.735,1.41V50.36c3.233,1.65,2.305,1.444,6.397,1.444v34.086c-3.439,0-3.405-0.069-6.397,1.444v48.325
	l52.59,0.688H97.338z M7.085,88.745h6.397V48.95H7.085V3.479h81.035c26.347,0,54,8.667,54,39.795c0,11.97-0.585,15.616-9.94,23.458
	c3.715,2.786,6.604,4.299,9.218,8.495c2.442,3.887,2.132,8.978,2.132,13.518l17.06-85.266h95.24l15.615,81.723h0.722v-4.265h8.53
	c-2.236-1.513-4.471-3.302-5.675-5.709c-1.307-2.614-2.132-5.641-2.132-8.495V38.287c0-3.817-0.207-7.911,1.41-11.351
	c4.746-10.215,28.341-22.116,39.073-23.457c21.394-2.683,50.974,0,73.193,0l3.577,40.483h0.688l0.722-40.483h118.698l1.41,22.013
	h0.723V3.479h81c25.314,0,54,9.321,54,39.073c0,12.314-0.24,16.063-9.939,24.18c10.766,6.122,11.35,10.009,11.35,22.013
	l17.783-85.266h95.239l16.338,85.988l7.086-0.722V48.95h-6.397V4.167l76.77-0.688l0.723,44.748l-6.397,0.723v23.457h51.868
	l-0.723,16.338h2.133V48.95h-6.398V3.479h76.771V48.95h-6.397v23.457l52.59,0.688c-2.029,20.259-2.235,40.792-4.265,61.121H719.169
	l-2.854-23.423h-5.676l-3.543,23.423h-65.385v-17.748c-9.527,7.911-17.645,14.996-30.577,17.06
	c-11.213,1.754-24.695,0.688-36.219,0.688h-183.36l-0.722-20.603c-17.542,17.576-23.905,20.603-49.013,20.603H213.904l-2.855-23.423
	h-5.675l-3.542,23.423h-65.385v-18.471c-4.127,3.439-8.496,7.533-12.795,10.663c-2.717,1.96-11.832,6.432-14.928,7.12
	c-9.011,1.995-23.836,0.688-33.397,0.688H7.085V88.745z M958.662,176.143H696.434l-0.723,123.651l22.048,0.723v125.061
	l-20.638,0.723l-56.133-125.783l3.543-0.723V176.865l-245.169-0.722c-2.029,28.651-0.688,59.16-0.688,88.121
	c0,9.63,1.823,29.167,0,37.663c-2.27,10.628-12.451,27.241-17.06,37.662L343.229,426.3h-7.085V243.661
	c-1.307-5.263-64.181-59.882-73.227-67.518H1.41L0,177.588v122.206l22.013,0.723V426.3L0,427.021V549.95l1.41,1.41h261.507
	l48.325-44.061h1.444l0.688,44.061h189.758l1.41-88.121h31.266c0,27.688-2.684,61.361,1.444,88.121H957.94l73.915-65.352v-244.48
	L958.662,176.143z M1029.001,484.564L956.53,548.54H538.663v-87.433h-36.94v87.433H314.819v-47.604l-53.313,47.604H2.82V428.432
	h22.047V298.384L2.82,297.661V178.276h159.903l100.193,1.444c1.788,0.825,69.581,61.189,70.372,62.531
	c1.583,2.683,0.723,21.394,0.723,25.59v28.41c0,43.854,1.272,88.465-0.723,132.181h12.073l58.266-128.638
	c-4.884-13.036-2.132-44.335-2.132-59.676v-61.842h240.216v120.108h-4.987l58.266,130.048h24.902V298.384l-22.048-0.723V240.84
	c0-20.121-1.272-42.822,0.723-62.564H956.53l72.471,64.697V484.564z M903.218,127.818h105.902l3.543-48.325l-39.796-0.688
	c-0.722,2.132-1.754,4.162-2.132,6.397c-0.344,2.098,0.275,4.265,0,6.397c-0.207,1.686-1.41,3.302-2.855,4.266
	c-1.96,1.307-4.712,0-7.085,0V42.552l6.397-0.722V10.564l-63.975-0.688v32.675h7.119v53.313h-7.842
	C903.562,106.493,903.218,117.087,903.218,127.818z M1007.676,122.865H906.072l-0.723-4.265h103.048L1007.676,122.865z
	 M905.35,110.792l102.326-0.723c0.894,1.754,0.894,3.199,0,4.987H906.072L905.35,110.792z M1010.53,81.625v1.444
	c-11.866,0-24.765,1.135-36.252-1.444H1010.53z M973.59,87.335l36.218-0.723l0.723,4.266h-36.94V87.335z M905.35,16.274
	l58.987-0.723l0.723,4.266h-59.71V16.274z M905.35,24.082l58.987-0.722l0.723,4.265h-59.71V24.082z M964.337,31.167
	c0.896,1.789,0.896,3.199,0,4.987h-58.265l-0.723-4.265L964.337,31.167z M905.35,40.42c1.828,0,3.846-0.788,5.5-0.066l54.21-0.656
	c-1.514,0.757-3.474-0.034-4.987,0.723c-1.238,0.619-1.513,2.305-2.132,3.543h-44.783c-0.619-1.238-0.894-2.924-2.132-3.543
	c-0.057-0.029-0.117-0.042-0.176-0.066L905.35,40.42z M912.47,55.348h46.192c0.551,1.135,0,2.407,0,4.265H912.47
	C911.713,58.099,911.782,56.723,912.47,55.348z M912.47,47.54h46.192c0.619,1.204,0.551,3.096,0,4.265H912.47
	C911.713,50.291,911.782,48.916,912.47,47.54z M958.662,63.155c0.551,1.135,0,2.408,0,4.265H912.47l-0.723-3.542L958.662,63.155z
	 M958.662,70.997c0,1.823,0.551,3.096,0,4.23H912.47l-0.723-3.542L958.662,70.997z M958.662,78.805c0,1.857,0.551,3.13,0,4.265
	H912.47l-0.723-3.577L958.662,78.805z M912.47,86.612h46.192c0.826,1.651,0.826,2.614,0,4.266H912.47
	c-0.378-1.066-0.723-0.619-0.723-2.133C911.747,88.126,912.16,87.541,912.47,86.612z M905.35,97.997
	c1.686,0,3.577,0.207,4.987-0.722c0.963-0.654,2.133-1.651,2.133-2.855h46.192l0.688,2.855c1.72,0.859,3.611,0.722,5.709,0.722
	c3.956,0,7.396-3.198,11.351-3.577h14.928c6.329,0,12.245-0.309,18.47,0.723v3.542H905.35V97.997z M905.35,102.95l103.048-0.688
	c0.895,1.754,0.895,3.199,0,4.953H906.76C905.006,106.321,905.35,104.602,905.35,102.95z M791.64,43.274v51.868l-0.688-51.868
	H791.64z M394.41,70.275c0.653,5.4,0,12.898,0,18.47h2.82V48.95h-6.397c0.86,1.685,0.722,3.611,0.722,5.675l-5.675,0.723
	C391.795,60.3,393.378,62.227,394.41,70.275z M393.687,56.069c0.654-1.272,0.654-2.992,0-4.265h1.411v7.808
	C393.962,59.027,393.137,57.205,393.687,56.069z M785.964,127.818h105.903l2.82-48.325l-39.795-0.688
	c0.412,2.511-1.41,10.938-1.41,15.615c-1.686,0.86-2.133,1.066-2.133-0.688v2.133h-7.808V42.552l6.397-0.722V10.564h-63.976V41.83
	l6.397,0.722v53.313h-7.119C786.309,106.493,785.964,117.087,785.964,127.818z M857.747,81.625h35.53
	c-11.282,2.51-23.836,1.444-35.53,1.444V81.625z M857.024,86.612h34.843l0.688,4.266h-36.94L857.024,86.612z M788.097,16.274
	l58.988-0.723l0.722,4.266h-59.71V16.274z M788.097,24.082l58.988-0.722l0.722,4.265h-59.71V24.082z M788.097,31.89h59.71v3.543
	h-59.71V31.89z M788.097,40.42v-0.723h59.71v0.723c-1.686,0-3.611-0.207-4.987,0.722c-0.997,0.654-1.307,1.995-2.133,2.821h-45.47
	C793.979,40.282,791.364,40.42,788.097,40.42z M794.494,83.07v-4.265h46.915v4.265H794.494z M841.409,86.612v4.266h-46.915v-4.266
	H841.409z M794.494,75.228v-4.23h46.915v4.23H794.494z M794.494,67.42v-4.265h46.915v4.265H794.494z M794.494,59.612v-4.265h46.915
	v4.265H794.494z M794.494,51.805V47.54h46.915v4.265H794.494z M788.097,97.997h4.987l1.41-3.577h46.192
	c0.826,0.86,1.308,2.03,2.133,2.855c1.032,1.032,2.82,0.722,4.266,0.722c3.68,0,5.606-0.24,7.808-3.577h36.975v4.265H788.097V97.997
	z M788.097,102.95l102.325-0.688c1.376,0.688,1.755,2.167,0.723,4.265H788.097V102.95z M788.097,110.792h103.048
	c0,2.063,0.413,4.265-2.132,4.265c-33.536,0-67.312-0.722-100.916-0.722V110.792z M890.422,118.6v4.265H788.819l-0.723-4.265
	H890.422z M491.748,78.805h26.313l-0.723,9.94h1.41V48.95h-4.953c0.963,2.923,0.722,5.4,0.722,8.53h-22.77V78.805z M516.615,59.612
	V75.95h-22.013l-0.722-15.615L516.615,59.612z M196.121,127.818l3.577-22.735h17.026c0.757,7.464,2.098,15.203,2.855,22.735h54
	V95.865h-6.397L250.844,9.877h-83.855c-7.498,28.066-10.146,56.958-17.06,84.543c-1.135,0.585-2.27,1.445-3.542,1.445
	c-1.411,0-2.993-0.654-4.265,0l0.722,31.953H196.121z M219.579,110.792l51.18-0.723c0.86,1.754,0.895,3.199,0,4.987h-49.77
	C219.235,114.163,219.579,112.409,219.579,110.792z M217.446,102.263h53.313c0.86,1.754,0.895,3.199,0,4.953h-51.18L217.446,102.263
	z M271.447,122.865h-49.735l-1.41-4.265l50.458-0.722C271.55,119.495,271.447,120.87,271.447,122.865z M260.096,67.42h-45.504
	l-0.688-4.265h44.748C259.374,64.6,259.374,66.01,260.096,67.42z M260.784,75.228h-45.47c-0.757-1.513-0.688-2.854,0-4.23h44.782
	L260.784,75.228z M257.964,59.612h-44.783l-0.688-4.265h45.47C257.964,57.205,258.514,58.478,257.964,59.612z M213.181,75.228
	h-9.218l4.265-34.085C210.636,52.045,210.739,64.221,213.181,75.228z M255.832,51.805h-43.338l-0.722-4.265h44.06
	C256.588,49.053,256.52,50.395,255.832,51.805z M255.109,43.963h-42.615l-1.445-1.411v-2.855c14.549,0,29.648-0.722,44.06,0.723
	V43.963z M166.989,16.274l82.445-0.723c0.894,1.823,1.72,2.236,0.722,4.266h-83.167V16.274z M166.301,23.36h84.543
	c0.688,1.375,1.444,2.614,1.444,4.265h-87.433L166.301,23.36z M165.579,31.167h85.988c1.651,0.86,2.201,3.439,1.41,4.987h-88.809
	C163.412,34.676,163.618,32.165,165.579,31.167z M164.856,39.01c13.724,0,27.998,0.688,41.928,0.688l-1.411,4.266h-42.65
	c-0.344-1.066-0.688-0.585-0.688-2.133C162.036,40.592,163.618,39.01,164.856,39.01z M161.313,47.54h44.06l-0.722,4.265h-43.338
	c-0.378-1.101-0.722-0.619-0.722-2.133C160.591,49.019,161.004,48.468,161.313,47.54z M159.181,56.069l45.47-0.722l-0.688,4.265
	h-44.782V56.069z M157.771,63.155h45.47c0.826,1.651,0.103,2.614-0.722,4.265h-44.748C157.186,66.285,157.771,65.012,157.771,63.155
	z M157.048,70.997h45.471l-0.688,4.23h-46.193L157.048,70.997z M155.638,78.805h106.591l0.688,4.265H154.916
	C154.091,81.419,154.778,80.456,155.638,78.805z M153.506,86.612h110.133l0.722,4.266H152.784L153.506,86.612z M144.976,97.997
	c3.681,0,5.606-0.24,7.808-3.577h111.578c0.585,1.204,1.72,2.098,2.821,2.855c1.204,0.791,2.82,0.722,4.265,0.722v0.688H144.976
	V97.997z M144.976,102.95l54-0.688c0,2.167-2.098,4.608-4.265,4.953c-2.58,0.447-5.229,0-7.808,0h-15.65
	c-8.943,0-17.404,0.172-26.278-0.688V102.95z M196.121,110.07c0.963,1.926,1.479,3.887-0.688,4.987h-49.77l-0.688-4.265
	L196.121,110.07z M194.711,117.878c0.894,1.754,0.894,3.199,0,4.987h-49.048l-0.688-4.265L194.711,117.878z M404.35,95.865h-7.12
	c1.066,10.628,0.722,21.222,0.722,31.953h109.446l3.542-41.927c-13.483,0-29.649,1.479-42.616-1.411
	c-0.791,1.926-3.199,10.594-3.577,12.795c-0.516-1.066-2.373,0-3.542,0c-2.132,0-4.265,0-6.397,0v-15.65h30.543V55.348h-30.543
	V41.142l8.53,0.688l3.543,9.252h40.518c0.344-1.066,0.722-0.619,0.722-2.132c0-10.009-2.098-29.339-4.265-39.073H397.952
	L397.23,41.83l7.12,0.722V95.865z M405.072,97.275c0.963-0.654,1.272-1.995,2.132-2.855h44.748l1.445,4.265l-51.948-0.67
	c-0.129-0.001-0.257-0.003-0.385-0.005l-0.979-0.013c0.32,0,0.649,0.007,0.979,0.013l0.385,0.005
	C402.735,98.026,404.034,97.958,405.072,97.275z M406.482,90.878v-3.543l45.47-0.723l0.722,4.266H406.482z M505.987,122.865H400.085
	c-0.31-1.238-0.723-1.342-0.723-2.855c0-1.204,0.826-1.204,1.445-2.132h104.458C506.194,119.77,507.363,120.079,505.987,122.865z
	 M505.987,115.057h-105.18c-0.826-1.617-1.445-0.688-1.445-2.854c0-1.204,0.826-1.204,1.445-2.133h105.18
	C506.848,111.824,506.848,113.269,505.987,115.057z M469.735,88.022h39.073v2.855h-39.073V88.022z M466.192,97.275l2.82-2.855
	h39.107c0.55,1.136,0,2.408,0,4.265h-41.928V97.275z M507.398,102.263c0,1.96,0.103,3.336-0.723,4.953H400.807
	c-0.826-1.583-1.445-0.654-1.445-2.82c0-1.239,0.826-1.239,1.445-2.132H507.398z M483.218,80.215h-23.423
	c-2.58,0-6.329,0.413-7.12,2.855h-46.192v-4.265h76.735V80.215z M483.218,75.228h-76.735v-4.23h76.735V75.228z M483.218,67.42
	h-76.735v-4.265h76.735V67.42z M483.218,57.48v2.132h-76.735v-4.265h46.192C461.824,58.787,472.693,57.48,483.218,57.48z
	 M406.482,47.54h46.192l-0.722,4.265h-44.748L406.482,47.54z M468.325,48.95V47.54c12.176,0,25.831-1.204,37.663,1.411H468.325z
	 M504.543,43.963h-36.94c-0.86-0.826-1.307-1.996-2.132-2.821c-0.619-0.619-2.03-1.548-1.41-2.132h39.795
	C504.681,40.661,505.403,42.277,504.543,43.963z M400.085,15.552h102.326l0.722,4.266H400.085c-0.344-1.066-0.723-0.62-0.723-2.133
	C399.362,17.065,399.775,16.481,400.085,15.552z M400.085,23.36h103.048c0.894,1.754,0.894,3.199,0,4.987H400.807
	c-0.826-1.617-1.445-0.688-1.445-2.854C399.362,24.873,399.775,24.289,400.085,23.36z M399.362,33.3
	c0-1.204,0.826-1.204,1.445-2.132h102.326c1.204,1.238,1.135,3.68,0.722,4.987H400.807C399.981,34.573,399.362,35.467,399.362,33.3z
	 M400.085,40.42c15.375-3.405,37.112-1.41,53.313-1.41l-1.445,4.953h-44.748C405.966,40.282,403.353,40.42,400.085,40.42z
	 M525.868,42.552v53.313h-7.12c1.066,10.628,0.722,21.222,0.722,31.953l96.65-0.688c3.578-0.034,23.63-17.37,25.591-22.047
	c1.823-4.403,1.41-9.459,1.41-14.205c0-2.855,0.069-5.779-0.688-8.53c-0.826-2.855-2.064-5.847-4.266-7.808
	c-3.302-2.958-11.419-4.815-15.649-6.397c5.262-3.027,9.631-5.125,14.205-9.252c2.167-1.926,4.987-4.575,4.987-7.085v-9.252
	c0-23.733-25.074-32.675-45.471-32.675c-25.384,0-52.35-1.41-77.492,0.688l0.722,31.988H525.868z M521.603,97.997
	c1.445,0,3.233,0.31,4.266-0.722C526.693,96.45,528,95.624,528,94.42h46.193c0.653,1.307,0.757,2.924,1.41,4.265h-54.001V97.997z
	 M574.193,86.612c0.894,1.754,0.894,2.511,0,4.266H528v-4.266H574.193z M528,83.07v-4.265h47.604
	c-0.688,1.41-0.688,2.821-1.41,4.265H528z M614.711,122.865l-93.108-0.722V118.6h104.459
	C623.206,121.455,618.735,122.865,614.711,122.865z M633.903,112.925c-0.998,0.653-2.029,1.273-2.854,2.132l-109.446-0.722v-3.542
	l113.711-0.723C635.795,110.999,634.763,112.306,633.903,112.925z M638.168,107.215h-57.577c-19.228,0-39.967,1.204-58.988-0.688
	v-3.577l117.976-0.688l0.723,3.542C639.578,106.287,638.994,107.215,638.168,107.215z M576.325,96.553V80.937
	c5.641,0,8.118,0.344,13.518,1.411c0.757,1.548,1.41,3.268,1.41,4.987c0,2.132,0,4.265,0,6.397
	C585.027,95.28,584.202,97.344,576.325,96.553z M640.988,97.997l-54,0.688c2.442-0.791,3.853-3.817,6.397-4.265
	c2.58-0.412,5.193,0,7.808,0h15.649c8.255,0,15.926-0.103,24.146,0.723V97.997z M594.108,90.878l-0.723-3.543l46.915-0.723
	l0.688,4.266H594.108z M638.856,78.805c0.963,1.857,1.444,1.789,1.444,4.265h-40.518c-4.128,0-8.393-0.998-12.073-2.855v-1.41
	H638.856z M626.062,70.997c1.582,0,2.854,1.41,4.265,2.098c1.238,0.619,2.958,0.929,3.577,2.132H528v-4.23H626.062z M622.519,65.288
	c-0.998,0.654-1.651,2.132-2.854,2.132H528v-4.265h98.062C624.823,63.774,623.653,64.531,622.519,65.288z M637.446,56.758
	c-1.101,0.55-2.442,2.854-4.266,2.854H528v-4.265h109.446V56.758z M528,51.805V47.54h46.193c0.894,1.754,0.894,2.477,0,4.265H528z
	 M588.398,42.552c0.859,1.686,1.444,3.749,1.444,5.675c0,2.545-2.511,5.332-4.987,5.709c-2.82,0.378-5.675,0-8.53,0V41.142
	c1.136-0.241,2.029-0.722,3.543-0.722C583.102,40.42,585.372,41.555,588.398,42.552z M587.71,39.01h50.458
	c1.686,0.86,1.651,3.061,0.688,4.953h-38.352c-2.373,0-4.78,0.344-7.119,0C590.875,43.619,588.812,41.245,587.71,39.01z
	 M638.856,51.805h-46.881c-0.585-1.135,0-2.442,0-4.265h47.603L638.856,51.805z M521.603,16.274
	c15.788-1.582,32.951-0.723,49.048-0.723h28.41h14.206c4.884,0,8.908,1.342,12.795,4.266H521.603V16.274z M521.603,24.082
	l54.723-0.722h54.001c0.963,0,5.021,3.612,5.71,4.265H521.603V24.082z M637.446,31.167l2.132,2.132l-1.41,2.855H522.325
	l-0.723-4.265L637.446,31.167z M521.603,39.697h53.313c-0.584,1.17-0.756,2.924-1.444,4.266h-44.748
	c-1.238-3.681-3.853-3.543-7.12-3.543V39.697z M137.134,105.083c0.275-0.895,0.722-20.5,0.722-22.735
	c0-8.358-14.583-12.485-20.603-14.205v-1.41c14.171-5.332,18.47-8.324,18.47-24.18c0-24.902-24.317-32.675-45.47-32.675
	c-25.143,0-51.833-1.376-76.77,0.688V41.83l7.12,0.722v53.313h-7.12v31.265h97.373C114.639,127.13,135.93,109.279,137.134,105.083z
	 M135.723,97.997l-54,0.688c1.789-1.789,3.852-3.817,6.397-4.265c2.545-0.412,5.194,0,7.808,0h15.65
	c8.255,0,15.925-0.103,24.145,0.723V97.997z M71.061,97.275V80.937c3.543,0,7.292-1.135,10.663,0c2.82,0.929,4.265,4.85,4.265,7.808
	c0,1.479-0.792,5.125-1.41,6.397C79.9,96.071,76.323,97.275,71.061,97.275z M135.001,90.878h-46.88v-4.266h46.88
	C135.896,88.367,135.896,89.123,135.001,90.878z M135.001,83.07H93.796c-4.059,0-8.496-1.41-11.351-4.265h51.146
	C134.52,80.662,135.001,80.593,135.001,83.07z M120.796,70.997c0.207,0,6.742,3.542,7.808,4.23H22.735v-4.23H120.796z M22.735,83.07
	v-4.265H69.65l-0.722,4.265H22.735z M68.928,90.878H22.735v-4.266h45.47L68.928,90.878z M113.71,67.42H22.735v-4.265h97.373
	C119.592,63.671,113.814,67.42,113.71,67.42z M132.181,56.758c-0.584,0.275-3.096,2.854-3.577,2.854H22.735v-4.265h109.445V56.758z
	 M22.735,47.54h46.193l-0.723,4.265H23.458L22.735,47.54z M71.061,53.937V40.42c3.096,0,6.294-0.275,9.252,0.722
	c2.511,0.825,3.542,4.437,3.542,7.085c0,5.675-0.241,1.926-2.132,5.709H71.061z M132.869,51.805h-46.88v-3.577l47.603-0.688
	L132.869,51.805z M133.591,43.274c-8.014,0.791-15.925,0.688-24.145,0.688h-14.24c-6.226,0-8.53,0.171-13.483-3.543v-1.41
	c16.819,1.685,34.876,0.688,51.868,0.688V43.274z M15.616,16.274l49.77-0.723h42.616c7.188,0,7.395-0.412,12.107,4.266
	L15.616,19.095V16.274z M15.616,24.082l54.723-0.722h54.035c0.275,0,4.987,2.889,5.675,3.577v1.411L15.616,27.625V24.082z
	 M15.616,31.89l116.565-0.722c0.826,1.685,1.548,3.268,0.688,4.987H17.06C15.271,35.261,15.616,33.541,15.616,31.89z M15.616,40.42
	c12.348-3.508,38.075,0.104,53.313-1.41v4.265l-45.471,0.688C21.222,40.661,19.33,40.42,15.616,40.42z M16.338,97.997
	c1.685,0,3.577,0.207,4.987-0.722c0.963-0.654,1.272-1.995,2.132-2.855h44.748c0.723,1.445,0.723,2.855,1.445,4.265H16.338V97.997z
	 M15.616,102.95l118.698-0.688l0.688,3.542c-0.688,0.481-1.272,1.41-2.132,1.41H74.604c-19.227,0-39.968,1.204-58.988-0.688V102.95z
	 M15.616,110.792l114.433-0.723v1.411c-0.654,0.653-4.024,3.577-4.987,3.577h-54c-18.126,0-37.525,1.066-55.445-0.722V110.792z
	 M93.796,122.865H36.253H24.868c-3.164,0-9.252,1.032-9.252-2.133c0-2.167,0.619-1.238,1.444-2.854l103.736,0.722
	c-5.159,3.852-5.95,4.265-12.795,4.265H93.796z M361.7,127.818c4.437,0,20.706-13.792,23.458-17.748
	c4.127-5.95,2.855-10.628,2.855-17.782c0-6.363,0.688-13.001,0.688-19.192c0-5.813-3.13-11.247-8.496-13.483
	c-5.296-2.201-11.557-2.58-17.06-3.543c-5.091-0.894-34.842-6.741-34.842-9.975c0-4.471,4.884-5.675,8.53-5.675
	c2.133,0,4.747,0.963,5.709,2.854c0.929,1.892,1.341,4.162,2.82,5.676h38.385c0.207-1.136,0.722-2.029,0.722-3.543
	c0-10.525-1.995-25.315-4.265-35.53h-68.24c-8.255,0-27.55,15.134-32.675,21.291v22.047c0,4.815-0.55,16.613,2.82,20.603
	c3.268,3.853,9.458,4.953,14.24,5.675c5.021,0.792,10.594,2.442,15.615,3.577c4.918,1.066,10.456,1.548,15.65,2.821
	c8.839,2.235,8.393-1.032,11.351,7.842c-0.757-0.378-1.032,1.341-1.411,2.133c-0.447,0.894-1.685,1.203-2.132,2.132l-12.073-0.722
	l-3.577-9.94l-39.795-0.723l-1.41,1.41c2.854,12.864,2.029,26.484,4.987,39.795H361.7z M363.145,122.865
	c-4.024,0.378-8.083,0-12.107,0h-25.555c-13.139,0-28.583,1.376-41.24-1.445v-2.82h89.565
	C371.09,121.283,366.928,122.487,363.145,122.865z M382.337,112.203c-3.715,1.857-7.945,2.854-12.107,2.854h-12.795h-26.278
	c-15.65,0-32.091,0.826-47.603-0.722v-3.542l98.783-0.723V112.203z M381.615,43.963h-35.53c-0.86-1.72-1.651-2.236-2.855-2.821
	V39.01l38.385,0.688V43.963z M296.349,18.407c12.829-4.85,30.199-2.855,44.06-2.855h38.351l1.444,4.266h-83.855V18.407z
	 M285.687,26.215c3.68-1.857,7.945-2.855,12.073-2.855h12.073h25.59c14.205,0,31.884-1.582,45.47,1.444v2.821h-95.206V26.215z
	 M283.554,31.167h96.65c1.066,1.101,1.617,3.371,0,4.987h-98.095C281.387,34.676,281.593,32.165,283.554,31.167z M281.421,39.697
	h48.325c-2.717,2.718-6.845,4.266-10.663,4.266l-37.663-0.688V39.697z M326.169,47.54c1.066,2.098,1.651,1.892,3.577,2.821v1.444
	h-47.637l-0.688-4.265H326.169z M281.421,55.348h69.616c4.265,0,10.56,2.854,16.372,2.854v1.41h-85.988V55.348z M282.109,67.42
	l-0.688-4.265h101.604l2.132,4.265H282.109z M294.904,75.228c-4.127,0-8.392-0.963-12.073-2.82v-1.41h102.326
	c0.929,1.789,1.72,2.236,0.723,4.23h-77.458H294.904z M323.349,83.07c-4.265,0-10.56-2.855-16.372-2.855v-1.41h78.903
	c0.86,1.754,0.86,2.511,0,4.265H323.349z M338.277,86.612h47.603c0.86,1.754,0.86,2.511,0,4.266h-45.471L338.277,86.612z
	 M341.097,94.42h44.783c0.86,1.754,0.86,2.511,0,4.265h-47.603L341.097,94.42z M319.084,90.878c-12.21,0-25.865,1.203-37.663-1.411
	C293.597,89.467,307.252,88.264,319.084,90.878z M319.772,94.42c0.86,1.72,1.995,2.546,2.855,4.265h-39.795l-0.722-4.265H319.772z
	 M282.832,102.95l102.326-0.688l0.723,3.542c-33.811,1.995-68.997,0.722-103.048,0.722V102.95z M648.796,127.818h52.591
	l4.265-22.735h16.372c0.723,7.395,1.892,15.374,2.82,22.735h54.001l0.722-31.265c-2.27-1.135-4.402-0.688-7.085-0.688L759.687,23.36
	c-0.447-2.545-2.958-10.181-4.266-13.483h-83.167c-5.503,18.333-6.948,36.837-10.663,55.411c-0.412,2.098-2.373,3.612-2.82,5.709
	c-1.272,5.744-3.577,19.158-3.577,24.868c-1.65,0-3.404,0.516-4.952,0c-0.929-0.31-2.167,0-2.855,0.688
	C649.622,106.665,648.796,117.224,648.796,127.818z M776.712,122.865h-49.735l-0.688-4.265h51.146L776.712,122.865z M725.566,110.07
	h50.458c1.72,0.86,1.65,3.062,0.688,4.987h-50.424C725.429,113.372,724.706,111.755,725.566,110.07z M776.024,107.215h-50.458
	c-0.86-0.413-2.373-3.99-2.854-4.953h54C777.675,104.154,778.19,106.149,776.024,107.215z M766.771,75.228h-46.192v-4.23h45.505
	L766.771,75.228z M764.64,67.42h-44.748c-0.758-1.513-0.723-2.889,0-4.265h44.748C765.396,64.668,765.327,66.044,764.64,67.42z
	 M763.951,59.612h-44.782l-0.723-4.265h44.783L763.951,59.612z M761.818,51.805h-43.372l-0.688-4.265h44.06
	C761.818,49.672,762.816,49.775,761.818,51.805z M718.446,75.228h-8.529c-0.345-1.066-0.688-0.584-0.688-2.132
	c0-6.501,3.405-24.489,5.675-30.543C715.97,53.387,717.346,64.29,718.446,75.228z M760.374,43.963h-42.615l-1.444-1.411v-2.855
	l42.649-0.688C759.858,40.798,760.374,41.658,760.374,43.963z M672.254,16.962l1.444-1.411h81.723l0.688,4.266h-83.855V16.962z
	 M672.254,23.36h84.578c0.722,1.444,1.272,3.13,0.722,4.265h-86.71L672.254,23.36z M757.554,31.167
	c1.72,0.86,1.651,3.096,0.688,4.987h-88.121l-0.688-4.265L757.554,31.167z M667.989,40.42l1.444-1.41h41.928
	c0.859,1.754,0.859,3.198,0,4.953h-43.372V40.42z M667.301,47.54h44.061l-0.723,4.265h-44.06l-0.723-2.854L667.301,47.54z
	 M665.168,55.348h44.749l-0.688,4.265h-44.061c-0.378-1.066-0.722-0.619-0.722-2.132C664.446,56.861,664.858,56.276,665.168,55.348z
	 M663.724,63.155h45.505l-0.723,4.265h-45.47L663.724,63.155z M661.591,71.685l46.193-0.688l-0.688,4.23h-45.505V71.685z
	 M660.181,80.215l107.313-1.41l0.723,4.265H660.181V80.215z M658.771,87.335l109.446-0.723c1.754,0.895,1.41,2.614,1.41,4.266
	H658.771V87.335z M650.929,97.997c1.686,0,3.577,0.207,4.987-0.722c0.997-0.654,1.308-1.995,2.133-2.855h112.3
	c1.204,3.681,3.818,3.577,7.086,3.577v0.688H650.929V97.997z M651.651,102.263h53.313c-0.86,1.685-0.998,4.024-2.855,4.953h-50.457
	c-0.791-1.617-0.826-2.374-1.41-3.543L651.651,102.263z M651.651,110.07h49.735c1.686,3.302,1.995,0.998,0,4.987h-49.735
	c-0.791-1.617-0.826-2.408-1.41-3.577L651.651,110.07z M651.651,117.878c16.097,1.617,33.432,0.722,49.735,0.722
	c0,1.651-0.723,2.889-1.41,4.265h-49.048l-0.688-3.577L651.651,117.878z M709.917,189.661v96.651l22.047,0.722l-0.723,153.471
	h-43.338l-68.928-154.192h11.351v-95.929l-216.724-0.722l-0.722,96.651h9.252L353.17,439.816l-26.278,0.688v96.651h162.724
	l0.723-88.121h59.71c0,28.995-1.376,59.332,0.688,88.121h400.808c3.026,0,4.78-3.749,7.119-5.676
	c2.684-2.27,5.331-4.608,7.808-7.119c5.538-5.538,12.279-10.146,17.783-15.616c10.181-10.181,22.013-20.361,33.397-29.854V247.926
	l-66.107-58.265H709.917z M747.579,200.323h19.192c-1.926,1.273-8.529,2.545-12.795,4.265c-0.825-0.447-2.029-0.516-2.82,0
	c-1.41,0.895-3.336,0-4.987,0C746.685,203.556,747.579,201.527,747.579,200.323z M746.169,210.985
	c11.179-2.477,22.426-3.956,33.397-6.397c12.761,0,26.347,0.619,37.663,7.085v8.53c-23.904,3.681-49.048,1.961-71.061,9.975V210.985
	z M734.097,200.323l6.397,0.723v4.953c-1.41-1.376-4.54-3.646-6.397-4.265V200.323z M720.579,201.733
	c1.616-0.791,0.688-1.41,2.854-1.41c3.818,0,11.075,6.845,12.795,9.94c0.688,1.238-0.653,2.992,0,4.265
	c1.961,3.921,2.82,8.427,2.82,12.795c-8.771-3.302-11.075-6.432-18.47-10.663V201.733z M720.579,223.058
	c9.975,5.709,12.417,5.916,19.915,14.927c-1.995,8.943-3.13,17.335-5.71,26.278l1.444,4.987l-15.649-4.265V223.058z
	 M746.169,473.214c0,4.438,0.104,4.575,1.41,8.53c-1.686,0.825-1.307,3.818-2.82,4.953c-1.72,1.272-3.681,2.167-5.71,2.854v3.543
	l-18.47-7.086v-17.06C731.688,471.392,734.165,474.418,746.169,473.214z M740.494,468.949v-6.397
	c16.165-7.188,41.48-16.028,58.987-19.192c0,2.063,1.41,3.439,1.41,5.675c0,4.851-4.402,7.602-8.53,9.253
	c-4.402,1.754-8.874,3.955-13.517,5.675c-11.179,4.196-16.785,2.545-27.688,4.987c-1.272-0.653-2.89-0.275-4.265,0
	C744.793,469.362,742.626,468.949,740.494,468.949z M726.977,275.648c-2.167,0-4.438-0.447-6.397-1.41v-4.265
	c2.752,0,11.213,3.956,13.518,5.675C731.723,275.648,729.35,275.648,726.977,275.648z M685.771,526.492v-2.82
	c6.227,0,10.801,1.41,16.338,1.41C696.984,527.146,691.997,526.492,685.771,526.492z M703.519,479.612l-35.529-18.505
	c1.548-0.757,2.957-2.82,4.265-2.82h7.12c6.981,0,16.131,3.439,24.145,4.265V479.612z M703.519,457.564l-40.482-6.397
	c-2.408,1.616-5.297,2.718-7.12,4.987c-1.582,1.961-4.987,3.164-4.987,5.675c0,5.057,16.441,7.98,19.915,8.53
	c11.351,1.789,22.598,9.184,32.675,14.928v35.53c-8.529-1.066-16.646,0.104-24.867-0.723c-3.439-0.344-6.501-2.82-9.94-2.82
	c-1.926,0-4.127,1.135-4.987,2.82c-0.929,1.927,0,4.266,0,6.397H562.12l-1.444-1.41V451.89l10.663-0.723
	c0-5.263-1.823-6.982-2.821-12.072h-95.962l-4.231,12.072l10.628,0.723v73.192l-1.41,1.41H338.965l-1.411-1.41V451.89l22.735-1.41
	l78.18-174.108c-5.709-0.963-9.665-0.035-14.927-2.133v-72.505l1.41-1.41h192.579l2.133,2.133v71.783
	c-5.606,2.235-11.764,1.41-17.748,1.41l49.013,110.134c-2.098,0.722-3.749,2.407-5.676,3.576c-2.028,1.204-4.265,3.303-4.265,5.676
	c0,3.336,3.99,5.916,7.12,7.119c3.543,1.308,7.67-0.24,11.351,0.688l21.325,48.325c8.392,0,14.617-0.378,22.734,1.444V457.564z
	 M721.302,451.167h11.35c0,3.13,1.445,6.122,1.445,9.252c0,2.477,0.344,7.086-2.133,7.086c-1.204,0-9.769-3.439-11.385-4.266
	C720.579,458.975,720.27,455.329,721.302,451.167z M720.579,523.672v-31.987c7.017,1.548,12.829,4.093,19.915,5.675
	c0,8.978,2.305,18.918,4.265,27.723C734.888,526.08,730.244,525.805,720.579,523.672z M753.289,525.805l-0.723-5.71
	c6.707-8.014,39.107-17.748,49.735-17.748c-1.686,16.889-24.455,24.146-39.072,24.146
	C759.721,526.492,756.625,526.905,753.289,525.805z M960.072,211.673c5.16,4.299,9.803,8.978,14.928,13.517l31.987,28.411v219.613
	c-19.777,17.748-39.933,35.496-59.71,53.278H786.687v-1.41c7.532-1.686,34.086-14.996,34.086-24.146c0-2.854-2.133-3.68-2.133-6.397
	h-13.482l-0.723,2.82c-14.103,1.41-16.2,2.271-29.133,7.12c-8.771,3.268-17.473,5.297-25.59,9.94h-2.133
	c0-5.572-1.101-10.456-2.82-15.615c0-1.066,1.41-1.789,1.41-2.855c0-1.065-1.41-1.788-1.41-2.854
	c2.648-2.648,5.641-5.572,6.397-9.218c0.791-3.956-1.823-8.496,0-12.107c4.024,0,12.657,1.892,16.338,1.444
	c7.945-0.997,26.932-8.874,31.987-14.927c2.752,1.822,7.051,0.929,9.94-0.723c1.479-0.825,2.063-2.717,2.854-4.265
	c0.791-1.617,2.133-3.165,2.133-4.953c0-2.683-3.474-4.23-5.71-5.71c-2.167-1.444-5.193-0.688-7.808-0.688
	c-0.619-1.204-1.548-2.546-2.854-2.854c-1.583-0.413-3.302,0-4.953,0c-17.645,7.842-36.562,12.863-55.445,17.06v-4.987h4.265V426.3
	c6.639-2.478,10.629-8.256,16.339-9.94c3.267-0.964,13.517-1.72,17.782-2.855c8.22-2.201,10.077-2.579,15.615-9.218
	c2.683,1.066,10.662-0.55,12.795-2.133c2.854-2.132,5.71-6.225,5.71-9.974c0-2.546-1.857-5.572-4.266-6.397
	c-2.511-0.826-5.263-0.585-7.842-0.688l-15.616-0.723l-40.518,9.253v-36.975c12.211-4.575,28.961-12.967,41.206-14.928
	c8.461-1.308,8.53,1.238,17.782,0.723c10.388-0.585,9.94-0.517,14.928-9.253c-11.591-9.631-23.698-13.482-39.107-13.482
	c-11.729,0-23.251,4.54-34.809,7.119c0-5.056-0.825-15.615,0.723-19.914c3.233-9.046,25.246-18.264,34.086-20.603
	c10.112-2.648,17.61-5.572,29.167-4.988c4.3,0.241,8.53,2.924,12.761,2.133c4.472-0.791,7.705-5.331,9.252-9.218
	c-2.82-7.051-1.892-7.051-9.252-9.252c-11.144-3.336-1.514-0.963-13.482-2.855c-10.01-1.582-18.333-1.41-28.445-1.41
	c-5.984,1.341-25.762,5.676-31.266,5.676c-3.095,0-4.952-0.963-4.952-4.266c5.399-13.482,0.24-0.688,2.82-14.927
	c0.446-2.304,1.066-9.39,4.265-12.073c5.676-4.712,23.32-6.088,30.577-6.397c10.973-0.481,23.595-1.032,34.12,0
	c4.574,0.481,11.179,0.344,15.615-1.41c8.806-3.508,4.438-2.374,5.676-9.94c-6.707-8.083-19.709-13.414-29.821-15.65v-1.41h142.81
	c2.717,0,4.506,3.062,6.396,4.953C955.223,207.546,957.631,209.644,960.072,211.673z M743.314,331.781
	c7.979-1.754,16.888-5.882,25.59-7.808c4.712,0,12.863-0.516,17.06,0c6.982,0.859,10.973,2.098,16.338,6.397
	c-6.879,5.744-28.307,7.843-38.351,12.073l-22.048,9.252C741.903,344.61,741.078,338.488,743.314,331.781z M741.903,399.299
	c8.324-4.78,33.192-10.662,42.65-10.662c3.268,0,8.324,1.066,9.94,4.265c-5.572,9.734-10.8,14.412-22.735,17.061
	c-11.866,2.648-16.234,3.096-27,9.218c0-1.892-1.238-3.439-2.855-4.23V399.299z M741.903,278.503
	c2.34-5.881,2.374-8.014,9.253-9.252c4.678-0.86,9.425-1.41,14.205-1.41c9.527,0,18.333-2.855,27.723-2.855
	c4.953,0,15.203,1.272,19.881,2.855c1.822,0.584,1.994,3.268,2.854,4.953c-14.377,5.399-28.032,3.749-41.928,7.842
	c-7.326,2.133-24.593,11.351-30.577,16.338C741.285,290.816,741.903,285.417,741.903,278.503z M14.928,189.661l-0.723,95.928
	l22.048,0.723v154.192H14.205v95.963l242.349,0.688c2.82,0,4.368-3.646,6.363-5.676c2.27-2.27,4.678-4.368,7.12-6.397
	c5.332-4.437,11.591-10.043,17.06-14.928l34.808-31.265V247.926l-65.351-58.265H14.928z M24.868,274.238v-71.783L27,200.323h169.121
	c0.378,1.066,0.723,0.585,0.723,2.133c0,2.648-5.503,12.795-10.663,12.795c-4.093,0-8.083-1.341-12.073-2.133
	c-4.437-0.894-9.012-0.722-13.517-0.722c-1.961,0-3.818,0.791-5.675,1.41c-1.582,0.55-3.405-1.272-4.987-0.688
	c-2.992,1.136-5.675,4.575-5.675,7.808c0,4.85,10.972,10.25,14.928,12.073c5.159,2.408,13.999,3.68,19.88,4.987
	c-5.813,10.182-9.975,17.886-14.206,29.133c-1.341,0.654-2.751,1.411-4.265,1.411h-5.675c-4.609,0-8.324-1.239-12.795-2.132
	c-1.582-0.31-12.21-2.821-13.518-2.821c-4.402,0-7.085,4.403-7.085,8.53c0,1.273,0.516,2.648,1.411,3.543
	c0.756,0.757,1.444,1.788,1.444,2.854l2.82-1.444c3.749,10.009,11.007,14.067,21.325,16.338c0.241,1.513,0.722,2.477,0.722,4.265
	c0,6.295-5.469,10.801-7.842,17.061l-36.218-19.192c-4.575,2.613-9.252,11.04-9.252,16.372c0,2.304,0.138,5.675,3.542,5.675
	c1.032,0,3.062-1.857,3.577-2.854h2.821c3.405,15.271,10.181,20.74,25.59,24.18v2.133c-4.884,5.847-8.22,14.239-9.94,22.013
	c-4.54-0.998-23.389-7.36-26.312-9.94c-1.617-1.444-0.963-4.266-1.41-6.397c-0.378-1.857-1.995-3.268-2.855-4.987
	c-8.977,3.371-12.726,8.668-14.893,18.504c1.686,0.826,3.439,1.686,4.953,2.821c1.341,0.997,3.405,0.172,4.987,0.722
	c2.545,20.534,30.542,17.163,30.542,24.868c0,0.206-8.289,15.855-9.218,19.192l-5.709,0.723c-5.435-3.13-12.864-5.778-17.025-9.975
	c-5.366-5.331-7.705-9.872-11.385-16.338c0-2.201,0.207-14.205-5.675-14.205c-0.241,0-6.5,4.093-7.842,4.987
	c-0.757,3.817-3.543,12.004-3.543,15.615c0,0.895,6.432,11.625,7.12,12.795c1.238,2.099,2.27,4.3,3.542,6.397
	c1.204,2.029,2.58,3.99,4.265,5.675c4.918,4.919,4.196,6.363,11.385,11.385c2.889,2.03,8.496,2.821,8.496,6.397
	c0,4.885-6.569,8.634-10.628,9.218c-4.747-3.921-9.7-6.569-13.518-12.072c-1.754-2.545-3.749-4.987-4.987-7.808
	c-1.169-2.751-2.408-5.572-2.82-8.53c-0.756-5.193,1.135-7.051-1.445-12.795c-2.27-5.125-5.675-5.331-10.662-2.854V275.648
	C38.695,275.648,32.779,275.992,24.868,274.238z M211.771,245.793c3.336,4.85,9.527,10.869,13.482,15.65
	c2.064,2.442,4.644,4.437,6.398,7.085c1.651,2.476,4.265,4.85,4.265,7.842c0,1.513-0.481,2.407-0.688,3.542h-7.12
	c-18.746-11.247-36.252-29.511-36.252-53.313c0-0.825,2.339-8.908,2.855-9.94h2.132
	C200.627,226.807,205.614,236.919,211.771,245.793z M187.591,219.516c-0.929,4.678-1.892,6.673-2.82,11.351
	c-2.064,1.031-2.648,1.444-5.709,1.444c-4.299,0-24.868-3.818-24.868-9.252c0-0.791,7.876-6.397,8.53-6.397
	C169.947,216.661,178.821,219.516,187.591,219.516z M165.579,275.648c0.894-0.895,0.516-2.648,1.41-3.543
	c0.86-0.86,1.995-1.307,2.855-2.132c0,2.27,0.653,3.439,1.41,5.675H165.579z M193.989,286.312l4.265,3.542v147.108
	c-1.754,0.859-3.096,1.238-4.265,3.542h-33.397V286.312H193.989z M124.373,376.564h2.82c3.233,8.563,8.393,17.473,12.795,25.589
	c0.895,1.617,2.958,2.236,4.265,3.543c1.204,1.204,1.41,3.233,1.41,4.987l2.855,0.688l0.722,22.047
	c-8.358-8.357-28.445-29.752-28.445-41.928C120.796,385.507,124.373,383.236,124.373,376.564z M116.531,381.517
	c-5.056-2.889-11.694-4.334-17.748-7.808c-2.786-1.582-5.675-3.543-7.12-6.397c-1.479-2.958-0.722-6.604-0.722-9.94l17.06,5.676
	c2.82,0.929,5.641,2.132,8.53,2.854c2.683,0.653,2.752,4.815,4.265,7.12C120.796,376.495,119.833,379.865,116.531,381.517z
	 M130.048,365.901c-1.892-0.963-1.789-1.41-4.265-1.41c0.826-3.749,7.017-17.851,9.218-20.638
	c3.405,5.951,9.769,14.584,14.24,19.915v41.928C141.777,396.72,130.048,377.596,130.048,365.901z M133.591,334.636
	c-11.832-2.648-24.145-10.112-24.145-24.18c0-2.614,0.413-2.924,1.41-4.953c9.631,3.612,17.68,8.565,27,12.073
	C135.861,323.526,133.591,328.204,133.591,334.636z M148.519,354.517c-1.686-3.336-4.54-5.984-6.397-9.218
	c-1.823-3.199-2.855-6.982-2.855-10.663c0-6.638,1.651-11.521,4.987-17.06h2.133C150.514,328.617,149.688,342.719,148.519,354.517z
	 M149.241,275.648v13.483c-4.574-1.789-7.876-3.027-12.107-5.676c-1.686-1.066-3.027-2.648-4.265-4.265
	c-1.135-1.514,0.172-3.956-0.688-5.676c1.548-0.791,1.651-2.614,3.542-3.542c9.494,3.542,13.312,2.821,23.458,2.821v2.854H149.241z
	 M108.001,419.18c3.061,10.731,6.088,17.163,11.385,27.034c2.958,5.504,8.358,10.388,12.073,14.894
	c3.233,3.955,7.808,11.935,7.808,17.06c0,3.096-0.172,2.958-2.82,4.266c-5.95-4.953-13.07-19.296-17.06-26.278
	c-6.329-11.075-13.449-15.03-18.47-28.444C105.215,424.477,105.009,423.72,108.001,419.18z M96.65,419.18
	c0,4.333-1.788,4.884-4.987,5.709c-6.982-5.847-10.421-6.981-17.06-14.927c-3.509-4.23-9.218-13.689-9.218-19.193
	c0-4.746,1.41-2.889,1.41-6.397c6.501,5.435,8.805,12.761,15.65,18.471c7.188,6.02,14.721,8.84,23.423,12.107
	c-2.064,2.063-2.889,4.299-4.265,5.675L96.65,419.18z M110.133,497.359c2.202,4.059,6.673,9.7,9.252,14.206
	c-0.241,0.24-5.193,2.683-5.675,2.854c-13.07-11.179-27.035-31.747-27.035-49.735c0-1.651-1.169-3.818,0-4.987
	c0.757-0.757,1.789-1.41,2.855-1.41C92.626,472.217,103.461,484.978,110.133,497.359z M42.616,482.433V480.3l1.445-0.688v2.82h1.41
	c3.715,4.471,8.977,9.011,13.517,12.795l-2.132,2.132c-3.715-4.437-9.665-8.048-12.795-13.482v-1.444H42.616z M36.94,451.167h5.675
	c5.675,9.906,6.535,13.93,15.65,22.047c1.376,1.204,2.614,2.718,4.265,3.543c1.823,0.895,5.675,0.104,5.675,2.133
	s-1.204,3.887-2.132,5.675c-0.825,1.651-3.543,2.408-3.543,4.266C48.91,481.057,40.38,466.61,36.94,451.167z M41.206,478.167h-1.41
	c0-2.82-1.41-3.13-1.41-6.397h1.41C39.795,474.59,41.206,474.934,41.206,478.167z M49.735,456.154
	c-5.228-9.699-1.479-15.512-2.854-26.313c4.678,5.848,7.979,13.896,13.517,18.505c6.019,4.987,13.689,8.255,21.325,9.94
	l-5.675,14.927l-4.987-2.854c-0.619,1.272-2.201,2.235-2.855,3.543C58.851,470.394,54.413,464.822,49.735,456.154z M66.795,446.902
	c-3.749-3.371-17.782-23.39-17.782-27.723c0-1.995,1.445-4.438,1.445-7.808h1.41c7.979,15.925,14.618,29.511,32.71,35.53
	c-0.998,2.958-1.789,2.511-2.855,5.709C77.148,451.958,70.27,450.032,66.795,446.902z M24.868,456.877
	c0-2.442,0.344-3.577,1.411-5.71h5.709c-3.474,9.252-4.265,13.827-4.265,24.18h-1.444C26.278,469.225,24.868,463.067,24.868,456.877
	z M29.133,481.021h2.132l-2.132,1.411V481.021z M27.723,478.167v-2.132l1.41-0.688v2.82H27.723z M43.338,526.492h-8.53
	c-5.297-9.286-7.085-20.052-7.085-30.543h1.41c2.683,12.073,6.397,19.743,14.205,29.133V526.492z M49.013,520.817
	c0.688,1.342,1.445,2.751,1.445,4.265h-1.445c-11.694-14.033-12.967-19.364-17.025-37.662h0.688
	c3.886,10.318,10.594,19.812,17.782,28.41C49.667,517.378,48.257,519.27,49.013,520.817z M33.398,473.214h1.41
	c1.135,4.988,5.09,13.621,8.53,17.748c2.374,2.82,5.229,5.229,7.808,7.843c2.648,2.613,6.397,5.469,6.397,9.218
	c0,2.305-1.41,2.854-1.41,4.987h-2.854C45.883,500.043,35.324,488.692,33.398,473.214z M60.398,526.492
	c-1.582,0-3.956-0.55-4.265-2.132c-0.31-1.445-0.756-2.924-1.41-4.266c1.032,0,2.098-0.653,2.82-1.41
	c0.757-0.757,1.445-1.788,1.445-2.854h2.132c0,1.582,1.995,8.736,2.821,9.975C62.806,526.011,61.912,526.492,60.398,526.492z
	 M73.916,526.492c-2.374,0-4.471-2.235-5.71-4.265c-1.307-2.167-1.96-4.712-2.82-7.086c-1.169-3.164-0.963-6.638-1.444-9.975
	c-0.275-1.892-2.821-3.061-2.821-4.952c0-2.752,1.066-1.961,2.821-2.855c5.675,9.906,7.979,18.711,13.517,28.445
	C76.323,526.011,75.429,526.492,73.916,526.492z M83.133,526.492c-3.474-6.088-14.928-27.825-14.928-34.086
	c0-0.963,4.334-11.178,4.987-12.794c0,9.045,0.241,15.374,2.855,24.145c2.167,7.464,7.051,14.137,10.628,21.325L83.133,526.492z
	 M272.169,225.913c1.548-3.096,2.133-1.445,3.543-4.265l35.53,31.266v220.989c-14.412,10.834-29.993,25.349-43.338,37.663
	c-3.474,3.198-12.692,14.927-16.338,14.927h-139.3c-3.233,0-14.583,0.551-17.06-0.688c-8.805-4.438-15.753-27.929-17.748-36.975
	c1.651-5.813,2.339-11.798,4.265-18.471h1.41c1.169,11.522,3.405,16.819,9.252,27c4.333,7.602,9.252,13.312,16.337,19.192
	l-0.722,2.855c3.061,2.029,3.646,2.614,5.709,5.675h3.543c2.683,0,4.712-2.854,6.397-4.987c1.823-2.27,1.204-5.744,2.132-8.529
	c-3.818-10.147-14.205-23.424-20.603-32.676c-8.909-12.829-11.385-18.573-11.385-34.808c0-0.517,1.238-11.007,1.41-11.385h2.132
	c2.27,10.111,13.655,20.121,19.915,29.132c3.095,4.506,5.331,10.869,8.53,15.65c2.717,4.059,7.085,9.94,12.795,9.94
	c5.951,0,6.397-9.665,6.397-13.518c-7.188-12.521-15.478-24.971-24.868-36.218c-1.204-9.493-9.252-17.129-9.252-28.445
	c0-0.378,5.916-9.046,7.12-9.94c6.397,21.429,31.265,32.263,31.265,51.868h49.013c2.235-2.958,7.533-6.191,10.663-8.53v-87.398
	c0-4.058,4.265-7.325,4.265-11.385c0-1.857-1.341-15.34-1.41-15.615c-0.413-1.857-2.442-3.13-2.855-4.987
	c-1.341-5.984,0-20.225,0-27c0-4.024,1.307-8.564-0.688-12.072c-1.857-3.233-5.194-5.538-8.53-7.12
	c-3.267-1.514-7.085-1.41-10.662-1.41h-12.107c-1.857-4.678-2.408-10.318-4.265-14.928c4.231-7.395,7.808-15.237,12.107-22.735
	h3.542c2.683,7.154,8.083,22.048,12.795,27.723c4.368,5.229,11.109,10.801,17.06,14.205c9.458,5.4,10.938,1.204,8.53,12.073
	c1.685,0.86,3.714,1.41,5.675,1.41c3.439,0,11.385-7.36,11.385-10.628c0-1.411-2.408-2.202-2.133-3.577
	c0.413-2.133-0.447-4.438-1.444-6.397c-1.513-3.062-3.474-5.882-5.675-8.53c-4.333-5.194-10.766-10.628-14.927-15.615
	c-10.112-12.142-13.689-26.45-21.325-39.795c2.201-2.202,4.162-5.469,5.709-8.53h29.133c4.953,8.668,26.278,29.855,36.218,29.855
	c2.27,0,3.68-1.135,5.709-2.133v-1.445L272.169,225.913z M264.361,213.118c-0.653,0.62-4.024,3.543-4.987,3.543
	c-2.545,0-4.093-3.13-6.397-4.265c-2.477-1.239-5.159-2.305-7.085-4.265c-2.029-2.029-3.336-4.815-5.709-6.398v-1.41
	C253.08,200.323,256.347,203.521,264.361,213.118z M186.904,296.974l-14.928,1.41v130.048h14.928V296.974z M184.049,426.3h-9.252
	l-0.688-125.062l9.94-0.722V426.3z M844.952,275.648v175.519h31.265c4.987,0,10.112,1.307,14.928,0
	c3.887-1.066,9.563-6.569,12.795-8.53V284.179l-9.939-8.53H844.952z M893.277,436.962c-1.616,0.825-3.474,1.96-4.265,3.542h-33.398
	V286.312h29.855c2.854,0,5.435,1.96,7.808,3.542V436.962z M499.59,370.889c-0.378,0.757,0,2.683,0,3.543h41.206l-21.326-46.193
	L499.59,370.889z M524.458,363.769h-9.252l4.987-9.939C521.81,357.096,522.91,360.674,524.458,363.769z M866.965,428.432h14.928
	V297.661l-14.928,0.723V428.432z M869.819,300.517h9.253V426.3h-9.253V300.517z"/>
</svg>
