<?xml version="1.0" encoding="utf-8"?>
<!-- Generator: Adobe Illustrator 15.0.0, SVG Export Plug-In . SVG Version: 6.00 Build 0)  -->
<!DOCTYPE svg PUBLIC "-//W3C//DTD SVG 1.1//EN" "http://www.w3.org/Graphics/SVG/1.1/DTD/svg11.dtd">
<svg version="1.1" id="Layer_1" xmlns="http://www.w3.org/2000/svg" xmlns:xlink="http://www.w3.org/1999/xlink" x="0px" y="0px"
	 width="38.242px" height="27.92px" viewBox="0 0 38.242 27.92" enable-background="new 0 0 38.242 27.92" xml:space="preserve">
<g>
	<path d="M34.365,11.796c-0.037-0.049-0.076-0.092-0.111-0.145C34.291,11.704,34.328,11.747,34.365,11.796z"/>
	<path d="M35.074,12.487c-0.064-0.044-0.131-0.09-0.195-0.144C34.945,12.397,35.01,12.443,35.074,12.487z"/>
	<path d="M36.297,12.77c-0.055,0.013-0.111,0.02-0.17,0.024C36.186,12.789,36.242,12.784,36.297,12.77z"/>
	<path d="M35.408,12.673c-0.072-0.031-0.145-0.066-0.217-0.109C35.266,12.606,35.336,12.641,35.408,12.673z"/>
	<path d="M34.727,12.203c-0.053-0.052-0.107-0.102-0.16-0.161C34.619,12.101,34.674,12.15,34.727,12.203z"/>
	<path d="M35.725,12.774c-0.072-0.015-0.146-0.037-0.223-0.063C35.578,12.737,35.65,12.759,35.725,12.774z"/>
	<path d="M36.021,12.803c-0.068,0.001-0.139-0.005-0.211-0.016C35.883,12.798,35.953,12.804,36.021,12.803z"/>
	<path d="M13.112,7.499c-0.016-0.552-0.041-1.755,0.029-2.545c0.094-1.054,0.075-1.486-0.263-1.525
		c-0.075-0.018-0.282-0.055-0.545-0.075c0.413-0.394,0.696-1.128,0.639-1.824c-0.076-0.941-1.561-2.427-1.561-2.427
		s-0.15-0.075-0.979,1.712c-0.658,1.411,0.113,2.238,0.471,2.521c-0.358,0.018-0.64,0.093-0.753,0.245
		c-0.357,0.451-0.169,2.971-0.094,3.855c0.004,0.058,0.021,0.108,0.048,0.154c0.556-0.027,1.044-0.046,1.419-0.06
		C12.002,7.516,12.542,7.506,13.112,7.499z"/>
	<path d="M28.645,5.255c0.094-1.016,0.074-1.43-0.266-1.467c-0.074-0.02-0.279-0.038-0.545-0.075
		c0.414-0.358,0.695-1.092,0.641-1.751C28.416,1.06,26.932-0.37,26.932-0.37s-0.168-0.075-0.997,1.655
		c-0.659,1.354,0.131,2.126,0.472,2.408c-0.341,0.02-0.641,0.095-0.754,0.226c-0.354,0.447-0.174,2.816-0.098,3.689
		c0.838,0.023,1.91,0.062,3.061,0.111C28.598,7.203,28.572,6.029,28.645,5.255z"/>
	<path d="M21.287,4.934c0.094-0.997,0.075-1.41-0.264-1.467c-0.094,0-0.301-0.038-0.562-0.057c0.412-0.376,0.715-1.091,0.658-1.768
		c-0.076-0.885-1.601-2.314-1.601-2.314s-0.169-0.057-0.997,1.655c-0.678,1.354,0.131,2.145,0.489,2.39
		c-0.376,0.037-0.659,0.112-0.79,0.244c-0.357,0.433-0.169,2.859-0.094,3.706c0.006,0.072,0.042,0.132,0.088,0.186
		c1.277,0.015,2.385,0.033,3.05,0.046C21.25,7.176,21.207,5.803,21.287,4.934z"/>
	<path d="M34.625,20.208c0,0,0.113-0.508,0.227-0.619c0.094-0.094,0.508,0.508,0.508,0.508s0.34-0.094,0.562-0.094
		c0.246,0-0.355,0.865-0.355,0.865s0.113,0.602,0.057,0.676c-0.057,0.096-0.488-0.301-0.488-0.301s-0.564,0.246-0.584,0.207
		c-0.037-0.037-0.094-0.582-0.074-0.658c0.02-0.094-0.32-0.281-0.357-0.355C34.08,20.36,34.625,20.208,34.625,20.208z
		 M27.723,20.813c0,0,0.057-0.342,0.17-0.549c0.094-0.225,0.619,0.697,0.619,0.697s0.564,0.168,0.621,0.266
		c0.057,0.094-0.488,0.301-0.488,0.301s-0.021,0.602-0.076,0.619c-0.037,0-0.545-0.189-0.621-0.244
		c-0.074-0.057-0.375,0.17-0.469,0.17c-0.076,0,0.018-0.545,0.018-0.545s-0.414-0.34-0.451-0.473
		C27.006,20.905,27.723,20.813,27.723,20.813z M18.71,20.981c0,0,0.207-0.488,0.319-0.564c0.132-0.074,0.433,0.584,0.433,0.584
		s0.338-0.037,0.564,0c0.244,0.037-0.489,0.789-0.489,0.789s0,0.604-0.075,0.678c-0.076,0.094-0.433-0.395-0.433-0.395
		s-0.583,0.17-0.602,0.113c-0.038-0.039,0.019-0.584,0.057-0.658c0.019-0.096-0.283-0.32-0.301-0.396
		C18.165,21.036,18.71,20.981,18.71,20.981z M9.943,20.569c0.075-0.021,0.132-0.396,0.188-0.453
		c0.057-0.059,0.395,0.377,0.395,0.377s0.527-0.076,0.659-0.021c0.132,0.076-0.282,0.658-0.282,0.658s0.188,0.283,0.282,0.51
		c0.075,0.227-0.941-0.02-0.941-0.02s-0.508,0.301-0.621,0.281c-0.094-0.018,0.131-0.564,0.131-0.564s-0.451-0.412-0.414-0.469
		C9.36,20.829,9.85,20.585,9.943,20.569z M2.343,20.624c0.244-0.02,0.583,0.037,0.583,0.037s0.357-0.641,0.47-0.547
		s0.263,0.604,0.263,0.604s0.545,0.096,0.527,0.189c-0.038,0.074-0.358,0.281-0.339,0.355c0.038,0.096,0.038,0.641,0,0.68
		c-0.038,0.037-0.602-0.17-0.602-0.17s-0.395,0.449-0.47,0.355c-0.057-0.094,0-0.678,0-0.678S2.119,20.642,2.343,20.624z"/>
	<path d="M32.349,12.657c0,0,0.111-0.525,0.207-0.619c0.111-0.095,0.525,0.508,0.525,0.508s0.32-0.095,0.564-0.095
		c0.227,0-0.357,0.864-0.357,0.864s0.113,0.584,0.059,0.678c-0.076,0.096-0.49-0.318-0.49-0.318s-0.564,0.264-0.604,0.225
		c-0.018-0.037-0.072-0.583-0.057-0.678c0.02-0.073-0.318-0.262-0.357-0.338C31.804,12.807,32.349,12.657,32.349,12.657z
		 M26.026,13.26c0,0,0.057-0.357,0.17-0.564c0.094-0.207,0.621,0.715,0.621,0.715s0.564,0.15,0.621,0.244
		c0.055,0.096-0.49,0.303-0.49,0.303s-0.018,0.62-0.074,0.62c-0.039,0.02-0.547-0.17-0.621-0.227
		c-0.075-0.057-0.377,0.153-0.471,0.153c-0.074,0,0.02-0.547,0.02-0.547s-0.414-0.32-0.451-0.471
		C25.312,13.354,26.026,13.26,26.026,13.26z M20.608,13.167c0,0,0.188-0.49,0.32-0.564c0.111-0.094,0.412,0.582,0.412,0.582
		s0.359-0.036,0.584,0c0.227,0.037-0.508,0.791-0.508,0.791s0.02,0.602-0.057,0.678c-0.074,0.094-0.433-0.397-0.433-0.397
		s-0.583,0.17-0.621,0.111c-0.019-0.035,0.019-0.58,0.056-0.656c0.039-0.095-0.263-0.32-0.301-0.414
		C20.046,13.221,20.608,13.167,20.608,13.167z M14.363,13.071c0.094,0,0.131-0.395,0.188-0.451c0.075-0.056,0.395,0.396,0.395,0.396
		s0.527-0.096,0.658-0.02c0.132,0.057-0.282,0.657-0.282,0.657s0.207,0.282,0.282,0.489c0.095,0.225-0.94-0.02-0.94-0.02
		s-0.508,0.32-0.602,0.281c-0.113-0.018,0.113-0.562,0.113-0.562s-0.434-0.414-0.414-0.471C13.781,13.334,14.27,13.09,14.363,13.071
		z M6.2,13.053c0.226-0.02,0.564,0.057,0.564,0.057s0.357-0.641,0.47-0.545c0.113,0.074,0.263,0.583,0.263,0.583
		s0.564,0.112,0.527,0.188c-0.038,0.094-0.357,0.281-0.32,0.375c0.02,0.094,0.02,0.641-0.019,0.678
		c-0.019,0.037-0.602-0.17-0.602-0.17s-0.395,0.434-0.452,0.358c-0.075-0.094-0.019-0.678-0.019-0.678S5.955,13.071,6.2,13.053z"/>
	<path d="M5.561,11.087c0,0,0.47-1.317,2.295-1.486c1.806-0.188,0.884,1.185,0.884,1.562c0,0.357,0.169,1.994,2.107,1.711
		c1.957-0.3,2.502-2.125,2.916-2.746c0.395-0.62,1.655-1.956,2.935,0.15c1.261,2.106,2.164,3.913,3.311,0.658
		c1.168-3.254,2.748-0.037,2.859,0.527c0.133,0.564,0.848,2.991,2.391-0.02c1.541-3.01,2.613-0.131,2.857,0.622
		c0.246,0.752,1.055,1.899,1.9,1.034c0.848-0.865,2.031-5.437,3.932-1.938c0.1,0.18,0.201,0.341,0.307,0.489
		c0.035,0.053,0.074,0.096,0.111,0.145c0.066,0.086,0.133,0.172,0.199,0.246c0.055,0.06,0.107,0.109,0.162,0.161
		c0.051,0.048,0.102,0.098,0.15,0.141c0.066,0.054,0.131,0.1,0.195,0.144c0.039,0.026,0.08,0.054,0.119,0.076
		c0.072,0.043,0.143,0.078,0.215,0.109c0.031,0.014,0.062,0.026,0.094,0.038c0.076,0.026,0.15,0.049,0.225,0.063
		c0.027,0.006,0.059,0.01,0.086,0.014c0.07,0.011,0.143,0.017,0.211,0.016c0.035-0.001,0.068-0.005,0.104-0.009
		c0.061-0.005,0.115-0.012,0.172-0.024c0.064-0.017,0.129-0.039,0.191-0.066c0.631-0.261,1.064-1.028,0.996-2.088
		c-0.059-0.997-0.527-2.314-1.957-2.464c-1.527-0.167-4.4-0.325-6.914-0.433c0.004,0.161,0.01,0.263,0.01,0.263
		s-2.99,0.508-3.065-0.338c-0.002-0.01-0.002-0.026-0.004-0.036c-0.017-0.001-0.036-0.002-0.054-0.002
		c-2.651-0.057-3.574-0.037-3.574-0.037s-0.242-0.006-0.66-0.014c0.002,0.064,0.004,0.107,0.004,0.107s-2.558,0.422-3.054-0.153
		c-1.612-0.018-3.491-0.029-5.103-0.01c0.005,0.185,0.01,0.296,0.01,0.296s-2.63,0.46-3.019-0.204
		C7.679,7.713,3.94,8.022,2.457,9.017c-0.884,0.564-1.712,1.918-0.301,3.705C4.037,15.112,5.561,11.087,5.561,11.087z"/>
	<path d="M13.124,7.795c0,0-0.005-0.111-0.01-0.296c-0.572,0.007-1.111,0.017-1.59,0.032c-0.375,0.014-0.863,0.032-1.419,0.06
		C10.494,8.255,13.124,7.795,13.124,7.795z"/>
	<path d="M28.623,7.982c0,0-0.004-0.102-0.008-0.263c-1.15-0.049-2.225-0.088-3.062-0.111c0.002,0.01,0.002,0.026,0.004,0.036
		C25.633,8.49,28.623,7.982,28.623,7.982z"/>
	<path d="M21.27,7.663c0,0-0.002-0.043-0.004-0.107c-0.665-0.013-1.773-0.031-3.05-0.046C18.71,8.085,21.27,7.663,21.27,7.663z"/>
	<path d="M34.254,11.651c-0.104-0.148-0.207-0.31-0.307-0.489C34.047,11.342,34.148,11.503,34.254,11.651z"/>
	<path d="M34.879,12.343c-0.051-0.043-0.102-0.093-0.152-0.141C34.777,12.251,34.828,12.301,34.879,12.343z"/>
	<path d="M34.564,12.042c-0.066-0.074-0.133-0.16-0.199-0.246C34.432,11.882,34.498,11.968,34.564,12.042z"/>
	<path d="M36.488,12.704c-0.062,0.027-0.125,0.05-0.191,0.066C36.363,12.755,36.426,12.73,36.488,12.704z"/>
	<path d="M35.191,12.563c-0.039-0.022-0.078-0.05-0.117-0.076C35.113,12.513,35.152,12.541,35.191,12.563z"/>
	<path d="M35.502,12.711c-0.031-0.012-0.062-0.024-0.094-0.038C35.439,12.686,35.471,12.699,35.502,12.711z"/>
	<path d="M35.811,12.788c-0.027-0.004-0.057-0.008-0.086-0.014C35.754,12.78,35.781,12.784,35.811,12.788z"/>
	<path d="M36.127,12.795c-0.035,0.004-0.068,0.008-0.105,0.009C36.059,12.803,36.092,12.798,36.127,12.795z"/>
	<path d="M37.24,22.487c-0.094,0-0.057,0.658-0.076,1.186c-0.018,0.658-0.432,0.996-1.035,1.26c-0.73,0.338-1.484,0.131-2.162-0.996
		c-1.393-2.314-2.105-2.295-3.365-1.242c-1.264,1.035-2.26,3.895-4.027,3.104c-1.75-0.809-0.168-2.84-2.389-3.234
		c-2.201-0.375-2.973,1.447-3.725,2.428c-0.754,0.979-3.312,1.938-3.97,0.094c-1.147-3.254-3.123-3.066-5.06-0.752
		c-0.583,0.678-3.048,3.574-3.104,0.15c-0.038-1.562-0.979-2.709-4.026-0.811c-1.072,0.715-3.066,1.129-3.179-0.678l-0.076-1.092
		c-0.809-0.094-1.109,1.355-1.034,1.863c0.169,1.43,0.376,1.43,2.502,2.107c2.107,0.695,5.869,0.789,8.258,0.939
		c2.389,0.133,8.71,0.227,11.212,0.207c2.502-0.037,10.046-0.281,11.89-0.717c1.861-0.449,3.648-0.715,4.25-2.014
		C38.537,23.37,37.768,22.392,37.24,22.487z"/>
	<path d="M0.876,17.614c0.057-0.941,0.771-1.188,0.79-1.75c0.001-0.02,0.005-0.055,0.006-0.076
		c-0.261,0.023-0.498,0.107-0.684,0.303c-0.621,0.658-0.414,1.467-0.245,1.807c0.074,0.123,0.102,0.16,0.123,0.164
		C0.868,17.878,0.871,17.716,0.876,17.614z"/>
	<path d="M37.258,16.692c0.021,0.279,0.033,0.711,0.039,1.219c0.053,0.055,0.113,0.057,0.188,0.041
		c0.227-0.074,0.584-0.207,0.695-0.658c0.113-0.545,0.17-2.646-1.352-2.184c0.02,0.051,0.035,0.092,0.055,0.113
		C37.127,15.583,37.258,16.692,37.258,16.692z"/>
	<path d="M0.971,17.915c0.132-0.188,0.414-0.547,0.828-0.734c0.564-0.281,0.959,0.02,1.449,1.035
		c0.508,1.018,1.467,1.375,2.032,0.264c0.564-1.09,1.016-1.881,1.637-1.24c0.64,0.619,0.583,1.881,1.806,1.58
		c1.223-0.301,0.414-1.43,0.715-1.619c0.282-0.168,1.186-0.508,2.446,1.129c1.242,1.656,1.862,0.094,2.352-0.676
		c0.47-0.771,2.182-0.547,3.066-0.453c0.903,0.094,2.088,0.867,2.972,0.979c0.885,0.113,1.75-0.451,2.391-0.828
		c0.64-0.377,1.109-0.15,1.674,0.377c0.564,0.545,2.445,1.223,3.461,0.395c0.998-0.828,1.543-1.484,2.371-0.545
		c0.828,0.959,1.072,1.223,2.238,0.037c1.148-1.186,1.543-0.111,1.938,0.453c0.377,0.562,1.562,0.225,1.955-0.867
		c0.396-1.109,0.865-0.959,0.865-0.508c0,0.34,0,0.961,0.094,1.186c0.012,0.021,0.027,0.021,0.039,0.035
		c-0.006-0.508-0.018-0.939-0.039-1.221c0,0-0.131-1.109-0.375-1.467c-0.018-0.023-0.035-0.064-0.053-0.113
		c-0.002,0-0.002,0-0.004,0c-1.506,0.471-2.07,0.357-3.199,0.564c-1.127,0.207-4.645,1.055-7.976,0.695
		c-3.329-0.357-8.541,0.076-10.102,0.02c-1.542-0.057-4.251-0.264-6.34-0.244c-2.069,0.037-4.044,0.639-4.872,0.395
		c-0.677-0.188-1.813-0.83-2.665-0.754c-0.001,0.023-0.005,0.059-0.006,0.076c-0.019,0.564-0.733,0.811-0.79,1.75
		c-0.006,0.104-0.009,0.264-0.009,0.447C0.895,18.063,0.907,18.001,0.971,17.915z"/>
</g>
</svg>
