<?xml version="1.0" encoding="utf-8"?>
<!-- Generator: Adobe Illustrator 13.0.0, SVG Export Plug-In . SVG Version: 6.00 Build 14948)  -->
<!DOCTYPE svg PUBLIC "-//W3C//DTD SVG 1.1//EN" "http://www.w3.org/Graphics/SVG/1.1/DTD/svg11.dtd" [
	<!ENTITY ns_extend "http://ns.adobe.com/Extensibility/1.0/">
	<!ENTITY ns_ai "http://ns.adobe.com/AdobeIllustrator/10.0/">
	<!ENTITY ns_graphs "http://ns.adobe.com/Graphs/1.0/">
	<!ENTITY ns_vars "http://ns.adobe.com/Variables/1.0/">
	<!ENTITY ns_imrep "http://ns.adobe.com/ImageReplacement/1.0/">
	<!ENTITY ns_sfw "http://ns.adobe.com/SaveForWeb/1.0/">
	<!ENTITY ns_custom "http://ns.adobe.com/GenericCustomNamespace/1.0/">
	<!ENTITY ns_adobe_xpath "http://ns.adobe.com/XPath/1.0/">
]>
<svg version="1.1" id="Layer_1" xmlns:x="&ns_extend;" xmlns:i="&ns_ai;" xmlns:graph="&ns_graphs;"
	 xmlns="http://www.w3.org/2000/svg" xmlns:xlink="http://www.w3.org/1999/xlink" x="0px" y="0px" width="679.334px"
	 height="487.914px" viewBox="0 0 679.334 487.914" enable-background="new 0 0 679.334 487.914" xml:space="preserve">

	<g i:extraneous="self">
		<g>
			<path fill-rule="evenodd" clip-rule="evenodd" d="M228.695,357.611c1.687-3.959,9.584-7.607,14.597-2.27
				c13.088-7.518,27.265,0.197,28.42,13.438c-5.804-8.514-27.897-19.502-33.617,11.969c-2.715-5.703-2.533-17.363,2.691-21.957
				c-10.541,2.529-15.171,15.75-13.239,24.971c-5.85-6.463-4.683-15.111-1.689-19.734c-9.433,4.109-11.952,21.658-6.516,33.018
				C204.925,383.395,210.048,357.791,228.695,357.611L228.695,357.611z M447.838,357.611c-1.688-3.959-9.584-7.607-14.598-2.27
				c-13.088-7.777-27.523-0.736-28.42,13.438c6.322-8.305,27.896-19.502,33.617,11.969c4.863-7.225,0.33-19.301-2.689-21.957
				c11.898,1.834,14.482,15.318,13.238,24.971c5.953-6.359,4.164-16.875,1.689-19.734c7.879,1.412,12.055,20.207,6.516,33.018
				C471.297,382.98,465.035,357.998,447.838,357.611L447.838,357.611z M325.058,346.119c-15.354,11.232-27.908,30.783-33.378,54.482
				c10.058-10.236,26.061-19.031,37.439-36.584c-4.884,20.773-12.318,23.174-17.058,53.52c2.428-3.854,8.739-12.465,17.123-24.785
				c2.281,12.438,2.697,21.471,3.891,34.012c3.009-4.156,8.075-17.996,9.221-26.332c3.709,5.719,8.857,16.197,10.477,21.59
				c2.211-19.449-6.35-42.584-13.721-55.266c12.045,7.6,29.985,29.848,42.52,50.289c-0.572-22.904-10.73-48.279-34.098-67.725
				c38.152,14.797,58.414,67.186,47.92,100.416c-8.26-13.145-20.92-22.846-33.045-26.215c6.189,8.395,6.971,31.504,4.041,44.621
				c-2.705-8.855-13.229-19.896-20.729-32.891c1.406,11.752-7.06,38.643-13.892,52.662c-2.591-25.705-2.367-36.961-13.285-56.678
				c-8.874,10.656-13.637,16.545-26.298,38.182c-1.64-18.592,2.237-38.912,10.431-58.125c-11.913,18.357-30.03,27.395-39.954,34.326
				c4.954-12.775,8.67-21.887,12.756-34.609C286.502,376.504,287.018,364.561,325.058,346.119L325.058,346.119z M299.19,342.408
				c5.538,5.061,15.142,4.277,25.569,1.938c-17.087,7.49-34.922,14.203-50.908,27.973
				C280.565,352.797,289.941,347.564,299.19,342.408L299.19,342.408z M377.342,342.408c-5.537,5.061-15.141,4.277-25.568,1.938
				c17.088,7.49,34.922,14.203,50.908,27.973C395.967,352.797,386.592,347.564,377.342,342.408L377.342,342.408z M311.698,213.356
				c-6.991,12.147-9.592,25.232-5.996,38.224c4.577,16.531,19.99,26.801,22.783,44.268c1.708,10.686-0.537,26.121-15.133,43.033
				c8.55-15.73,10.692-33.328,4.354-49.691c-3.949,13.684-12.316,22.139-27.254,29.76c10.027-7.988,19.257-22.418,17.854-37.359
				c-1.683-17.908-16.657-31.744-8.641-53.267c-8.17,4.472-14.164,17.957-13.974,28.447
				C281.998,243.941,287.296,222.606,311.698,213.356L311.698,213.356z M311.062,242.428c3.756,17.238,18.987,27.419,31.61,40.037
				c15.293,15.287,17.221,38.398,6.51,59.164c1.25-14.135,0.869-25.645-4.092-36.141c-3.311,5.385-11.856,20.123-12.254,38.994
				c-6.38-26.236,8.611-36.621-1.509-56.563C323.795,273.08,309.957,260.053,311.062,242.428L311.062,242.428z M320.243,216.569
				c8.233,0.197,16.555,0.795,24.845,0.785c9.029-0.01,9.758,2.893,14.125,7.849c1.283,1.456,5.242,4.493,0.334,3.519
				c-11.816-2.343-14.973,8.734-31.583,10.063c4.352-2.388,6.768-4.781,8.869-7.257c1.619-1.909,2.808-4.891,3.724-7.273
				c1.47,0.439,2.935,0.813,4.843,0.469c2.01-0.361,3.85-2.775,0.332-2.715c-6.6,0.113-10.588,0.416-9.588,8.597
				c-6.861-1.143-11.905-9.378-18.441-12.299C313.878,216.596,315.6,216.458,320.243,216.569L320.243,216.569z M319.247,242.66
				c10.458,1.96,17.262,0.89,26.705-3.29c11.318-5.011,23.867-10.59,34.32-6.611c-0.016-7.385-2.572-11.797-10.553-16.58
				c21.686,2.846,27.449,30.728,11.279,42.438c8.674-31.304-36.721-20.291-13.426-4.441c-5.818-0.463-10.861-7.713-15.91-6.977
				C341.879,248.627,334.896,254.68,319.247,242.66L319.247,242.66z M0,0c23.501,31.466,45.182,55.08,74.708,71.214
				c39.036,21.33,67.342,50.493,112.706,62.865c48.313,13.176,74.786,66.41,126.965,70.618c23.563,1.901,47.708-1.511,50.394,10.734
				c4.348,1.691,12.955,9.059,13.539,13.856c-3.896-3.772-10.406-6.193-17.582-6.905c-2.566-4.919-5.396-6.683-10.586-8.537
				c5.393-0.163,8.58,0.297,12.799,1.034c-4.924-6.347-29.277-5.633-43.626-4.701c-20.458,1.33-35.535-4.315-53.47-14.912
				c-11.86-7.007-19.304-3.011-14.15,6.059c4.006,7.052,14.483,15.84,31.063,23.578c-13.858,0-30.403-12.634-39.512-22.874
				c-17.951-20.181-29.981-43.992-57.048-53.959c-14.958-5.508-26.74-0.694-14.51,14.654c14.44,18.122,36.529,32.737,58.542,42.373
				c15.737,6.888,22.217,4.677,42.105,43.376c-4.153-1.721-11.712-12.62-18.573-16.194c-9.397-4.895-12.411,0.193-5.189,8.185
				c13.036,14.425,38.547,23.607,55.409,29.847c-6.375,0.664-18.644-2.262-27.211-5.096c-8.485-2.809-18.699-1.365-5.895,6.762
				c8.159,5.18,17.029,6.865,26.627,7.596c-25.368,6.92-52.277-6.285-67.698-21.307c10.296,3.828,16.323,6.611,20.051,7.033
				c10.546,1.195,1.815-5.967-2.128-7.826c-10.467-4.934-50.71-19.714-55.808-33.077c6.146,3.671,13.294,6.46,20.729,7.209
				c12.688,1.281,8.124-4.664,0.608-7.997c-11.96-5.304-44.09-19.74-49.876-34.722c4.563,3.248,9.514,6.253,14.1,8.105
				c13.59,5.491,7.873-2.226,2.163-8.362c-10.518-11.306-39.66-22.308-51.161-45.058c6.835,6.71,15.21,12.743,24.47,15.601
				c8.843,2.731,13.517,0.281,0.968-7.041c-11.994-6.998-33.146-17.769-41.323-34.536c3.516,3.255,11.306,9.242,18.346,13.379
				c20.649,12.135,13.525-4.183,5.075-11.387c-11.196-9.549-24.237-17.282-36.982-24.056c-14.011-6.221-25.986-7.748-15.478,11.474
				c3.729,6.821,14.456,22.598,28.071,28.456c-9.234-1.806-22.839-4.981-16.924,4.444c12.83,20.445,53.705,29.738,63.834,49.805
				c-5.262-2.499-9.258-4.718-13.315-5.464c-10.265-1.89-14.528,5.086-6.511,11.986c9.187,7.905,45.392,17.237,49.822,25.863
				c-17.137-1.926-16.486,6.418-10.989,15.814c13.954,23.851,61.745,24.946,82.071,58.886c-15.608-9.08-29.327-12.469-22.857,0.227
				c10.522,20.654,50.428,30.975,71.182,27.973c-7.371,6.035-7.962,10.707-9.482,16.145c-9.981,4.904-21.074,9.227-38.294,6.672
				c5.987-3.559,8.47-4.934,11.744-8.416c-11.061,2.539-40.635,2.35-50.35-11.795c8.708,0.141,16.015-1.209,24.029-5.742
				c-17.668,0.258-32.807-6.889-54.576-17.463c9.083-1.293,14.215-2.131,21.077-4.457c-7.627-1.213-27.769-3.688-45.989-19.445
				c7.653-0.529,13.07-2.018,20.026-5.721c-17.41-2.111-30.202-9.197-44.24-17.943c11.847,0.193,18.6,0.113,27.45-2.152
				c-14.589-2.773-26.662-8.252-39.627-15.946c10.497-0.354,14.002-1.676,17.328-4.466c-14.063-2.683-21.786-4.242-34.134-11.855
				c4.485,0.396,14.355-0.564,16.375-6.119c-12.629-1.626-27.795-3.708-38.686-13.889c9.729,1.534,15.701,3.005,20.927,2.659
				c7.602-0.502,10.477-5.369,0.456-8.022c-14.217-3.765-32.022-7.923-37.479-22.508c6.462,4.915,12.827,6.842,17.675,7.313
				c21.204,2.063,9.667-6.891,0.304-10.357c-12.118-4.485-31.375-8.648-37.251-23.337c9.57,6.795,15.905,9.024,20.458,9.937
				c10.987,2.2,17.381,0.563,5.053-6.324c-10.296-5.752-41.791-20.719-50.355-39.533c6.144,5.43,20.287,15.239,30.519,17.635
				c7.699,1.802,8.699-0.519,2.214-5.1c-8.73-6.167-37.254-30.331-39.501-40.401c7.805,7.457,21.151,17.162,31.022,20.688
				c9.641,3.444,5.602-0.682,1.325-4.009c-11.102-8.64-43.631-33.559-49.949-59.649c11.36,18.269,26.152,30.331,40.342,38.004
				c12.31,6.656,9.195,1.13,4.06-4.71C38.275,60.882,10.236,35.506,0,0L0,0z M679.334,0c-25.279,29.705-52.508,52.163-81.238,75.27
				c-40.938,32.926-78.791,49.87-124.959,68.948c-42.883,17.719-56.273,48.452-103.178,65.394
				c20.07,0.291,45.652-9.836,55.246-17.835c-3.904,17.576-24.961,31.413-28.633,33.126c13.857,0,30.402-12.634,39.512-22.874
				c17.951-20.181,29.982-43.992,57.049-53.959c14.957-5.508,26.738-0.694,14.51,14.654c-14.441,18.122-36.529,32.737-58.541,42.373
				c-15.738,6.888-26.051,7.166-42.105,43.376c4.924-3.956,11.711-12.62,18.572-16.194c9.398-4.895,12.412,0.193,5.189,8.185
				c-13.035,14.425-38.547,23.607-55.408,29.847c5.723-0.223,14.309-1.553,21.906-3.539c19.201-5.02,18.352,2.148,9.387,7.211
				c-6.541,3.695-18.055,5.521-24.814,5.59c25.367,6.92,52.275-6.285,67.697-21.307c-4.666,1.734-8.455,3.256-11.551,4.438
				c-17.029,6.508-13.723-2.172-0.539-7.791c15.029-6.408,45.578-18.989,49.975-30.516c-6.145,3.671-13.293,6.46-20.729,7.209
				c-12.688,1.281-8.125-4.664-0.609-7.997c11.961-5.304,44.09-19.74,49.877-34.722c-4.563,3.248-9.514,6.253-14.1,8.105
				c-13.59,5.491-7.873-2.226-2.162-8.362c10.518-11.306,43.596-23.878,51.16-45.058c-6.834,6.71-15.211,12.743-24.471,15.601
				c-8.842,2.731-13.516,0.281-0.967-7.041c11.994-6.998,33.352-15.799,41.322-34.536c-3.619,4.81-10.684,9.968-18.346,13.379
				c-21.881,9.743-13.525-4.183-5.076-11.387c11.197-9.549,24.238-17.282,36.982-24.056c14.012-6.221,25.986-7.748,15.479,11.474
				c-3.729,6.821-14.455,22.598-28.07,28.456c9.234-1.806,22.84-4.981,16.924,4.444c-12.83,20.445-53.705,29.738-63.834,49.805
				c5.262-2.499,9.258-4.718,13.314-5.464c10.266-1.89,14.529,5.086,6.512,11.986c-9.188,7.905-45.393,17.237-49.822,25.863
				c17.137-1.926,16.486,6.418,10.988,15.814c-13.953,23.851-61.744,24.946-82.07,58.886c15.607-9.08,29.326-12.469,22.857,0.227
				c-10.523,20.654-50.43,30.975-71.184,27.973c12.486,6.787,10.422,10.576,9.482,16.145c9.982,4.904,21.074,9.227,38.295,6.672
				c-5.986-3.559-8.471-4.934-11.744-8.416c11.061,2.539,40.635,2.35,50.352-11.795c-8.709,0.141-16.018-1.209-24.031-5.742
				c17.67,0.258,32.807-6.889,54.576-17.463c-9.082-1.293-14.215-2.131-21.078-4.457c7.627-1.213,27.77-3.688,45.99-19.445
				c-7.654-0.529-13.07-2.018-20.027-5.721c17.41-2.111,30.203-9.197,44.24-17.943c-11.846,0.193-18.598,0.113-27.449-2.152
				c14.59-2.773,26.662-8.252,39.627-15.946c-10.496-0.354-14.002-1.676-17.328-4.466c14.063-2.683,21.785-4.242,34.135-11.855
				c-4.484,0.396-14.355-0.564-16.375-6.119c12.629-1.626,27.795-3.708,38.686-13.889c-9.729,1.534-15.701,3.005-20.928,2.659
				c-7.6-0.502-10.475-5.369-0.455-8.022c14.217-3.765,32.023-7.923,37.48-22.508c-6.463,4.915-12.828,6.842-17.676,7.313
				c-18.561,1.825-10.951-6.351-0.305-10.357c12.094-4.549,31.375-8.648,37.252-23.337c-9.57,6.795-15.904,9.024-20.457,9.937
				c-10.988,2.2-17.381,0.563-5.053-6.324c10.295-5.752,41.789-20.719,50.354-39.533c-6.143,5.43-20.287,15.239-30.52,17.635
				c-7.697,1.802-8.697-0.519-2.213-5.1c8.73-6.167,37.254-30.331,39.502-40.401c-7.805,7.457-21.15,17.162-31.023,20.688
				c-9.641,3.444-5.602-0.682-1.324-4.009c11.102-8.64,41.869-36.447,49.949-59.649c-11.176,16.557-27.848,28.816-43.244,36.345
				c-12.57,6.147-9.195,1.13-4.059-4.71C638.158,59.223,664.752,36.127,679.334,0L679.334,0z M245.568,395.742
				c16.254-4.244,17.957-22.844,4.218-30.688C276.45,371.295,266.489,400.896,245.568,395.742L245.568,395.742z M430.965,395.742
				c-16.254-4.244-17.957-22.844-4.219-30.688C400.084,371.295,410.043,400.896,430.965,395.742L430.965,395.742z M222.167,401.266
				c14.189,3.732,30.53,6.799,41.663-5.658c7.938-8.883,9.472-23.123,27.078-31.49c-15.245,14.682-13.127,34.801-25.236,43.828
				C250.833,419.008,233.027,408.996,222.167,401.266L222.167,401.266z M454.367,401.266c-15.295,1.258-25.67,6.574-38.111-2.432
				c-11.367-8.227-10.688-25.238-30.631-34.717c15.246,14.682,13.127,34.801,25.236,43.828
				C425.701,419.008,443.402,407.752,454.367,401.266L454.367,401.266z M353.484,250.783c5.303,22.893,30.66,36.197,16.896,63.02
				c2.025-23.734-10.525-36.865-12.322-38.811c-0.693,7.313-2.584,13.666,6.305,31.244
				C345.42,287.225,347.926,271.918,353.484,250.783L353.484,250.783z"/>
		</g>
	</g>

</svg>
