<?xml version="1.0" encoding="utf-8"?>
<!-- Generator: Adobe Illustrator 15.0.0, SVG Export Plug-In . SVG Version: 6.00 Build 0)  -->
<!DOCTYPE svg PUBLIC "-//W3C//DTD SVG 1.1//EN" "http://www.w3.org/Graphics/SVG/1.1/DTD/svg11.dtd">
<svg version="1.1" id="Layer_1" xmlns="http://www.w3.org/2000/svg" xmlns:xlink="http://www.w3.org/1999/xlink" x="0px" y="0px"
	 width="141.377px" height="99.688px" viewBox="0 0 141.377 99.688" enable-background="new 0 0 141.377 99.688"
	 xml:space="preserve">
<g>
	<g>
		<path fill="#231F20" d="M0,45.86c0.014,0.004,4.151,5.679,9.785,15.05c5.523,9.328,12.887,22.812,15.584,38.778
			c-0.079,0.017-3.139-6.396-8.178-16.029C12.265,73.987,4.989,60.993,0,45.86z"/>
	</g>
	<g>
		<path fill="#231F20" d="M2.488,50.406c0.09,0.095-0.155-3.276,2.754-7.342c2.623-4.027,9.472-8.087,16.459-6.126
			C21.22,37.346,11.403,40.999,2.488,50.406z"/>
	</g>
	<g>
		<path fill="#231F20" d="M12.93,76.959c-0.521,0.362,4.863-10.908,17.214-9.649C29.838,67.654,23.293,73.752,12.93,76.959z"/>
	</g>
	<g>
		<path fill="#231F20" d="M23.244,92.9c0,0,9.904-8.051,24.249-7.59C47.493,85.311,37.442,93.408,23.244,92.9z"/>
	</g>
	<g>
		<path fill="#231F20" d="M32.565,58.032c0,0,8.546-7.626,21.339-6.679C53.905,51.354,45.229,59.02,32.565,58.032z"/>
	</g>
	<g>
		<path fill="#231F20" d="M38.51,66.821c0,0,9-7.768,22.311-6.983C60.821,59.838,51.686,67.649,38.51,66.821z"/>
	</g>
	<g>
		<path fill="#231F20" d="M118.395,5.608c0.066-0.161,0.002-0.973-1.043-3.211c-0.016-0.362-0.004-0.785,0.053-1.223
			c1.299-1.144,0.902-0.473,1.467-0.802c0.672-0.227,1.459-0.302,2.326-0.37c1.695-0.046,4.057,0.521,5.68,2.394
			c1.615,1.814,2.418,4.337,2.473,6.833c0.018,1.254-0.062,2.543-0.357,3.808c-0.109,0.643-0.316,1.266-0.51,1.899l-0.344,0.937
			l-0.189,0.466l-0.098,0.233l-0.049,0.117l-0.023,0.058l-0.012,0.029l-0.006,0.015c-3.051-5.448-0.84-1.509-1.516-2.725
			c4.371,0.919,9.547,0.818,15.131,0.323c-0.039-0.204-4.158,3.046-12.266,3.699c-1.012-0.011-2.078-0.039-3.189-0.088l-0.209-0.01
			l-0.104-0.005c1.346,2.418-1.852-3.293-1.52-2.71l0.004-0.011l0.006-0.021l0.014-0.042l0.102-0.334l0.215-0.672l0.359-1.396
			c0.402-1.895,0.549-3.971,0.189-5.897c-0.43-1.878-1.318-3.541-3.398-4.203c-0.658-0.538-2.998-0.147-2.732-0.775
			C118.231,2.476,119.26,4.357,118.395,5.608z"/>
	</g>
	<g>
		<path fill="#231F20" d="M59.961,36.678c0.061-0.005,2.283,3.53,5.52,8.919c3.084,5.35,7.914,13.105,8.682,22.844
			c-0.055-0.004-2.305-3.564-5.633-8.938C65.325,54.177,60.612,46.295,59.961,36.678z"/>
	</g>
	<g>
		<path fill="#231F20" d="M66.454,50.62c0.002-0.004-0.521-1.141-1.322-3.36c-0.137-1.166-0.75-2.558-0.334-4.451
			c-0.141-1.808,2.119-4.563,4.875-4.545c10.025,0.204,18.846,13.358,14.553,24.898c-0.197,0.059,0.369-5.511-3.475-11.889
			c-1.846-3.1-4.738-6.61-8.568-8.662c-1.928-0.848-3.775-1.492-4.73,0.297C66.292,44.754,66.481,47.781,66.454,50.62z"/>
	</g>
	<g>
		<path fill="#231F20" d="M79.065,46.673c0.053-0.003-0.385-1.255-0.408-3.646c0.096-2.201,0.215-6.43,4.631-9.359
			c4.885-2.439,11.217-0.522,14.396,5.471c1.998,5.388,2.043,11.009,2.424,16.924c-0.158,0.107-2.221-4.936-4.787-12.353
			c-0.664-1.69-1.568-4.032-2.498-4.615c-1.666-1.278-3.6-2.321-5.506-2.538C83.403,35.722,79.979,40.911,79.065,46.673z"/>
	</g>
	<g>
		<path fill="#231F20" d="M119.616,26.525c-0.012,0.15-1.705-0.675-4.57-0.559c-2.932,0.048-6.043,2.941-5.705,7.838
			c0.096,4.551,2.971,10.499,8.656,11.834c5.584,1.461,14.135-0.193,16.844-7.903c-0.094-0.034,0.234,1.81-1.207,4.776
			c-1.451,2.869-5.418,6.448-11.379,7.177c-5.734,1.281-14.453-2.827-16.012-10.878c-0.959-3.693-0.723-8.191,2.047-11.636
			C111.286,23.349,116.713,24.362,119.616,26.525z"/>
	</g>
</g>
</svg>
