<?xml version="1.0" encoding="utf-8"?>
<!-- Generator: Adobe Illustrator 15.0.0, SVG Export Plug-In . SVG Version: 6.00 Build 0)  -->
<!DOCTYPE svg PUBLIC "-//W3C//DTD SVG 1.1//EN" "http://www.w3.org/Graphics/SVG/1.1/DTD/svg11.dtd">
<svg version="1.1" id="Envelope" xmlns="http://www.w3.org/2000/svg" xmlns:xlink="http://www.w3.org/1999/xlink" x="0px" y="0px"
	 width="277.902px" height="251px" viewBox="0 0 277.902 251" enable-background="new 0 0 277.902 251" xml:space="preserve">
<g>
	<path d="M197.162,147.75c-0.054,0.008-0.106,0.02-0.159,0.025C197.019,147.796,197.08,147.781,197.162,147.75z"/>
	<path d="M252.337,115.804c0.159-0.002,0.312-0.018,0.472-0.017C252.795,115.735,252.625,115.743,252.337,115.804z"/>
	<path d="M259.6,123.695c-3.647-4.569-7.003-6.902-8.107-7.656c0.348-0.111,0.632-0.189,0.845-0.235
		c-0.378,0.005-0.752,0.022-1.126,0.042c-0.067-0.048-0.109-0.08-0.103-0.086c0.021,0.029,0.042,0.058,0.063,0.087
		c-3.952,0.211-7.626,1.223-10.953,2.716c7.499-8.988,11.705-18.683,13.521-23.582c1.477,3.678,2.939,7.197,4.364,10.541
		c10.999,25.654,19.229,41.969,19.766,43.177c-15.288-39.061-30.056-75.377-37.945-103.026C231.729,18.114,228.624-0.044,228.451,0
		c4.005,35.575,14.668,68.324,24.776,93.695c-8.725,10.896-12.689,22.302-13.585,25.127c-0.161,0.076-0.314,0.159-0.474,0.237
		c-1.924-5.126-5.91-7.479-5.832-7.589c0.25,3.964,1.864,6.878,3.457,8.858c-5.043,2.934-9.096,6.798-11.833,10.097
		c-5.469,6.63-6.542,12.181-6.605,12.077c6.212-9.221,13.936-15.729,20.497-20.018c0.782,0.69,1.324,1.054,1.294,1.094
		c-0.042-0.622-0.126-1.208-0.228-1.778c5.056-3.185,9.302-5.016,11.426-5.715c5.926,8.077,10.418,15.892,11.729,22.383
		c1.414,6.544,0.095,11.169,0.262,11.16C268.757,140.082,264.036,128.838,259.6,123.695z"/>
	<path d="M266.677,150.504c0.016-0.007,0.032-0.014,0.048-0.021C266.723,150.473,266.707,150.48,266.677,150.504z"/>
	<path d="M161.614,136.73c0.342,1.088,0.679,1.721,0.654,1.678c0.251-0.525,0.463-1.043,0.655-1.557
		c7.766,0.684,14.714,0.851,19.858,2.506c6.981,1.976,10.801,5.307,10.868,5.158c-6.824-9.445-19.354-10.482-26.549-9.983
		c-1.264,0.075-2.44,0.165-3.541,0.26c1.37-5.537-0.261-9.852-0.228-9.995c-2.625,3.773-2.638,7.592-2.145,10.223
		c-4.107,0.432-6.522,0.891-6.539,0.863C157.021,136.251,159.348,136.516,161.614,136.73z"/>
	<path d="M196.639,167.829c0.016-0.005,0.032-0.011,0.048-0.015C196.706,167.788,196.683,167.8,196.639,167.829z"/>
	<path d="M196.639,167.829c-17.495,5.519-32.97,8.293-33.264,8.278C181.953,179.742,195.743,168.422,196.639,167.829z"/>
	<path d="M184.387,200.307c-0.043,0.062-0.084,0.125-0.128,0.186C184.294,200.516,184.336,200.443,184.387,200.307z"/>
	<path d="M198.193,172.777c0.04-0.041,0.078-0.084,0.118-0.125C198.282,172.648,198.242,172.697,198.193,172.777z"/>
	<path d="M211.807,180.082c-6.018,9.062-3.971,19.082-3.146,21.201c-13.184-2.609-24.396,0.955-24.428,0.812
		c14.176,3.334,26.342-0.525,26.383-0.387c-0.545-0.132-1.085-0.25-1.624-0.359C211.628,190.134,212.157,180.314,211.807,180.082z"
		/>
	<path d="M216.085,178.545c4.192,8.295,9.542,14.887,12.212,20.357c2.852,5.377,3.331,9.566,3.479,9.555
		c1.61-9.696-4.411-17.934-8.357-22.5C219.223,181.167,216.084,178.564,216.085,178.545z"/>
	<path d="M165.952,124.05c-0.019-0.005-0.036-0.01-0.055-0.015C165.894,124.045,165.914,124.049,165.952,124.05z"/>
	<path d="M223.771,119.878c5.365-4.914,8.733-8.395,8.688-8.421c-9.434,4.848-17.998,11.354-20.99,18.771
		c-2.796,6.681-1.641,11.416-1.604,12.056C211.559,131.57,218.492,124.792,223.771,119.878z"/>
	<path d="M209.865,142.284c-0.005,0.028-0.012,0.055-0.017,0.083C209.866,142.375,209.869,142.339,209.865,142.284z"/>
	<path d="M162.437,179.245c0.014,0.021,0.023,0.038,0.037,0.058C162.483,179.295,162.468,179.275,162.437,179.245z"/>
	<path d="M169.289,168.963c4.656-1.6,9.176-2.605,13.001-3.475c7.674-1.7,12.763-2.532,12.771-2.51
		c-11.595-1.379-22.751,0.696-30.021,4.875c-3.692,1.883-6.021,6.026-4.704,8.508c0.272,0.606,0.558,1.087,0.83,1.479
		c-3.733-3.247-4.584-8.466-5.532-12.659c-0.94-5.152-1.298-9.998-1.547-14.108c-0.471-8.229-0.285-13.591-0.312-13.601
		c-3.516,11.666-2.884,23.709,0.076,31.893c2.067,6.541,6.377,8.976,8.395,9.708c0.085,0.075,0.154,0.136,0.191,0.172
		c-0.028-0.044-0.054-0.087-0.082-0.13c0.667,0.232,1.055,0.268,0.969,0.201c-0.484-0.252-0.923-0.535-1.341-0.834
		C159.156,173.172,165.208,170.253,169.289,168.963z"/>
	<path d="M0.271,101.405c-0.09-0.135-0.176-0.27-0.267-0.405C-0.02,101.01,0.073,101.146,0.271,101.405z"/>
	<path d="M226.141,4.152c0.104-0.051,0.207-0.101,0.311-0.152C226.447,3.992,226.342,4.044,226.141,4.152z"/>
	<path d="M258.187,156.436c5.417-2.641,8.108-5.627,8.491-5.932c-20.186,9.355-40.114,8.196-40.082,8.965
		c6.541,1.523,13.123,1.614,18.921,0.78c-7.188,2.295-14.223,4.758-21.097,7.346c0.418-3.083,0.714-6.143,0.637-9.149
		c11-1.993,19.729-7.766,26.688-9.59c7.26-2.73,11.658,0.801,11.592,0.771c-3.669-5.081-11.029-3.926-15.554-2.527
		c-4.954,1.498-9.06,3.682-12.479,5.531c-4.902,2.846-8.582,4.746-10.251,5.553c-0.068-2.068-0.317-4.113-0.835-6.119
		c-1.346-6.312-7.6-11.25-12.995-9.889c-6.602,1.725-10.856,3.91-12.866,4.971c-0.217-1.668-0.383-2.596-0.45-2.563
		c-0.058,0.978-0.135,1.949-0.219,2.917c-0.237,0.124-0.411,0.208-0.522,0.25c0.169-0.025,0.339-0.057,0.509-0.084
		c-0.478,5.484-1.188,10.812-0.389,16.052c0.412,5.229,4.207,9.839,8.422,11.375c-3.444,1.462-6.841,2.945-10.189,4.447
		c1.501-3.683,2.339-6.2,2.678-6.763c-2.629,2.736-4.753,5.633-6.472,8.481c-26.534,12.146-49.872,25.283-69.155,36.3
		c-37.249,21.465-62.109,32.944-62.125,32.924c28.749-11.514,55.228-26.195,79.636-39.39c17.507-9.547,34.084-18.22,49.339-25.581
		c-3.589,7.391-4.617,13.666-5.029,14.795c4.22-6.025,7.308-12.048,9.489-16.927c4.414-2.09,8.716-4.067,12.882-5.909
		c1.329-0.591,2.642-1.168,3.942-1.734c3.728-0.135,6.642-1.838,8.194-3.504c1.631-0.684,3.238-1.351,4.812-1.996
		c0.057,0.795,0.098,1.229,0.146,1.214c0.069-0.453,0.139-0.906,0.206-1.358c1.623-0.664,3.205-1.301,4.765-1.923
		c11.049,11.167,18.621,22.763,21.04,26.507c-5.195,0.971-9.396,4.041-12,6.355c-3.286,2.861-5.198,5.009-5.196,5.033
		c6.342-1.859,11.008-5.678,14.524-7.903c3.525-2.321,6.101-3.728,6.078-3.798c-0.997-0.008-1.962,0.078-2.899,0.228
		c-4.142-16.379-17.235-24.581-21.115-26.594c26.791-10.67,43.824-15.265,43.738-15.458
		C267.994,153.744,263.062,155.052,258.187,156.436z M221.08,168.87c0.178-0.435,0.245-0.685,0.272-0.666
		c-0.181,0.276-0.376,0.528-0.572,0.78c-3.607,1.394-7.171,2.816-10.686,4.27c-1.612-0.201-3.137-0.697-4.414-1.451
		c-4.735-2.463-5.521-8.047-6.11-12.352c-0.403-5.146-0.838-9.312-1.167-11.913c5.981-1.123,11.995-3.629,16.442-2.369
		c4.671,1.858,6.791,7.173,7.49,11.351c0.688,4.776,1.02,8.752,1.209,11.4C222.72,168.232,221.902,168.555,221.08,168.87z"/>
	<path d="M277.871,148.7c0.011,0.026,0.021,0.053,0.03,0.079C277.905,148.777,277.892,148.747,277.871,148.7z"/>
	<path d="M57.935,79.882c8.023-3.078,15.906-6.108,23.616-9.099c-25.08,56.583-41.058,107.283-41.058,107.283
		c21.642-48.062,37.119-93.631,41.691-107.529c29.727-11.535,56.8-22.459,78.844-33.082C199.02,19.671,223.178,5.744,226.14,4.151
		C173.785,30.018,123.055,51.176,83.289,67.148c0.193-0.604,0.295-0.922,0.295-0.922c-0.147,0.327-0.292,0.653-0.438,0.979
		c-4.245,1.705-8.367,3.352-12.35,4.938c-4.164,1.662-8.16,3.277-11.995,4.842c0.005-0.017,0.008-0.027,0.008-0.027
		c-0.004,0.01-0.009,0.02-0.014,0.029C24.514,90.983,3.752,100.824,3.756,100.808c18.219-7.155,36.218-14.036,53.588-20.699
		c-13.731,29.767-23.184,57.614-27.413,70.918c-1.359-3.057-2.747-5.992-4.164-8.779C13.863,117.897,2.176,103.9,0.271,101.405
		c11.897,17.825,21.074,36.39,28.275,54.057c-0.743,2.421-1.124,3.749-1.124,3.749c0.477-1.012,0.946-2.023,1.413-3.031
		c6.984,17.238,12.1,33.602,16.034,47.553C52.768,232.4,57.287,251.052,57.452,251c-6.28-37.432-15.53-72.505-26.9-98.572
		C45.429,119.563,55.094,89.202,57.935,79.882z"/>
	<path d="M200.412,142.915c-5.732-9.24-14.924-15.146-22.16-17.445c-6.897-2.284-11.753-1.417-12.3-1.42
		c20.057,5.095,33.129,18.376,34.424,18.957c-0.616,1.608-0.936,2.478-0.936,2.478c23.289-41.879,38.146-82.22,38.146-82.22
		C217.596,99.285,204.032,133.468,200.412,142.915z"/>
</g>
</svg>
