<?xml version="1.0" encoding="utf-8"?>
<!-- Generator: Adobe Illustrator 15.0.0, SVG Export Plug-In . SVG Version: 6.00 Build 0)  -->
<!DOCTYPE svg PUBLIC "-//W3C//DTD SVG 1.0//EN" "http://www.w3.org/TR/2001/REC-SVG-20010904/DTD/svg10.dtd">
<svg version="1.0" id="Layer_1" xmlns="http://www.w3.org/2000/svg" xmlns:xlink="http://www.w3.org/1999/xlink" x="0px" y="0px"
	 width="100.00px" height="73.28px" viewBox="0 0 84.582 61.981" enable-background="new 0 0 84.582 61.981" xml:space="preserve">
<g>
	<g>
		<path fill="#020202" d="M42.322,45.043c-0.609-2.5-1.433-4.51-2.325-7.068c-0.369-1.059-0.713-3.048-2.226-3.104
			c-0.053-0.084-4.728-0.192-5.995,0.063c-0.988-0.836-6.179-6.451-6.501-6.38c-0.677,0.238-1.198,1.049-0.955,1.613
			c1.273,1.837,7.027,8.447,7.027,8.447c-0.946,4.23-2.704,7.885-3.582,11.92c1.081,0.065,2.095,0.065,3.176,0.131
			c0.067,0,0.203,0.129,0.203,0.191c0.067,3.141-0.203,6.281,0,9.422c0.067,0.896,1.283,1.282,2.094,0.768
			c0.203-0.127,0.337-0.383,0.406-0.575c0.338-3.142,0-6.28,0.203-9.421c0-0.256,0.541-0.256,0.541-0.065
			c0.27,3.206-0.135,6.347,0.202,9.552c0.068,0.576,0.811,0.832,1.419,0.832c0.675-0.063,1.081-0.64,1.081-1.218
			c0.135-3.012,0-5.96,0.135-8.972c0-0.129-0.067-0.321,0.135-0.385c1.081-0.064,2.23-0.064,3.312-0.064
			c-0.811-3.396-3.447-11.346-3.447-11.984c0-0.191,0.473-0.191,0.473-0.129c1.081,2.243,1.981,5.121,2.792,7.43
			c0.204,0.576,0.518,0.586,1.193,0.457C42.291,46.375,42.455,45.557,42.322,45.043z"/>
		<path fill="#020202" d="M58.757,28.052c-1.273,0.673-5.465,6.339-6.208,6.846c-1.313-0.067-7.271-0.222-8.058,0.001
			c-0.815,0.232-1.637,1.65-1.91,2.821c-0.614,2.683-1.501,4.952-2.116,7.638c-0.136,0.551,0.068,1.17,0.683,1.309
			c0.684,0.137,1.297-0.207,1.504-0.826c0.805-2.436,2.108-6.902,2.289-7.086c0.18-0.182,0.453,0.066,0.529,0.265
			c0.075,0.79,0,1.517,0,2.308c0,6.262-0.076,12.588,0.227,18.85c0,0.592,0.682,1.054,1.438,1.186
			c0.833,0.065,1.907-0.324,1.892-1.055c-0.086-4.173,0.021-8.152,0.047-12.66c0.08-0.417,0.935-0.083,0.935-0.083
			c0.223,0.251-0.004,7.653,0.08,12.612c0.012,0.729,0.963,1.236,1.739,1.186c0.775-0.052,1.588-0.658,1.588-1.119
			c0.037-6.945,0.063-14.934,0.144-21.975c0,0,6.332-6.69,7.031-8.794C60.826,28.868,60.004,27.644,58.757,28.052z"/>
	</g>
	<g>
		<path fill="#020202" d="M0.002,34.528c0,0.492,0.637,0.846,1.114,1.072c0.987,0.368,2.548-0.025,2.657-1.262
			c0.076-4.424,0.076-9.67,0.116-14.833c0.558-0.55,1.2-0.089,1.2,0.158C4.937,34.19,5.002,58.627,5.096,59.635
			c0.128,1.355,1.629,2.369,2.836,2.246c1.036-0.233,1.973-1.018,2.073-2.038c0.345-0.208,0.092-22.367,0.291-23.341
			c0.127-0.621,1.155-0.438,1.155-0.07c0.04,8.04,0.04,15.57,0.107,23.561c0.011,1.363,1.534,2.098,2.741,1.975
			c1.096-0.247,2.083-1.109,2.083-2.221C16.82,48.03,16.71,36.19,16.71,24.473c0-1.479,0.017-5.383,0.017-5.383
			c0.265-0.656,0.603-0.777,1.114-0.687c0.245,0.004,0.438,0.077,0.534,0.298c1.863,4.33,3.501,8.463,5.826,12.987
			c0.191,0.443,0.631,0.615,1.121,0.621c1.079-0.039,2.39-1.024,1.938-2.288c-1.96-5.48-4.245-10.431-6.54-15.483
			c-0.622-1.443-1.74-2.343-3.059-2.857c-0.83-0.232-1.712-0.3-2.546-0.257c-0.408,0.047-7.285-0.393-10.464,0.347
			c-1.206,0.248-2.146,0.578-3.07,1.684c-0.637,0.761-1.173,1.802-1.393,2.666C-0.032,17.107,0.002,29.055,0.002,34.528z"/>
		<ellipse fill="#020202" cx="10.285" cy="5.26" rx="5.014" ry="5.26"/>
	</g>
	<g>
		<path fill="#020202" d="M81.041,17.837c-0.567-1.99-1.272-3.768-2.916-4.84c-0.301-0.262-0.77-0.501-1.248-0.612
			c-1.01-0.204-1.969-0.265-2.846-0.265c-1.895,0-3.854-0.337-5.731-0.047c-0.615,0.017-1.24,0.095-1.838,0.26
			c-1.318,0.508-2.438,1.395-3.06,2.819c-2.295,4.985-4.789,9.862-6.541,15.276c-0.427,1.255,0.859,2.217,1.938,2.256
			c0.489-0.007,0.93-0.176,1.12-0.613c2.357-4.006,3.824-8.489,5.689-12.76c0.094-0.218,0.409-0.632,0.654-0.636
			c0.296-0.052,0.559-0.056,0.747,0.411c0.315,0.773-4.372,14.614-5.791,22.097c1.751,0.119,3.396,0.119,5.146,0.239
			c0.109,0,0.328,0.238,0.328,0.359c0.109,5.834-0.328,11.67,0,17.508c0.109,1.668,2.08,2.383,3.396,1.43
			c0.329-0.236,0.546-0.715,0.657-1.071c0.547-5.838,0-11.674,0.328-17.51c0-0.478,0.875-0.478,0.875-0.122
			c0.438,5.958-0.219,11.794,0.328,17.751c0.11,1.069,1.314,1.547,2.301,1.547c1.096-0.118,1.752-1.19,1.752-2.262
			c0.22-5.601,0-11.078,0.22-16.677c0-0.237-0.108-0.594,0.219-0.715c1.752-0.119,3.614-0.119,5.366-0.119
			c-1.313-6.314-3.285-12.506-4.818-18.701c-0.328-1.19-0.839-2.418-0.839-3.609c0-0.355,0.664-0.445,0.839-0.203
			c1.752,4.169,2.598,8.661,3.911,12.949c0.33,1.071,1.106,1.771,2.201,1.53c0.985-0.236,1.308-1.633,1.088-2.587
			C83.533,26.275,82.369,22.487,81.041,17.837z"/>
		<ellipse fill="#020202" cx="72.208" cy="5.594" rx="5.014" ry="5.26"/>
	</g>
	<ellipse fill="#020202" cx="34.401" cy="30.725" rx="3.104" ry="3.255"/>
	<ellipse fill="#020202" cx="49.525" cy="30.39" rx="3.104" ry="3.255"/>
</g>
</svg>
