<?xml version="1.0" encoding="utf-8"?>
<!-- Generator: Adobe Illustrator 15.0.0, SVG Export Plug-In . SVG Version: 6.00 Build 0)  -->
<!DOCTYPE svg PUBLIC "-//W3C//DTD SVG 1.1//EN" "http://www.w3.org/Graphics/SVG/1.1/DTD/svg11.dtd">
<svg version="1.1" id="Layer_1" xmlns="http://www.w3.org/2000/svg" xmlns:xlink="http://www.w3.org/1999/xlink" x="0px" y="0px"
	 width="332.392px" height="120.159px" viewBox="0 0 332.392 120.159" enable-background="new 0 0 332.392 120.159"
	 xml:space="preserve">
<g>
	<path d="M329.396,69.245c-0.186-0.742-1.952-6.375-5.297-16.801c-1.486-4.645-2.276-11.267-2.416-19.865
		c-0.046-3.854-0.325-6.226-0.79-7.165c-0.418-0.148-0.744-0.148-1.115,0c-0.279,0.445-0.882,1.977-1.858,4.645
		c-1.58,4.349-3.949,7.956-7.155,10.822c-5.854,5.188-9.338,9.142-10.546,11.711l-0.511-1.334c0-3.558-1.245-9.269-4.878-16.603
		c-3.486-7.039-2.741-9.241-2.741-9.241l1.087-15.298l1.096-7.136c0-2.125-0.558-3.113-1.626-2.965
		c-0.79,0.791-1.254,1.433-1.394,1.878l-0.79,2.372c-0.186,0.692-0.929,2.174-2.184,4.447c-1.998,3.805-3.159,8.549-3.392,14.281
		c-0.232,6.375-0.976,11.217-2.137,14.676c-0.79,2.322-4.522,6.213-6.458,13.44c-5.852,21.843-5.39-0.691-5.39-0.691
		c0-0.346-0.144-2.238-1.162-5.436c-1.814-5.699-5.343-7.412-5.343-7.412c-0.372,0.346-0.65,1.334-0.79,2.965
		c-0.325,4.052-0.929,7.313-1.812,9.784c-0.836,2.521-1.487,6.622-1.952,12.206c-0.372,4.941-1.719,9.685-3.996,14.281
		c-1.812,3.706-4.553,9.488-5.482,12.354c-0.372-4.694-2.277-13.836-3.81-19.914c-0.186-0.742-1.951-6.375-5.296-16.801
		c-1.487-4.645-2.17-11.269-2.416-19.865c-0.168-5.88-1.58-7.313-1.905-7.165c-0.279,0.445-0.883,1.977-1.858,4.645
		c-1.58,4.349-3.949,7.956-7.155,10.822c-4.842,4.292-8.063,7.739-9.716,10.256c-0.345,0.526-1.367,1.229-1.373-0.771
		c-0.239-3.564-1.149-9.152-4.847-15.711c-2.23-3.956-2.741-9.241-2.741-9.241l2.184-16.159c0,0,0.911-8.556-1.626-9.24
		c-0.79,0.791-1.254,1.433-1.394,1.878l-0.79,2.372c-0.186,0.692-0.929,2.174-2.184,4.447c-1.998,3.805-3.16,8.549-3.392,14.281
		c-0.233,6.375-0.976,11.217-2.137,14.676c-0.79,2.322-2.974,6.819-6.458,13.44c-2.602,4.843-4.274,9.488-5.018,13.984
		l-0.372-14.676c0-0.346-0.106-2.25-1.162-5.436c-1.475-4.449-5.343-7.412-5.343-7.412c-0.418,0.346-0.65,1.334-0.79,2.965
		c-0.325,4.052-0.929,7.313-1.812,9.784c-0.836,2.521-1.487,6.622-1.952,12.206c-0.372,4.941-1.719,9.685-3.996,14.281
		c-2.09,4.2-3.763,9.833-4.692,12.996c-1.255-5.386-1.673-13.392-3.485-20.556c-0.186-0.742-1.952-6.375-5.297-16.801
		c-1.486-4.645-2.276-11.267-2.416-19.865c-0.046-3.854-0.325-6.226-0.79-7.165c-0.418-0.148-0.744-0.148-1.115,0
		c-0.279,0.445-0.882,1.977-1.858,4.645c-1.58,4.349-3.949,7.956-7.155,10.822c-4.989,4.422-8.257,7.947-9.862,10.482
		c-0.278,0.439-1.196-0.105-1.196-0.105c0-3.558-0.628-9.608-4.878-16.603c-2.505-4.122-2.741-9.241-2.741-9.241l2.184-16.159V2.979
		c0-2.125-0.558-3.113-1.626-2.965c-0.79,0.791-1.254,1.433-1.394,1.878l-0.79,2.372c-0.186,0.692-0.929,2.174-2.184,4.447
		c-1.998,3.805-3.159,8.549-3.392,14.281c-0.232,6.375-0.976,11.217-2.137,14.676c-0.79,2.322-2.974,6.819-6.458,13.44
		c-2.602,4.843-4.608,9.488-5.351,13.984l-0.038-14.676c0-0.346-0.372-2.174-1.162-5.436c-0.604-2.322-1.905-4.793-3.903-7.412
		c0,0-2.09,1.334-2.23,2.965c-0.325,4.052-0.929,7.313-1.812,9.784c-0.837,2.521-1.487,6.622-1.952,12.206
		c-0.372,4.941-1.719,9.685-3.996,14.281c-1.938,3.928-2.024,5.478-4.857,10.76c-2.833,5.283-3.5,1.764-3.5,1.764
		c-1.083-2.464,0.451-8.801-3.777-18.584c-0.186-0.742-1.951-6.375-5.296-16.801c-1.487-4.645-2.276-11.267-2.416-19.865
		c-0.046-3.854-0.325-6.226-0.79-7.165c-0.418-0.148-0.744-0.148-1.115,0c-0.279,0.445-0.883,1.977-1.858,4.645
		c-1.58,4.349-3.949,7.956-7.155,10.822c-5.854,5.188-9.339,9.142-10.547,11.711H49.46v-1.334c0-3.558-1.264-9.26-4.878-16.603
		c-1.907-3.872-2.742-9.241-2.742-9.241l2.184-16.159V4.479c0-2.125-0.558-3.113-1.626-2.965c-0.79,0.791-1.254,1.433-1.394,1.878
		l-0.79,2.372c-0.186,0.692-0.929,2.174-2.184,4.447c-1.998,3.805-3.16,8.549-3.392,14.281c-0.232,6.375-0.976,11.217-2.137,14.676
		c-0.79,2.322-2.974,6.819-6.458,13.44c-2.337,4.352-3.925,8.543-4.762,12.611c-0.095,0.459-0.874,0.535-0.956-0.006
		c-0.659-4.332,1.85-11.349-0.833-18.733c-0.819-2.255-1.905-4.793-3.903-7.412c0,0-2.081-2.121-2.229,2.965
		c-0.119,4.063-0.93,7.313-1.813,9.784c-0.836,2.521-1.487,6.622-1.951,12.206c-0.372,4.941-1.719,9.685-3.996,14.281
		c-3.392,6.869-5.25,12.354-5.575,16.455c-0.465,5.782,5.438,25.379,5.438,25.379l312.615,0.02c0,0,10.527-12.915,13.129-21.414
		C333.252,92.074,332.648,82.24,329.396,69.245z M319.543,113.332c-2.555,1.9-4.646,3.022-4.646,3.022l-302.649-0.08
		c0,0-5.926,0.533-8.572-10.159C1.907,98.97,1.881,91.735,5.551,84.06c3.438-7.154,5.343-11.961,5.808-14.417
		c0.279-1.645,0.511-4.217,0.697-7.723c0.186-3.61,0.79-6.995,1.812-10.157c0.697-2.095,1.162-3.753,1.348-4.975
		c0.325-1.82,0.511-2.729,0.604-2.726c0.558,0.994,1.254,3.689,2.091,8.084c0.418,2.059,0.418,4.692,0,7.893
		c-0.883,7,1.672,13.863,7.805,20.592c1.998,2.232,3.485,4.269,4.368,6.114c1.068,2.191,1.858,3.61,2.509,4.261h0.558
		c1.162,0-1.348-7.357-3.856-10.091l-1.905-2.057c-5.668-6.122-5.901-7.815-1.905-19.175c0.558-1.636,2.37-5.466,5.483-11.489
		c3.531-6.992,5.482-14.265,5.761-21.817c0.232-6.753,0.464-10.094,4.181-16.905h0.372l0.139,0.11
		c0.047,0.044,0.093,0.063,0.232,0.055c-1.394,10.583-1.998,16.512-1.812,17.789c0.418,3.481,1.626,7.42,3.577,11.824
		c2.044,4.535,3.345,10.976,3.903,19.318c0.186,3.009,0.325,4.653,0.372,4.933c0.372,2.496,0.418,6.913,0.14,13.249
		c-0.093,1.565-0.14,2.49-0.186,2.773c-0.511,3.577-0.558,5.537-0.232,5.883c0.697-0.47,1.208-1.06,1.58-1.771
		c0.511-1.106,0.79-7.805,0.79-20.095c0-3.369,0.929-6.512,2.741-9.433c1.719-2.781,4.553-5.93,8.549-9.446
		c2.741-2.394,5.297-5.721,7.713-9.987h0.372c0.278,9.861,1.347,17.312,3.252,22.354c4.553,11.98,7.85,33.505,8.683,36.255
		c0.833,2.75,4.083-0.417,5.333-1.93c1.142-1.381,4.161-7.399,4.808-8.793c3.438-7.154,5.343-11.961,5.808-14.417
		c0.279-1.645,0.511-4.217,0.697-7.723c0.186-3.61,0.79-6.995,1.812-10.157c0.697-2.095,1.162-3.753,1.347-4.975
		c0.325-1.82,0.511-2.729,0.604-2.726c0.558,0.994,1.254,3.689,2.091,8.084c0.418,2.059,0.418,4.692,0,7.893
		c-0.883,7,1.672,13.863,7.805,20.592c1.998,2.232,3.485,4.269,4.368,6.114c1.069,2.191,1.858,3.61,2.509,4.261h0.558
		c1.161,0-1.348-7.357-3.856-10.091l-1.905-2.057c-5.668-6.122-5.901-7.815-1.905-19.175c0.558-1.636,2.37-5.466,5.483-11.489
		c3.531-6.992,5.482-14.265,5.761-21.817c0.232-6.753,0.464-10.094,4.181-16.905h0.372l0.139,0.11
		c0.047,0.044,0.093,0.063,0.232,0.055c-1.394,10.583-1.998,16.512-1.812,17.789c0.418,3.481,1.626,7.42,3.577,11.824
		c2.044,4.535,3.345,10.976,3.903,19.318c0.186,3.009,0.325,4.653,0.372,4.933c0.372,2.496,0.418,6.913,0.14,13.249
		c-0.093,1.565-0.14,2.49-0.186,2.773c-0.511,3.577-0.557,5.537-0.232,5.883c0.697-0.47,1.208-1.06,1.58-1.771
		c0.511-1.106,0.79-7.805,0.79-20.095c0-3.369,0.929-6.512,2.741-9.433c1.719-2.781,4.554-5.93,8.549-9.446
		c2.741-2.394,5.297-5.721,7.713-9.987h0.371c0.279,9.861,1.348,17.312,3.252,22.354c4.553,11.98,7.016,31.754,10.454,39.562
		c0.511-1.988,3.438-10.476,4.414-12.53c3.438-7.154,5.343-11.961,5.808-14.417c0.279-1.645,0.511-4.217,0.697-7.723
		c0.186-3.61,0.79-6.995,1.812-10.157c0.697-2.095,1.162-3.753,1.348-4.975c0.325-1.82,0.511-2.729,0.604-2.726
		c0.557,0.994,1.254,3.689,2.091,8.084c0.418,2.059,0.418,4.692,0,7.893c-0.883,7,1.672,13.863,7.805,20.592
		c1.998,2.232,3.485,4.269,4.368,6.114c1.068,2.191,1.858,3.61,2.508,4.261h0.558c1.161,0-1.347-7.357-3.856-10.091l-1.905-2.057
		c-5.668-6.122-5.901-7.815-1.905-19.175c0.558-1.636,2.37-5.466,5.482-11.489c3.531-6.992,5.482-14.265,5.762-21.817
		c0.232-6.753,0.464-10.094,4.181-16.905h0.372l0.139,0.11c0.046,0.044,0.093,0.063,0.232,0.055
		c-1.394,10.583-1.998,16.512-1.812,17.789c0.418,3.481,1.626,7.42,3.578,11.824c2.044,4.535,3.345,10.976,3.903,19.318
		c0.186,3.009,0.325,4.653,0.372,4.933c0.372,2.496,0.418,6.913,0.139,13.249c-0.093,1.565-0.139,2.49-0.186,2.773
		c-0.511,3.577-0.557,5.537-0.232,5.883c0.697-0.47,1.208-1.06,1.58-1.771c0.511-1.106,0.79-7.805,0.79-20.095
		c0-3.369,0.929-6.512,2.741-9.433c1.719-2.781,4.553-5.93,8.549-9.446c2.741-2.394,5.296-5.721,7.712-9.987
		c0,0,1.719,17.312,3.624,22.354c4.553,11.98,8.549,27.996,8.967,37.239c3.299-1.334,6.179-8.444,7.016-10.207
		c3.438-7.154,5.343-11.961,5.808-14.417c0.279-1.645,0.512-4.217,0.697-7.723c0.186-3.61,0.79-6.995,1.812-10.157
		c0.697-2.095,1.161-3.753,1.347-4.975c0.325-1.82,0.511-2.729,0.604-2.726c0.558,0.994,1.254,3.689,2.091,8.084
		c0.418,2.059,0.418,4.692,0,7.893c-0.883,7,1.672,13.863,7.805,20.592c1.998,2.232,3.484,4.269,4.367,6.114
		c1.069,2.191,1.859,3.61,2.509,4.261h0.558c1.161,0-1.347-7.357-3.856-10.091l-1.905-2.057c-5.668-6.122-5.901-7.815-1.905-19.175
		c0.558-1.636,2.37-5.466,5.482-11.489c3.532-6.992,5.483-14.265,5.761-21.817c0.232-6.753,0.735-11.2,4.452-18.011
		c0,0,0.333,1.333-0.161,3.081c-0.755,2.919,0.014,8.247-1.177,15.979c-0.534,3.465,1.626,7.42,3.577,11.824
		c2.044,4.535,3.345,10.976,3.903,19.318c0.186,3.009,0.325,4.653,0.372,4.933c0.372,2.496,0.418,6.913,0.14,13.249
		c-0.093,1.565-0.14,2.49-0.186,2.773c-0.511,3.577-0.557,5.537-0.232,5.883c0.697-0.47,1.208-1.06,1.58-1.771
		c0.512-1.106,0.791-7.805,0.791-20.095c0-3.369,0.929-6.512,2.741-9.433c1.719-2.781,4.554-5.93,8.549-9.446
		c2.741-2.394,5.296-5.721,7.712-9.987h0.372c0.279,9.861,1.347,17.312,3.252,22.354c4.554,11.98,7.016,22.593,7.434,31.836
		C330.601,98.147,325.723,108.686,319.543,113.332z"/>
	<path d="M57.354,88.051l-0.057-2.637c-0.112-5.149-0.753-8.83-1.927-11.041h-0.906v0.494l-0.517,2.682
		c-0.734,3.807-1.439,6.435-2.114,7.883c-1.889,4.059-2.944,6.578-3.163,7.554h-0.362c-2.118-2.974-3.389-5.206-3.812-6.696
		l-0.371-2.516l-0.525-2.483l1.629-13.506v-5.271c0-2.747-2.466-15.737-4.708-19.437c0,0-1.449,1.382-1.449,3.398
		c0,4.823-0.364,9.086-1.094,12.792c-1.256,6.377-2.214,10.563-2.877,12.56l-0.736,2.216c-0.349,1.049-0.203,5.207,0.439,12.47
		c0.047,0.525,0.746,3.779,2.096,9.767c-6.979-1.038-12.134-5.25-15.466-12.629c-1.479-3.276-2.48-5.601-3.003-6.972
		c-0.589-0.73-1.222,0.014-1.449,0.494c-0.279,0.594,0.092,3.058,1.118,7.391l0.511,2.163l-0.396,3.038
		c-1.038,7.96-1.295,10.105,1.291,16.358c1.337,3.233,2.768,5.296,4.293,6.188c2.509,1.466,6.06,1.739,10.647,0.815
		c3.421-0.689,5.566-0.895,6.437-0.621l1.185,0.374c1.325,0.419,2.862,0.508,4.612,0.269c2.938-0.401,5.291-0.424,7.054-0.068
		c5.369,1.083,8.939,1.108,10.708,0.075c4.653-2.716,3.877-7.996-2.324-15.841C58.99,93.356,57.402,90.268,57.354,88.051z
		 M62.164,112.275c-0.473,0.156-2.574-0.134-6.306-0.869l-3.11-0.613c-0.31-0.061-1.593,0.073-3.848,0.404
		c-2.029,0.297-3.402,0.355-4.12,0.172l-3.038-0.773c-1.184-0.302-3.264-0.159-6.24,0.43l-3.035,0.755
		c-1.814,0.452-6.012-0.111-7.776-1.313c-2.53-1.724-5.117-9.732-5.262-12.193c-0.011-0.192,0.41-5.247,0.45-5.405l0.661-2.623
		c0.147-0.587,0.26-1.479,0.339-2.679l0.362,0.083l1.521,2.29l1.908,2.065l1.809,2.129c0.367,0.432,3.05,1.557,7.88,3.766
		c1.566,0.716,4.809,3.011,4.809,3.011c4.425,1.623,1.268-1.647,1.268-1.647c-1.945-6.105-2.974-9.471-3.088-10.097
		c-1.385-7.595-1.038-15.287,1.038-23.075c0.696-2.608,1.363-5.942,2.002-10c0.434-2.754,0.721-4.395,0.863-4.925
		c2.245,6.764,2.652,14.231,1.222,22.404c-1.583,9.049-1.361,14.556,7.198,24.54c0.592,0.118,1.014,0.008,1.267-0.329v-5.106
		l0.182-0.823c0.434-1.091,1.642-3.562,3.621-7.413h0.543v2.8c0,3.027,1.402,6.346,4.205,9.955
		C66.067,105.662,66.959,110.689,62.164,112.275z"/>
	<path d="M224.797,86.551l-0.057-2.637c-0.104-4.769-0.717-8.883-1.731-11.132c-0.583-1.417-1.619,3.267-1.619,3.267
		c-0.734,3.807-1.439,6.435-2.114,7.883c-1.889,4.059-2.944,6.578-3.163,7.554h-0.362c-2.118-2.974-3.389-5.206-3.813-6.696
		l-0.37-2.516l-0.525-2.483l1.629-13.506v-5.271c0-2.747-2.466-15.737-4.708-19.437c0,0-1.623-0.378-1.449,3.398
		c0.222,4.818-0.364,9.086-1.095,12.792c-1.255,6.377-2.214,10.563-2.877,12.56l-0.736,2.216c-0.349,1.049-0.203,5.207,0.439,12.47
		c0.047,0.525,0.746,3.779,2.096,9.767c-6.979-1.038-12.134-5.25-15.466-12.629c-1.478-3.276-2.48-5.601-3.003-6.972
		c-0.74-0.15-1.222,0.014-1.449,0.494c-0.279,0.594,0.093,3.058,1.118,7.391l0.511,2.163l-0.396,3.038
		c-1.037,7.96-1.295,10.105,1.292,16.358c1.336,3.233,2.767,5.296,4.292,6.188c2.51,1.466,6.061,1.739,10.648,0.815
		c3.421-0.689,5.566-0.895,6.436-0.621l1.185,0.374c1.325,0.419,2.862,0.508,4.611,0.269c2.938-0.401,5.291-0.424,7.054-0.068
		c5.369,1.083,8.939,1.108,10.709,0.075c4.652-2.716,3.877-7.996-2.324-15.841C226.432,91.856,224.844,88.768,224.797,86.551z
		 M229.559,110.775c-0.473,0.156-2.574-0.134-6.306-0.869l-3.11-0.613c-0.31-0.061-1.592,0.073-3.848,0.404
		c-2.029,0.297-3.401,0.355-4.12,0.172l-3.038-0.773c-1.184-0.302-3.265-0.159-6.241,0.43l-3.035,0.755
		c-1.814,0.452-6.012-0.111-7.776-1.313c-1.938-1.32-4.596-6.721-5.136-10.42c-1.108-7.599,1.244-11.281,1.323-12.48l0.362,0.083
		c0,0,1.54,4.799,7.147,7.586c1.315,0.654,3.311,1.531,5.971,2.663c1.63,0.692,2.511,1.095,2.644,1.207l2.165,1.804
		c3.53,2.956,1.268-1.647,1.268-1.647c-1.944-6.105-2.974-9.471-3.088-10.097c-1.385-7.595-1.038-15.287,1.038-23.075
		c0.696-2.608,1.363-5.942,2.002-10c0.434-2.754,0.721-4.395,0.864-4.925c2.245,6.764,2.652,14.231,1.222,22.404
		c-1.583,9.049-1.361,14.556,7.198,24.54c0.592,0.118,1.014,0.008,1.268-0.329v-5.106l0.181-0.823
		c0.412-4.568,4.165-7.413,4.165-7.413v2.8c0,3.027,1.402,6.346,4.205,9.955C233.462,104.162,234.354,109.189,229.559,110.775z"/>
	<path d="M307.625,86.551l-0.057-2.637c-0.059-7.882-2.832-11.041-2.832-11.041l-0.518,3.176c-0.734,3.807-1.438,6.435-2.113,7.883
		c-1.89,4.059-2.944,6.578-3.163,7.554h-0.362c-2.118-2.974-3.389-5.206-3.813-6.696l-0.37-2.516l-0.525-2.483l1.629-13.506v-5.271
		c0-2.747-2.466-15.737-4.708-19.437c0,0-1.449,1.382-1.449,3.398c0,4.823-0.364,9.086-1.094,12.792
		c-1.255,6.377-2.214,10.563-2.878,12.56l-0.736,2.216c-0.348,1.049-0.203,5.207,0.439,12.47c0.047,0.525,0.746,3.779,2.096,9.767
		c-6.979-1.038-12.63-5.045-15.466-12.629c-1.696-4.535-2.273-9.426-3.446-6.285c-0.229,0.615-0.914,2.865,0.112,7.198l0.511,2.163
		l-0.396,3.038c-1.037,7.96-1.295,10.105,1.291,16.358c1.336,3.233,2.768,5.296,4.292,6.188c2.51,1.466,6.061,1.739,10.648,0.815
		c3.42-0.689,5.566-0.895,6.436-0.621l1.185,0.374c1.324,0.419,2.861,0.508,4.611,0.269c2.938-0.401,5.291-0.424,7.055-0.068
		c5.369,1.083,8.939,1.108,10.708,0.075c4.653-2.716,3.877-7.996-2.324-15.841C309.26,91.856,307.672,88.768,307.625,86.551z
		 M312.387,110.775c-0.473,0.156-2.574-0.134-6.306-0.869l-3.111-0.613c-0.31-0.061-1.592,0.073-3.848,0.404
		c-2.028,0.297-3.401,0.355-4.119,0.172l-3.038-0.773c-1.184-0.302-3.265-0.159-6.24,0.43l-3.035,0.755
		c-1.814,0.452-6.012-0.111-7.776-1.313c-2.53-1.724-5.117-9.732-5.261-12.193c-0.012-0.192,0.409-5.247,0.45-5.405l0.661-2.623
		c0.147-0.587,0.259-1.479,0.338-2.679l1.883,2.372l1.908,2.065l1.809,2.129c1.224,1.899,2.993,1.687,7.88,3.766
		c1.63,0.692,2.512,1.095,2.644,1.207l2.165,1.804c2.284,1.91,1.268-1.647,1.268-1.647c-1.945-6.105-2.975-9.471-3.088-10.097
		c-1.385-7.595-1.038-15.287,1.038-23.075c0.695-2.608,1.363-5.942,2.001-10c0.435-2.754,0.721-4.395,0.864-4.925
		c2.245,6.764,2.652,14.231,1.222,22.404c-1.583,9.049-1.361,14.556,7.197,24.54c0.592,0.118,1.015,0.008,1.268-0.329v-5.106
		l0.181-0.823c0.435-1.091,1.642-3.562,3.622-7.413l0.543,2.8c0,3.027,1.402,6.346,4.206,9.955
		C316.29,104.162,317.182,109.189,312.387,110.775z"/>
	<path d="M143.062,86.551l-0.057-2.637c-0.112-5.149-0.754-8.83-1.927-11.041c0,0-0.653,6.326-3.537,11.059
		c-2.33,3.823-2.944,6.578-3.163,7.554h-0.362c-2.118-2.974-3.389-5.206-3.813-6.696l-0.37-2.516l-0.525-2.483l1.629-13.506v-5.271
		c-0.512-11.814-5.613-19.437-5.613-19.437c-0.362,0.249-0.543,1.382-0.543,3.398c0,4.823-0.364,9.086-1.094,12.792
		c-1.256,6.377-2.214,10.563-2.878,12.56l-0.736,2.216c-0.349,1.049-0.203,5.207,0.439,12.47c0.047,0.525,0.746,3.779,2.096,9.767
		c-6.979-1.038-12.134-5.25-15.466-12.629c-1.478-3.276-2.48-5.601-3.003-6.972c-0.74-0.15-1.222,0.014-1.449,0.494
		c-0.279,0.594,0.093,3.058,1.118,7.391l0.512,2.163l-0.396,3.038c-1.038,7.96-1.295,10.105,1.291,16.358
		c1.336,3.233,2.768,5.296,4.292,6.188c2.509,1.466,6.061,1.739,10.648,0.815c3.421-0.689,5.566-0.895,6.436-0.621l1.185,0.374
		c1.325,0.419,2.862,0.508,4.611,0.269c2.938-0.401,5.291-0.424,7.054-0.068c5.369,1.083,8.939,1.108,10.709,0.075
		c4.653-2.716,3.877-7.996-2.325-15.841C144.697,91.856,143.109,88.768,143.062,86.551z M147.824,110.775
		c-0.473,0.156-2.574-0.134-6.306-0.869l-3.11-0.613c-0.31-0.061-1.592,0.073-3.848,0.404c-2.028,0.297-3.402,0.355-4.119,0.172
		l-3.038-0.773c-1.184-0.302-3.265-0.159-6.241,0.43l-3.035,0.755c-1.814,0.452-6.012-0.111-7.776-1.313
		c-2.53-1.724-6.176-9.519-4.812-17.599l0.661-2.623c0.148-0.587,0.26-1.479,0.339-2.679l1.883,2.372l1.908,2.065l1.809,2.129
		c0.367,0.432,2.12,2.149,7.88,3.766c1.705,0.479,2.511,1.095,2.644,1.207l2.165,1.804c0.311,0.259,2.682,0.873,0.969-2.587
		c-2.566-5.183-2.681-8.564-2.789-9.157c-1.385-7.595-1.038-15.287,1.038-23.075c0.696-2.608,1.363-5.942,2.002-10
		c0.434-2.754,0.721-4.395,0.864-4.925c2.245,6.764,2.652,14.231,1.222,22.404c-1.583,9.049-1.361,14.556,7.198,24.54
		c0.592,0.118,1.015,0.008,1.268-0.329v-5.106l0.181-0.823c0.897-4.652,4.165-7.413,4.165-7.413v2.8
		c0,3.027,1.402,6.346,4.205,9.955C151.727,104.162,152.619,109.189,147.824,110.775z"/>
	<path d="M16.041,105.685c-4.115-8.236,0.718-17.819-0.41-24.543l-0.461-2.603l-0.195-2.634c-0.162-2.181-0.625-3.79-1.391-4.83
		c-0.187,0.132-0.398,0.188-0.634,0.165l-0.456,2.659c-0.332,1.929-1.584,5.303-3.762,10.123
		c-5.124,11.341-3.147,25.493,7.492,29.557c3.058,1.168,4.502,1.001,4.332-0.501c-0.006-0.056-0.57-0.861-1.691-2.416
		C17.75,109.116,16.809,107.457,16.041,105.685z M16.107,111.279c-0.158,0.417-5.605-2.817-7.179-8.026
		c-2.263-7.491-0.926-15.357,4.01-23.599h0.182l0.724,3.624v4.941l-1.449,8.071v4.941c0,2.539,0.799,4.981,2.397,7.327l1.405,2.062
		C16.266,110.72,16.235,110.939,16.107,111.279z"/>
	<path d="M265.282,101.419l-0.794-2.526l1.811-13.506c0.165-1.224,0.032-3.139-0.397-5.746l-0.461-2.603l-0.195-2.634
		c-0.163-2.181-0.625-3.79-1.392-4.83c-0.188,0.132-1.09,2.824-1.09,2.824c-0.331,1.929-1.584,5.303-3.762,10.123
		c-5.124,11.341-3.147,25.493,7.492,29.557c3.058,1.168,4.502,1.001,4.332-0.501c-0.006-0.056-0.569-0.861-1.69-2.416
		C267.458,106.837,266.174,104.257,265.282,101.419z M266.377,109.779c-0.157,0.417-5.605-2.817-7.179-8.026
		c-2.262-7.491-0.926-15.357,4.01-23.599h0.181l0.725,3.624v4.941l-1.449,8.071v4.941c0,2.539,0.799,4.981,2.397,7.327l1.405,2.062
		C266.536,109.22,266.505,109.439,266.377,109.779z"/>
	<path d="M100.719,101.419l-0.795-2.526l1.811-13.506c0.165-1.224,0.032-3.139-0.396-5.746l-0.461-2.603l-0.195-2.634
		c-0.162-2.181-0.625-3.79-1.391-4.83c-0.188,0.132-0.398,0.188-0.634,0.165l-0.456,2.659c-0.331,1.929-1.584,5.303-3.762,10.123
		c-5.124,11.341-3.147,25.493,7.492,29.557c3.059,1.168,4.502,1.001,4.332-0.501c-0.006-0.056-0.569-0.861-1.69-2.416
		C102.896,106.837,101.611,104.257,100.719,101.419z M101.767,109.779c-0.157,0.417-5.605-2.817-7.178-8.026
		c-2.263-7.491-0.927-15.357,4.009-23.599h0.181l0.725,3.624v4.941l-1.449,8.071v4.941c0,2.539,0.799,4.981,2.397,7.327l1.405,2.062
		C101.926,109.22,101.895,109.439,101.767,109.779z"/>
	<path d="M183.073,79.641l-0.461-2.603l-0.195-2.634c-0.162-2.181-0.625-3.79-1.391-4.83c-0.188,0.132-0.398,0.188-0.634,0.165
		l-0.456,2.659c-0.331,1.929-1.584,5.303-3.762,10.123c-5.124,11.341-3.148,25.493,7.492,29.557
		c3.058,1.168,4.502,1.001,4.331-0.501c-0.005-0.056-0.581-0.853-1.69-2.416C178.759,98.532,184.342,86.199,183.073,79.641z
		 M183.502,109.779c-0.157,0.417-5.605-2.817-7.179-8.026c-2.262-7.491-0.926-15.357,4.01-23.599h0.181l0.724,3.624v4.941
		l-1.449,8.071v4.941c0,2.539,0.799,4.981,2.397,7.327l1.405,2.062C183.661,109.22,183.63,109.439,183.502,109.779z"/>
	<path d="M66.204,46.654l0.476-2.452c0.059-0.307-0.362-0.362-1.268-0.165c-0.52,0.113-5.542,10.056-4.889,17.624
		c0.264,3.069,1.638,7.106,4.121,12.109c2.474,4.987,3.785,11.646,3.935,19.978c0.075,4.195,0.347,6.292,0.816,6.292h0.725
		c2.087,0,3.055-10.258,3.35-13.507c0.225-2.469-0.76-9.144-4.208-20.253C66.444,57.208,65.425,50.666,66.204,46.654z
		 M70.974,90.509l-0.181,0.823c-0.015-0.096-0.075-0.151-0.181-0.165c-0.366-9.219-1.417-12.608-5.105-19.498
		c-3.341-6.242-3.873-12.645-1.595-19.21h0.362v1.812c0,2.017,1.556,7.856,4.669,17.52C71.378,79.352,72.055,85.59,70.974,90.509z"
		/>
	<path d="M151.912,45.154l0.476-2.452c-0.545-1.67-6.809,9.892-6.157,17.459c0.264,3.069,1.638,7.106,4.122,12.109
		c2.474,4.987,3.785,11.646,3.935,19.978c0.075,4.195,0.347,6.292,0.817,6.292h0.724c2.087,0,3.264-11.675,3.35-13.507
		c0.116-2.476-0.76-9.144-4.208-20.253C152.152,55.708,151.133,49.166,151.912,45.154z M156.682,89.009l-0.181,0.823
		c-0.015-0.096-0.076-0.151-0.181-0.165c-0.366-9.219-1.417-12.608-5.104-19.498c-3.341-6.242-3.873-12.645-1.596-19.21h0.362v1.812
		c0,2.017,1.557,7.856,4.669,17.52C157.085,77.852,157.763,84.09,156.682,89.009z"/>
	<path d="M316.474,45.154l0.477-2.452c0.059-0.307-2.375,1.449-3.354,3.796c-1.508,3.614-3.198,9.075-2.802,13.663
		c0.264,3.069,1.638,7.106,4.121,12.109c2.474,4.987,3.785,11.646,3.935,19.978c0.075,4.195,0.347,6.292,0.816,6.292h0.725
		c2.087,0,3.368-9.842,3.35-13.507c-0.012-2.479-0.76-9.144-4.208-20.253C316.714,55.708,315.695,49.166,316.474,45.154z
		 M321.22,89.009l-0.181,0.823c-0.015-0.096-0.075-0.151-0.181-0.165c-0.366-9.219-1.417-12.608-5.105-19.498
		c-3.341-6.242-3.873-12.645-1.595-19.21l0.362,1.812c0,2.017,1.556,7.856,4.669,17.52C321.625,77.852,322.301,84.09,321.22,89.009z
		"/>
	<path d="M233.599,45.154l0.476-2.452c0.059-0.307-6.9,5.58-6.157,17.459c0.192,3.074,1.638,7.106,4.121,12.109
		c2.474,4.987,3.785,11.646,3.935,19.978c0.075,4.195,0.347,6.292,0.816,6.292h0.724c2.087,0,3.327-9.508,3.35-13.507
		c0.014-2.479-0.76-9.144-4.208-20.253C233.839,55.708,232.82,49.166,233.599,45.154z M238.416,89.009l-0.181,0.823
		c-0.015-0.096-0.076-0.151-0.181-0.165c-0.366-9.219-1.416-12.608-5.105-19.498c-3.341-6.242-3.873-12.645-1.595-19.21l0.363,1.812
		c0,2.017,1.556,7.856,4.669,17.52C238.82,77.852,239.498,84.09,238.416,89.009z"/>
	<path d="M284.695,48.501c-0.932-0.288-1.593,3.128-1.593,3.128c-0.052,0.939-1.36,3.244-3.927,6.916
		c-2.52,3.605-3.578,6.901-3.171,9.886c0.33,2.425,3.189,9.104,3.803,9.224c1.153,0.227,1.606-0.213,1.358-1.317
		c-0.77-3.431-0.283-6.843,1.46-10.235l1.292-2.515C286.621,58.329,286.959,51.437,284.695,48.501z M281.211,64.948
		c-0.742,1.628-1.467,3.387-2.177,5.278c-2.101-2.551-1.622-6.112,1.436-10.684c2.14-3.199,3.321-4.799,3.543-4.799h0.181v2.141
		C284.195,57.891,283.201,60.579,281.211,64.948z"/>
	<path d="M201.868,48.501c-0.933-0.288-1.593,3.128-1.593,3.128c-0.052,0.939-1.361,3.244-3.927,6.916
		c-2.521,3.605-3.578,6.901-3.171,9.886c0.329,2.425,3.188,9.104,3.802,9.224c1.153,0.227,1.606-0.213,1.358-1.317
		c-0.77-3.431-0.283-6.843,1.46-10.235l1.293-2.515C203.793,58.329,204.132,51.437,201.868,48.501z M198.336,64.948
		c-0.742,1.628-1.467,3.387-2.177,5.278c-2.101-2.551-1.622-6.112,1.436-10.684c2.14-3.199,3.321-4.799,3.543-4.799h0.181v2.141
		C201.32,57.891,200.325,60.579,198.336,64.948z"/>
	<path d="M34.473,50.001c-0.932-0.288-1.415-0.124-1.449,0.494l-0.145,2.634c-0.052,0.939-1.361,3.244-3.928,6.916
		c-2.52,3.605-3.578,6.901-3.171,9.886c0.33,2.425,3.189,9.104,3.803,9.224c1.153,0.227,1.606-0.213,1.358-1.317
		c-0.77-3.431-0.283-6.843,1.46-10.235l1.293-2.515C36.398,59.829,36.737,52.937,34.473,50.001z M30.941,66.448
		c-0.742,1.628-1.467,3.387-2.177,5.278c-2.101-2.551-1.622-6.112,1.436-10.684c2.14-3.199,3.321-4.799,3.543-4.799h0.181v2.141
		C33.925,59.391,32.931,62.079,30.941,66.448z"/>
	<path d="M120.133,48.501c-0.932-0.288-1.415-0.124-1.449,0.494l-0.145,2.634c-0.052,0.939-1.361,3.244-3.927,6.916
		c-2.521,3.605-3.578,6.901-3.171,9.886c0.33,2.425,3.189,9.104,3.803,9.224c1.153,0.227,1.606-0.213,1.358-1.317
		c-0.77-3.431-0.283-6.843,1.46-10.235l1.293-2.515C122.058,58.329,122.397,51.437,120.133,48.501z M116.601,64.948
		c-0.742,1.628-1.467,3.387-2.177,5.278c-2.1-2.551-1.622-6.112,1.436-10.684c2.141-3.199,3.321-4.799,3.543-4.799h0.181v2.141
		C119.585,57.891,118.59,60.579,116.601,64.948z"/>
	<path d="M140.719,69.739h0.906c4.951-6.731,4.021-15.718,0.996-17.789c-0.537,0.136-0.809,0.3-0.815,0.494l-0.087,2.866
		c-0.002,0.082-0.274,0.992-0.814,2.73c-1.326,4.268-1.871,7.069-1.633,8.404C139.661,68.641,140.144,69.739,140.719,69.739z
		 M141.969,60.527l0.742-1.844l0.362,2.965l-0.45,1.559c-0.394,1.364-0.817,2.327-1.27,2.889c-0.194-0.058-0.345-0.332-0.453-0.824
		C140.642,64.09,140.998,62.509,141.969,60.527z"/>
	<path d="M222.454,69.739h0.906c4.951-6.731,4.021-15.718,0.996-17.789c-0.537,0.136-0.902,3.36-0.902,3.36
		c-0.002,0.082-0.274,0.992-0.814,2.73c-1.327,4.268-1.871,7.069-1.634,8.404C221.396,68.641,221.879,69.739,222.454,69.739z
		 M223.704,60.527l0.742-1.844l0.362,2.965l-0.45,1.559c-0.394,1.364-0.817,2.327-1.27,2.889c-0.194-0.058-0.345-0.332-0.453-0.824
		C222.376,64.09,222.732,62.509,223.704,60.527z"/>
	<path d="M305.305,69.739h0.906c4.951-6.731,4.021-15.718,0.996-17.789c-0.538,0.136-0.902,3.36-0.902,3.36
		c-0.002,0.082-0.274,0.992-0.814,2.73c-1.326,4.268-1.871,7.069-1.633,8.404C304.248,68.641,304.73,69.739,305.305,69.739z
		 M306.555,60.527l1.104-1.844v2.965l-0.45,1.559c-0.394,1.364-0.817,2.327-1.27,2.889c-0.194-0.058-0.345-0.332-0.453-0.824
		C305.228,64.09,305.584,62.509,306.555,60.527z"/>
	<path d="M55.059,71.239h0.906c4.951-6.731,4.021-15.718,0.996-17.789c-0.538,0.136-0.809,0.3-0.815,0.494l-0.087,2.866
		c-0.002,0.082-0.273,0.992-0.814,2.73c-1.326,4.268-1.871,7.069-1.633,8.404C54.001,70.141,54.484,71.239,55.059,71.239z
		 M56.309,62.027l0.742-1.515v-0.329h0.362v2.965l-0.451,1.559c-0.394,1.364-0.817,2.327-1.27,2.889
		c-0.194-0.058-0.345-0.332-0.453-0.824C54.982,65.59,55.338,64.009,56.309,62.027z"/>
</g>
</svg>
