<?xml version="1.0" encoding="utf-8"?>
<!-- Generator: Adobe Illustrator 13.0.0, SVG Export Plug-In . SVG Version: 6.00 Build 14948)  -->
<!DOCTYPE svg PUBLIC "-//W3C//DTD SVG 1.0//EN" "http://www.w3.org/TR/2001/REC-SVG-20010904/DTD/svg10.dtd" [
	<!ENTITY ns_extend "http://ns.adobe.com/Extensibility/1.0/">
	<!ENTITY ns_ai "http://ns.adobe.com/AdobeIllustrator/10.0/">
	<!ENTITY ns_graphs "http://ns.adobe.com/Graphs/1.0/">
	<!ENTITY ns_vars "http://ns.adobe.com/Variables/1.0/">
	<!ENTITY ns_imrep "http://ns.adobe.com/ImageReplacement/1.0/">
	<!ENTITY ns_sfw "http://ns.adobe.com/SaveForWeb/1.0/">
	<!ENTITY ns_custom "http://ns.adobe.com/GenericCustomNamespace/1.0/">
	<!ENTITY ns_adobe_xpath "http://ns.adobe.com/XPath/1.0/">
]>
<svg version="1.0" id="Layer_1" xmlns:x="&ns_extend;" xmlns:i="&ns_ai;" xmlns:graph="&ns_graphs;"
	 xmlns="http://www.w3.org/2000/svg" xmlns:xlink="http://www.w3.org/1999/xlink" x="0px" y="0px" width="100px" height="69.342px"
	 viewBox="0 0 100 69.342" enable-background="new 0 0 100 69.342" xml:space="preserve">

	<g i:extraneous="self">
		<path d="M16.698,12.364c1.823,0,3.368-1.508,3.368-3.33c0-1.834-1.545-3.341-3.368-3.341c-1.808,0-3.366,1.507-3.366,3.341
			C13.332,10.857,14.89,12.364,16.698,12.364 M-0.4,17.29L-0.4,17.29c-0.05-0.051-0.1-0.152-0.1-0.252
			c0-0.188,0.176-0.339,0.365-0.339h10.653c0.515,0,0.929-0.415,0.929-0.931c0-0.402-0.175-0.666-0.565-0.891l-9.636-4.585
			c-0.175-0.101-0.301-0.29-0.301-0.541c0-0.163,0.049-0.313,0.175-0.439c0,0,25.29-22.349,81.308-0.691l15.377-7.5
			c0.149-0.075,0.325-0.125,0.489-0.125c0.666,0,1.206,0.54,1.206,1.206c0,0.213-0.076,0.415-0.176,0.603l-9.07,11.294l9.07,11.257
			c0.1,0.201,0.176,0.402,0.176,0.641c0,0.64-0.54,1.181-1.206,1.181c-0.164,0-0.34-0.051-0.489-0.126l-15.377-7.5
			C82.428,19.549,28.884,40.818-0.4,17.29 M12.816,44.212c1.068,0,1.998-0.854,1.998-1.948c0-1.055-0.93-1.945-1.998-1.945
			c-1.042,0-1.96,0.892-1.96,1.945C10.856,43.357,11.774,44.212,12.816,44.212 M5.242,45.33L5.242,45.33
			c-0.026-0.025-0.051-0.076-0.051-0.102c0-0.089,0.075-0.139,0.176-0.139h4.246c0.188,0,0.365-0.176,0.365-0.377
			c0-0.163-0.075-0.266-0.226-0.34l-3.845-1.834c-0.074-0.049-0.125-0.125-0.125-0.227c0-0.074,0.024-0.15,0.075-0.176
			c0,0,10.1-8.958,32.5-0.264l6.155-3.016c0.05-0.024,0.126-0.051,0.201-0.051c0.265,0,0.464,0.215,0.464,0.465
			c0,0.102-0.024,0.188-0.049,0.238l-3.631,4.521l3.631,4.512c0.025,0.075,0.049,0.176,0.049,0.251c0,0.265-0.2,0.489-0.464,0.489
			c-0.075,0-0.151-0.024-0.201-0.049l-6.155-3.017C38.357,46.222,16.974,54.727,5.242,45.33 M62.992,44.212
			c1.043,0,1.936-0.854,1.936-1.948c0-1.055-0.893-1.945-1.936-1.945c-1.118,0-1.946,0.892-1.946,1.945
			C61.045,43.357,61.874,44.212,62.992,44.212 M55.404,45.33L55.404,45.33c-0.051-0.025-0.051-0.076-0.051-0.102
			c0-0.089,0.076-0.139,0.15-0.139h4.247c0.213,0,0.39-0.176,0.39-0.377c0-0.163-0.074-0.266-0.238-0.34l-3.856-1.834
			c-0.075-0.049-0.125-0.125-0.125-0.227c0-0.074,0.024-0.15,0.075-0.176c0,0,10.138-8.958,32.537-0.264l6.131-3.016
			c0.074-0.024,0.15-0.051,0.227-0.051c0.237,0,0.465,0.215,0.465,0.465c0,0.102-0.024,0.188-0.076,0.238l-3.631,4.521l3.631,4.512
			c0.052,0.075,0.076,0.176,0.076,0.251c0,0.265-0.228,0.489-0.465,0.489c-0.074,0-0.15-0.024-0.227-0.049l-6.131-3.017
			C88.533,46.222,67.113,54.727,55.404,45.33 M38.08,62.968c1.068,0,1.948-0.866,1.948-1.96c0-1.056-0.88-1.947-1.948-1.947
			c-1.092,0-1.972,0.893-1.972,1.947C36.108,62.102,36.988,62.968,38.08,62.968 M30.48,64.072L30.48,64.072
			c-0.025-0.023-0.025-0.036-0.025-0.088c0-0.074,0.049-0.149,0.15-0.149h4.234c0.226,0,0.402-0.177,0.402-0.364
			c0-0.15-0.076-0.275-0.251-0.352l-3.857-1.834c-0.063-0.051-0.113-0.127-0.113-0.227c0-0.076,0.025-0.127,0.075-0.164
			c0,0,10.126-8.957,32.525-0.276l6.144-3.015c0.075-0.025,0.139-0.051,0.188-0.051c0.276,0,0.489,0.213,0.489,0.489
			c0,0.075-0.024,0.176-0.063,0.239l-3.645,4.521l3.645,4.51c0.037,0.075,0.063,0.15,0.063,0.252c0,0.238-0.213,0.465-0.489,0.465
			c-0.052,0-0.113-0.025-0.188-0.051l-6.144-2.99C63.621,64.99,42.201,73.495,30.48,64.072"/>
	</g>

</svg>
