<?xml version="1.0" encoding="utf-8"?>
<!-- Generator: Adobe Illustrator 13.0.0, SVG Export Plug-In . SVG Version: 6.00 Build 14948)  -->
<!DOCTYPE svg PUBLIC "-//W3C//DTD SVG 1.1//EN" "http://www.w3.org/Graphics/SVG/1.1/DTD/svg11.dtd" [
	<!ENTITY ns_extend "http://ns.adobe.com/Extensibility/1.0/">
	<!ENTITY ns_ai "http://ns.adobe.com/AdobeIllustrator/10.0/">
	<!ENTITY ns_graphs "http://ns.adobe.com/Graphs/1.0/">
	<!ENTITY ns_vars "http://ns.adobe.com/Variables/1.0/">
	<!ENTITY ns_imrep "http://ns.adobe.com/ImageReplacement/1.0/">
	<!ENTITY ns_sfw "http://ns.adobe.com/SaveForWeb/1.0/">
	<!ENTITY ns_custom "http://ns.adobe.com/GenericCustomNamespace/1.0/">
	<!ENTITY ns_adobe_xpath "http://ns.adobe.com/XPath/1.0/">
]>
<svg version="1.1" id="Layer_1" xmlns:x="&ns_extend;" xmlns:i="&ns_ai;" xmlns:graph="&ns_graphs;"
	 xmlns="http://www.w3.org/2000/svg" xmlns:xlink="http://www.w3.org/1999/xlink" x="0px" y="0px" width="468.82px"
	 height="1150.903px" viewBox="0 0 468.82 1150.903" enable-background="new 0 0 468.82 1150.903" xml:space="preserve">

	<g i:extraneous="self">
		<path d="M468.219,105.446c-1.461-5.074-4.944-7.89-4.944-13.187c0-14.056-10.703-16.73-20.77-21.428
			c-15.573-7.269-31.994-12.067-42.196-27.032c-10.301-15.109-16.807-18.714-30.659-17.472c-11.86,1.064-11.947,1.001-12.857-4.616
			C353.747,2.933,342.34-7.62,339.979,6.546c-0.532,3.206,0.046,27.686-3.627,14.835c-2.253-7.89-22.528-33.162-18.79-9.231
			c4.319,27.664-18.091-6.06-14.835,10.22c1.051,5.262,1.098,5.122-2.968,2.308c-8.55-5.92-4.899,21.099-8.241,21.099
			c-0.988,0-1.318,0.989-0.659,2.637c1.318,3.296-3.297,0.33-6.923-4.286c-7.257-9.234,0.903,15.97-0.989,18.132
			c-2.532,2.893,3.223,21.59-0.659,16.153c-14.985-20.982,1.861,30.642-6.264,31.318c-5.253,0.435-8.283-2.036-5.274,5.274
			c7.587,18.426-2.97,52.748-4.945,72.856c-2.494,25.366-3.24,42.529-5.274,130.877c-1.261,54.726-4.553,63.34-48.462,127.91
			c-11.015,16.201-12.629,33.107-19.45,50.438c-3.522,8.941-23.097,26.334-38.57,34.285
			c-39.16,20.124-96.333,60.333-113.734,100.547c-10.695,24.725-13.459,50.159-23.406,75.823
			c-18.085,46.658-24.212,82.104-5.604,138.13c6.335,19.076-0.599,34.063,15.494,51.428c8.226,8.878,23.262,7.294,19.779,24.396
			c-3.963,19.465-6.659,38.004,1.319,56.372c9.489,21.839,15.327,98.312,10.195,119.578c-2.02,8.368-8.316,11.523-1.585,21.188
			c6.061,8.705,8.288,12.325,12.277,24.132c3.571,10.573,28.032,5.952,36.536,7.448c30.863,5.433-6.893-36.195-10.611-42.129
			c-6.365-10.156-7.15-10.524-7.912-53.076c-0.659-36.833-6.462-54.591-0.01-70.87c1.194-3.016,2.812-10.556,4.956-13.194
			c3.591-4.421,23.701,19.538,26.043,13.517c1.397-3.596-4.951-18.127-9.561-22.418c-4.95-4.608-8.241-13.518-8.241-23.076
			c0-10.548-3.876-31.354-7.912-40.549c-3.461-7.888-0.866-12.249-0.66-20.109c0.25-9.562,17.143-40.218,17.143-31.318
			c0,1.317,1.437,4.199,2.637,5.935c1.769,2.557,2.308,9.89,2.308,36.592c0,34.615,1.046,41.5,7.252,50.439
			c21.484,30.948,32.825,103.563,22.088,145.053c-3.767,14.555-3.368,24.111,5.274,28.351c10.671,5.234,20.25,2.578,18.9,25.369
			c-0.822,13.871,17.084,9.246,24.945,9.246c9.889,0,16.059-0.781,18.131-2.308c10.459-7.706-2.658-39.865-23.076-56.373
			c-10.568-8.546-10.917-9.229-12.197-24.396c-0.696-8.237-0.686-35.935,0-61.977c1.621-61.647,1.49-65.229-1.649-76.152
			c-9.556-33.259,7.848-65.415,14.506-97.251c1.787-8.543,6.918-26.376,18.131-61.318c2.961-9.231,2.967-9.23,12.857-9.23
			c11.538,0,11.248-0.332,12.856,19.45c1.953,23.994,6.596,47.785,7.253,71.867c0.329,12.052,2.822,23.71,0.66,35.604
			c-1.562,8.587-1.572,11.841,0.659,18.132c5.02,14.148,6.973,133.852,2.967,164.173c-2.896,21.955,16.271,35.367,17.143,55.384
			c0.548,12.554,0.985,12.664,25.384,13.517c22.742,0.794,23.38,0.356,17.473-5.274c-16.553-15.785-15.404-37.484-25.714-56.044
			c-4.229-7.613-4.382-7.583-3.956-77.471c0.232-38.241,0-72.526-0.659-76.152c-0.659-3.627,0-11.868,1.318-18.791
			c3.816-20.033-0.064-41.41,4.286-60.988c5.938-26.742,6.411-55.163,9.89-82.416c0.498-3.91-0.968-23.736,6.594-23.736
			c0.988,0,2.026,18.461,2.637,40.879c0.566,20.731,1.781,41.473,3.151,56.657c2.591,28.739,0.801,15.822-3.854,33.99
			c-2.039,7.959-1.728,19.254,2.022,24.076c3.316,4.266,3.593,6.595,3.956,36.263c0.294,24.065,1.188,32.384,2.967,35.274
			c12.544,20.389,5.502,52.43,12.197,75.493c5.039,17.358-1.775,50.752,18.132,59.34c11.925,5.143,13.422,8.563,12.197,23.076
			c-1.083,12.85-2.326,11.987,17.473,15.165c6.904,1.106,15.807,3.021,19.779,4.285c10.531,3.35,11.008,3.277,9.561-5.934
			c-2.178-13.867-12.884-34.572-20.769-39.561c-28.932-18.3-26.636-81.537-28.681-107.8c-2.305-29.603-10.235-62.912-0.659-91.646
			c6.131-18.397,6.917-29.34,2.307-38.242c-4.948-9.557-3.418-30.359,4.286-61.646c11.718-47.586,20.633-96.444,23.406-145.383
			c1.943-34.286,2.829-45.808,4.615-67.251c2.169-26.028,0.204-33.843-9.89-45.165c-14.302-16.041-21.212-64.628-15.824-110.108
			c6.088-51.412,4.715-106.199-9.616-156.667c-12.58-44.311-18.819-76.958,4.672-120.91c11.955-22.369,15.173-25.296,30.658-26.703
			c22.025-2.001,36.793-21.985,59.34-2.308C451.379,132.508,472.669,120.894,468.219,105.446z M347.416,9.498
			c2.308,1.319,3.627,3.627,3.297,6.594c-0.329,14.505-3.626,14.175-5.935-0.33C343.79,7.85,343.79,7.85,347.416,9.498z
			 M325.145,10.173c2.308,1.319,3.626,3.626,3.296,6.593c-0.329,14.505-3.626,14.176-5.934-0.33
			C321.519,8.524,321.519,8.524,325.145,10.173z M29.764,841.587C18.885,819.5,14.6,780.6,20.533,758.512
			c2.967-11.538,5.604-15.824,5.604-8.571c0,3.626,1.648,9.23,14.176,52.746C56.467,858.401,49.874,882.466,29.764,841.587z
			 M81.851,986.64c-2.637,8.241-2.967,12.527-1.648,24.726c0.659,8.241,1.648,27.691,2.308,43.516
			c0.988,33.296,3.296,49.779,6.263,52.087c4.615,3.296,6.264,9.23,6.264,20.769c0,12.198,0,12.198-5.605,12.198
			c-6.593,0-6.922-0.66-8.571-21.759c-0.989-13.187-3.296-16.482-6.593-8.9c-3.297,7.912-4.286,4.285-6.264-21.429
			c-0.989-11.538-2.307-21.428-3.296-22.087c-0.989-0.33-1.648-10.55-1.648-23.406c0-12.527,0-25.385,0-28.682
			c-0.33-2.967,0.329-10.879,0.988-16.813c0.989-7.582,0.66-11.538-0.659-12.197c-2.307-1.648-2.307-15.824,0-22.747
			c0.989-2.967,1.319-6.594,0.659-8.241c-0.988-1.649-1.648-3.956-1.978-5.275c-0.659-3.956-2.307-4.285-4.944-1.318
			c-2.967,4.285-4.945,0.329-2.638-5.604c1.649-4.615-0.329-11.867-2.967-11.867c-0.989,0-0.989-1.649,0-4.945
			c2.308-6.264,3.956-6.264,6.264-0.33c0.989,2.638,2.307,6.594,2.637,9.561c1.978,8.571,11.209,22.747,18.132,27.691
			C86.137,966.86,86.796,971.146,81.851,986.64z M73.939,884.774c1.319,2.638,1.978,6.594,1.319,8.571
			c-0.659,2.308-1.319,2.638-1.648,0.989c-0.33-1.319-1.978-5.604-3.627-9.561C66.357,876.532,69.654,876.203,73.939,884.774z
			 M92.4,959.937c-1.648,1.648-8.901-9.23-10.549-15.164c-4.285-16.483-3.296-22.747,1.978-14.176
			C86.796,934.883,93.389,958.619,92.4,959.937z M90.752,834.995c-2.637,8.241-4.286,18.132-5.275,34.285
			c-0.329,6.923-0.659,13.517-0.659,14.505c-0.329,1.318-2.967-0.329-6.593-3.626c-3.626-2.968-10.549-6.923-15.824-8.571
			c-10.549-3.297-12.197-8.901-6.923-23.406c4.286-11.209,5.274-29.67,1.978-35.604c-2.637-5.275-5.934-7.583-5.934-3.956
			c0,4.285-3.626,0.989-6.264-5.935c-2.308-6.593-2.638-7.912-0.33-10.549c4.945-5.604,4.615-10.22-1.319-21.758
			c-3.296-6.264-6.922-15.824-8.241-21.099s-2.967-10.879-3.956-11.539c-0.989-1.318-0.33-3.296,2.967-6.263
			c2.308-2.638,6.263-6.923,8.571-9.891c5.275-6.593,5.275-6.263,3.297,5.935c-2.638,16.483-2.308,20.769,1.978,20.109
			c3.626-0.329,3.956,0.33,3.626,6.923c-0.659,7.912,1.648,13.846,5.275,13.846c1.648,0,3.626,1.979,4.285,4.615
			c0.989,2.638,2.967,5.935,4.615,7.583c1.978,2.308,2.308,5.274,1.978,13.516c-0.989,12.527-0.659,14.506,3.627,14.506
			c2.967,0,3.296,1.318,3.296,8.571c0,7.912,2.967,11.538,5.934,6.923c0.33-0.989,2.967-1.979,5.604-2.308
			C92.4,820.819,94.049,825.105,90.752,834.995z M282.618,765.105c-0.582,5.942-1.41,13.84-1.649,17.473
			c-1.333,20.286-3.172,38.801-10.367,57.342c-6.854,17.663-7.566,31.009-1.171,31.009c2.966,0,2.803,32.081-0.329,36.922
			c-9.745,15.067-7.896,89.696-7.79,107.455c0.066,11.052,0.342,19.602,0.867,20.126c2.146,2.146,3.365-2.964,4.615-22.088
			c2.045-31.313,2.308-29.011,2.308,16.483c0,40.549-0.006,42.202,3.626,47.802c4.279,6.597,11.524,33.625,11.209,41.207
			c-0.343,8.24-9.431,9.352-15.824,1.319c-3.785-4.756-10.235-21.13-13.205-26.767c-6.182-11.731,1.774-26.623-3.607-36.2
			c-1.524-2.709-2.113-11.212-1.648-29.01c0.853-32.64,0.637-50.109-0.989-78.79c-1.01-17.801-0.751-24.113,0.989-27.362
			c3.204-5.983,1.688-25.099-2.638-29.011c-2.599-2.351-3.237-5.273-2.967-18.791c0.388-19.448-1.926-52.755-5.275-73.185
			c-3.243-19.789-4.286-43.517-1.978-41.209c0.989,0.989,4.287,1.979,7.253,1.979c7.251,0,7.522,3.586,1.318,12.527
			c-9.316,13.428,0.167,36.625,2.638,51.757c1.772,10.858,2.344,12.249,5.274,10.22c1.355-0.937,1.739-5.282,0.989-15.164
			c-1.227-16.16,4.689-40.025,10.22-42.197C273.766,775.305,284.699,743.866,282.618,765.105z M255.256,753.567
			c9.56-2.967,10.549-2.308,4.615,2.967c-4.945,3.627-6.265,4.286-7.912,2.309C248.662,755.875,249.321,755.215,255.256,753.567z
			 M350.199,137.753c-7.893,8.26-21.735,44.838-24.065,63.956c-3.627,29.772,12.636,66.462,18.461,95.603
			c1.813,9.073-7.029,3.342-3.626,14.835c1.708,5.765-2.905,25.296,2.307,27.032c13.441,4.479,10.481,16.234-2.307,17.143
			c-11.879,0.847-11.51,26.617,0,30.329c8.928,2.88,12.18,11.867,9.89,26.703c-4.631,29.997-4.464,72.243,0.988,92.966
			c2.789,10.597,4.945,19.45,4.945,19.45c-0.329,0.329-5.555-5.322-11.867-12.198c-12.147-13.232-11.868-12.527-7.253-24.065
			c0.659-1.648-0.33-4.615-2.308-6.923c-3.956-4.615-4.191-10.838-0.659-19.12c6.026-14.135,0.401-17.436-6.265-3.956
			c-8.167,16.518-12.364,33.555-9.56,40.219c2.47,5.868,18.461,23.406,21.428,23.406c8.439,0,45.445,36.503,28.682,32.637
			c-7.127-1.644-26.86,9.394-11.538,12.527c7.221,1.478,7.814,4.284,7.252,43.516c-0.426,29.669,0.389,34.639,4.286,25.055
			c4.013-9.866,0.329,46.153-4.945,72.526c-0.643,3.215,0.418,12.29-3.956,8.571c-9.152-7.781-10.485,18.364-14.505,24.396
			c-6.188,9.281-4.025,34.051,3.626,39.56c0.597,0.43-0.961,9.897-3.626,20.769c-5.904,24.072-6.854,47.108-2.309,56.373
			c8.293,16.904-5.71,41.824-7.252,60.328c-0.872,10.481-3.653,15.512-8.242,24.396c-6.593,12.748,7.323,14.435,5.275,26.044
			c-1.158,6.564,1.978,20.438,4.285,20.438c2.212,0,0.422-3.296,2.967-3.296c0.989,0,1.979,4.946,1.979,12.197
			c0,8.65,1.8,91.173,26.044,96.922c4.169,0.988,15.372,15.278,13.516,18.461c-1.516,2.604-18.033,3.904-21.099,4.285
			c-15.53,1.94,2.522-34.065-28.352-34.614c-6.932-0.122-9.56-43.303-11.208-51.099c-2.234-10.564-3.545-23.427-2.967-29.01
			c0.704-6.843,8.884,23.787,12.527,22.747c3.909-1.117-1.979-20.027-1.979-24.726c0-11.538-6.24-20.76-8.901-13.187
			c-1.623,4.623-3.446-0.991-3.626-10.549c-0.148-7.917-0.968-10.57-4.285-14.176c-4.264-4.635-4.286-5.276-4.286-32.967
			c0-24.394,0.063-27.735,1.979-25.054c5.094,7.133,7.761-4.227,2.637-5.935c-16.289-5.429-12.372-47.086-3.626-35.604
			c4.307,5.651,11.969,4.754,5.935-0.33c-3.229-2.719-7.879-12.862-8.571-18.461c-3.592-29.015-5.465-78-3.297-80.438
			c0.489-0.55,2.29,0.043,4.615,0.989c13.871,5.651,11.025-20.706,17.143-26.373c10.088-9.351,3.543-20.559-7.583-12.857
			c-6.017,4.166-7.725,7.001-11.868,16.813c-2.121,5.026-2.453,4.962-3.296-2.638c-0.804-7.237-0.649-7.571,13.187-20.769
			c7.591-7.241,13.846-14.176,13.846-15.494c0-9.714-30.77,8.057-36.593,12.526c-29.288,22.483-81.098,41.868-81.098,30.33
			c0-2.638,3.261-7.292,8.901-12.857c19.083-18.828,18.737-34.488-1.648-43.186c-13.594-5.801,8.29-24.396-14.505-24.396
			c-6.593,0-8.944-1.617-15.494-10.55c-4.329-5.901-9.231-8.241-9.231-4.615c0,0.989,3.762,8.162,8.242,15.824
			c31.508,53.878,8.87,108.969-4.945,163.184c-7.273,28.533-24.277,66.317-14.176,94.944c1.833,5.195,5.082,7.609-0.989,7.912
			c-8.708,0.435-8.339,10.528-11.867,16.482c-5.878,9.923,3.626,34.486,3.626,18.132c0-9.582,9.89-15.209,9.89-23.406
			c0-2.308,0.989-3.956,1.978-3.956c1.648,0,1.648,3.297,0.659,12.198c-1.978,17.801-2.566,79.116-1.319,105.492
			c1.059,22.413,0.917,22.834,5.934,27.033c25.312,21.184,36.593,40.219,24.066,40.219c-11.434,0-11.648,14.489-22.199,14.489
			c-0.33,0-0.229-5.275-0.33-11.538c-0.226-13.846-12.984-18.942-24.283-25.039c-9.471-5.111-9.947-5.29-6.923-16.813
			c3.897-14.85,6.125-42.837,4.286-55.714c-1.456-10.2-0.989-11.208,1.648-11.208c5.303,0,4.032-11.926,7.912-14.836
			c2.849-2.136-5.251-9.825-8.572-11.208c-8.833-3.68-12.246-26.419-16.153-34.944c-7.253-15.824-7.912-18.132-5.275-18.132
			c3.115,0,3.893,15.165,9.231,15.165c2.637,0,4.558-29.332,2.637-41.208c-1.704-10.54-0.209-28.937,2.638-33.626
			c2.758-4.543,3.681-14.645,1.318-15.495c-5.885-2.117-12.81,19.776-11.208,36.923c1.694,18.126-1.175,30.936-4.616,21.758
			c-1.504-4.012-1.649-3.956-4.945-0.989c-6.592,5.935-7.339,1.647-6.922-36.922c0.241-22.417-0.391-36.18-1.319-36.923
			c-0.727-0.581-3.118-4.898-4.615-9.89c-1.471-4.9-6.622-15.479-11.209-23.735c-17.459-31.431-51.891-94.484-37.252-133.186
			c5.026-13.282,2.046-19.413-3.956-7.912c-1.91,3.662-8.309,13.138-14.505,21.429C5.962,749.89,1.967,798.457,32.401,857.741
			c1.214,2.364-5.974,1.352-7.582-0.659c-4.675-5.842-7.642-16.983-10.549-24.065c-19.601-47.739-5.198-121.897,30.329-156.261
			c4.691-4.537,8.572-9.23,8.572-10.55c0-5.97-8.43,3.253-19.398,15.405c-1.24,1.373-0.282-3.724,0-5.553
			c0.392-2.545,1.221-6.419,1.926-11.83c2.233-17.151,8.286-32.751,11.868-31.318c4.342,1.734,3.956,1.293,3.956,6.923
			c0,17.627,18.966-20.322,15.494-30.329c-2.295-6.597,17.676-29.801,22.747-26.702c3.361,2.05,6.475-7.589,12.857-3.627
			c31.193,19.362,27.599-16.487,46.153-27.362c4.199-2.461,6.923-4.945,6.923-6.923c0-25.323,45.938-2.44,40.878-23.406
			c-1.253-5.206,10.533-9.09-0.659-11.538c-10.563-2.309,12.266-25.714,17.802-25.714c4.615,0,5.57-4.273,2.307-12.197
			c-4.34-10.548,22.149-10.679,12.198-29.34c-5.914-11.089,8.682-1.599,10.879-9.89c3.137-11.824,13.846-34.285,16.813-34.285
			c12.945,0,2.684-31.648,13.187-31.648c6.365,0,5.518-44.618,1.648-55.713c-3.434-9.842-3.626-23.076-0.33-19.779
			c1.317,1.316,3.047,3.932,3.626,5.934c2.386,8.218,6.563,4.29,5.275-4.945c-1.23-8.827-0.014-16.269-5.275-24.065
			c-6.496-9.625-4.114-29.815,2.638-21.758c10.031,11.975,6.422-23.382,0.659-25.384c-5.32-1.85-5.273-20.769,0-20.769
			c4.943,0,5.939-13.848,1.648-26.043c-3.37-9.585,2.467-27.709,5.934-36.593c2.141-5.484,4.966-22.941,9.561-26.702
			c13.416-10.975-6.496-25.357,6.923-27.033c20.337-2.54,11.06,37.252,32.967,37.252c3.626,0,3.325,2.657-1.318,9.56
			c-7.553,11.228,0.973,14.814,13.187,5.604C354.14,130.481,356.48,131.179,350.199,137.753z M450.747,103.798
			c-12.857-5.275-12.527-5.275-14.506,0c-0.988,2.308-2.308,3.956-3.297,3.297c-0.988-0.66-7.582-2.637-14.835-4.286
			c-6.923-1.978-17.143-5.604-22.087-8.571c-13.188-6.923-17.802-6.264-9.23,1.978c6.923,6.593,2.967,13.517-7.583,13.517
			c-5.274,0-3.956,4.615,1.979,7.252c5.274,1.979,5.274,2.308-6.594,2.308c-13.187,0.33-16.813-1.978-24.065-15.824
			c-3.956-8.241-6.264-10.219-8.571-7.582c-1.648,1.319-1.318,2.308,0,4.286c2.968,3.296,1.648,14.505-1.978,16.813
			c-6.264,3.956-13.846-2.637-18.791-17.142c-2.638-6.923-6.593-14.834-8.571-17.143c-4.286-4.616-6.923-11.868-4.286-11.868
			c4.286,0,7.582-8.571,4.615-13.516c-1.647-2.967-3.296-10.549-3.956-19.45c-0.988-14.505-0.988-14.505,4.616-10.879
			c3.296,1.978,7.582,4.615,9.89,5.604c2.967,1.649,4.285,1.649,4.615,0.33c0.659-1.319,2.308-1.319,5.604,0.659
			c3.956,2.308,5.274,2.308,6.264,0.989c1.648-2.637,15.494-2.637,19.12,0.33c1.319,0.989,5.935,2.308,10.55,2.967
			c9.89,1.318,11.867,2.637,16.482,11.208c4.945,10.549,13.188,15.824,13.188,9.231c0-1.319-0.989-2.637-2.308-2.637
			c-1.319,0-4.286-3.627-6.924-8.242c-4.944-9.561-11.208-13.517-20.109-13.517c-3.297,0-5.934-0.659-5.934-1.648
			s4.286-1.648,9.23-1.648c10.22,0,16.153,4.615,27.362,21.099c3.626,4.945,8.9,10.22,13.187,12.528
			c19.779,11.208,29.011,18.791,27.032,21.757c-1.978,3.297-12.197,1.319-20.438-3.956c-2.309-1.648-5.604-2.637-6.924-2.637
			c-1.647,0-4.285-1.319-5.604-2.637c-3.627-2.967-9.561-3.956-9.561-0.989c0,1.319,4.285,3.956,9.23,5.934
			c5.274,1.978,10.879,4.285,12.857,5.274c1.647,0.989,6.593,2.638,10.879,3.956c3.956,1.319,9.89,3.297,13.186,4.616
			c7.253,2.967,11.209,2.967,13.517-0.66c1.319-2.637,1.648-2.307,1.648,2.308c0,2.637,0.989,5.934,2.309,6.923
			C465.911,108.083,461.626,108.083,450.747,103.798z M360.748,78.743c8.744,23.178-15.164,6.154-15.164-2.967
			C345.584,71.82,359.127,74.449,360.748,78.743z M322.178,78.743c-0.541-7.569-0.341-7.484,5.274-6.923
			C345.423,73.615,323.854,102.249,322.178,78.743z M124.377,701.81c14.31-14.31,20.393,8.107,10.22,9.561
			c-3.28,0.468-5.235,1.985-5.604,3.956C126.569,728.259,114.723,711.465,124.377,701.81z M101.867,707.415
			c8.116,15.941-10.879,24.475-10.879,9.23c0-6.671-4.945-12.408-4.945-19.121C86.043,689.942,96.114,696.112,101.867,707.415z
			 M342.946,708.403c7.771,12.436-15.989,27.532-13.187,2.308c1.049-9.451-6.264-10.705-6.264-16.153
			c0-2.637,6.329-2.11,11.868,0.659C341.138,698.102,339.913,703.546,342.946,708.403z M303.716,695.876
			c-2.407-2.569-9.623,2.177-4.615,5.934c12.694,9.52-25.396,14.863-25.055,21.429c0.23,4.387-35.218,18.815-40.219,17.472
			c-16.761-4.512,44.823-21.323,22.748-28.681c-14.907-4.969-8.247-31.544-1.318-14.506c4.958,12.191,28.686,11.209,29.01-0.988
			c0.578-21.714,11.612-16.768,25.055-22.088C341.427,661.727,311.885,704.588,303.716,695.876z M113.169,679.722
			c-0.936-9.235-0.353-9.952,7.912-13.187c14.48-5.665,23.326-0.414,14.175,8.241C127.372,682.235,115.691,704.585,113.169,679.722z
			 M83.17,687.634c-2.967,0-5.861-25.027-3.626-30.988c0.732-1.952,2.316-2.728,6.263-2.308
			C97.354,655.566,94.708,687.634,83.17,687.634z M156.355,675.107c-8.577-3.61-8.393-13.943,0.33-27.362
			c4.135-6.362,18.424-2.316,16.483,4.615c-1.691,6.046-0.227,52.51-8.571,32.308C162.448,679.461,160.305,676.769,156.355,675.107z
			 M345.254,645.108c5.065-14.075,22.74,10.549,17.472,10.549c-16.797,0-18.816,46.142-34.285,33.955
			c-8.184-6.448,17.033-27.68,15.494-39.229C343.849,649.729,344.441,647.365,345.254,645.108z M308.002,635.547
			c10.516-3.081,23.683-0.283,29.011,5.935c6.203,7.237-10.174,15.208-14.176,18.46C291.845,685.124,289.49,640.972,308.002,635.547
			z M259.541,674.118c5.409,15.148-10.378-6.418-13.187-7.253c-10.594-3.148-12.554-7.941-5.934-13.845
			c5.576-4.975,5.934-6.265,5.934-15.824c0-11.868,2.029-12.911,10.879-4.616C272.392,646.79,253.387,656.875,259.541,674.118z
			 M138.224,639.173c-9.563,1.87-5.669,32.313-18.791,11.538c-6.25-9.897-0.351-23.442,13.187-31.317
			C143.44,613.1,158.075,635.292,138.224,639.173z M207.783,642.14c0-5.274-5.604-6.923-9.56-2.967
			c-5.63,5.63-2.303-12.756,9.89-11.538c17.156,1.713-9.459-8.348,0.989-13.846c4.187-2.203,9.594,3.296,14.505,3.296
			c4.285,0,5.836,1.396,13.517,11.209C248.532,642.871,207.783,665.664,207.783,642.14z M306.024,620.382
			c-2.309,0-4.405,1.277-4.945,2.967c-4.735,14.797-15.824,33.956-19.451,33.956c-2.637,0-2.051-3.989,2.309-13.517
			c4.541-9.923,4.615-29.34,0-33.955c-9.891-9.891-10.156-19.354-0.989-25.385C305.943,569.32,324.448,620.382,306.024,620.382z
			 M318.881,578.185c5.247-3.338,19.265-0.824,25.384,4.616c5.058,4.496-3.327,19.261-4.615,25.384
			c-2.01,9.552-12.365,12.219-11.209,2.967c1.152-9.211-1.741-20.349-6.922-25.714C317.468,581.244,316.876,579.461,318.881,578.185
			z M179.102,579.504c-20.186-1.911,18.461-50.518,18.461-23.077c0,11.208,3.576,11.481,16.154,0.33
			c19.399-17.2,22.868-11.415,4.285,6.923c-6.473,6.387-12.235,12.846-12.856,14.835C204.121,581.8,203.823,581.845,179.102,579.504
			z M254.926,554.779c7.253,0,11.014-8.869,9.23-20.109c-1.512-9.531,0.292-18.167,5.274-23.736
			c11.655-13.026,17.813,16.327,12.197,19.78c-9.838,6.054,23.419,35.934-0.988,35.934c-15.206,0-14.936,17.665-29.011,18.131
			c-14.375,0.477-20.076,31.269-36.264,18.791c-7.991-6.16-4.641-17.843,6.923-25.385
			C231.471,572.196,244.757,554.779,254.926,554.779z M276.354,444.012c15.886-9.164,12.175,15.087,19.45,21.757
			c5.329,4.884,5.203,6.851,0,11.868C286.95,486.176,251.196,458.525,276.354,444.012z M220.311,489.176
			c1.46-1.948,17.473-27.085,17.473-17.801c0,1.318-0.981,3.634-2.308,5.604c-8.891,13.192-3.067,13.75,9.23,0.659
			c8.14-8.666,13.516-12.197,13.516-9.23c0,14.834-11.208,34.285-19.45,34.285c-2.307,0-6.231,2.343-9.23,5.275
			C217.708,519.539,209.709,503.31,220.311,489.176z M205.476,531.373c-1.425-11.238,3.565-20.744,6.593-12.527
			c1.586,4.308,6.296,2.996,12.528-3.626c20.314-21.583,21.448,33.038,2.967,19.45C219.417,528.68,207.903,550.507,205.476,531.373z
			 M313.606,472.034c0,7.252-5.017,0.994-5.604-7.253c-0.729-10.214-6.264-17.472-13.517-17.472c-4.727,0-0.627-8.242-5.274-8.242
			c-5.934,0-12.878-21.77-9.23-28.681c6.478-12.274,6.289,16.162,15.823,4.945c6.97-8.2,7.328-0.971,1.648,23.736
			c-0.912,3.973-1.008,3.939,1.979,0.33c11.456-13.842,12.945,7.049,19.12,8.9C335.298,453.319,313.606,465.704,313.606,472.034z
			 M337.672,415.991c4.684,8.265-3.948,34.535-8.901,20.438c-4.73-13.472-23.453-10.937-9.561-31.977
			C328.015,391.115,333.62,408.84,337.672,415.991z M308.99,405.771c1.388,14.816-6.99,2.514-14.505-0.33
			c-11.086-4.192-13.411-14.942-1.978-22.417C298.094,379.372,307.725,392.251,308.99,405.771z M304.375,385.991
			c-12.229-7.861-13.207-12.542-4.944-25.054c11.418-17.293,23.355,34.852,16.153,37.252
			C314.597,398.517,309.396,389.217,304.375,385.991z M317.232,367.529c-1.243-9.984-16.766-15.118-10.549-27.032
			c1.936-3.711-0.372-8.776,0.988-10.879c6.72-10.385,18.59,13.265,21.429,18.131C334.044,356.227,318.967,381.406,317.232,367.529z
			 M327.122,304.563c0,1.648,0.659,3.296,1.318,3.296c11.771,0-2.966,46.257-2.966,27.033c0-13.134-20.67-19.45-10.879-35.604
			C316.968,295.374,327.122,299.619,327.122,304.563z M290.2,333.245c-2.718-9.292-16.363-26.69-3.956-34.285
			c10.222-6.259,17.893,3.026,11.208,13.187c-5.602,8.52,4.667,20.623-0.659,29.34C294.789,344.766,292.896,342.457,290.2,333.245z
			 M291.849,278.85c-8.311-17.438-8.275-18.817-1.648-28.021c5.239-7.277,5.381-7.311,7.912-2.637
			c1.754,3.241,3.289,4.257,5.604,3.626c11.492-3.132,5.992,28.333,5.935,33.296C309.407,305.553,303.646,303.607,291.849,278.85z
			 M292.837,159.181c1.311-4.284,7.131-0.989,10.22-0.989c4.286,0,7.253,5.604,7.253,14.175c0,9.891,1.384,15.471,7.582,32.637
			c2.372,6.57,3.676,13.214,3.297,13.846c-1.599,2.666-12.658-8.997-16.813-17.472c-4.088-8.34-6.865-9.534-9.56-3.626
			C288.939,210.635,287.185,177.627,292.837,159.181z M316.243,166.434c-2.601-6.278-14-14.604-7.582-22.417
			C323.148,126.377,326.14,190.303,316.243,166.434z M318.551,118.962c11.263,13.801,8.639,29.599-3.296,18.131
			c-4.878-4.685-13.517-23.076-13.517-29.34C301.738,101.161,306.408,104.083,318.551,118.962z M150.751,768.073
			c-0.33,4.615-7.582,3.955-11.208-0.659c-1.648-2.309-2.308-2.309-6.264,0.988c-4.945,3.626-7.252,1.979-10.219-7.912
			c-0.989-3.296-9.231-9.56-16.483-12.526c-2.967-1.318,1.978-14.836,5.274-14.836c2.308,0,0-13.186-4.286-26.043
			c-10.549-30.329-12.198-36.264-13.187-48.131c-1.318-12.198-1.648-13.187-5.274-14.176c-8.242-2.308-9.89-14.505-3.627-24.065
			c2.308-3.297,5.275-8.242,6.923-10.879c2.638-4.286,3.626-4.615,9.231-3.626c17.802,2.967,17.802,2.967,29.01-10.879
			c9.56-11.209,15.494-14.177,9.231-4.286c-3.627,5.274-3.627,5.274,3.956,5.604c5.274,0.329,7.582-0.33,10.549-3.627
			c6.264-6.923,18.131-5.604,18.131,1.979s-19.45,13.516-28.351,8.9c-2.637-1.647-4.285-1.318-7.582,1.319
			c-2.967,2.308-4.615,2.967-5.934,1.648c-2.308-2.638-16.483,9.89-23.406,20.769c-12.527,19.779-11.868,33.297,3.626,76.152
			c2.638,6.594,4.286,12.857,4.286,14.176c0.33,12.197,8.242,23.406,22.087,30.329C150.092,754.886,151.411,756.534,150.751,768.073
			z M187.344,716.974c11.862,17.422-14.822,40.166-17.802,57.691c-3.094,18.185-5.086-21.826-9.89-25.384
			c-5.298-3.924-4.974-8.964,0.66-11.539c5.905-2.699,10.496-8.592,14.175-18.46C178.059,709.703,181.888,708.961,187.344,716.974z
			 M339.319,782.249c0.64,4.288-2.649,11.857-7.252,17.142c-4.297,4.934-6.593,15.165-6.593,29.012
			c0,27.471-7.53-5.211-11.539-10.221c-11.79-14.735,14.835-30.494,14.835-45.164C328.771,763.458,337.652,771.043,339.319,782.249z
			 M177.454,812.907c-2.637,2.967-5.934,9.23-7.583,14.505c-4.286,14.835-6.264,12.528-5.604-6.263
			c0.659-18.132,9.56-36.923,18.791-39.56c1.978-0.66,4.286-0.989,5.275-0.66C192.948,781.918,185.036,804.995,177.454,812.907z
			 M142.18,834.005c1.517,15.475,0.989,19.121-2.307,19.121c-5.934,0-11.736-12.791-8.572-19.121
			c3.9-7.803-0.69-21.727,5.275-27.691C150.432,792.458,141.654,828.633,142.18,834.005z M312.617,39.843
			c-1.648-7.583,2.308-7.253,13.187,1.318c6.593,5.275,7.582,6.923,3.956,9.231c-1.319,0.659-2.967,3.297-3.956,5.934
			C322.837,65.886,315.913,56.985,312.617,39.843z M372.616,59.293c-1.648,0-4.615,1.318-6.594,3.296
			c-4.615,4.286-5.274,4.286-8.9-0.659c-1.648-2.308-5.275-4.945-8.241-5.934c-6.594-2.967-6.924-7.582-0.33-6.263
			c3.626,0.988,5.604,0.329,6.923-1.649c3.296-3.626,11.208-1.977,17.143,3.956C377.562,56.326,377.562,59.293,372.616,59.293z"/>
	</g>

</svg>
