<?xml version="1.0" encoding="iso-8859-1"?>
<!-- Generator: Adobe Illustrator 15.0.0, SVG Export Plug-In . SVG Version: 6.00 Build 0)  -->
<!DOCTYPE svg PUBLIC "-//W3C//DTD SVG 1.1//EN" "http://www.w3.org/Graphics/SVG/1.1/DTD/svg11.dtd">
<svg version="1.1" id="happy_holidays" xmlns="http://www.w3.org/2000/svg" xmlns:xlink="http://www.w3.org/1999/xlink" x="0px"
	 y="0px" width="152.375px" height="103.077px" viewBox="0 0 152.375 103.077" style="enable-background:new 0 0 152.375 103.077;"
	 xml:space="preserve">
<g>
	<path d="M142.664,27.947c0-14.22-10.42-20.309-20.315-20.309H94.928C77.329,7.639,76.188,0,76.188,0s-1.14,7.639-18.739,7.639
		H30.025c-9.895,0-20.31,6.089-20.31,20.309C9.716,49.032,0,51.539,0,51.539s9.716,2.506,9.716,23.592
		c0,14.221,10.415,20.308,20.31,20.308h27.423c17.6,0,18.739,7.639,18.739,7.639s1.142-7.639,18.74-7.639h27.421
		c9.895,0,20.315-6.087,20.315-20.308c0-21.086,9.711-23.592,9.711-23.592S142.664,49.032,142.664,27.947z M144.543,48.066
		l0.094,0.154c0.283,0.449,0.148,1.043-0.301,1.326c-0.16,0.102-0.338,0.148-0.514,0.148c-0.318,0-0.631-0.158-0.814-0.449
		l-0.119-0.195c-0.273-0.455-0.123-1.047,0.334-1.318S144.27,47.609,144.543,48.066z M142.907,44.805l0.076,0.182
		c0.207,0.49-0.023,1.055-0.516,1.258c-0.119,0.053-0.246,0.076-0.369,0.076c-0.375,0-0.734-0.223-0.887-0.59l-0.082-0.195
		c-0.203-0.49,0.031-1.053,0.521-1.254C142.137,44.076,142.706,44.312,142.907,44.805z M141.729,41.332l0.049,0.178
		c0.146,0.51-0.148,1.043-0.656,1.189c-0.092,0.025-0.182,0.039-0.268,0.039c-0.42,0-0.803-0.275-0.926-0.695l-0.061-0.221
		c-0.135-0.512,0.172-1.039,0.686-1.176C141.069,40.518,141.594,40.816,141.729,41.332z M140.926,37.717l0.031,0.184
		c0.096,0.523-0.248,1.025-0.771,1.123c-0.059,0.01-0.117,0.016-0.174,0.016c-0.457,0-0.859-0.324-0.945-0.787l-0.041-0.221
		c-0.088-0.521,0.266-1.02,0.793-1.105C140.333,36.842,140.838,37.191,140.926,37.717z M140.452,34.229
		c0.051,0.531-0.34,0.998-0.869,1.049c-0.031,0.002-0.061,0.004-0.09,0.004c-0.492,0-0.908-0.375-0.957-0.873l-0.018-0.191
		c-0.059-0.529,0.326-1.004,0.854-1.061c0.537-0.055,1.002,0.324,1.061,0.854L140.452,34.229z M140.206,30.496
		c0.021,0.529-0.395,0.977-0.926,0.996c-0.01,0-0.023,0-0.035,0c-0.516,0-0.941-0.406-0.959-0.926l-0.006-0.102
		c-0.02-0.531,0.393-1.029,0.924-1.049c0.527,0,0.975,0.346,0.996,0.875L140.206,30.496z M140.108,26.463l0.016,0.223
		c0.029,0.531-0.377,0.986-0.906,1.014c-0.018,0.002-0.037,0.002-0.055,0.002c-0.506,0-0.932-0.398-0.961-0.91l-0.012-0.186
		c-0.037-0.529,0.359-0.99,0.889-1.031C139.633,25.553,140.071,25.936,140.108,26.463z M139.465,22.549l0.053,0.203
		c0.135,0.512-0.17,1.039-0.684,1.174c-0.084,0.023-0.166,0.033-0.246,0.033c-0.43,0-0.816-0.285-0.932-0.717l-0.051-0.193
		c-0.137-0.514,0.166-1.041,0.68-1.18C138.801,21.732,139.325,22.037,139.465,22.549z M134.145,15.6
		c0.375-0.373,0.984-0.373,1.359,0l0.154,0.156c0.369,0.381,0.363,0.99-0.018,1.361c-0.189,0.182-0.432,0.271-0.672,0.271
		c-0.252,0-0.502-0.098-0.689-0.291l-0.135-0.137C133.77,16.586,133.77,15.977,134.145,15.6z M130.979,13.51
		c0.262-0.457,0.852-0.615,1.312-0.354l0.189,0.111c0.457,0.271,0.607,0.863,0.334,1.318c-0.18,0.303-0.498,0.47-0.826,0.47
		c-0.168,0-0.338-0.044-0.492-0.136l-0.164-0.096C130.874,14.561,130.713,13.971,130.979,13.51z M127.405,12.227
		c0.152-0.508,0.688-0.801,1.199-0.643l0.201,0.061c0.508,0.158,0.793,0.695,0.637,1.203c-0.129,0.414-0.508,0.68-0.92,0.68
		c-0.094,0-0.188-0.014-0.283-0.043l-0.191-0.059C127.54,13.274,127.25,12.735,127.405,12.227z M124.69,10.831l0.223,0.021
		c0.527,0.059,0.908,0.533,0.849,1.062c-0.055,0.492-0.47,0.855-0.955,0.855c-0.035,0-0.072-0.002-0.105-0.008l-0.188-0.018
		c-0.527-0.047-0.918-0.516-0.871-1.045S124.146,10.776,124.69,10.831z M120.808,10.739h0.207c0.531,0,0.961,0.43,0.961,0.961
		s-0.43,0.963-0.961,0.963h-0.207c-0.531,0-0.961-0.432-0.961-0.963S120.276,10.739,120.808,10.739z M117.013,10.739h0.203
		c0.531,0,0.963,0.43,0.963,0.961s-0.432,0.963-0.963,0.963h-0.203c-0.531,0-0.961-0.432-0.961-0.963S116.481,10.739,117.013,10.739
		z M113.216,10.739h0.205c0.531,0,0.962,0.43,0.962,0.961s-0.431,0.963-0.962,0.963h-0.205c-0.53,0-0.963-0.432-0.963-0.963
		S112.686,10.739,113.216,10.739z M109.419,10.739h0.205c0.53,0,0.961,0.43,0.961,0.961s-0.431,0.963-0.961,0.963h-0.205
		c-0.531,0-0.963-0.432-0.963-0.963S108.888,10.739,109.419,10.739z M105.625,10.739h0.204c0.531,0,0.962,0.43,0.962,0.961
		s-0.431,0.963-0.962,0.963h-0.204c-0.531,0-0.962-0.432-0.962-0.963S105.093,10.739,105.625,10.739z M104.021,45.031
		c0.343,0,0.644,0.092,0.901,0.273c0.192,0.141,0.289,0.387,0.289,0.74c0,0.537-0.177,1.006-0.531,1.408
		c-0.354,0.402-0.782,0.604-1.288,0.604c-0.311,0-0.574-0.076-0.789-0.232c-0.212-0.156-0.32-0.422-0.32-0.797
		c0-0.461,0.17-0.916,0.516-1.369C103.119,45.242,103.528,45.031,104.021,45.031z M101.827,10.739h0.205
		c0.532,0,0.962,0.43,0.962,0.961s-0.43,0.963-0.962,0.963h-0.205c-0.531,0-0.962-0.432-0.962-0.963S101.295,10.739,101.827,10.739z
		 M98.032,10.739h0.206c0.53,0,0.961,0.43,0.961,0.961s-0.431,0.963-0.961,0.963h-0.206c-0.531,0-0.962-0.432-0.962-0.963
		S97.5,10.739,98.032,10.739z M94.238,10.729l0.22,0.002c0.531,0.01,0.954,0.449,0.944,0.98c-0.01,0.525-0.438,0.945-0.962,0.945
		h-0.018l-0.185-0.004c-0.531,0-0.963-0.432-0.963-0.961C93.275,11.161,93.707,10.729,94.238,10.729z M90.519,10.534l0.203,0.018
		c0.528,0.047,0.928,0.516,0.88,1.045c-0.045,0.5-0.458,0.875-0.949,0.875c-0.027,0-0.058-0.002-0.088-0.004h-0.018l-0.17-0.016
		c-0.531-0.039-0.927-0.5-0.89-1.031C89.528,10.893,89.974,10.516,90.519,10.534z M86.847,10.036l0.215,0.041
		c0.524,0.096,0.867,0.598,0.772,1.119c-0.085,0.465-0.491,0.787-0.944,0.787c-0.061,0-0.117-0.004-0.178-0.016l-0.188-0.033
		c-0.523-0.09-0.875-0.586-0.787-1.111C85.829,10.299,86.322,9.94,86.847,10.036z M85.494,24.537l0.103,0.598l-0.987,1.195
		l0.772-0.076l0.798,0.652h-0.361l-0.744-0.23l-0.987,0.033l1.142-1.469l0.061-0.359l-0.324,0.201l-0.896,1.627l-1.685,0.053
		l1.176-1.52l0.065-0.361l-0.325,0.201l-0.928,1.686l-3.552,0.113l3.421-0.324l1.021-1.889l0.566-0.131l0.103,0.598L82.8,26.5
		l1.198-0.111l0.928-1.721L85.494,24.537z M85.596,28.9l-0.101,0.604l-0.569-0.135l-0.928-1.715L82.8,27.537l1.13,1.363
		l-0.103,0.604l-0.562-0.133l-1.024-1.887L78.82,27.16l3.554,0.115l0.933,1.682l0.32,0.199l-0.061-0.357l-1.183-1.523l1.682,0.055
		l0.903,1.627l0.32,0.199l-0.061-0.357l-1.137-1.469l0.982,0.035l0.744-0.232l0.361-0.002l-0.791,0.654l-0.779-0.078L85.596,28.9z
		 M81.643,34.27l-0.166,1.012l-0.182-0.314l-0.17-0.758l-0.522-0.836l1.839,0.25l0.343-0.129l-0.337-0.176l-1.857,0.033L79.7,31.92
		l1.909,0.26l0.343-0.127l-0.333-0.176l-1.921,0.035l-1.877-3.018l1.991,2.801l2.142-0.059l0.398,0.424l-0.468,0.389l-1.745-0.297
		l0.694,0.98l1.953-0.057l0.397,0.43l-0.467,0.387l-1.524-0.26L81.643,34.27z M79.24,32.672l-0.611,1.662l-0.57,0.211l-0.17-0.559
		l1.121-1.826l-1.429-3.127l1.675,3.135l-0.993,1.648l-0.013,0.377l0.281-0.232l0.728-1.783l0.794,1.484l-0.957,1.594l-0.017,0.379
		l0.285-0.236l0.702-1.715l0.465,0.869l0.571,0.527l0.18,0.312l-0.96-0.357l-0.327-0.713l-0.538,1.455l-0.567,0.209L78.72,35.43
		l1.021-1.666L79.24,32.672z M78.564,27.154h0.021l2.911,1.27l0.035,0.691l-0.638,0.113L78.564,27.154z M80.87,30.26l-0.614,0.32
		l-2.56-1.883l-0.013-0.02l2.962,0.982L80.87,30.26z M78.56,26.889l2.334-2.074l0.635,0.109l-0.032,0.689l-2.911,1.275H78.56z
		 M80.645,24.383l-2.962,0.984l0.013-0.023l2.555-1.883l0.615,0.318L80.645,24.383z M77.852,26.705l0.317,0.314l-0.317,0.318
		l-1.027-0.318L77.852,26.705z M76.703,26.805l0.236-1.049l0.434-0.113l0.117,0.434L76.703,26.805z M77.49,27.969l-0.117,0.434
		l-0.434-0.115l-0.236-1.049L77.49,27.969z M77.456,28.809l0.013,0.02l0.353,3.16l-0.583,0.371l-0.41-0.492L77.456,28.809z
		 M82.09,9.778c0.165-0.506,0.704-0.783,1.213-0.615l0.18,0.057c0.507,0.156,0.792,0.693,0.637,1.201
		c-0.128,0.414-0.509,0.68-0.919,0.68c-0.096,0-0.19-0.014-0.283-0.043l-0.213-0.066C82.201,10.827,81.925,10.284,82.09,9.778z
		 M81.475,18.76l0.166,1.012l-0.452,0.635l1.524-0.26l0.468,0.389l-0.396,0.424l-1.951-0.053l-0.697,0.982l1.748-0.297l0.468,0.387
		l-0.4,0.424l-2.143-0.057l-1.992,2.801l1.877-3.018l1.921,0.035l0.334-0.18l-0.343-0.127l-1.908,0.262l0.891-1.43l1.859,0.033
		l0.334-0.18l-0.344-0.127L80.6,20.668l0.519-0.836l0.173-0.758L81.475,18.76z M78.634,8.217c0.238-0.479,0.816-0.668,1.289-0.434
		l0.191,0.098c0.474,0.242,0.66,0.82,0.42,1.293C80.366,9.508,80.027,9.7,79.677,9.7c-0.146,0-0.297-0.033-0.437-0.105l-0.175-0.088
		C78.589,9.268,78.396,8.69,78.634,8.217z M78.051,19.496l0.57,0.211l0.613,1.662l0.5-1.094l-1.019-1.662l0.167-0.561l0.57,0.213
		l0.538,1.451l0.323-0.711l0.961-0.361l-0.179,0.314l-0.571,0.527l-0.467,0.871l-0.7-1.715l-0.28-0.234l0.01,0.379l0.961,1.59
		l-0.794,1.486l-0.728-1.783l-0.284-0.23l0.017,0.375l0.991,1.65l-1.675,3.129l1.426-3.121l-1.125-1.83L78.051,19.496z
		 M77.464,25.215l-0.009,0.02l-0.631-3.059l0.409-0.492l0.583,0.371L77.464,25.215z M75.734,6.182c0.002,0,0.162-0.129,0.162-0.131
		c0.411-0.332,1.018-0.273,1.353,0.145c0.336,0.41,0.271,1.018-0.142,1.352c0,0.002-0.073,0.059-0.073,0.061
		c-0.188,0.148-0.424,0.225-0.656,0.225c-0.281,0-0.557-0.109-0.739-0.336C75.305,7.084,75.323,6.516,75.734,6.182z M75.271,33.986
		l-0.168,0.559l-0.574-0.211l-0.614-1.662l-0.504,1.094l1.025,1.666L74.27,35.99l-0.57-0.213l-0.539-1.455l-0.326,0.713
		l-0.961,0.359l0.184-0.312l0.569-0.527l0.465-0.871l0.7,1.719l0.282,0.234l-0.013-0.381l-0.958-1.59l0.792-1.488l0.729,1.783
		l0.283,0.234l-0.014-0.379l-0.992-1.648l1.675-3.135l-1.428,3.129L75.271,33.986z M70.44,33.893l-0.471-0.387l0.398-0.424
		l1.952,0.053l0.697-0.979l-1.748,0.293l-0.467-0.385l0.398-0.426l2.143,0.059l1.99-2.797l-1.874,3.014l-1.922-0.035l-0.337,0.178
		l0.344,0.129l1.908-0.264l-0.888,1.434l-1.86-0.033l-0.332,0.174l0.341,0.129l1.839-0.25l-0.519,0.838l-0.173,0.76l-0.182,0.309
		l-0.17-1.01l0.45-0.637L70.44,33.893z M71.509,68.771l0.17-1.01l0.182,0.309l0.173,0.76l0.519,0.838l-1.839-0.25l-0.341,0.129
		l0.332,0.176l1.86-0.035l0.888,1.436l-1.908-0.264l-0.344,0.127l0.337,0.178l1.922-0.035l1.874,3.016l-1.99-2.799l-2.143,0.059
		l-0.398-0.426l0.467-0.385l1.748,0.295l-0.697-0.98l-1.952,0.055l-0.398-0.426l0.471-0.387l1.52,0.26L71.509,68.771z
		 M73.915,70.371l0.614-1.662l0.574-0.209l0.168,0.557l-1.123,1.824l1.428,3.129l-1.675-3.135l0.992-1.646l0.014-0.381l-0.283,0.234
		l-0.729,1.783l-0.792-1.488l0.958-1.59l0.013-0.379l-0.282,0.232l-0.7,1.719l-0.465-0.869l-0.569-0.529l-0.184-0.312l0.961,0.361
		l0.326,0.711l0.539-1.455l0.57-0.211l0.166,0.557l-1.025,1.666L73.915,70.371z M69.59,74.242l1.179,1.523l-1.682-0.059
		l-0.903-1.625l-0.319-0.199l0.064,0.359l1.132,1.465l-0.984-0.031l-0.74,0.23h-0.362l0.792-0.652l0.777,0.076l-0.987-1.191
		l0.103-0.602l0.564,0.133l0.932,1.719l1.199,0.113l-1.132-1.363l0.1-0.602l0.569,0.133l1.018,1.887l3.425,0.324l-3.555-0.113
		l-0.929-1.686l-0.32-0.199L69.59,74.242z M67.766,27.791l-0.792-0.654h0.362l0.74,0.23l0.984-0.031l-1.132,1.465l-0.064,0.359
		l0.319-0.199l0.903-1.625l1.682-0.057l-1.179,1.521L69.53,29.16l0.32-0.199l0.929-1.686l3.555-0.111l-3.425,0.322l-1.018,1.887
		l-0.569,0.133l-0.1-0.602l1.132-1.363l-1.199,0.113l-0.932,1.719l-0.564,0.133l-0.103-0.602l0.987-1.191L67.766,27.791z
		 M75.297,27.338l-0.313-0.316l0.316-0.318l1.024,0.316L75.297,27.338z M75.471,28.678l-0.015,0.02l-2.555,1.885l-0.619-0.318
		l0.223-0.604L75.471,28.678z M72.5,24.387l-0.218-0.607l0.612-0.318l2.562,1.887l0.015,0.02L72.5,24.387z M74.589,26.889
		l-0.025,0.002l-2.908-1.273l-0.032-0.689l0.635-0.113L74.589,26.889z M74.566,27.154h0.023l-2.331,2.076l-0.635-0.109l0.032-0.693
		L74.566,27.154z M74.589,75.891h-0.023l-2.91-1.275l-0.032-0.693l0.635-0.107L74.589,75.891z M72.283,72.781l0.619-0.32
		l2.555,1.887l0.015,0.018l-2.966-0.98L72.283,72.781z M74.564,76.154h0.025l-2.331,2.074l-0.635-0.111l0.032-0.689L74.564,76.154z
		 M72.5,78.656l2.971-0.979l-0.015,0.018l-2.562,1.887l-0.612-0.316L72.5,78.656z M75.3,76.34l-0.316-0.318l0.313-0.316l1.027,0.318
		L75.3,76.34z M76.453,76.234l-0.239,1.055l-0.432,0.113l-0.119-0.432L76.453,76.234z M75.663,75.074l0.119-0.434l0.432,0.117
		l0.239,1.047L75.663,75.074z M75.695,74.236l-0.011-0.02l-0.351-3.162l0.586-0.371l0.412,0.492L75.695,74.236z M75.684,28.828
		l0.011-0.02l0.637,3.059l-0.412,0.494l-0.586-0.373L75.684,28.828z M76.213,28.287l-0.432,0.115l-0.119-0.434l0.79-0.73
		L76.213,28.287z M75.663,26.074l0.119-0.432l0.432,0.111l0.239,1.053L75.663,26.074z M75.915,21.684l0.41,0.492l-0.63,3.059
		l-0.011-0.02l-0.355-3.16L75.915,21.684z M72.695,8.049l0.184-0.088c0.48-0.234,1.051-0.035,1.287,0.439
		c0.233,0.479,0.037,1.055-0.44,1.287l-0.184,0.09c-0.138,0.068-0.28,0.1-0.423,0.1c-0.355,0-0.696-0.199-0.864-0.539
		C72.021,8.862,72.216,8.286,72.695,8.049z M72.832,19.01l0.323,0.711l0.538-1.453l0.57-0.215l0.173,0.561l-1.025,1.664l0.499,1.092
		l0.615-1.658l0.573-0.211l0.167,0.553l-1.121,1.83l1.432,3.125l-1.678-3.133l0.992-1.648l0.014-0.377l-0.282,0.23l-0.73,1.785
		L73.1,20.381l0.957-1.594l0.014-0.379l-0.282,0.234l-0.697,1.717l-0.469-0.869l-0.572-0.529l-0.18-0.312L72.832,19.01z
		 M71.675,18.764l0.18,0.311l0.172,0.758l0.525,0.838l-1.841-0.25l-0.344,0.127l0.334,0.18l1.86-0.037l0.887,1.434l-1.908-0.264
		l-0.34,0.129l0.334,0.178l1.921-0.037l1.878,3.018l-1.993-2.801l-2.146,0.062l-0.397-0.428l0.468-0.387l1.748,0.299L72.32,20.91
		l-1.954,0.053l-0.401-0.424l0.469-0.389l1.526,0.258l-0.455-0.637L71.675,18.764z M69.308,9.329l0.177-0.053
		c0.508-0.158,1.046,0.129,1.201,0.637c0.158,0.508-0.128,1.045-0.637,1.201l-0.217,0.064c-0.088,0.025-0.175,0.037-0.261,0.037
		c-0.421,0-0.807-0.277-0.927-0.699C68.501,10.004,68.798,9.473,69.308,9.329z M67.654,24.541l0.569,0.133l0.932,1.717l1.194,0.113
		l-1.13-1.361l0.103-0.602l0.567,0.133l1.02,1.883l3.425,0.324l-3.555-0.113l-0.929-1.684l-0.324-0.199l0.061,0.359l1.183,1.523
		l-1.682-0.057l-0.903-1.623l-0.319-0.201l0.064,0.361l1.132,1.463l-0.984-0.031l-0.74,0.23h-0.362l0.787-0.65l0.782,0.072
		l-0.989-1.189L67.654,24.541z M65.694,10.145l0.221-0.039c0.514-0.086,1.02,0.268,1.107,0.793c0.087,0.523-0.267,1.02-0.792,1.107
		l-0.185,0.031c-0.058,0.01-0.118,0.016-0.176,0.016c-0.456,0-0.859-0.324-0.945-0.787C64.828,10.745,65.173,10.243,65.694,10.145z
		 M62.017,10.584l0.221-0.018c0.553-0.021,0.991,0.359,1.029,0.887c0.04,0.531-0.358,0.994-0.887,1.031L62.187,12.5
		c-0.027,0.002-0.058,0.004-0.085,0.004c-0.493,0-0.912-0.375-0.957-0.877C61.097,11.1,61.489,10.631,62.017,10.584z M58.313,10.737
		l0.187-0.004c0.531-0.031,0.97,0.414,0.979,0.945s-0.413,0.969-0.944,0.979l-0.222,0.002c-0.531,0-0.962-0.43-0.962-0.961
		S57.782,10.737,58.313,10.737z M54.517,10.739h0.203c0.531,0,0.962,0.43,0.962,0.961s-0.431,0.963-0.962,0.963h-0.203
		c-0.53,0-0.962-0.432-0.962-0.963S53.987,10.739,54.517,10.739z M50.72,10.739h0.206c0.53,0,0.962,0.43,0.962,0.961
		s-0.432,0.963-0.962,0.963H50.72c-0.531,0-0.962-0.432-0.962-0.963S50.189,10.739,50.72,10.739z M46.926,10.739h0.202
		c0.531,0,0.962,0.43,0.962,0.961s-0.431,0.963-0.962,0.963h-0.202c-0.532,0-0.963-0.432-0.963-0.963S46.394,10.739,46.926,10.739z
		 M43.127,10.739h0.206c0.531,0,0.962,0.43,0.962,0.961s-0.431,0.963-0.962,0.963h-0.206c-0.531,0-0.962-0.432-0.962-0.963
		S42.596,10.739,43.127,10.739z M39.332,10.739h0.204c0.531,0,0.962,0.43,0.962,0.961s-0.431,0.963-0.962,0.963h-0.204
		c-0.531,0-0.963-0.432-0.963-0.963S38.8,10.739,39.332,10.739z M35.536,10.739h0.205c0.531,0,0.962,0.43,0.962,0.961
		s-0.431,0.963-0.962,0.963h-0.205c-0.531,0-0.962-0.432-0.962-0.963S35.004,10.739,35.536,10.739z M31.739,10.739h0.205
		c0.53,0,0.961,0.43,0.961,0.961s-0.431,0.963-0.961,0.963h-0.205c-0.531,0-0.962-0.432-0.962-0.963S31.208,10.739,31.739,10.739z
		 M27.829,10.897l0.217-0.025c0.535-0.072,1.005,0.322,1.062,0.85c0.061,0.529-0.32,1.004-0.849,1.062l-0.188,0.021
		c-0.043,0.006-0.082,0.008-0.122,0.008c-0.479,0-0.893-0.354-0.955-0.84C26.929,11.446,27.3,10.965,27.829,10.897z M23.933,11.782
		l0.215-0.072c0.509-0.164,1.048,0.111,1.213,0.615c0.165,0.506-0.11,1.049-0.613,1.215l-0.173,0.057
		c-0.108,0.039-0.215,0.055-0.321,0.055c-0.398,0-0.769-0.246-0.906-0.641C23.168,12.51,23.432,11.959,23.933,11.782z
		 M20.317,13.489l0.187-0.117c0.449-0.275,1.045-0.133,1.32,0.322c0.278,0.453,0.133,1.045-0.32,1.32l-0.16,0.101
		c-0.161,0.1-0.336,0.148-0.511,0.148c-0.321,0-0.634-0.16-0.816-0.449C19.733,14.366,19.868,13.772,20.317,13.489z M14.906,19.385
		l0.098-0.189c0.246-0.469,0.824-0.654,1.298-0.406c0.471,0.244,0.653,0.826,0.407,1.297L16.62,20.26
		c-0.171,0.334-0.507,0.525-0.857,0.525c-0.147,0-0.295-0.035-0.437-0.105C14.853,20.438,14.666,19.859,14.906,19.385z
		 M13.539,23.166l0.049-0.215c0.128-0.516,0.649-0.828,1.166-0.705c0.516,0.127,0.831,0.646,0.704,1.164l-0.043,0.184
		c-0.103,0.445-0.498,0.748-0.937,0.748c-0.07,0-0.144-0.008-0.216-0.023C13.747,24.199,13.42,23.686,13.539,23.166z M13.023,26.875
		c0.029-0.531,0.482-0.945,1.013-0.906c0.531,0.029,0.938,0.482,0.908,1.014l-0.008,0.17c-0.01,0.523-0.438,0.943-0.962,0.943
		h-0.018c-0.531-0.01-0.955-0.447-0.945-0.979L13.023,26.875z M12.945,30.689c0.02-0.531,0.431-0.986,0.994-0.926
		c0.531,0.018,0.946,0.465,0.927,0.996l-0.008,0.205c-0.02,0.52-0.446,0.926-0.962,0.926c-0.01,0-0.021,0-0.035,0
		c-0.531-0.02-0.944-0.467-0.924-0.996L12.945,30.689z M12.687,34.4c0.057-0.527,0.528-0.922,1.062-0.848
		c0.528,0.059,0.909,0.533,0.85,1.061l-0.018,0.188c-0.048,0.498-0.466,0.871-0.958,0.871c-0.029,0-0.06,0-0.09-0.002
		c-0.528-0.051-0.919-0.518-0.869-1.049L12.687,34.4z M12.166,38.09c0.095-0.523,0.605-0.865,1.119-0.77
		c0.524,0.096,0.867,0.598,0.772,1.119l-0.038,0.205c-0.088,0.461-0.491,0.783-0.944,0.783c-0.06,0-0.12-0.004-0.18-0.016
		c-0.521-0.1-0.865-0.602-0.767-1.123L12.166,38.09z M11.274,41.871l0.05-0.174c0.146-0.512,0.674-0.811,1.188-0.664
		c0.512,0.145,0.809,0.676,0.663,1.186l-0.062,0.219c-0.128,0.414-0.508,0.68-0.919,0.68c-0.095,0-0.19-0.014-0.283-0.043
		C11.402,42.918,11.116,42.381,11.274,41.871z M10.016,45.35l0.088-0.203c0.215-0.486,0.787-0.703,1.268-0.494
		c0.485,0.215,0.706,0.783,0.493,1.27l-0.075,0.172c-0.155,0.369-0.511,0.59-0.887,0.59c-0.125,0-0.25-0.023-0.373-0.074
		C10.042,46.404,9.811,45.84,10.016,45.35z M7.943,52.766c-0.183,0.16-0.409,0.238-0.635,0.238c-0.268,0-0.533-0.109-0.724-0.326
		l-0.12-0.133c-0.36-0.391-0.338-1,0.053-1.359c0.388-0.359,0.997-0.338,1.359,0.053l0.153,0.17
		C8.38,51.807,8.34,52.414,7.943,52.766z M8.315,48.541l0.103-0.158c0.283-0.447,0.875-0.584,1.329-0.301
		c0.448,0.283,0.583,0.877,0.3,1.326l-0.12,0.186c-0.184,0.283-0.49,0.438-0.807,0.438c-0.181,0-0.36-0.051-0.523-0.158
		C8.15,49.584,8.026,48.988,8.315,48.541z M9.473,56.035c-0.299,0-0.578-0.143-0.755-0.422l-0.069-0.119
		c-0.275-0.453-0.15-1.076,0.306-1.352c0.45-0.273,1.024-0.166,1.3,0.289l0.039,0.068c0.281,0.453,0.171,1.096-0.279,1.375
		C9.841,55.98,9.653,56.035,9.473,56.035z M10.315,58.861l-0.068-0.168c-0.205-0.49,0.025-1.055,0.515-1.26
		c0.49-0.207,1.054,0.025,1.259,0.516l0.085,0.211c0.196,0.494-0.05,1.053-0.543,1.248c-0.116,0.043-0.236,0.064-0.351,0.064
		C10.826,59.473,10.464,59.242,10.315,58.861z M11.481,62.371l-0.045-0.168c-0.138-0.514,0.161-1.062,0.675-1.199
		c0.519-0.141,1.034,0.146,1.172,0.658l0.012,0.043l0.039,0.143c0.145,0.512-0.153,1.043-0.664,1.188
		c-0.089,0.025-0.176,0.037-0.261,0.037C11.988,63.072,11.601,62.795,11.481,62.371z M12.268,65.992l-0.04-0.221
		c-0.086-0.523,0.268-1.02,0.791-1.107c0.514-0.086,1.021,0.268,1.107,0.793l0.033,0.186c0.095,0.521-0.248,1.023-0.771,1.119
		c-0.059,0.012-0.118,0.018-0.176,0.018C12.757,66.779,12.354,66.455,12.268,65.992z M12.724,69.465
		c-0.05-0.529,0.341-1,0.869-1.049c0.514-0.043,0.997,0.342,1.047,0.869l0.018,0.193c0.058,0.527-0.325,1.002-0.854,1.059
		c-0.035,0.004-0.07,0.004-0.102,0.004c-0.486,0-0.902-0.365-0.958-0.857L12.724,69.465z M12.957,73.197
		c-0.02-0.529,0.396-0.977,0.928-0.996c0.488-0.047,0.977,0.395,0.993,0.926l0.008,0.223c0.01,0.531-0.413,0.969-0.944,0.979h-0.018
		c-0.522,0-0.951-0.42-0.961-0.943L12.957,73.197z M13.062,77.23l-0.015-0.205c-0.04-0.529,0.357-0.99,0.89-1.029
		c0.525-0.021,0.991,0.359,1.029,0.889l0.015,0.203c0.038,0.529-0.357,0.992-0.89,1.029c-0.024,0.002-0.048,0.004-0.072,0.004
		C13.52,78.121,13.1,77.734,13.062,77.23z M14.675,81.85c-0.418,0-0.805-0.273-0.925-0.695l-0.062-0.219
		c-0.135-0.514,0.173-1.039,0.687-1.176c0.517-0.131,1.04,0.17,1.175,0.686l0.05,0.176c0.146,0.512-0.147,1.045-0.658,1.191
		C14.853,81.838,14.763,81.85,14.675,81.85z M16.62,85.209c-0.151,0.088-0.316,0.129-0.479,0.129c-0.333,0-0.655-0.174-0.834-0.482
		l-0.104-0.186c-0.261-0.463-0.098-1.051,0.365-1.311c0.469-0.262,1.049-0.094,1.311,0.365l0.098,0.172
		C17.238,84.357,17.08,84.945,16.62,85.209z M17.21,16.061l0.141-0.15c0.36-0.391,0.97-0.41,1.359-0.053
		c0.389,0.361,0.413,0.971,0.053,1.359l-0.14,0.15c-0.19,0.205-0.448,0.309-0.706,0.309c-0.233,0-0.47-0.084-0.652-0.256
		C16.875,17.061,16.85,16.451,17.21,16.061z M19.157,88.027c-0.188,0.193-0.438,0.291-0.688,0.291c-0.243,0-0.486-0.09-0.672-0.273
		l-0.155-0.152c-0.376-0.377-0.376-0.984,0-1.359c0.375-0.377,0.984-0.377,1.36,0l0.138,0.133
		C19.52,87.037,19.527,87.646,19.157,88.027z M21.363,90.533c-0.559,0-1.011-0.453-1.011-1.012c0-0.043,0.02-0.08,0.024-0.125
		c0.003-0.008,0.005-0.018,0.005-0.025c0.021-0.123,0.056-0.232,0.112-0.336c0.003-0.004,0.003-0.008,0.003-0.01
		c0.005-0.006,0.011-0.01,0.015-0.014c0.176-0.295,0.484-0.502,0.852-0.502c0.559,0,1.013,0.453,1.013,1.012
		S21.921,90.533,21.363,90.533z M25.943,91.303c-0.118,0.43-0.507,0.713-0.93,0.713c-0.083,0-0.168-0.01-0.25-0.033l-0.231-0.066
		c-0.506-0.158-0.791-0.695-0.636-1.203c0.157-0.508,0.696-0.793,1.202-0.637l0.165,0.047
		C25.774,90.262,26.081,90.791,25.943,91.303z M28.742,92.695c-0.021,0-0.047,0-0.069-0.002l-0.224-0.018
		c-0.527-0.049-0.919-0.518-0.869-1.047c0.049-0.529,0.52-0.914,1.048-0.869l0.186,0.016c0.528,0.039,0.926,0.5,0.889,1.029
		C29.665,92.311,29.244,92.695,28.742,92.695z M32.538,92.768h-0.205c-0.531,0-0.962-0.432-0.962-0.963s0.431-0.961,0.962-0.961
		h0.205c0.53,0,0.962,0.43,0.962,0.961S33.068,92.768,32.538,92.768z M36.333,92.768h-0.206c-0.531,0-0.962-0.432-0.962-0.963
		s0.431-0.961,0.962-0.961h0.206c0.531,0,0.962,0.43,0.962,0.961S36.864,92.768,36.333,92.768z M40.129,92.768h-0.206
		c-0.53,0-0.961-0.432-0.961-0.963s0.431-0.961,0.961-0.961h0.206c0.531,0,0.962,0.43,0.962,0.961S40.661,92.768,40.129,92.768z
		 M43.925,92.768h-0.206c-0.531,0-0.962-0.432-0.962-0.963s0.431-0.961,0.962-0.961h0.206c0.53,0,0.961,0.43,0.961,0.961
		S44.456,92.768,43.925,92.768z M47.721,92.768h-0.205c-0.53,0-0.962-0.432-0.962-0.963s0.432-0.961,0.962-0.961h0.205
		c0.532,0,0.963,0.43,0.963,0.961S48.253,92.768,47.721,92.768z M51.516,92.768h-0.205c-0.53,0-0.961-0.432-0.961-0.963
		s0.431-0.961,0.961-0.961h0.205c0.531,0,0.962,0.43,0.962,0.961S52.047,92.768,51.516,92.768z M55.314,92.768h-0.205
		c-0.531,0-0.962-0.432-0.962-0.963s0.431-0.961,0.962-0.961h0.205c0.531,0,0.962,0.43,0.962,0.961S55.845,92.768,55.314,92.768z
		 M59.109,92.779h-0.018l-0.206-0.004c-0.529-0.01-0.954-0.449-0.944-0.979c0.011-0.525,0.438-0.945,0.962-0.945h0.018l0.206,0.004
		c0.531,0.01,0.954,0.447,0.944,0.979C60.061,92.361,59.632,92.779,59.109,92.779z M62.899,92.992c-0.03,0-0.061,0-0.091-0.004
		l-0.202-0.02c-0.529-0.049-0.919-0.516-0.872-1.045c0.048-0.529,0.502-0.924,1.047-0.871l0.206,0.02
		c0.527,0.049,0.917,0.518,0.869,1.047C63.808,92.617,63.39,92.992,62.899,92.992z M62.653,58.252
		c-1.663,1.619-2.973,2.549-3.927,2.797c-0.236,0.062-0.469,0.096-0.694,0.096c-0.696,0-1.185-0.307-1.463-0.916
		c-0.087-0.182-0.13-0.369-0.13-0.562c0-0.877,0.703-1.656,2.109-2.33c0.783-0.375,1.728-0.695,2.832-0.963
		c0.151-0.547,0.328-1.361,0.531-2.443c0.065-0.332,0.098-0.588,0.098-0.771c0-0.225-0.07-0.428-0.21-0.609
		c-0.033-0.043-0.075-0.064-0.128-0.064c-0.104,0-0.386,0.262-0.828,0.758c-0.036,0.104-0.099,0.217-0.22,0.352
		c-0.954,1.086-1.876,1.879-2.767,2.383c-0.409,0.236-0.827,0.354-1.255,0.354c-0.752,0-1.127-0.338-1.127-1.014
		c0-0.191,0.037-0.406,0.112-0.645c0.127-0.416,0.311-0.799,0.546-1.141c0.258-0.312,0.512-0.623,0.756-0.936
		c0.216-0.277,0.324-0.531,0.324-0.756c0-0.16-0.065-0.24-0.193-0.24c-0.192,0-0.469,0.188-0.821,0.562
		c-0.409,0.43-0.912,1.029-1.514,1.803c-0.15,0.279-0.38,0.719-0.691,1.32c-1.127,2.156-1.809,3.418-2.043,3.781
		c-0.635,0.957-1.315,1.547-2.047,1.771c-0.429,0.129-0.781,0.193-1.062,0.193c-0.268,0-0.493-0.064-0.676-0.193
		c-0.128-0.086-0.193-0.199-0.193-0.338c0-0.215,0.15-0.445,0.451-0.693c0.623-0.514,1.713-2.092,3.269-4.73l2.462-4.17
		c-0.486,0.602-1.193,1.389-2.107,2.359c-0.039,0.098-0.1,0.205-0.212,0.328c-0.954,1.086-1.876,1.879-2.767,2.383
		c-0.409,0.236-0.828,0.354-1.256,0.354c-0.752,0-1.127-0.338-1.127-1.014c0-0.191,0.037-0.406,0.113-0.645
		c0.128-0.416,0.31-0.799,0.545-1.141c0.258-0.312,0.512-0.623,0.757-0.936c0.215-0.277,0.323-0.531,0.323-0.756
		c0-0.16-0.065-0.24-0.193-0.24c-0.192,0-0.468,0.188-0.821,0.562c-0.408,0.43-0.911,1.029-1.513,1.803
		c-0.151,0.279-0.381,0.719-0.692,1.32c-1.127,2.156-1.808,3.418-2.043,3.781c-0.634,0.957-1.315,1.547-2.047,1.771
		c-0.428,0.129-0.781,0.193-1.062,0.193c-0.268,0-0.493-0.064-0.676-0.193c-0.127-0.086-0.193-0.199-0.193-0.338
		c0-0.215,0.151-0.445,0.452-0.693c0.623-0.514,1.713-2.092,3.269-4.73l2.462-4.17c-0.503,0.623-1.24,1.443-2.204,2.463
		c-0.029,0.025-0.053,0.035-0.082,0.055c-0.035,0.064-0.085,0.133-0.161,0.211c-0.138,0.145-0.283,0.297-0.435,0.459
		c-0.225,0.248-0.631,0.619-1.215,1.119c-0.586,0.498-0.979,0.812-1.185,0.941c-0.363,0.227-0.719,0.338-1.062,0.338
		c-0.269,0-0.514-0.076-0.731-0.232c-0.221-0.156-0.331-0.396-0.331-0.719c0-0.158,0.027-0.336,0.081-0.529
		c-0.602,0.504-1.101,0.869-1.499,1.094c-0.396,0.225-0.794,0.338-1.189,0.338c-0.398,0-0.724-0.123-0.981-0.369
		c-0.259-0.246-0.387-0.562-0.387-0.949s0.101-0.791,0.307-1.209c-0.028,0.002-0.043-0.002-0.069,0
		c-0.499,0.645-1.031,1.227-1.622,1.691c-0.784,0.611-1.476,0.918-2.076,0.918c-0.484,0-0.864-0.199-1.143-0.598
		c-0.248-0.344-0.37-0.775-0.37-1.291c0-0.432,0.08-0.844,0.242-1.242c0.192-0.463,0.387-0.932,0.579-1.404
		c0.31-0.723,0.653-1.404,1.029-2.049c0.01,0-0.221-0.008-0.692-0.018c-0.289-0.01-0.559,0-0.803,0.033
		c-0.056,0.148-0.126,0.385-0.211,0.707c-0.365,1.307-0.93,2.479-1.69,3.516c-1.265,1.725-2.748,2.586-4.44,2.586
		c-1.086,0-2.018-0.299-2.794-0.898c-0.779-0.6-1.167-1.32-1.167-2.166c0-0.707,0.315-1.363,0.949-1.975
		c0.278-0.268,0.606-0.402,0.982-0.402c0.354,0,0.656,0.121,0.908,0.361c0.254,0.24,0.379,0.527,0.379,0.859
		c0,0.543-0.22,0.902-0.658,1.074c-0.399,0.158-0.598,0.432-0.598,0.816c0,0.256,0.108,0.473,0.322,0.648
		c0.215,0.178,0.473,0.266,0.773,0.266c0.311,0,0.676-0.145,1.095-0.434c0.631-0.438,1.222-1.133,1.771-2.084
		c0.202-0.354,0.602-1.023,1.189-2.006c-0.32,0.105-0.602,0.252-0.836,0.436c-0.268,0.182-0.629,0.473-1.08,0.869
		c-0.053,0.074-0.143,0.113-0.272,0.113c-0.236,0-0.354-0.125-0.354-0.371c0-0.033,0.013-0.076,0.04-0.129
		c0.027-0.055,0.04-0.092,0.04-0.113c0.085-0.129,0.403-0.391,0.949-0.789c0.667-0.461,1.222-0.766,1.674-0.918
		c0.042,0,0.12-0.021,0.225-0.072c0.108-0.049,0.188-0.072,0.243-0.072l1.045-1.723c-1.007,0.559-1.829,0.838-2.463,0.838
		c-0.47,0-0.874-0.15-1.207-0.451c-0.333-0.299-0.498-0.66-0.498-1.078c0-0.848,0.29-1.572,0.869-2.174
		c0.578-0.602,1.277-0.9,2.094-0.9c0.288,0,0.434,0.086,0.434,0.258c0,0.074-0.043,0.16-0.128,0.258
		c-0.173,0.15-0.346,0.301-0.517,0.451c-0.215,0.225-0.322,0.51-0.322,0.854c0,0.234,0.092,0.436,0.275,0.602
		c0.183,0.168,0.396,0.25,0.645,0.25c0.78,0,1.752-0.521,2.912-1.562c0.762-0.686,1.34-1.027,1.738-1.027
		c0.333,0,0.498,0.088,0.498,0.27c0,0.076-0.037,0.156-0.112,0.242c-0.245,0.203-0.596,0.551-1.047,1.041
		c-0.288,0.418-0.749,1.5-1.382,3.242c0.085,0,0.225-0.004,0.417-0.016c0.193-0.01,0.344-0.016,0.452-0.016
		c0.244,0,0.551-0.033,0.916-0.098c0.784-1.17,1.648-2.193,2.593-3.074c1.287-1.191,2.446-1.787,3.477-1.787
		c0.677,0,1.015,0.273,1.015,0.822c0,0.482-0.307,1.084-0.92,1.801c-0.889,1.053-2.054,1.848-3.491,2.383
		c-0.483,0.805-0.949,1.68-1.4,2.625c-0.611,1.244-0.916,2.082-0.916,2.512c0,0.17,0.052,0.268,0.159,0.289
		c0.236,0.033,0.514-0.08,0.838-0.338c0.192-0.205,0.392-0.414,0.603-0.627c0.116-0.119,0.256-0.25,0.41-0.385
		c0.043-0.066,0.111-0.148,0.234-0.26c0.187-0.172,0.367-0.34,0.541-0.5c0.268-0.227,0.676-0.66,1.225-1.305
		c0.333-0.471,0.628-0.832,0.887-1.078c0.473-0.428,1.021-0.734,1.645-0.918c0.281-0.084,0.588-0.127,0.923-0.127
		c0.591,0,1.062,0.102,1.417,0.307c0.217-0.43,0.323-0.65,0.323-0.662c0.161-0.363,0.361-0.58,0.606-0.643
		c0.17-0.043,0.436,0.129,0.799,0.514c0.286,0.312,0.432,0.611,0.432,0.902c0,0.203-0.126,0.543-0.371,1.016
		c-0.28,0.545-0.703,1.357-1.273,2.428c-0.215,0.398-0.32,0.736-0.32,1.016c0,0.182,0.039,0.295,0.113,0.338
		c0.075,0.043,0.311-0.098,0.706-0.418c0.327-0.266,0.585-0.512,0.792-0.742c0.051-0.107,0.128-0.215,0.254-0.322
		c0.366-0.311,1.015-1.061,1.949-2.252c0.771-0.977,1.308-1.686,1.608-2.125c0.226-0.332,0.436-0.5,0.629-0.5
		c0.128,0,0.283,0.08,0.466,0.242c0.45,0.396,0.677,0.773,0.677,1.127c0,0.203-0.063,0.459-0.187,0.764
		c-0.122,0.307-0.303,0.68-0.539,1.119c0.592-0.568,1.315-1.127,2.175-1.672c0.386-0.248,0.787-0.371,1.205-0.371
		c0.526,0,0.789,0.236,0.789,0.709c0,0.299-0.118,0.68-0.354,1.141c-0.568,1.117-0.986,2.002-1.255,2.658
		c-0.14,0.354-0.087,0.529,0.161,0.529c0.128,0,0.277-0.078,0.45-0.232c0.15-0.137,0.408-0.398,0.74-0.744
		c0.043-0.131,0.121-0.262,0.275-0.393c0.366-0.311,1.015-1.061,1.949-2.252c0.771-0.977,1.308-1.686,1.608-2.125
		c0.225-0.332,0.435-0.5,0.628-0.5c0.128,0,0.283,0.08,0.466,0.242c0.45,0.396,0.677,0.773,0.677,1.127
		c0,0.203-0.063,0.459-0.186,0.764c-0.123,0.307-0.303,0.68-0.539,1.119c0.592-0.568,1.315-1.127,2.175-1.672
		c0.386-0.248,0.787-0.371,1.204-0.371c0.526,0,0.789,0.236,0.789,0.709c0,0.299-0.117,0.68-0.353,1.141
		c-0.568,1.117-0.987,2.002-1.255,2.658c-0.141,0.354-0.088,0.529,0.16,0.529c0.128,0,0.278-0.078,0.451-0.232
		c0.149-0.139,0.409-0.398,0.742-0.748c0.04-0.092,0.098-0.184,0.188-0.275c0.291-0.289,0.774-0.857,1.451-1.705
		c0.376-0.484,0.744-0.965,1.109-1.449c0.301-0.354,0.592-0.531,0.869-0.531c0.494,0,0.741,0.461,0.741,1.385
		c0,0.461-0.055,1.068-0.159,1.818c-0.183,1.246-0.437,2.41-0.757,3.492c0.138-0.02,0.297-0.057,0.481-0.111
		c0.44-0.633,0.844-1.459,1.206-2.479c0.235-0.654,0.355-1.266,0.355-1.836c0-0.279-0.031-0.58-0.097-0.9
		c-0.064-0.322-0.096-0.51-0.096-0.564c0-0.408,0.113-0.814,0.336-1.223c0.173-0.291,0.421-0.434,0.741-0.434
		c0.311,0,0.578,0.166,0.805,0.498c0.163,0.225,0.242,0.537,0.242,0.934c0,0.676-0.188,1.416-0.563,2.221
		c-0.517,1.139-1.132,2.242-1.852,3.316c0.978-0.602,1.76-1.309,2.35-2.125c0.132-0.172,0.297-0.258,0.499-0.258
		c0.184,0,0.275,0.076,0.275,0.225c0,0.129-0.07,0.283-0.21,0.467c-0.44,0.6-1.186,1.279-2.237,2.041
		c-0.525,0.373-1.024,0.631-1.497,0.77C63.677,57.166,63.157,57.76,62.653,58.252z M66.657,93.516c-0.059,0-0.118-0.006-0.179-0.016
		l-0.2-0.039c-0.521-0.096-0.866-0.598-0.77-1.121c0.096-0.523,0.606-0.865,1.12-0.77l0.205,0.037
		c0.521,0.1,0.864,0.604,0.767,1.123C67.512,93.193,67.109,93.516,66.657,93.516z M68.223,78.369l-0.569,0.133l-0.1-0.6l0.989-1.191
		l-0.782,0.072l-0.787-0.65h0.362l0.74,0.23l0.984-0.031l-1.132,1.463l-0.064,0.363l0.319-0.203l0.903-1.623l1.682-0.057
		l-1.183,1.523l-0.061,0.361l0.324-0.201l0.929-1.684l3.555-0.113l-3.425,0.324l-1.02,1.883l-0.567,0.133l-0.103-0.6l1.13-1.361
		l-1.194,0.111L68.223,78.369z M71.25,93.768c-0.128,0.414-0.507,0.68-0.92,0.68c-0.093,0-0.188-0.014-0.283-0.043l-0.21-0.066
		c-0.506-0.166-0.781-0.709-0.616-1.215c0.165-0.504,0.706-0.781,1.215-0.613l0.178,0.057C71.123,92.723,71.408,93.26,71.25,93.768z
		 M71.675,84.281l-0.171-1.012l0.455-0.635l-1.526,0.258l-0.469-0.389l0.401-0.424l1.954,0.055l0.693-0.982l-1.748,0.297
		l-0.468-0.387l0.397-0.428l2.146,0.062l1.993-2.799l-1.878,3.018l-1.921-0.039l-0.334,0.178l0.34,0.129l1.908-0.262l-0.887,1.432
		l-1.86-0.035l-0.334,0.178l0.344,0.129l1.841-0.252l-0.525,0.838l-0.172,0.76L71.675,84.281z M74.674,95.408
		c-0.175,0.32-0.507,0.502-0.848,0.502c-0.155,0-0.312-0.037-0.458-0.115l-0.159-0.084c-0.474-0.242-0.662-0.822-0.419-1.295
		c0.24-0.473,0.818-0.662,1.292-0.42l0.203,0.107C74.753,94.355,74.926,94.939,74.674,95.408z M75.098,83.543l-0.573-0.211
		l-0.615-1.658l-0.499,1.092l1.025,1.664l-0.173,0.561l-0.57-0.215l-0.538-1.451l-0.323,0.709l-0.961,0.361l0.18-0.312l0.572-0.529
		l0.469-0.869l0.697,1.719l0.282,0.232l-0.014-0.377L73.1,82.664l0.791-1.486l0.73,1.785l0.282,0.232l-0.014-0.377l-0.992-1.648
		l1.678-3.135l-1.432,3.127l1.121,1.828L75.098,83.543z M75.684,77.83l0.011-0.021l0.63,3.061l-0.41,0.49l-0.586-0.371L75.684,77.83
		z M77.54,97.227l-0.136,0.105c-0.177,0.145-0.391,0.213-0.604,0.213c-0.279,0-0.559-0.121-0.749-0.355
		c-0.333-0.412-0.27-1.02,0.144-1.354l0.19-0.148c0.425-0.32,1.029-0.23,1.345,0.193C78.051,96.307,77.962,96.908,77.54,97.227z
		 M77.888,69.057l0.17-0.557l0.57,0.209l0.611,1.664l0.502-1.094l-1.021-1.666l0.169-0.557l0.567,0.209l0.538,1.455l0.327-0.711
		l0.96-0.359l-0.18,0.311l-0.571,0.529l-0.465,0.869l-0.702-1.715l-0.285-0.234l0.017,0.377l0.957,1.592l-0.794,1.486l-0.728-1.783
		l-0.281-0.23l0.013,0.377l0.993,1.646l-1.675,3.135l1.429-3.127L77.888,69.057z M82.717,69.15l0.467,0.389l-0.397,0.428
		l-1.953-0.057l-0.694,0.982l1.745-0.299l0.468,0.391l-0.398,0.422l-2.142-0.059l-1.991,2.801l1.877-3.018l1.921,0.037l0.333-0.18
		l-0.343-0.125l-1.909,0.26l0.891-1.434l1.857,0.037l0.337-0.178l-0.343-0.129l-1.839,0.25l0.522-0.834l0.17-0.76l0.182-0.314
		l0.166,1.012l-0.45,0.639L82.717,69.15z M77.852,75.705l0.317,0.318l-0.317,0.314l-1.027-0.314L77.852,75.705z M77.683,74.365
		l0.013-0.018l2.56-1.885l0.614,0.32l-0.225,0.602L77.683,74.365z M80.645,78.66l0.221,0.605l-0.615,0.316l-2.555-1.881
		l-0.013-0.023L80.645,78.66z M78.56,76.154h0.025l2.911,1.275l0.032,0.689l-0.635,0.109L78.56,76.154z M78.564,75.891l2.33-2.076
		l0.638,0.113l-0.035,0.691l-2.911,1.271H78.564z M77.468,74.217l-0.013,0.02l-0.628-3.061l0.41-0.49l0.583,0.369L77.468,74.217z
		 M76.939,74.758l0.434-0.117l0.117,0.434l-0.787,0.73L76.939,74.758z M77.49,76.969l-0.117,0.434l-0.434-0.115l-0.236-1.047
		L77.49,76.969z M77.817,80.99l-0.583,0.369l-0.409-0.49l0.631-3.061l0.009,0.021L77.817,80.99z M80.625,95.375l-0.193,0.09
		c-0.132,0.064-0.271,0.092-0.408,0.092c-0.36,0-0.708-0.203-0.871-0.553c-0.226-0.48-0.018-1.055,0.464-1.279l0.177-0.084
		c0.481-0.232,1.053-0.027,1.282,0.451C81.307,94.57,81.105,95.145,80.625,95.375z M80.315,84.037l-0.323-0.711l-0.538,1.451
		l-0.57,0.213l-0.167-0.561l1.019-1.662l-0.5-1.094l-0.613,1.662l-0.57,0.213l-0.174-0.559l1.125-1.828l-1.426-3.123l1.675,3.131
		l-0.991,1.65l-0.017,0.375l0.284-0.232l0.728-1.783l0.794,1.486l-0.961,1.592l-0.01,0.377l0.28-0.232l0.7-1.717l0.467,0.871
		l0.571,0.527l0.179,0.312L80.315,84.037z M81.475,84.283l-0.184-0.312l-0.173-0.758L80.6,82.375l1.838,0.254l0.344-0.129
		l-0.334-0.18l-1.859,0.033l-0.891-1.428l1.908,0.262l0.343-0.129l-0.334-0.18l-1.921,0.037l-1.877-3.018l1.992,2.799l2.143-0.057
		l0.4,0.424l-0.468,0.389l-1.748-0.299l0.697,0.982l1.951-0.053l0.396,0.424l-0.468,0.391l-1.524-0.26l0.452,0.633L81.475,84.283z
		 M84.044,94.119l-0.208,0.061c-0.087,0.025-0.177,0.037-0.266,0.037c-0.418,0-0.804-0.275-0.924-0.695
		c-0.147-0.51,0.147-1.043,0.656-1.191l0.186-0.053c0.511-0.16,1.048,0.133,1.199,0.643C84.841,93.428,84.553,93.965,84.044,94.119z
		 M85.596,77.908l-0.103,0.6l-0.567-0.133l-0.928-1.721L82.8,76.543l1.13,1.365l-0.103,0.6l-0.566-0.133l-1.021-1.889l-3.421-0.324
		l3.552,0.115l0.928,1.684l0.325,0.201l-0.065-0.363l-1.176-1.518l1.685,0.053l0.896,1.627l0.324,0.203l-0.061-0.361l-1.142-1.469
		l0.987,0.033l0.744-0.23h0.361l-0.798,0.654l-0.772-0.076L85.596,77.908z M85.818,75.912l-0.744-0.232l-0.982,0.035l1.137-1.469
		l0.061-0.359l-0.32,0.201l-0.903,1.627l-1.682,0.053l1.183-1.521l0.061-0.359l-0.32,0.201l-0.933,1.68l-3.554,0.117l3.421-0.326
		l1.024-1.887l0.562-0.133l0.103,0.604l-1.13,1.363l1.198-0.115l0.928-1.715l0.569-0.137l0.101,0.604l-0.987,1.193l0.779-0.076
		l0.791,0.652H85.818z M87.628,93.334l-0.202,0.033c-0.052,0.01-0.105,0.014-0.158,0.014c-0.464,0-0.869-0.334-0.949-0.805
		c-0.085-0.523,0.269-1.02,0.792-1.107l0.203-0.033c0.513-0.086,1.019,0.268,1.106,0.791C88.507,92.75,88.155,93.246,87.628,93.334z
		 M91.326,92.904l-0.219,0.018c-0.025,0.002-0.049,0.002-0.074,0.002c-0.498,0-0.919-0.385-0.956-0.891
		c-0.04-0.529,0.357-0.99,0.887-1.031l0.192-0.014c0.516-0.047,0.994,0.342,1.042,0.873C92.246,92.391,91.855,92.857,91.326,92.904z
		 M95.05,92.768l-0.223,0.002c-0.531,0-0.962-0.432-0.962-0.963s0.431-0.961,0.962-0.961l0.188-0.002h0.018
		c0.523,0,0.952,0.42,0.962,0.945C96.005,92.32,95.582,92.758,95.05,92.768z M98.828,92.768h-0.204
		c-0.531,0-0.962-0.432-0.962-0.963s0.431-0.961,0.962-0.961h0.204c0.531,0,0.962,0.43,0.962,0.961S99.359,92.768,98.828,92.768z
		 M102.625,92.768h-0.205c-0.531,0-0.962-0.432-0.962-0.963s0.431-0.961,0.962-0.961h0.205c0.531,0,0.962,0.43,0.962,0.961
		S103.157,92.768,102.625,92.768z M106.42,92.768h-0.206c-0.531,0-0.962-0.432-0.962-0.963s0.431-0.961,0.962-0.961h0.206
		c0.531,0,0.962,0.43,0.962,0.961S106.952,92.768,106.42,92.768z M110.218,92.768h-0.205c-0.532,0-0.963-0.432-0.963-0.963
		s0.431-0.961,0.963-0.961h0.205c0.53,0,0.962,0.43,0.962,0.961S110.749,92.768,110.218,92.768z M114.013,92.768h-0.206
		c-0.531,0-0.962-0.432-0.962-0.963s0.431-0.961,0.962-0.961h0.206c0.531,0,0.962,0.43,0.962,0.961S114.544,92.768,114.013,92.768z
		 M117.81,92.768h-0.205c-0.531,0-0.961-0.432-0.961-0.963s0.43-0.961,0.961-0.961h0.205c0.531,0,0.963,0.43,0.963,0.961
		S118.341,92.768,117.81,92.768z M121.604,92.768h-0.205c-0.531,0-0.961-0.432-0.961-0.963s0.43-0.961,0.961-0.961h0.205
		c0.531,0,0.963,0.43,0.963,0.961S122.136,92.768,121.604,92.768z M125.519,92.582l-0.203,0.027
		c-0.043,0.004-0.084,0.008-0.127,0.008c-0.475,0-0.889-0.354-0.951-0.838c-0.068-0.529,0.303-1.01,0.828-1.08l0.205-0.025
		c0.531-0.064,1.007,0.303,1.078,0.83C126.417,92.031,126.043,92.514,125.519,92.582z M129.403,91.66l-0.215,0.074
		c-0.1,0.033-0.201,0.047-0.299,0.047c-0.406,0-0.781-0.256-0.914-0.662c-0.166-0.506,0.109-1.049,0.613-1.213l0.174-0.059
		c0.502-0.18,1.051,0.086,1.227,0.586C130.167,90.936,129.905,91.484,129.403,91.66z M133.012,89.906l-0.186,0.119
		c-0.16,0.1-0.336,0.148-0.51,0.148c-0.32,0-0.635-0.16-0.816-0.449c-0.283-0.449-0.148-1.043,0.299-1.328l0.162-0.102
		c0.447-0.291,1.041-0.162,1.332,0.279C133.583,89.021,133.459,89.617,133.012,89.906z M132.737,54.334
		c-0.289,0.807-0.75,1.391-1.383,1.756c-0.43,0.248-0.869,0.369-1.32,0.369c-1.02,0-1.676-0.262-1.963-0.789
		c-0.184-0.32-0.275-0.643-0.275-0.965c0-0.535,0.211-0.906,0.627-1.111c0.344-0.16,0.693-0.24,1.049-0.24
		c0.203,0,0.584,0.037,1.143,0.111c0.051-0.268,0.068-0.74,0.047-1.416c-0.01-0.6,0.031-1.062,0.131-1.385
		c-0.314,0.184-0.803,0.656-1.467,1.418c-0.859,0.988-1.314,1.508-1.367,1.562c-0.021,0.02-0.041,0.031-0.061,0.047
		c-0.443,0.594-1.178,1.26-2.211,2.008c-0.525,0.373-1.023,0.631-1.496,0.77c-0.537,0.697-1.059,1.291-1.561,1.783
		c-1.664,1.619-2.975,2.549-3.928,2.797c-0.236,0.062-0.469,0.096-0.695,0.096c-0.695,0-1.184-0.307-1.463-0.916
		c-0.086-0.182-0.129-0.369-0.129-0.562c0-0.877,0.703-1.656,2.107-2.33c0.785-0.375,1.729-0.695,2.834-0.963
		c0.15-0.547,0.328-1.361,0.531-2.443c0.064-0.332,0.098-0.588,0.098-0.771c0-0.225-0.07-0.428-0.209-0.609
		c-0.033-0.043-0.076-0.064-0.129-0.064c-0.117,0-0.451,0.316-1,0.949c-0.02,0.023-0.037,0.029-0.057,0.051
		c-0.033,0.047-0.066,0.096-0.119,0.15c-0.139,0.145-0.285,0.297-0.436,0.459c-0.225,0.248-0.631,0.619-1.215,1.119
		c-0.586,0.498-0.979,0.812-1.182,0.941c-0.365,0.227-0.719,0.338-1.062,0.338c-0.27,0-0.514-0.076-0.733-0.232
		c-0.221-0.156-0.331-0.396-0.331-0.719c0-0.158,0.028-0.336,0.083-0.529c-0.602,0.504-1.103,0.869-1.498,1.094
		c-0.399,0.225-0.795,0.338-1.192,0.338c-0.396,0-0.725-0.123-0.982-0.369c-0.256-0.246-0.386-0.562-0.386-0.949
		s0.103-0.791,0.307-1.209c-0.003,0-0.004,0-0.007,0c-0.183,0.242-0.453,0.559-0.813,0.951c-0.977,1.074-1.964,1.609-2.963,1.609
		c-0.578,0-0.96-0.457-1.143-1.369c-0.934,0.977-1.713,1.465-2.334,1.465c-0.226,0-0.434-0.053-0.628-0.162
		c-0.452-0.246-0.677-0.674-0.677-1.285c0-0.152,0.018-0.307,0.05-0.467c0.043-0.279,0.08-0.457,0.113-0.533
		c0.026-0.072,0.066-0.141,0.111-0.207c-0.333,0.391-0.82,0.844-1.481,1.367c-1.007,0.805-1.754,1.207-2.238,1.207
		c-0.32,0-0.582-0.129-0.788-0.387c-0.16-0.203-0.24-0.402-0.24-0.594c0-0.398,0.1-0.844,0.305-1.338
		c0.108-0.268,0.477-1.051,1.109-2.35c-0.36,0.453-0.773,0.943-1.218,1.455c-0.012,0.055-0.018,0.113-0.05,0.154
		c-0.324,0.344-0.645,0.691-0.968,1.047c-0.644,0.666-1.122,1.094-1.432,1.287c-0.678,0.441-1.261,0.66-1.754,0.66
		c-0.506,0-0.877-0.23-1.113-0.691c-0.042-0.076-0.062-0.178-0.062-0.307c0-0.707,0.579-2.039,1.738-3.992
		c-0.814,1.174-1.406,1.92-1.786,2.254c-0.52,0.629-1.108,0.98-1.773,1.031c-0.234,0.02-0.433-0.012-0.593-0.098
		c-0.943,1.246-1.997,1.867-3.156,1.867c-0.546,0-0.982-0.178-1.303-0.531c-0.323-0.354-0.482-0.832-0.482-1.432
		c0-0.127,0.031-0.262,0.046-0.393c-0.45,0.551-0.923,1.059-1.447,1.471c-0.784,0.611-1.477,0.918-2.076,0.918
		c-0.484,0-0.865-0.199-1.146-0.598c-0.244-0.344-0.367-0.775-0.367-1.291c0-0.432,0.08-0.844,0.241-1.242
		c0.192-0.463,0.385-0.932,0.578-1.404c0.312-0.723,0.655-1.404,1.032-2.049c0.01,0-0.221-0.008-0.694-0.018
		c-0.288-0.01-0.556,0-0.804,0.033c-0.053,0.148-0.124,0.385-0.208,0.707c-0.366,1.307-0.929,2.479-1.691,3.516
		c-1.267,1.725-2.748,2.586-4.443,2.586c-1.085,0-2.014-0.299-2.792-0.898c-0.779-0.6-1.168-1.32-1.168-2.166
		c0-0.707,0.318-1.363,0.949-1.975c0.281-0.268,0.606-0.402,0.981-0.402c0.356,0,0.659,0.121,0.909,0.361
		c0.254,0.24,0.381,0.527,0.381,0.859c0,0.543-0.22,0.902-0.66,1.074c-0.399,0.158-0.597,0.432-0.597,0.816
		c0,0.256,0.108,0.473,0.323,0.648c0.212,0.178,0.47,0.266,0.771,0.266c0.312,0,0.677-0.145,1.096-0.434
		c0.633-0.438,1.225-1.133,1.771-2.084c0.203-0.354,0.601-1.023,1.192-2.006c-0.323,0.105-0.602,0.252-0.839,0.436
		c-0.268,0.182-0.626,0.473-1.078,0.869c-0.055,0.074-0.145,0.113-0.271,0.113c-0.238,0-0.356-0.125-0.356-0.371
		c0-0.033,0.015-0.076,0.04-0.129c0.027-0.055,0.04-0.092,0.04-0.113c0.088-0.129,0.403-0.391,0.951-0.789
		c0.664-0.461,1.223-0.766,1.674-0.918c0.043,0,0.118-0.021,0.226-0.072c0.108-0.049,0.188-0.072,0.24-0.072l1.048-1.723
		c-1.011,0.559-1.829,0.838-2.462,0.838c-0.475,0-0.875-0.15-1.209-0.451c-0.333-0.299-0.498-0.66-0.498-1.078
		c0-0.848,0.289-1.572,0.869-2.174c0.579-0.602,1.274-0.9,2.092-0.9c0.29,0,0.436,0.086,0.436,0.258c0,0.074-0.045,0.16-0.13,0.258
		c-0.171,0.15-0.343,0.301-0.516,0.451c-0.214,0.225-0.32,0.51-0.32,0.854c0,0.234,0.089,0.436,0.271,0.602
		c0.185,0.168,0.399,0.25,0.645,0.25c0.783,0,1.756-0.521,2.913-1.562c0.765-0.686,1.343-1.027,1.738-1.027
		c0.334,0,0.501,0.088,0.501,0.27c0,0.076-0.037,0.156-0.112,0.242c-0.249,0.203-0.597,0.551-1.048,1.041
		c-0.29,0.418-0.751,1.5-1.385,3.242c0.088,0,0.226-0.004,0.418-0.016c0.196-0.01,0.344-0.016,0.451-0.016
		c0.248,0,0.554-0.033,0.919-0.098c0.781-1.17,1.646-2.193,2.591-3.074c1.287-1.191,2.447-1.787,3.477-1.787
		c0.676,0,1.015,0.273,1.015,0.822c0,0.482-0.306,1.084-0.917,1.801c-0.893,1.053-2.057,1.848-3.494,2.383
		c-0.481,0.805-0.949,1.68-1.4,2.625c-0.611,1.244-0.917,2.082-0.917,2.512c0,0.17,0.054,0.268,0.16,0.289
		c0.235,0.033,0.517-0.08,0.837-0.338c0.195-0.205,0.396-0.414,0.604-0.627c0.072-0.074,0.16-0.154,0.246-0.234
		c0.013-0.086,0.046-0.168,0.116-0.248c0.526-0.662,1.095-1.314,1.706-1.957c0.944-1.016,1.78-1.689,2.512-2.021
		c0.406-0.193,0.805-0.289,1.19-0.289c0.729,0,1.217,0.369,1.466,1.107c0.052,0.16,0.079,0.348,0.079,0.562
		c0,0.715-0.268,1.602-0.804,2.662c0.128,0.074,0.192,0.225,0.192,0.449c0.366-0.086,0.654-0.316,0.869-0.691
		c0.085-0.086,0.17-0.137,0.256-0.162c0.244-0.266,0.542-0.594,0.904-0.998c0.301-0.365,0.802-1.07,1.503-2.117
		c0.704-1.047,1.172-1.789,1.41-2.229c0.955-1.814,1.518-2.684,1.69-2.607c0.161,0.064,0.349,0.203,0.562,0.418
		c0.215,0.215,0.36,0.424,0.435,0.627c0.108,0.27,0.161,0.457,0.161,0.564c0,0.16-0.062,0.375-0.192,0.645
		c-0.955,1.92-1.969,3.992-3.042,6.213c-0.12,0.301-0.178,0.51-0.178,0.627c0,0.172,0.103,0.236,0.306,0.193
		c0.161-0.033,0.441-0.25,0.837-0.65c0.087-0.09,0.166-0.164,0.241-0.232c0.011-0.039,0.024-0.076,0.049-0.115
		c0.214-0.246,0.658-0.795,1.335-1.643c0.344-0.504,0.692-1.008,1.048-1.512c0.396-0.559,0.7-0.863,0.917-0.918
		c0.29-0.074,0.46-0.111,0.516-0.111c0.096,0,0.197,0.062,0.306,0.191c0.471,0.559,0.708,0.961,0.708,1.209
		c0,0.287-0.22,0.916-0.66,1.881c-0.409,0.902-0.611,1.482-0.611,1.74c0,0.117,0.047,0.176,0.145,0.176
		c0.118,0,0.386-0.219,0.805-0.658c0.46-0.488,0.784-0.746,0.986-0.799c0.17-0.191,0.363-0.424,0.591-0.715
		c0.622-0.795,1.208-1.422,1.757-1.885c0.794-0.676,1.537-1.014,2.237-1.014c0.438,0,0.83,0.135,1.174,0.404
		c0.677-1.246,1.428-2.598,2.254-4.059c0.076-0.129,0.155-0.262,0.241-0.402c0.075-0.096,0.197-0.129,0.37-0.096
		c0.301,0.043,0.557,0.23,0.771,0.562c0.249,0.375,0.371,0.682,0.371,0.918c0,0.268-0.521,1.471-1.561,3.605
		c-0.451,0.977-1,2.098-1.643,3.365c-0.096,0.139-0.146,0.268-0.146,0.385c0,0.195,0.112,0.291,0.338,0.291
		c0.13,0,0.238-0.043,0.323-0.129c0.145-0.162,0.341-0.35,0.566-0.553c0-0.018-0.003-0.025-0.003-0.043
		c0-0.064,0.093-0.182,0.28-0.354c0.19-0.172,0.371-0.34,0.542-0.5c0.27-0.227,0.679-0.66,1.227-1.305
		c0.333-0.471,0.63-0.832,0.888-1.078c0.473-0.428,1.021-0.734,1.644-0.918c0.279-0.084,0.588-0.127,0.92-0.127
		c0.592,0,1.064,0.102,1.42,0.307c0.217-0.43,0.324-0.65,0.324-0.662c0.158-0.363,0.359-0.58,0.605-0.643
		c0.17-0.043,0.436,0.129,0.797,0.514c0.287,0.312,0.432,0.611,0.432,0.902c0,0.203-0.125,0.543-0.371,1.016
		c-0.279,0.545-0.701,1.357-1.27,2.428c-0.217,0.398-0.324,0.736-0.324,1.016c0,0.182,0.037,0.295,0.111,0.338
		c0.076,0.043,0.312-0.098,0.711-0.418c0.354-0.291,0.639-0.559,0.852-0.807c0.008-0.01,0.012-0.012,0.02-0.021
		c0.031-0.041,0.051-0.082,0.092-0.123c0.291-0.289,0.775-0.857,1.451-1.705c0.375-0.484,0.744-0.965,1.109-1.449
		c0.301-0.354,0.592-0.531,0.869-0.531c0.494,0,0.742,0.461,0.742,1.385c0,0.461-0.057,1.068-0.16,1.818
		c-0.184,1.246-0.436,2.41-0.758,3.492c0.139-0.02,0.299-0.057,0.48-0.111c0.443-0.633,0.846-1.459,1.209-2.479
		c0.234-0.654,0.355-1.266,0.355-1.836c0-0.279-0.033-0.58-0.098-0.9c-0.066-0.322-0.096-0.51-0.096-0.564
		c0-0.408,0.113-0.814,0.336-1.223c0.173-0.291,0.421-0.434,0.742-0.434c0.311,0,0.578,0.166,0.803,0.498
		c0.164,0.225,0.244,0.537,0.244,0.934c0,0.676-0.188,1.416-0.564,2.221c-0.516,1.139-1.133,2.242-1.851,3.316
		c0.976-0.602,1.759-1.309,2.351-2.125c0.033-0.045,0.078-0.068,0.117-0.102c0.512-0.598,1.312-1.51,2.426-2.764
		c0.482-0.514,1.008-0.934,1.578-1.256c0.568-0.322,1.057-0.482,1.465-0.482c0.719,0,1.076,0.305,1.076,0.916
		c0,0.227-0.09,0.426-0.271,0.598c-0.184,0.172-0.377,0.258-0.58,0.258c-0.055,0-0.107-0.006-0.16-0.016
		c-0.324-0.088-0.543-0.07-0.66,0.047c-0.119,0.119-0.18,0.254-0.18,0.402c0,0.15,0.066,0.445,0.193,0.885
		c0.023,0.053,0.141,0.35,0.355,0.885c0.129,0.322,0.193,0.623,0.193,0.902c0.217-0.096,0.418-0.252,0.611-0.467
		c0.131-0.15,0.281-0.227,0.451-0.227c0.225,0,0.338,0.109,0.338,0.324c0,0.096-0.098,0.258-0.291,0.482
		C133.694,54.008,133.262,54.25,132.737,54.334z M136.09,87.285l-0.152,0.17c-0.189,0.205-0.447,0.309-0.707,0.309
		c-0.234,0-0.467-0.086-0.652-0.256c-0.391-0.361-0.414-0.971-0.053-1.359l0.119-0.133c0.354-0.4,0.959-0.438,1.359-0.088
		C136.401,86.277,136.442,86.885,136.09,87.285z M136.278,19.771c-0.266-0.459-0.107-1.049,0.352-1.312
		c0.463-0.266,1.051-0.105,1.314,0.355l0.111,0.199c0.254,0.467,0.08,1.051-0.389,1.305c-0.145,0.078-0.303,0.115-0.455,0.115
		c-0.344,0-0.674-0.182-0.848-0.502L136.278,19.771z M138.342,83.936l-0.102,0.203c-0.174,0.33-0.506,0.518-0.855,0.518
		c-0.15,0-0.299-0.035-0.443-0.109c-0.471-0.246-0.652-0.826-0.406-1.297l0.078-0.162c0.234-0.477,0.809-0.674,1.287-0.441
		C138.377,82.881,138.577,83.457,138.342,83.936z M139.667,80.146l-0.055,0.221c-0.107,0.439-0.5,0.732-0.932,0.732
		c-0.076,0-0.152-0.008-0.23-0.027c-0.516-0.127-0.83-0.646-0.705-1.162l0.043-0.182c0.113-0.518,0.617-0.84,1.146-0.73
		C139.454,79.113,139.78,79.629,139.667,80.146z M140.143,76.422c-0.02,0.52-0.445,0.926-0.959,0.926c-0.012,0-0.023,0-0.037,0
		c-0.531-0.02-0.945-0.467-0.924-0.996l0.008-0.205c0.02-0.531,0.465-0.965,0.994-0.926c0.531,0.02,0.945,0.463,0.926,0.994
		L140.143,76.422z M140.221,72.627c-0.02,0.518-0.445,0.926-0.963,0.926c-0.01,0-0.021,0-0.033-0.002
		c-0.531-0.018-0.945-0.465-0.924-0.994l0.008-0.225c0.029-0.531,0.477-0.957,1.014-0.906c0.529,0.029,0.938,0.482,0.906,1.014
		L140.221,72.627z M140.489,68.912c-0.055,0.492-0.471,0.855-0.953,0.855c-0.035,0-0.072,0-0.107-0.006
		c-0.529-0.059-0.91-0.533-0.85-1.062l0.018-0.184c0.049-0.531,0.523-0.912,1.047-0.869c0.527,0.047,0.92,0.516,0.869,1.045
		L140.489,68.912z M141.026,65.229c-0.086,0.463-0.49,0.787-0.945,0.787c-0.059,0-0.117-0.006-0.178-0.018
		c-0.52-0.096-0.867-0.598-0.768-1.121l0.037-0.203c0.098-0.523,0.596-0.867,1.123-0.768c0.523,0.098,0.865,0.602,0.768,1.123
		L141.026,65.229z M141.567,62.104c-0.033,0.025-0.068,0.047-0.104,0.068c-0.041,0.023-0.08,0.049-0.125,0.066
		c-0.119,0.051-0.244,0.086-0.379,0.086c-0.084,0-0.172-0.01-0.26-0.035c-0.17-0.049-0.307-0.15-0.42-0.27
		c-0.01-0.01-0.018-0.021-0.027-0.033c-0.064-0.07-0.117-0.145-0.156-0.23c-0.039-0.076-0.061-0.158-0.08-0.246
		c-0.002-0.012-0.008-0.027-0.008-0.041c-0.012-0.057-0.035-0.109-0.035-0.172c0-0.373,0.211-0.686,0.514-0.861
		c0.027-0.02,0.057-0.043,0.088-0.061c0.018-0.008,0.035-0.012,0.053-0.018c0.203-0.096,0.428-0.135,0.648-0.07
		c0.412,0.119,0.674,0.461,0.689,0.855c0.01,0.053,0.033,0.1,0.033,0.154C141.999,61.635,141.819,61.92,141.567,62.104z
		 M143.209,57.994l-0.082,0.188c-0.158,0.361-0.512,0.574-0.879,0.574c-0.131,0-0.264-0.025-0.389-0.08
		c-0.486-0.215-0.705-0.781-0.494-1.268l0.084-0.188c0.215-0.488,0.785-0.705,1.266-0.494
		C143.206,56.941,143.426,57.508,143.209,57.994z M144.95,54.789l-0.119,0.184c-0.184,0.283-0.49,0.438-0.807,0.438
		c-0.182,0-0.361-0.051-0.523-0.156c-0.445-0.291-0.57-0.887-0.281-1.332l0.104-0.16c0.283-0.449,0.877-0.584,1.328-0.301
		C145.098,53.744,145.233,54.338,144.95,54.789z M146.766,52.459c-0.184,0.17-0.418,0.256-0.654,0.256
		c-0.258,0-0.516-0.105-0.705-0.309l-0.146-0.16c-0.354-0.395-0.324-1.004,0.068-1.359c0.396-0.355,1.006-0.326,1.359,0.068
		l0.131,0.145C147.18,51.488,147.159,52.098,146.766,52.459z"/>
	<path d="M91.402,50.184c-0.431,0-1.011,0.67-1.738,2.01c-0.559,1.01-0.838,1.713-0.838,2.109c0,0.279,0.106,0.467,0.321,0.564
		c0.075,0.031,0.15,0.047,0.226,0.047c0.344,0,0.648-0.305,0.917-0.916c-0.139-0.248-0.209-0.5-0.209-0.758
		c0-0.15,0.025-0.289,0.081-0.418c0.141-0.354,0.488-0.482,1.047-0.387c0.418-0.805,0.626-1.406,0.626-1.803
		C91.834,50.334,91.689,50.184,91.402,50.184z"/>
	<path d="M117.028,50.52c-0.291,0-0.834,0.555-1.628,1.658c-0.611,0.859-0.916,1.467-0.916,1.82c0,0.234,0.098,0.354,0.29,0.354
		c0.226,0,0.552-0.221,0.982-0.66c0.321-0.344,0.596-0.682,0.821-1.014c0.514-0.785,0.771-1.373,0.771-1.771
		C117.349,50.648,117.241,50.52,117.028,50.52z"/>
	<path d="M117.735,59.084c-0.109,0.236-0.16,0.445-0.16,0.627c0,0.451,0.283,0.678,0.854,0.678c1.072-0.139,1.932-1.074,2.576-2.801
		c0.031-0.076,0.078-0.232,0.145-0.467C119.271,57.592,118.134,58.248,117.735,59.084z"/>
	<path d="M108.48,50.568c-0.301,0-0.842,0.553-1.626,1.658c-0.471,0.666-0.709,1.197-0.709,1.594c0,0.291,0.112,0.436,0.338,0.436
		c0.343,0,0.854-0.512,1.53-1.531c0.527-0.793,0.789-1.389,0.789-1.785C108.802,50.693,108.695,50.568,108.48,50.568z"/>
	<path d="M129.149,54.207c-0.172,0.107-0.26,0.236-0.26,0.385c0,0.193,0.104,0.344,0.307,0.451c0.074,0.033,0.15,0.049,0.225,0.049
		c0.355,0,0.672-0.283,0.951-0.854C129.653,54.152,129.245,54.143,129.149,54.207z"/>
	<polygon points="81.193,28.852 81.042,28.475 78.564,27.154 80.833,28.84 	"/>
	<polygon points="81.193,25.188 80.833,25.197 78.56,26.889 81.039,25.562 	"/>
	<polygon points="77.087,28.172 77.271,28.225 77.321,28.037 76.909,27.59 	"/>
	<polygon points="80.469,23.939 80.068,23.881 77.683,25.367 80.28,24.244 	"/>
	<polygon points="77.301,31.934 77.552,31.617 77.456,28.809 77.128,31.621 	"/>
	<polygon points="77.299,22.105 77.126,22.424 77.456,25.234 77.544,22.424 	"/>
	<polygon points="75.854,31.938 76.027,31.617 75.695,28.809 75.605,31.617 	"/>
	<polygon points="75.832,28.037 75.88,28.225 76.069,28.176 76.246,27.592 	"/>
	<polygon points="75.854,71.105 75.605,71.426 75.695,74.236 76.027,71.426 	"/>
	<polygon points="77.083,25.865 76.909,26.451 77.321,26.004 77.271,25.814 	"/>
	<polygon points="76.069,25.869 75.88,25.818 75.832,26.004 76.249,26.451 	"/>
	<polygon points="77.826,27.16 77.963,27.021 77.831,26.883 77.234,27.02 	"/>
	<path d="M39.473,50.52c-0.291,0-0.832,0.555-1.626,1.658c-0.61,0.859-0.917,1.467-0.917,1.82c0,0.234,0.097,0.354,0.289,0.354
		c0.225,0,0.553-0.221,0.981-0.66c0.323-0.344,0.596-0.682,0.822-1.014c0.516-0.785,0.773-1.373,0.773-1.771
		C39.796,50.648,39.689,50.52,39.473,50.52z"/>
	<path d="M57.758,59.084c-0.106,0.236-0.159,0.445-0.159,0.627c0,0.451,0.282,0.678,0.854,0.678
		c1.072-0.139,1.931-1.074,2.574-2.801c0.033-0.076,0.081-0.232,0.146-0.467C59.294,57.592,58.157,58.248,57.758,59.084z"/>
	<path d="M36.963,46.318c0.311-0.418,0.466-0.697,0.466-0.836c0-0.129-0.09-0.193-0.272-0.193c-0.227,0-0.549,0.273-0.968,0.822
		c-0.525,0.674-0.986,1.318-1.382,1.93c0.738-0.332,1.275-0.691,1.607-1.078C36.555,46.801,36.738,46.588,36.963,46.318z"/>
	<polygon points="76.069,74.867 75.88,74.82 75.832,75.006 76.246,75.451 	"/>
	<polygon points="80.475,30.104 80.28,29.795 77.683,28.678 80.068,30.16 	"/>
	<polygon points="80.469,79.105 80.28,78.799 77.683,77.678 80.068,79.162 	"/>
	<polygon points="77.321,75.006 77.271,74.82 77.087,74.871 76.909,75.455 	"/>
	<polygon points="77.831,76.16 77.963,76.021 77.826,75.885 77.234,76.023 	"/>
	<polygon points="81.193,77.857 81.039,77.48 78.56,76.154 80.833,77.846 	"/>
	<polygon points="81.193,74.191 80.833,74.203 78.564,75.891 81.042,74.566 	"/>
	<polygon points="77.301,71.109 77.128,71.424 77.456,74.236 77.552,71.426 	"/>
	<polygon points="80.475,72.939 80.068,72.883 77.683,74.365 80.28,73.248 	"/>
	<polygon points="75.854,80.938 76.024,80.621 75.695,77.809 75.605,80.617 	"/>
	<polygon points="77.299,80.938 77.544,80.621 77.456,77.809 77.126,80.621 	"/>
	<polygon points="71.959,77.852 72.32,77.844 74.589,76.154 72.111,77.479 	"/>
	<polygon points="72.68,79.105 73.084,79.162 75.471,77.678 72.869,78.799 	"/>
	<polygon points="76.069,77.174 76.249,76.592 75.832,77.039 75.88,77.227 	"/>
	<polygon points="72.68,72.939 72.874,73.246 75.471,74.365 73.084,72.879 	"/>
	<polygon points="71.959,74.189 72.111,74.564 74.589,75.891 72.322,74.199 	"/>
	<polygon points="77.083,77.178 77.271,77.229 77.321,77.039 76.909,76.592 	"/>
	<polygon points="75.326,75.885 75.185,76.023 75.323,76.16 75.921,76.021 	"/>
	<polygon points="71.959,25.189 72.111,25.564 74.589,26.889 72.32,25.199 	"/>
	<polygon points="72.68,23.939 72.869,24.244 75.471,25.367 73.084,23.881 	"/>
	<polygon points="75.854,22.105 75.605,22.426 75.695,25.234 76.024,22.424 	"/>
	<polygon points="72.68,30.104 73.084,30.164 75.471,28.678 72.874,29.797 	"/>
	<polygon points="71.959,28.854 72.322,28.844 74.589,27.154 72.111,28.48 	"/>
	<polygon points="75.323,26.883 75.185,27.02 75.326,27.158 75.921,27.021 	"/>
	<path d="M89.227,46.318c0.311-0.418,0.469-0.697,0.469-0.836c0-0.129-0.093-0.193-0.275-0.193c-0.226,0-0.546,0.273-0.965,0.822
		c-0.526,0.674-0.986,1.318-1.386,1.93c0.741-0.332,1.278-0.691,1.611-1.078C88.82,46.801,89.001,46.588,89.227,46.318z"/>
	<path d="M103.78,53.66c-0.028,0.029-0.047,0.039-0.074,0.064c-0.016,0.021-0.026,0.039-0.043,0.061
		C103.701,53.744,103.734,53.699,103.78,53.66z"/>
</g>
</svg>
