<?xml version="1.0" encoding="iso-8859-1"?>
<!-- Generator: Adobe Illustrator 15.0.0, SVG Export Plug-In . SVG Version: 6.00 Build 0)  -->
<!DOCTYPE svg PUBLIC "-//W3C//DTD SVG 1.1//EN" "http://www.w3.org/Graphics/SVG/1.1/DTD/svg11.dtd">
<svg version="1.1" id="sand_timer_2" xmlns="http://www.w3.org/2000/svg" xmlns:xlink="http://www.w3.org/1999/xlink" x="0px"
	 y="0px" width="180.224px" height="259.261px" viewBox="0 0 180.224 259.261" style="enable-background:new 0 0 180.224 259.261;"
	 xml:space="preserve">
<path style="fill-rule:evenodd;clip-rule:evenodd;" d="M142.122,222.214c6.518,0,13.035,0,19.555,0
	c2.311,2.007-1.541,2.067-1.541,3.183c-0.191,3.369,5.471,3.127,2.096,5.372c0.49,0.156,0.84,0.562,0.84,1.033l0,0
	c0,0.406-0.26,0.762-0.643,0.952h0.588c1.656,0,3.01,1.165,3.01,2.575l0,0c0,1.419-1.357,2.584-3.01,2.584H140.78
	c-1.652,0-3.01-1.165-3.01-2.584l0,0c0-1.419,1.355-2.575,3.01-2.575h0.586c-0.383-0.19-0.643-0.546-0.643-0.952l0,0
	c0-0.472,0.352-0.877,0.842-1.033c-3.373-2.246,2.289-2.003,2.098-5.372C143.663,224.281,139.812,224.221,142.122,222.214
	L142.122,222.214z"/>
<path style="fill-rule:evenodd;clip-rule:evenodd;" d="M142.122,37.434c6.518,0,13.035,0,19.555,0
	c2.311-2.008-1.541-2.067-1.541-3.183c-0.191-3.37,5.471-3.127,2.096-5.374c0.49-0.155,0.84-0.561,0.84-1.033l0,0
	c0-0.405-0.26-0.761-0.643-0.952h0.588c1.656,0,3.01-1.165,3.01-2.574l0,0c0-1.42-1.357-2.584-3.01-2.584H140.78
	c-1.652,0-3.01,1.165-3.01,2.584l0,0c0,1.419,1.355,2.574,3.01,2.574h0.586c-0.383,0.191-0.643,0.547-0.643,0.952l0,0
	c0,0.472,0.352,0.878,0.842,1.033c-3.373,2.247,2.289,2.003,2.098,5.373C143.663,35.366,139.812,35.426,142.122,37.434
	L142.122,37.434z"/>
<path style="fill-rule:evenodd;clip-rule:evenodd;" d="M18.548,222.214c6.518,0,13.035,0,19.555,0
	c2.311,2.007-1.541,2.067-1.541,3.183c-0.192,3.369,5.471,3.127,2.097,5.372c0.489,0.156,0.841,0.562,0.841,1.033l0,0
	c0,0.406-0.261,0.762-0.644,0.952h0.587c1.656,0,3.01,1.165,3.01,2.575l0,0c0,1.419-1.357,2.584-3.01,2.584H17.206
	c-1.652,0-3.01-1.165-3.01-2.584l0,0c0-1.419,1.355-2.575,3.01-2.575h0.586c-0.383-0.19-0.642-0.546-0.642-0.952l0,0
	c0-0.472,0.351-0.877,0.84-1.033c-3.372-2.246,2.29-2.003,2.099-5.372C20.089,224.281,16.236,224.221,18.548,222.214L18.548,222.214
	z"/>
<path style="fill-rule:evenodd;clip-rule:evenodd;" d="M18.548,37.434c6.518,0,13.035,0,19.555,0
	c2.311-2.008-1.541-2.067-1.541-3.183c-0.192-3.37,5.471-3.127,2.097-5.374c0.489-0.155,0.841-0.561,0.841-1.033l0,0
	c0-0.405-0.261-0.761-0.644-0.952h0.587c1.656,0,3.01-1.165,3.01-2.574l0,0c0-1.42-1.357-2.584-3.01-2.584H17.206
	c-1.652,0-3.01,1.165-3.01,2.584l0,0c0,1.419,1.355,2.574,3.01,2.574h0.586c-0.383,0.191-0.642,0.547-0.642,0.952l0,0
	c0,0.472,0.351,0.878,0.84,1.033c-3.372,2.247,2.29,2.003,2.099,5.373C20.089,35.366,16.236,35.426,18.548,37.434L18.548,37.434z"/>
<path style="fill-rule:evenodd;clip-rule:evenodd;" d="M158.446,124.201c1.299,1.508,2.082,3.468,2.082,5.609
	c0,2.115-0.764,4.052-2.031,5.551c10.479,10.158,0.701,21.327-1.965,57.835h0.322c0.354,0,0.643,0.312,0.643,0.697l0,0
	c0,0.246-0.123,0.467-0.309,0.589h0.115c0.959,0,1.77,0.953,1.77,2.093v0.002c0,1.138-0.797,2.09-1.77,2.09h-0.117
	c0.186,0.123,0.311,0.344,0.311,0.595l0,0c0,0.379-0.289,0.697-0.643,0.697h-0.717c-0.285,6.573,1.418,13.88,1.738,22.042h1.947
	c0.441,0,0.801,0.346,0.801,0.769l0,0c0,0.422-0.359,0.769-0.801,0.769h-15.85c-0.439,0-0.801-0.347-0.801-0.769l0,0
	c0-0.423,0.359-0.769,0.801-0.769h1.947c0.32-8.162,2.025-15.469,1.738-22.042h-0.715c-0.355,0-0.645-0.318-0.645-0.697l0,0
	c0-0.251,0.125-0.472,0.311-0.595h-0.115c-0.975,0-1.77-0.938-1.77-2.09v-0.002c0-1.15,0.811-2.093,1.77-2.093h0.113
	c-0.184-0.122-0.309-0.343-0.309-0.589l0,0c0-0.385,0.289-0.697,0.645-0.697h0.32c-2.666-36.508-12.441-47.677-1.963-57.835
	c-1.268-1.499-2.033-3.436-2.033-5.551c0-2.142,0.785-4.102,2.082-5.609c-10.559-10.172-0.758-21.316,1.914-57.883h-0.32
	c-0.355,0-0.645-0.312-0.645-0.697l0,0c0-0.246,0.125-0.466,0.309-0.589h-0.113c-0.959,0-1.77-0.942-1.77-2.092v-0.001
	c0-1.152,0.795-2.091,1.77-2.091h0.115c-0.186-0.122-0.311-0.344-0.311-0.594l0,0c0-0.38,0.289-0.698,0.645-0.698h0.715
	c0.287-6.573-1.418-13.879-1.738-22.042h-1.947c-0.441,0-0.801-0.346-0.801-0.769l0,0c0-0.422,0.359-0.768,0.801-0.768h15.85
	c0.441,0,0.801,0.346,0.801,0.768l0,0c0,0.423-0.359,0.769-0.801,0.769h-1.947c-0.32,8.163-2.023,15.468-1.738,22.042h0.717
	c0.354,0,0.643,0.318,0.643,0.698l0,0c0,0.25-0.125,0.472-0.311,0.594h0.117c0.973,0,1.77,0.953,1.77,2.091v0.001
	c0,1.14-0.811,2.092-1.77,2.092h-0.115c0.186,0.123,0.309,0.343,0.309,0.589l0,0c0,0.385-0.289,0.697-0.643,0.697h-0.322
	C159.204,102.885,169.005,114.03,158.446,124.201L158.446,124.201z"/>
<path style="fill-rule:evenodd;clip-rule:evenodd;" d="M34.872,124.201c1.298,1.508,2.082,3.468,2.082,5.609
	c0,2.115-0.764,4.052-2.031,5.551c10.479,10.158,0.701,21.327-1.965,57.835h0.322c0.354,0,0.644,0.312,0.644,0.697l0,0
	c0,0.246-0.124,0.467-0.309,0.589h0.114c0.959,0,1.769,0.953,1.769,2.093v0.002c0,1.138-0.796,2.09-1.769,2.09h-0.117
	c0.186,0.123,0.312,0.344,0.312,0.595l0,0c0,0.379-0.289,0.697-0.644,0.697h-0.717c-0.287,6.573,1.418,13.88,1.739,22.042h1.945
	c0.442,0,0.802,0.346,0.802,0.769l0,0c0,0.422-0.359,0.769-0.802,0.769H20.399c-0.439,0-0.801-0.347-0.801-0.769l0,0
	c0-0.423,0.361-0.769,0.801-0.769h1.947c0.32-8.162,2.025-15.469,1.738-22.042h-0.716c-0.354,0-0.644-0.318-0.644-0.697l0,0
	c0-0.251,0.125-0.472,0.312-0.595H22.92c-0.974,0-1.769-0.938-1.769-2.09v-0.002c0-1.15,0.811-2.093,1.769-2.093h0.114
	c-0.186-0.122-0.309-0.343-0.309-0.589l0,0c0-0.385,0.289-0.697,0.644-0.697h0.32c-2.665-36.508-12.44-47.677-1.963-57.835
	c-1.267-1.499-2.032-3.436-2.032-5.551c0-2.142,0.785-4.102,2.082-5.609c-10.559-10.172-0.758-21.316,1.913-57.883h-0.32
	c-0.354,0-0.644-0.312-0.644-0.697l0,0c0-0.246,0.123-0.466,0.309-0.589H22.92c-0.958,0-1.769-0.942-1.769-2.092v-0.001
	c0-1.152,0.795-2.091,1.769-2.091h0.117c-0.187-0.122-0.312-0.344-0.312-0.594l0,0c0-0.38,0.289-0.698,0.644-0.698h0.716
	c0.287-6.573-1.418-13.879-1.738-22.042h-1.947c-0.439,0-0.801-0.346-0.801-0.769l0,0c0-0.422,0.361-0.768,0.801-0.768h15.849
	c0.442,0,0.802,0.346,0.802,0.768l0,0c0,0.423-0.359,0.769-0.802,0.769h-1.945c-0.321,8.163-2.026,15.468-1.739,22.042h0.717
	c0.354,0,0.644,0.318,0.644,0.698l0,0c0,0.25-0.126,0.472-0.312,0.594h0.117c0.973,0,1.769,0.953,1.769,2.091v0.001
	c0,1.14-0.81,2.092-1.769,2.092h-0.114c0.185,0.123,0.309,0.343,0.309,0.589l0,0c0,0.385-0.289,0.697-0.644,0.697h-0.322
	C35.629,102.885,45.433,114.03,34.872,124.201L34.872,124.201z"/>
<path d="M131.351,235.567c9.006-18.463,10.49-35.53,5.959-51.072c-5.611-19.248-20.449-36.272-41.643-50.804
	c-2.307-1.53-3.461-3.113-3.461-4.854s1.154-3.324,3.461-4.855c21.219-14.547,36.066-31.597,41.662-50.876
	c4.334-14.936,3.115-31.281-4.998-48.921h3.691c7.9,17.88,8.977,34.54,4.531,49.855c-5.828,20.083-21.145,37.74-42.992,52.72
	l-0.02,0.013c-1.311,0.867-1.965,1.545-1.965,2.064c0,0.519,0.654,1.196,1.965,2.063l0.02,0.013
	c21.82,14.96,37.125,32.593,42.973,52.646c4.643,15.927,3.312,33.31-5.455,52.007H131.351L131.351,235.567z M45.146,235.567
	c-8.77-18.697-10.099-36.08-5.455-52.007c5.846-20.054,21.152-37.687,42.971-52.646l0.02-0.013c1.311-0.867,1.967-1.545,1.967-2.063
	c0-0.52-0.656-1.197-1.967-2.064l-0.02-0.013c-21.846-14.979-37.162-32.636-42.991-52.72c-4.444-15.316-3.369-31.976,4.531-49.855
	h3.69c-8.113,17.639-9.332,33.984-4.998,48.921c5.596,19.279,20.443,36.329,41.664,50.876c2.306,1.531,3.459,3.115,3.459,4.855
	s-1.153,3.323-3.459,4.854c-21.194,14.531-36.031,31.556-41.643,50.804c-4.531,15.542-3.049,32.609,5.959,51.072H45.146
	L45.146,235.567z"/>
<path style="fill-rule:evenodd;clip-rule:evenodd;" d="M0,0h180.224v14.033h-5.326c-0.602,3.811-2.693,7.68-8.855,7.778
	c-8.488,0-143.373,0-151.859,0c-6.162-0.099-8.256-3.967-8.856-7.778H0V0L0,0z"/>
<path style="fill-rule:evenodd;clip-rule:evenodd;" d="M0,259.261h180.224v-14.033h-5.326c-0.602-3.811-2.693-7.681-8.855-7.778
	c-8.488,0-143.373,0-151.859,0c-6.162,0.098-8.256,3.968-8.856,7.778H0V259.261L0,259.261z"/>
</svg>
