<?xml version="1.0" encoding="utf-8"?>
<!-- Generator: Adobe Illustrator 13.0.0, SVG Export Plug-In . SVG Version: 6.00 Build 14948)  -->
<!DOCTYPE svg PUBLIC "-//W3C//DTD SVG 1.1//EN" "http://www.w3.org/Graphics/SVG/1.1/DTD/svg11.dtd" [
	<!ENTITY ns_extend "http://ns.adobe.com/Extensibility/1.0/">
	<!ENTITY ns_ai "http://ns.adobe.com/AdobeIllustrator/10.0/">
	<!ENTITY ns_graphs "http://ns.adobe.com/Graphs/1.0/">
	<!ENTITY ns_vars "http://ns.adobe.com/Variables/1.0/">
	<!ENTITY ns_imrep "http://ns.adobe.com/ImageReplacement/1.0/">
	<!ENTITY ns_sfw "http://ns.adobe.com/SaveForWeb/1.0/">
	<!ENTITY ns_custom "http://ns.adobe.com/GenericCustomNamespace/1.0/">
	<!ENTITY ns_adobe_xpath "http://ns.adobe.com/XPath/1.0/">
]>
<svg version="1.1" id="Layer_1" xmlns:x="&ns_extend;" xmlns:i="&ns_ai;" xmlns:graph="&ns_graphs;"
	 xmlns="http://www.w3.org/2000/svg" xmlns:xlink="http://www.w3.org/1999/xlink" x="0px" y="0px" width="847.838px"
	 height="677.266px" viewBox="0 0 847.838 677.266" enable-background="new 0 0 847.838 677.266" xml:space="preserve">

	<g i:extraneous="self">
		<path d="M836.554,228.629c-5.834-7.692-5.869-7.67-4.963-29.55c2.069-49.952-14.41-40.146-4.962-55.039
			c10.323-16.274,10.343-36.532-0.226-69.025c-10.635-32.697-14.425-33.151-32.482-2.481c-10.363,17.602-11.33,18.539-15.34,13.76
			c-2.531-3.02-26.271-14.455-19.624-3.609c2.845,4.642-14.318-5.758-16.692-3.383c-1.08,1.079-23.208-13.992-11.098-0.63
			c-2.537-1.402-4.965-3.091-6.35-4.099c-3.23-4.099-7.366-8.793-7.366-11.288c0-26.326-35.253,0.618-36.316-2.933
			c-2.297-7.656-2.707-8.12-8.347-8.12c-7.171,0-13.085-12.805-21.881-10.827c-10.32,2.32,6.846-12.073-15.339-4.512
			c-15.814,5.391-5.509-7.416-20.753-1.579c-6.484,2.482-5.597-3.324-11.504-0.451c-12.044,5.856-5.305-11.095-12.632-10.15
			c-3.829,0.494-3.699,0.123,1.128-4.061c8.708-7.547,6.44-12.237-2.707-5.639c-4.617,3.33-27.52,12.405-27.52,11.053
			c0-3.594,32.736-19.265,27.745-24.588c-2.809-2.996-30.037,15.427-39.475,12.632c-2.724-0.806-13.586,4.2-13.31,2.256
			c0.912-6.385-36.992,2.78-38.347-0.902c-2.029-5.511-13.357,1.821-17.369-3.609c-4.591-6.211-29.023,10.14-22.783,2.481
			c6.025-7.395-16.504,2.97-12.182-1.353c13.848-13.848-23.006,2.983-12.857-5.414c8.522-7.053,4.963-10.602-4.512-4.286
			c-7.86,5.24-56.846,26.445-65.19,24.362c-2.495-0.624-13.282,1.459-25.49,4.511c-13.057,3.265-29.778,6.069-43.31,7.219
			c-20.98,1.782-22,2.033-21.881,5.639c0.299,9.017-20.64,0.948-20.301,10.151c0.475,12.88-24.464-6.197-25.941,8.571
			c-0.926,9.28-29.324,17.839-29.324,25.716c0,4.138-41.795,39.272-46.243,43.084c-42.671,36.575-54.786,78.355-46.919,134.893
			c6.27,45.05,2.72,54.874-24.068,81.844c-12.48,12.563-27.02,30.732-26.009,34.777c0.45,1.803-0.685,7.893-2.481,13.084
			c-6.323,18.268-4.684,59.346,1.805,42.633c1.568-4.043,17.675-17.332,19.851-16.691c7.216,2.119,23.341-25.158,27.294-21.205
			c4.242,4.242,20.45-25.09,19.851-23.232c-6.807,21.037,3.037,20.789,10.827-0.227c3.947-10.65,10.025-17.332,11.279-29.1
			c1.106-10.378,1.169-10.449,7.218-6.992c19.216,10.98-5.812,73.59-45.565,114.141c-16.638,16.969-16.557,16.947-19.399,30
			c-5.952,27.324-23.593,39.768-50.21,62.773c-9.565,8.268-13.288,14.143-18.736,23.668C7.363,587.215,0,598.627,0,608.451
			c0,10.15,16.358,18.301,22.236,11.096c1.113-1.363,3.629-2.109,5.639-1.578c9.946,2.625,30.02-6.277,31.645-20.029
			c1.027-8.705,16.04-31.824,33.374-53.857c24.433-31.059,47.355-50.139,80.476-71.834c7.901-5.174,18.271-13.309,23.234-18.271
			c8.346-8.346,8.882-8.592,9.7-4.963c2.792,12.387,4.286,30.678,4.286,46.92c0,51.416,38.983,77.539,59.551,120.004
			c4.705,9.715,9.946,18.459,11.73,19.4c6.336,3.344,25.635,3.912,31.354,0.902c9.865-5.191,27.971-3.721,27.971-20.527
			c0-5.414-8.381-13.934-23.685-24.137c-11.765-7.842-16.036-11.943-23.234-22.332c-28.441-41.041-30.86-52.779-24.136-111.883
			c1.847-16.236,3.384-39.701,3.384-51.656c0-59.102,1.61-70.44,8.797-66.771c3.415,1.743,8.122,5.188,9.925,7.218
			c8.417,9.469,26.878-8.713,33.61-0.225c5.73,7.227,23.911-6.381,23.911,0.676c0,7.332,20.302-5.986,20.302,2.031
			c0,9.816,7.391-6.613,9.474,8.572c0.65,4.74,2.032,8.523,2.933,8.57c5.05,0.266,6.066,29.564,4.737,32.934
			c-2.176,5.518,0.264,10.227-2.932,15.34c-6.266,10.025-2.091,31.281-6.542,43.535c-14.665,40.367-18.399,77.629-17.138,119.842
			c1.081,36.074,7.179,59.465,42.177,67.383c19.266,4.359,16.845-6.09,24.588-6.09c32.031,0,26.58-29.652-7.219-39.701
			c-16.278-4.838-16.241-4.963-16.241-20.527c0-39.475,11.037-78.512,28.647-101.506c9.683-12.645,21.91-35.633,27.069-51.205
			c6.795-20.518,6.468-20.014,9.925-16.016c8.164,9.439,11.229-1.414,15.79,7.443c4.082,7.926,17.16,9.455,20.302,15.113
			c1.128,2.029,5.225,6.266,9.022,9.023c9.897,7.184,37.099,48.99,48.525,72.205c10.64,21.617,37.333,60.699,35.84,79.154
			c-0.824,10.176,6.541-0.16,6.541,6.766c0,9.684,15.339,21.002,15.339,34.287c0,4.678,5.99,6.555,7.669,14.889
			c7.252,35.977,23.425,26.441,49.4,28.422c15.718,1.197,10.784-3.309,21.655-6.992c10.606-3.596,5.207-28.922-7.218-34.063
			c-35.498-14.688-45.792-29.686-46.919-70.379c-0.357-12.854-1.087-15.811-8.347-31.129
			c-11.236-23.705-35.399-68.133-47.145-87.297c-0.92-1.5-10.677-20.301-11.053-20.301c-8.347,0-24.241-69.73-17.145-74.213
			c4.383-2.768,18.498-41.584,18.498-47.823c0-14.887,1.376-18.775,6.09-16.692c11.208,4.951-0.811-14.157,4.286-9.249
			c8.645,8.324,4.492-10.758,9.022-2.932c1.052,1.816,6.081,0.887,8.572,2.707c9.195,6.719,2.192-3.327,6.992-2.481
			c1.831,0.322,2.952-0.229,2.707-1.579c-0.729-4.026,20.202,14.472,12.632-1.128c-7.622-15.706,13.006,1.492,15.565-1.579
			c7.331-8.798,18.4,20.86,21.203,2.481c1.583-10.385,6.261-1.667,9.249-9.023c3.22-7.93-1.022,8.798,5.188,8.798
			c3.758,0,9.422,12.444,13.31,11.278c2.888-0.866,10.484,2.171,14.662,2.03c8.345-0.283,9.699,0.451,15.339,6.09
			c1.722,1.722,12.872,11.588,15.339,9.474c3.404-2.919,2.319,4.065,7.67,2.481c10.557-3.127,12.045,18.559,19.173,12.857
			c1.685-1.347,19.288,7.324,25.265,7.895c16.467,1.575,28.47-18.064,21.654-35.641c-3.331-8.594,12.961-0.978,17.82-8.572
			c1.418-2.215,4.467-4.669,6.542-5.188C851.854,273.585,850.568,247.103,836.554,228.629z M153.52,430.291
			c-16.301,29.758-22.293,55.527-47.596,78.951c-25.944,24.018-40.883,38.631-51.607,69.783c-2.629,7.635-5.431,15.506-5.431,18.416
			c0,12.428-23.782,18.846-21.461,14.436c3.709-7.053-0.136-21.848-2.481-11.053c-1.954,8.992-5.639,15.791-8.797,15.791
			c-15.508,0-5.258-21.371,9.806-46.109c5.568-9.145,6.599-13.871,15.082-21.01c28.747-24.201,41.956-32.373,48.648-61.684
			c2.887-12.639,3.045-12.744,18.949-28.646c18.159-18.16,27.641-31.975,39.926-57.748c11.326-23.762,12.857-8.219,12.857,8.799
			C161.415,414.275,159.582,419.225,153.52,430.291z M398.041,474.279c4.109,0-0.031,18.678-5.376,38.094
			c-12.412,45.084-10.622,43.621,1.993,87.775c9.053,31.684,47.371-3.311,47.371,21.654c0,28.678-31.437-4.402-28.874,3.609
			c5.196,16.238,4.059,17.377-13.309,13.084c-49.375-12.203-35.073-132.82-21.204-168.053c1.729-4.395,20.221-68.701,21.88-68.574
			c2.933,0.227,3.384,0.902,2.481,5.414c-1.331,5.77-3.333,33.725,0.902,32.707C415.888,437.121,387.576,474.279,398.041,474.279z
			 M563.16,199.981c0-7.443,0.451-6.992,5.639,6.091C577.782,227.304,563.16,210.688,563.16,199.981z M656.096,211.937
			c-5.889-12.472-10.785,9.326-13.083,10.603c-2.786,1.547,2.887,7.669,0,7.669c-10.038,0,31.025,41.701-4.061,11.504
			c-12.368-10.646-17.756-9.084-6.992,2.03c9.987,10.314,4.942,8.14-6.542-2.707c-12.876-12.161-18.036-10.385-6.091,2.255
			c12.957,13.709-9.188-9.46-12.857-6.315c-2.59,2.22-9.249-11.037-9.249-2.03c0,5.789,15.73,21.712,1.806,10.602
			c-22.786-18.18-18.632-26.276-27.972-49.175c-3.78-9.27-5.576-15.776-4.963-18.722c1.166-5.599-7.372-19.479-1.354-11.956
			c6.23,7.788,3.291-3.56,6.316-5.864c3.087-2.352,3.083-2.442-0.451-9.249c-5.039-9.708-0.919-4.084,4.061-7.67
			c3.81-2.742-0.454-8.117-12.633-15.789c-10.378-6.538-10.824-15.569-0.45-9.7c17.276,9.774-16.284-31.058-0.226-19.174
			c5.079,3.76,15.564,5.64,15.564,2.707c0-2.707-16.693-18.947-18.046-17.595c-2.438,2.438,5.272,9.405-0.451,6.316
			c-19.806-10.694,0.982,28.245-8.347,13.309c-3.998-6.4-9.74-3.356-4.511,4.286c2.928,4.28,4.499,34.882,1.805,36.769
			c-3.39,2.37,5.628,15.291-1.579,5.639c-29.993-40.159-47.598,27.972-20.753,27.972c8.15,0,3.666,22.782,20.527,22.782
			c8.816,0,4.011,4.473,8.346,9.474c2.008,2.316,12.888,23.263,2.256,14.437c-13.89-11.53-4.355,8.784-6.541,10.151
			c-5.47,3.417,21.016,42.785,4.06,27.971c-11.074-9.674-13.154-3.107-3.384,10.827c3.989,5.689,1.771,44.199-3.157,56.168
			c-1.708,4.149-0.981,16.038-5.188,11.731c-7.136-7.302-26.808,2.684-21.43,10.826c7.529,11.4,25.021-11.74,23.009,0.678
			c-1.105,6.824,8.934,31.271,1.128,27.293c-7.011-3.572-11.565-2.738-14.438,2.707c-9.41,17.854,24.906,33.117,20.753,7.896
			c-0.855-5.195-0.664-5.701,2.933-4.963c13.912,2.852-4.852,25.707,3.384,32.707c4.548,3.865,4.717,13.535,14.211,13.535
			c9.379,0,55.207,94.654,53.912,93.613c-7.74-6.23-14.888,2.932-7.896,9.924c4.512,4.512,8.852,3.85,10.151-1.354
			c2.082-8.334,13.447,26.734,12.181,31.807c-1.181,4.725,4.417,33.652,8.347,42.633c8.753,20.012,47.875,34.041,50.979,53.01
			c2.739,16.756-27.791-21.385-31.355-17.82c-4.652,4.652,31.174,28.873,13.535,28.873c-9.249,0-12.754-1.549-11.73-5.188
			c3.58-12.729-30.372-35.744-11.504-11.73c8.335,10.609,8.325,11.234,1.128,14.662c-23.477,11.18-23.093-27.422-30.679-39.023
			c-1.859-2.846-4.023-61.844-16.015-49.852c-3.198,3.197-5.434-18.146-9.023-8.572c-2.935,7.828-10.635-19.207-11.053-19.625
			c-7.235-7.234,8.715-28.582-12.633-31.354c-7.213-0.938-7.233-0.896-16.691-19.625c-13.098-25.934-35.912-59.258-44.213-64.74
			c-3.654-2.412-8.597-7.656-11.053-11.955c-5.817-10.182-29.324-20.033-29.324-33.385c0-4.512-4.234-6.072-5.64-2.029
			c-0.086,0.246,0.66-5.488-1.128-6.543c-2.85-1.68-0.365-9.248-4.286-9.248c-3.532,0-1.649,4.963-4.285,4.963
			c-3.463,0,1.354-23.686-6.091-23.686c-2.978,0-2.472,8.883-3.384,7.895c-3.627-3.924,6.706-27.818,0.902-32.256
			c-3.474-2.657-0.158-13.404,0-17.369c0.333-8.342-4.151-7.014-6.091,1.579c-1.218,5.394-1.353,0.452-1.353-19.173
			c0-39.475-7.896-62.709-21.205-62.709c-2.255,0-2.957-0.688-2.255-2.481c2.954-7.553-12.244-2.825-14.211-4.512
			c-4.884-4.185-24.362,11.487-24.362,8.121c0-7.47-36.726,7.171-21.204,14.437c7.406,3.466,12.896-11.582,16.467-9.474
			c2.259,1.334-5.414,8.128-5.414,10.602c0,4.427,16.583-5.076,18.723-6.993c9.181-8.231-10.815,10.603-3.383,10.603
			c4.588,0,17.729-20.854,20.752-16.016c1.815,2.907,19.983,3.14,11.504,9.023c-15.423,10.706-20.301,18.948-11.504,18.948
			c7.894,0-9.264,7.997-3.383,12.407c5.286,3.963-4.476,5.801-2.933,12.406c4.303,18.388-85.236,3.522-79.853,16.692
			c1.379,3.372-3.163,1.132-9.474-4.963c-6.771-6.537-12.139-4.548-6.09,2.256c1.028,1.157-17.588-6.328-20.753-13.309
			c-7.671-16.916-34.042-41.723-36.769-34.738c-0.883,2.263-2.7,0.895-8.797-5.865c-1.979-2.194-26.25-20.879-25.715-21.204
			c9.729-5.921-11.583-64.08-25.715-24.136c-8.252,23.322,18.348,21.073,16.692,25.715c-0.606,1.7,24.785,17.395,27.746,20.527
			c15.318,16.204-13.534-8.942-13.534,0.902c0,3.001,15.247,8.89,12.181,11.956c-3.313,3.313,14.361,18.121,11.504,20.978
			c-1.672,1.672,21.867,45.448,5.188,48.724c-6.988,1.372-6.68,6.254,0.902,16.693c7.982,10.99,7.197,24.127-2.481,48.047
			c-8.709,21.527-4.296,40.941-7.873,62.043c-2.492,14.717-5.779,18.527-4.204,34.361c1.015,10.193,2.543,21.313,3.28,22.246
			c4.674,5.92,6.371,39.041,16.692,35.867c6.551-2.014,7.739-2.006,11.504,4.51c3.639,6.299,22.336,23.906,31.354,29.551
			c22.335,13.979,31.099,20.318,33.159,24.361c8.208,16.104-14.762-5.412-20.527-5.412c-8.475,0,16.016,13.576,16.016,19.398
			c0,1.314-13.758,3.32-15.114,3.609c-3.863,0.826-12.8-18.338-16.241-21.203c-5.281-4.402-4.706,0.207,1.579,11.729
			c7.249,13.291,6.529,14.736-7.444,12.406c-7.682-1.279-7.741-1.316-16.918-19.174c-11.574-22.52-15.203-28.313-24.813-39.475
			c-26.708-31.02-33.875-48.496-35.189-88.424c-1.231-37.471-4.778-59.811-24.588-93.162c-3.566-6.006-24.093-52.639-28.196-51.205
			c-8.223,2.875-6.963-30.934-18.949-18.949c-4.763,4.764-4.501-37.956-11.278-35.415c-4.615,1.73,4.734-43.462,0.902-46.017
			c-4.557-3.038,3.831-15.001-0.225-19.399c-1.315-1.427-1.35-4.061-0.226-7.895c3.837-13.083-1.633-6.337-7.669,9.474
			c-3.438,9.002-4.527,15.79-5.188,29.55c-0.466,9.698-1.609,18.468-2.481,19.399c-3.255,3.472,3.023,38.109,8.797,41.957
			c11.058,7.371-21.327,50.529-32.031,50.529c-5.413,0-11.431,12.891-14.211-2.256c-0.783-4.266,1.735-7.428,12.287-16.061
			c48.797-39.92-6.77-115.184,28.316-161.015c2.633-3.44,3.835-6.542,3.158-8.571c-3.499-10.499,46.42-52.957,56.619-62.935
			c2.743-2.684,27.971-22.104,27.971-25.039c0-5.293,23.313-12.318,25.941-18.497c3.435-8.077,25.715-2.2,25.715-10.602
			c0-6.162,22.678-4.337,19.851-11.053c-0.666-1.583,3.157-2.506,15.564-3.159c10.62-0.557,64.782-13.69,68.123-8.12
			c2.176,3.629,45.791-25.512,45.791-16.241c0,10.073,30.226-12.821,14.663,2.256c-3.384,3.158-6.316,6.992-6.316,8.346
			c0,7.303,17.63-5.425,18.497-5.864c17.938-9.102,3.746,5.636,12.406,7.895c6.438,1.68-15.061,13.361-11.053,17.369
			c4.308,4.308,24.102-25.49,34.287-25.49c5.188,0,0.213,7.41-6.541,9.926c-3.869,1.44-27.176,25.715-19.175,25.715
			c0.903,0,4.46-3.208,8.121-6.992c16.64-17.194,44.66-31.332,57.747-29.099c5.409,0.924,5.209,1.172-9.249,8.346
			c-15.091,7.487-32.482,20.979-32.482,25.039s2.014,3.136,12.406-5.64c19.472-16.442,40.449-22.946,63.837-29.775
			c32.742-9.562-5.347,5.171-6.315,11.955c-0.889,6.233-17.021,7.019-20.979,11.73c-3.716,4.423,2.016,4.019,15.339-0.903
			c22.092-8.16,50.215-14.534,48.95-11.504c-2.191,5.243-28.832,5.816-29.776,11.956c-0.558,3.628-1.783,3.688,16.467-1.129
			c14.231-3.755,25.732-4.258,20.076-0.676c-1.491,0.943-18.612,3.597-14.662,7.218c3.643,3.339,35.415-8.834,35.415-4.061
			c0,3.11,14.87-0.228,11.053,1.579c-2.527,1.196-32.694,4.525-27.745,9.474c4.008,4.009,44.793-10.11,53.461-1.804
			c3.27,3.133,26.994,1.335,20.752,2.255c-16.377,2.416,1.243,4.617,5.188,9.475c3.727,4.586-22.106,45.221-22.106,57.296
			c0,8.323-9.335,14.891-2.481,23.91c2.454,3.229,4.274,18.215,6.768,19.174c2.358,0.907-19.264,52.881-3.608,30.678
			C656.136,193.489,659.795,219.774,656.096,211.937z M753.994,292.692c-8.916-6.149-55.329-25.961-51.656-36.317
			c1.036-2.924,0.645-21.646-2.933-20.753c-6.207,1.552,0.853-8.797-4.511-8.797c-2.511,0-6.221-10.947-7.67-0.226
			c-0.585,4.334-7.34,8.4-0.226-10.376c6.323-16.688,2.248-18.499-5.188-2.481c-9.193,19.803-1.901-10.713,3.61-17.144
			c9.059-10.568,4.789-13.91-4.512-2.706c-6.439,7.754-6.516,7.668-6.768,1.579c-0.243-5.863,20.412-19.534,16.467-23.234
			c-3.556-3.332-20.285,17.814-15.339,8.797c2.297-4.188-0.567-5.748,3.384-10.827c4.432-5.699,3.11-15.66-2.707-17.82
			c-3.943-1.464-5-6.993-9.023-6.993c-25.715,0,5.194-78.484,34.513-88.198c19.95-6.61,5.876,42.37,17.595,45.565
			c5.777,1.575-5.557-23.347,4.286-20.978c2.951,0.709,4.471,0.604,5.021-0.059c7.604,5.189,11.125,8.476,12.387,5.603
			c4.208,2.881,7.735,3.958,9.211,2.576c3.275-3.071,14.368,3.911,15.79,1.354c2.063-3.714,20.739,13.026,21.429,13.76
			c6.566,6.968,8.681,8.463,10.377,6.767c4.697-4.697-15.315-9.694-6.316-24.361c23.771-38.745,21.334-37.713,29.775-12.181
			c10.28,31.085,10.419,51.685,0.677,66.995c-9.814,15.423,13.235,34.87,1.805,44.438c-8.851,7.409,2.669,13.229,2.481,20.979
			c-0.287,11.876-8.347-8.987-8.347,0.677c0,9.771,26.32,28.647,10.828,28.647c-17.82,0-30.411,14.863-22.783,27.068
			c4.777,7.643-17.351,14.647-22.783,7.218c-14.191-19.412-26.768-25.371-37.896-18.271c-12.557,8.012-10.348,19.146,6.992,35.64
			C762.367,298.526,762.392,298.482,753.994,292.692z M808.809,300.813c-1.579,7.895-24.362,6.993-35.641-1.579
			c-13.083-10.151-30.227-27.746-30.227-31.129c0.271-6.5,0.356,4.512,7.218,4.512c7.108,0,5.749,9.543,11.505,7.895
			c2.481-0.677,3.383,0.451,4.512,5.414c1.804,7.444,6.09,8.797,11.729,3.609c4.061-3.834,4.061-3.834,4.061,0.677
			c0,9.925,5.864,13.985,12.18,8.346c5.421-4.858,4.545,2.456,11.505,0.226C808.583,297.88,809.26,298.331,808.809,300.813z
			 M812.418,247.803c0-4.962,21.429-7.895,25.264-3.609C844.017,253.697,812.418,252.403,812.418,247.803z M682.487,143.814
			c-9.699,0-12.857-32.482-4.737-52.333c2.708-6.768,7.444-9.699,7.671-4.963c0.067,2.888,5.874-9.603,7.218-11.955
			c5.413-9.475,10.376-5.64,6.542,5.188c-3.385,9.248-3.835,13.083-1.129,13.083c4.188,0,1.227,12.595,4.286,14.661
			C709.782,112.008,692.639,143.814,682.487,143.814z M799.785,99.603c2.256-4.512,7.444-24.362,7.444-29.325
			c0.226-7.219,4.963,3.158,6.767,15.113c1.354,8.346,3.159,15.339,3.835,15.79c1.84,0.9,0.769,10.481,3.158,16.692
			c2.933,7.219,0.451,16.016-4.061,15.339c-3.608-0.451-5.864-3.835-9.925-14.888C801.961,104.404,794.58,110.013,799.785,99.603z
			 M721.061,128.25c-3.835-6.316-3.158-8.798,2.481-7.67c2.481,0.451,4.286-0.226,4.963-1.805c1.127-2.707,5.413-2.933,6.315,0
			c0.451,1.128,2.481-1.128,4.512-5.188c3.384-6.315,8.572-9.925,8.572-5.639c0,5.414-11.505,20.979-14.663,19.85
			C728.174,125.881,729.027,140.767,721.061,128.25z M788.732,132.31c-2.03-2.933-3.384-6.315-3.384-7.218
			c0-3.158,2.933-1.805,6.542,2.706c4.286,5.414,8.571,19.399,8.571,27.069c0,10.15-2.932,7.67-5.639-4.737
			C793.244,143.362,790.537,135.242,788.732,132.31z M751.738,161.183c-0.902-2.932,5.414-2.932,8.121,0.226
			c1.128,1.354,1.805,3.384,1.354,4.286C760.536,167.725,752.641,164.116,751.738,161.183z M765.95,165.469
			c3.429-5.144,10.142,13.986,5.864,13.986C769.333,179.455,764.596,167.95,765.95,165.469z M743.618,199.53
			c6.203,5.117,15.786,5.732,21.17,2.686c2.446-1.384,7.152,1.788,7.152-1.032c0-6.713-7.351-16.359-13.509-18.547
			c-4.185-1.485-9.231-1.758-14.362-0.475C742.425,182.675,741.538,197.841,743.618,199.53z M750.836,186.222
			c1.354,0,2.256,0.902,2.256,2.03c-0.901,5.414,0.226,6.768,4.512,5.864c7.23-1.362,3.224,5.874-7.218,3.159
			C744.295,195.696,744.745,186.222,750.836,186.222z M739.783,218.253c-7.896,0-15.564-16.918-12.857-28.647
			c2.029-9.925,5.865-6.091,5.865,5.64c0,9.925,0.45,11.278,4.962,16.016C743.844,217.125,744.069,218.253,739.783,218.253z
			 M771.814,212.388c0,3.384-8.346,12.858-11.278,12.858c-3.835,0-2.707-3.158,2.933-9.475
			C769.333,209.456,771.814,208.554,771.814,212.388z M805.876,225.472c-1.805,2.029-6.091-4.061-7.896-11.054
			c-0.901-3.383-0.45-4.512,1.354-4.512C802.492,209.906,808.132,223.216,805.876,225.472z M730.761,250.51
			c-2.707,3.609-3.835,7.895-3.835,12.632c0,11.054-3.384,10.151-3.835-1.127c-0.226-8.121,0.226-10.376,4.061-14.888
			C733.016,240.133,736.399,243.066,730.761,250.51z M436.839,37.118c-7.542,6.73-12.394,3.248-4.061-3.835
			C443.155,24.486,446.972,28.076,436.839,37.118z M494.36,49.976c-3.158-3.158,9.248-10.827,28.196-17.595
			C567.413,16.232,497.728,53.344,494.36,49.976z M395.333,97.797c-6.231-10.115-41.531-14.229-20.302-39.476
			c2.933-3.383,3.378-3.358,20.527,0.903C456.249,74.305,421.281,139.913,395.333,97.797z M613.236,58.999
			c1.354-2.03,29.76-2.231,33.159,0C653.052,63.366,608.453,66.392,613.236,58.999z M559.775,77.271
			c0-1.965,5.189-0.579,5.189-2.933c0-4.241,24.122,4.961,19.398,23.234C582.291,105.583,559.775,78.92,559.775,77.271z
			 M308.037,81.33c11.73-5.639,26.392,0.227,26.392,10.828C334.429,123.939,275.721,96.998,308.037,81.33z M477.894,89.226
			c8.67-9.909,2.194,13.76-2.933,13.76C472.479,102.985,474.51,92.835,477.894,89.226z M513.308,125.769
			c-14.922-14.923,7.187-26.64,11.505-33.837C535.999,72.459,546.182,158.642,513.308,125.769z M254.576,102.534
			c20.594-6.177,9.772,20.979-3.384,20.979C242.847,123.513,245.779,104.79,254.576,102.534z M343.001,105.918
			c28.47-13.286,18.385,49.626-3.384,49.626c-13.309,0-12.717-19.009,1.58-39.024C347.706,107.406,325.627,114.867,343.001,105.918z
			 M211.041,121.708c4.737-3.835,9.474-6.768,10.828-6.768C238.01,114.94,167.77,154.677,211.041,121.708z M287.51,130.957
			c-3.029-7.825,9.24-9.013,10.602-10.828c1.58-2.933,10.982-2.096,12.181,0.902C313.819,129.85,291.221,140.548,287.51,130.957z
			 M619.553,135.693c1.21-1.488-20.452-1.808,3.835-14.437c18.936-10.099,11.74,37.67,0,37.67
			C618.199,158.927,615.199,141.052,619.553,135.693z M210.589,146.972c8.141-16.492-20.955,19.634-4.737-6.315
			c11.767-19.121,8.226-2.03,10.151-2.03C228.259,138.626,198.626,171.208,210.589,146.972z M146.752,186.898
			c-10.335-6.829,4.73-49.146,16.467-46.017c9.621,2.563-1.184-3.779,1.128-6.091C184.022,115.115,177.507,207.217,146.752,186.898z
			 M276.006,163.664c-6.662,53.876-49.273,1.405-21.655-20.075C266.532,134.114,278.319,144.95,276.006,163.664z M484.886,195.696
			c2.282,21.841-35.797-7.106-15.79-14.663c13.196-4.981,3.243-16.389,9.249-18.046c7.708-2.126-6.92-8.367-4.061-12.181
			c7.818-14.521,16.935,25.451,17.369,26.844C493.451,183.413,484.37,190.745,484.886,195.696z M583.687,167.273
			c0-2.256,6.542-7.218,16.016-12.181C626.899,141.041,583.687,176.335,583.687,167.273z M408.642,197.952
			c-14.888-4.061-15.79-19.175-2.481-36.092C427.144,136.214,440.733,206.703,408.642,197.952z M361.723,215.771
			c-26.596-13.713-2.585-38.355,9.249-49.4C397.485,139.857,378.719,224.533,361.723,215.771z M291.57,202.237
			c-13.641,19.766-19.829-35.712,4.962-38.573C326.54,158.958,296.116,195.65,291.57,202.237z M586.168,175.846
			c6.542-6.542,11.053-8.572,11.053-4.737C597.221,180.629,568.923,194.049,586.168,175.846z M592.71,187.801
			c-3.158,0-2.933-3.384,0.451-6.993C602.118,171.21,601.539,187.801,592.71,187.801z M629.93,211.035
			c-25.247,23.95-51.533-11.638-29.776-25.716C611.22,177.81,658.896,183.551,629.93,211.035z M337.136,197.501
			c-4.311,22.798-24.303,9.379-11.729-9.249C330.594,179.906,339.225,186.459,337.136,197.501z M448.794,231.111
			c-5.188,0-10.376-16.016-7.218-23.008C449.034,190.892,458.624,231.111,448.794,231.111z M489.172,246.675
			c-2.706-2.706-4.737-14.888-3.384-18.949C491.733,211.874,500.762,258.266,489.172,246.675z M521.654,231.336
			c-1.354-6.768,1.128-8.572,4.061-3.159C535.668,246.555,525.282,251.29,521.654,231.336z M189.611,238.555
			c16.585-6.219,27.647,9.342,7.218,24.361C185.802,271.024,179.006,242.532,189.611,238.555z M173.821,277.353
			c-9.468,1.392-17.82-24.137-10.602-32.708C171.89,234.734,184.283,275.815,173.821,277.353z M305.33,265.849
			c18.861,21.912-9.925,1.91-9.925-5.188C295.405,255.698,297.397,256.633,305.33,265.849z M374.355,282.09
			c-6.069,4.411-22.569-0.235-26.392,4.511c-7.381,9.164-38.438-26.548-24.362-8.12c14.939,19.558-22.907-6.59-11.955-18.271
			c2.038-1.747,27.61,20.072,26.617,18.948C324.311,263.344,378.328,279.201,374.355,282.09z M491.653,279.608
			c1.579-16.016,15.564-9.474,15.564,7.444C507.218,309.877,488.458,305.807,491.653,279.608z M214.424,280.511
			c33.664-15.229,39.941,64.362,21.429,39.475c-3.554-4.777-3.775-4.94-4.962-1.804
			C224.208,335.828,193.212,289.602,214.424,280.511z M174.047,293.594c1.244-7.466,14.293-11.035,19.399,4.286
			C202.141,323.964,168.833,330.898,174.047,293.594z M511.729,293.369c4.736-7.444,12.632-3.609,12.632,6.09
			C524.361,318.103,499.249,313.477,511.729,293.369z M534.062,309.384c24-4.363,7.289,34.479-9.023,23.685
			C516.794,327.614,523.008,311.189,534.062,309.384z M220.74,353.371c-27.369,16.686-50.535-14.436-21.204-21.204
			C214.958,327.541,229.558,347.994,220.74,353.371z M520.978,367.582c0,17.512-23.291,10.367-12.406-7.443
			C511.052,355.627,520.978,361.492,520.978,367.582z M239.462,374.125c0,20.32-31.89,15.533-27.97-4.061
			C213.296,360.59,239.462,364.424,239.462,374.125z M523.685,425.104c-11.955,0-30.678-30.451-20.979-34.287
			C513.156,386.273,543.57,425.104,523.685,425.104z M539.926,422.172c5.188-5.414,14.417,7.443,14.662,20.074
			C555.091,468.301,528.913,433.184,539.926,422.172z M564.062,458.037c-3.157-3.158-3.608-11.955-0.45-13.084
			C584.143,436.74,577.445,471.42,564.062,458.037z M557.521,475.406c1.354-6.09,8.595-6.322,10.15-0.225
			C570.744,487.219,554.003,487.135,557.521,475.406z M577.146,479.691c12.325-12.324,20.041,21.656,6.315,21.656
			C576.92,501.348,571.957,484.881,577.146,479.691z"/>
	</g>

</svg>
