<?xml version="1.0" encoding="UTF-8" standalone="no"?>
<!-- Created with Inkscape (http://www.inkscape.org/) -->
<svg xmlns:inkscape="http://www.inkscape.org/namespaces/inkscape" xmlns:rdf="http://www.w3.org/1999/02/22-rdf-syntax-ns#" xmlns="http://www.w3.org/2000/svg" xmlns:xlink="http://www.w3.org/1999/xlink" xmlns:ns1="http://sozi.baierouge.fr" xmlns:cc="http://creativecommons.org/ns#" xmlns:dc="http://purl.org/dc/elements/1.1/" xmlns:sodipodi="http://sodipodi.sourceforge.net/DTD/sodipodi-0.dtd" id="svg4354" sodipodi:docname="Lion vector.png" viewBox="0 0 2477 3500" version="1.1" enable-background="new" inkscape:version="0.48.5 r10040">
  <defs id="defs4358">
    <filter id="filter4948" inkscape:collect="always">
      <feBlend id="feBlend4950" in2="BackgroundImage" mode="screen" inkscape:collect="always"/>
    </filter>
    <filter id="filter5331" inkscape:collect="always">
      <feBlend id="feBlend5333" in2="BackgroundImage" mode="multiply" inkscape:collect="always"/>
    </filter>
  </defs>
  <sodipodi:namedview id="namedview4356" bordercolor="#666666" inkscape:pageshadow="2" guidetolerance="10" pagecolor="#ffffff" gridtolerance="10" inkscape:window-maximized="1" inkscape:zoom="0.16" objecttolerance="10" borderopacity="1" inkscape:current-layer="layer19" inkscape:cx="1273.2418" inkscape:cy="1930.9527" inkscape:window-y="-8" inkscape:window-x="-8" inkscape:guide-bbox="true" inkscape:window-width="1280" showgrid="false" inkscape:pageopacity="0" inkscape:window-height="750" showguides="true"/>
  <g id="layer18" style="display:none" inkscape:label="black" inkscape:groupmode="layer">
    <path id="path4978" style="stroke:#000000;stroke-width:1px;fill:#000000" inkscape:connector-curvature="0" d="m1153.4 2497.7 347.54-372.72 317.32-115.85 171.25-60.442 75.552 120.88-30.221 105.77s-171.25 206.51-246.8 241.77c-75.552 35.258-332.43 156.14-332.43 156.14l-251.84 25.184-135.99-25.184z"/>
  </g>
  <g id="layer19" style="filter:url(#filter5331)" inkscape:label="textpfad" inkscape:groupmode="layer">
    <path id="path4915" style="filter:url(#filter4948);stroke:#000000;stroke-width:1px;fill:#ffffff" inkscape:connector-curvature="0" d="m1372.8 789.24s-22.26-9.7942-36.506-6.2327c-14.246 3.5616-51.642 30.273-64.998 28.492-13.356-1.7808-32.054 3.5616-48.971-7.1231s-45.41-24.04-57.875-24.931c-12.465-0.89039-41.848 0-51.642 4.4519-9.7942 4.4519-28.492 16.027-28.492 16.027s-8.9039 7.1231-17.808 3.5615c-8.9038-3.5615-53.423-35.615-53.423-35.615s-16.917-16.027-28.492-14.246c-11.575 1.7808-56.985 19.589-56.985 19.589l-39.177 9.7942c-7.1231 1.7808-18.698-2.6712-26.712-8.0135-8.0135-5.3423-34.725-32.054-55.204-34.725-20.479-2.6712-20.479-2.6712-20.479-2.6712l-132.67-17.808-43.629-1.7808-34.725 13.356-40.067 21.369-2.6712 20.479 21.369 24.931 14.246 16.917-20.479 15.137-33.835 40.067s-32.944 40.067-40.958 42.739c-8.0135 2.6712-22.26 36.506-22.26 36.506l18.698 40.067s13.356 7.1231 9.7942 14.246c-3.5615 7.1231-27.602 62.327-24.931 73.902 2.6711 11.575 3.5615 69.45 5.3423 100.61 1.7808 31.164 10.685 63.217 10.685 63.217l10.685-28.492 8.9039-43.629 16.027-30.273 24.04-9.7943 46.3 23.15 70.341 125.54 96.162 40.067 3.5615-117.53 68.56 64.108 71.231-14.246 16.027-5.3423 59.656 139.79 34.725 45.41-1.7808 45.41-97.052 167.39-59.656 86.368-51.642 8.0135-78.354 78.354-118.42 24.931-55.204 3.5615 4.4519 0.8904h5.3424l8.9038 7.1231-56.094-8.0135v53.423s57.875 81.916 56.094 86.368c-1.7807 4.4519 57.875 81.025 57.875 81.025l137.12-5.3423 113.08-114.86 34.725-42.738 340.13-142.46 134.45-160.27 70.341-194.99 0.8904-0.8904 145.13-234.17-18.698-181.64-81.916-165.61z" transform="matrix(.91116 0 0 .91071 154.45 415.22)"/>
    <path id="path4365" style="stroke:#000000;stroke-width:.91094px;fill:#000000" inkscape:connector-curvature="0" d="m1400.4 1135.3s41.304-35.55 43.599-56.191c2.2947-20.642 6.8841-24.082 6.8841-34.403v-10.321s18.357 38.99 12.621 58.485c-5.7366 19.495-4.5893 25.229-4.5893 25.229s25.241-14.908 42.451-16.055c17.21-1.1467 35.567-6.8806 53.925-5.7338l18.357 1.1468s-26.389 3.4403-28.683 12.614c-2.2946 9.1741 42.451 12.614 53.925 5.7338 11.473-6.8806 80.314-16.055 137.68-1.1468 57.367 14.908 67.693 19.495 78.019 17.202l10.326-2.2935s-14.915 16.055-34.42 18.348c-19.505 2.2935-19.505 2.2935-19.505 2.2935s50.483 3.4403 80.314 21.788 39.009 24.082 39.009 24.082-29.831-12.614-51.63-8.0273c-21.799 4.587-21.799 4.587-21.799 4.587s81.461 4.587 110.14 36.696c28.683 32.109 43.599 48.164 43.599 48.164s-19.505-14.908-56.22-13.761l-36.715 1.1468s107.85 42.43 146.86 92.888c39.009 50.458 45.893 60.778 45.893 60.778s-55.072-36.696-90.639-36.696h-35.568s127.35 34.403 100.97 126.14c-26.389 91.741-83.755 114.68-107.85 122.7-24.094 8.0274-51.63 22.935-51.63 22.935s10.326 9.1742 37.862 0c27.536-9.1741 74.577-49.311 109-45.87 34.42 3.4403 57.367 9.1742 66.546 16.055l9.1787 6.8805s-35.567-5.7337-43.599 4.5871c-8.0314 10.321-9.1787 10.321-9.1787 10.321s64.251 21.788 87.197 60.778c22.947 38.99 27.536 64.219 27.536 64.219s-30.978-34.403-59.661-35.55l-28.684-1.1468s41.304 18.348 66.546 86.007c25.241 67.659 27.536 95.181 27.536 95.181s-12.621-21.788-32.125-26.376c-19.505-4.5871 2.2947 24.082 2.2947 24.082s27.536 42.43-1.1473 166.28-95.229 267.2-119.32 308.48c-24.094 41.284-76.872 103.21-90.64 112.38l-13.768 9.174s33.273-43.577 36.715-116.97 3.442-73.393 3.442-73.393-37.862 40.137-45.893 75.686c-8.0314 35.55-12.621 76.833-12.621 76.833s-39.009-82.567-34.42-147.93c4.5894-65.366 5.7367-65.366 5.7367-65.366s-67.693 155.96-141.12 211c-73.429 55.045-104.41 73.393-111.29 77.98l-6.8841 4.587s32.125-42.43 50.483-90.594c18.357-48.164 17.21-57.338 16.063-79.127l-1.1472-21.788s-43.599 84.86-98.671 122.7c-55.072 37.843-91.787 56.191-104.41 75.686-12.621 19.495-12.621 19.495-12.621 19.495s1.1474-32.109 12.621-56.191c11.473-24.082 17.21-36.696 17.21-36.696l-45.893 40.137s-105.55 133.02-144.56 160.55c-39.009 27.522-138.83 112.38-237.5 143.35-98.671 30.963-128.5 35.55-128.5 35.55s43.599-17.201 52.777-33.256c9.1787-16.055 25.241-55.045 25.241-55.045s-35.567 43.577-95.229 71.099c-59.661 27.522-63.103 19.495-81.461 45.87-18.357 26.376-28.683 47.017-28.683 47.017s0-60.778 39.009-147.93c39.009-87.154 49.335-115.82 66.545-127.29 17.21-11.468 20.652-12.614 20.652-12.614s-97.523 33.256-130.8 36.696c-33.273 3.4403-33.273 3.4403-33.273 3.4403s-72.282-1.1468-99.818-11.468l-27.536-10.321s81.461-22.935 115.88-68.806c34.42-45.87 34.42-45.87 34.42-45.87s-39.009 41.284-98.671 55.045l-59.661 13.761s53.925-52.751 67.693-95.181 11.473-44.724 11.473-44.724-29.831 40.137-94.081 65.365c-64.251 25.229-88.345 27.522-88.345 27.522s57.367-34.403 73.429-105.5c16.063-71.099 19.505-82.567 16.063-102.06l-3.442-19.495s-26.389 44.724-59.661 59.632l-33.273 14.908s74.577-120.41 50.483-246.55-17.21-173.16-40.157-173.16-45.893 14.908-49.335 27.522l-3.442 12.614s-34.42-40.137-6.884-111.24c27.536-71.099 37.862-76.833 37.862-76.833s-35.567 8.0274-50.483 29.816c-14.915 21.788-14.915 22.935-14.915 22.935s-8.0314-95.181 49.335-163.99c57.367-68.806 48.188-66.512 81.461-88.301 33.273-21.788-3.442-11.468-17.21-17.202-13.768-5.7338-21.799-16.055-35.567-28.669s35.567 13.761 81.461-5.7338c45.893-19.495 80.313-49.311 72.282-64.219-8.0313-14.908-9.1786-16.055-9.1786-16.055s-45.893-60.778-56.219-87.154-14.915-69.953 0-65.366 21.799 21.788 25.241 14.908c3.442-6.8806 10.326-10.321 14.915-6.8806 4.5894 3.4403 11.473-18.348 17.21-9.1741 5.7366 9.1741 6.8839 24.082 6.8839 24.082s22.947-29.816 30.978-34.403c8.0314-4.5871 21.799-26.376 26.389-3.4403 4.5894 22.935 17.21 38.99 9.1787 53.898-8.0314 14.908-25.241 40.137-24.094 65.366 1.1473 25.229 33.273 72.246 33.273 72.246s2.2947-79.127 18.357-94.035c16.063-14.908 29.831-37.843 41.304-35.55 11.473 2.2936 18.357 20.642 21.799 27.522 3.442 6.8805 28.683-2.2935 33.273 6.8805 4.5894 9.1741-3.442 41.284 3.442 48.164 6.884 6.8806 28.683 5.7338 28.683 5.7338s3.442 13.761 2.2947 26.376c-1.1473 12.614 8.0314 3.4403 21.799-9.1741s19.505-20.642 26.389-21.788c6.884-1.1468 8.0314-1.1468 8.0314-1.1468s-109-113.53-172.1-142.2c-63.103-28.669-100.97-49.311-117.03-40.137-16.063 9.174-34.42 34.403-39.009 34.403-4.5893 0-3.4419-19.495-11.473-29.816-8.0314-10.321-30.978-3.4402-30.978 6.8806s-18.357 6.8806-4.5893-22.935 3.4419-25.229 35.567-44.724 36.715-48.164 30.978-64.219c-5.7367-16.055-14.915-29.816-6.884-36.696 8.0314-6.8805 21.799-4.587 10.326-14.908s-39.009-32.109-9.1787-53.898c29.831-21.788 47.041-17.201 68.84-12.614 21.799 4.5871 69.987 14.908 83.755 32.109 13.768 17.202 3.442 33.256 14.915 35.55 11.473 2.2935 26.389-8.0273 35.567-12.614 9.1786-4.587 34.42-10.321 44.746 6.8806 10.326 17.201 19.505 27.522-3.4419 32.109s-76.872 11.468-94.081 8.0273c-17.21-3.4403-35.567-3.4403-34.42 9.174 1.1472 12.614 3.4419 27.522-14.915 27.522s-61.956 0-51.63 33.256-6.884 28.669 109 88.301 138.83 86.007 145.71 99.768c6.884 13.761 17.21 32.109 17.21 32.109s4.5894-5.7338 6.884-12.614c2.2947-6.8806 17.21-10.321 19.505-1.1468 2.2947 9.1741-4.5894 32.109 3.442 53.898 8.0313 21.788 24.094 96.328 44.746 141.05 20.652 44.724 43.599 60.778 29.831 90.594s-42.451 81.42-59.661 113.53c-17.21 32.109-72.282 114.68-78.019 126.14-5.7367 11.468 4.5892 19.495-2.2947 25.229-6.884 5.7338-29.831-4.5871-34.42-10.321-4.5893-5.7338-22.947 28.669-45.893 49.311-22.947 20.642-59.661 60.778-115.88 58.485-56.219-2.2934-95.229 5.7338-110.14-2.2934-14.915-8.0274-3.442 11.468-3.442 11.468s24.094 24.082 34.42 64.219 28.683 68.806 47.041 76.833c18.357 8.0274-4.5894-18.348 8.0314-16.055 12.621 2.2936 33.273 19.495 67.693 13.761 34.42-5.7338 47.041-66.512 89.492-89.448 42.451-22.935 176.69-110.09 196.19-122.7 19.505-12.614 40.157-38.99 53.925-30.963 13.768 8.0273 22.947 34.403 36.715 25.229 13.768-9.1741 42.451-40.137 42.451-47.017 0-6.8806-2.2946-41.284 4.5893-45.87 6.884-4.5871 4.5894 4.587 16.063 25.229l11.473 20.642s19.505-67.659 67.693-111.24c48.188-43.577 103.26-68.806 112.44-146.79l9.1786-77.98s79.166-22.935 94.082-83.714c14.915-60.778 30.978-97.475 27.536-119.26-3.442-21.788-53.925-28.669-61.956-56.191-8.0314-27.522-17.21-51.604-17.21-51.604s26.389 28.669 56.219 29.816c29.831 1.1468-4.5893-105.5-49.335-118.12l-44.746-12.614s53.925-4.5871 55.072-29.816c1.1473-25.229-29.831-53.898-57.367-64.219s-22.947-14.908-22.947-14.908z"/>
    <path id="path4888" style="stroke:#ffffff;stroke-width:.91094px;fill:#ffffff" inkscape:connector-curvature="0" d="m780.18 1722.2s-14.915-1.1467-25.241 8.0274-10.326 16.055-14.915 19.495c-4.5894 3.4402-17.21 2.2934-29.831 8.0273l-12.621 5.7338s5.7367 1.1468 12.621 14.908c6.884 13.761 19.505 18.348 11.473 29.816-8.0314 11.468-5.7367 26.376-13.768 20.642-8.0314-5.7338-9.1787-8.0274-28.683-5.7338-19.505 2.2935-20.652 2.2935-20.652 2.2935s20.652 4.5871 22.947 6.8806c2.2947 2.2935 5.7366 14.908 2.2947 25.229-3.442 10.321-5.7367 21.789-5.7367 21.789s-4.5894-5.7339-17.21-10.321-25.241-3.4403-25.241-3.4403l17.21 12.614s17.21 17.201 13.768 33.256-8.0314 49.311-18.357 55.045c-10.326 5.7337-22.947 2.2935-37.862-22.935-14.915-25.229-26.389-40.137-26.389-40.137s-3.442 66.512 4.5894 91.741 28.683 47.017 34.42 47.017c5.7367 0 9.1787-10.321 17.21-9.1741 8.0313 1.1468 12.621 9.1741 18.357 8.0274 5.7367-1.1468 9.1787-16.055 13.768-12.614 4.5894 3.4403 21.799 13.761 26.389 8.0274 4.5894-5.7338 26.389-10.321 30.978-5.7338 4.5894 4.587 20.652 19.495 26.389 8.0273 5.7367-11.468 5.7367-38.99 17.21-43.577s14.915-22.935 25.241-22.935 44.746-13.761 57.367-27.522 48.188-32.109 69.987-50.458c21.799-18.348 72.282-58.485 82.608-88.301s9.1787-49.311 19.505-53.898c10.326-4.5869-5.7366-14.908-14.915-3.4402-9.1787 11.468-20.652 6.8805-19.505 20.642 1.1473 13.761-2.2947 30.963-11.473 33.256-9.1787 2.2935-32.125-3.4403-32.125 2.2935 0 5.7339 9.1787 16.055 10.326 22.935 1.1473 6.8806-6.884-2.2935-17.21-2.2935s-18.357 5.7338-13.768 14.908c4.5894 9.1741 6.884 12.614-1.1473 16.055-8.0314 3.4403-22.947-5.7339-24.094 3.4403-1.1472 9.1741 13.768 11.468 10.326 17.201-3.442 5.7338-16.063-5.7338-19.505 2.2936-3.442 8.0272 8.0314 24.082-6.884 26.376-14.915 2.2935-27.536 8.0273-34.42 4.587s-21.799-17.201-17.21-4.587c4.5894 12.614 10.326 19.495 4.5894 24.082-5.7367 4.5871-14.915 19.495-28.683 18.348-13.768-1.1468-28.683-18.348-32.125-8.0274s4.5894 12.614 0 21.789c-4.5893 9.174-13.768 8.0272-13.768 19.495s-12.621 22.935-19.505 18.348c-6.884-4.5871-19.505-34.403-19.505-50.458s-1.1473-29.816-1.1473-29.816-24.094 32.109-22.947 49.311c1.1473 17.201 6.884 30.963 3.442 36.696-3.442 5.7339-9.1787 9.1741-19.505 2.2936-10.326-6.8806-19.505 4.5869-30.978-2.2936-11.473-6.8806-4.5894-12.614 16.063-44.724 20.652-32.109 40.157-61.925 44.746-81.42 4.5893-19.495 8.0314-24.082 21.799-37.843s9.1787-38.99 25.241-57.338c16.063-18.348 27.536-49.311 24.094-53.898-3.442-4.5871-13.768-11.468-8.0314-8.0274z"/>
    <path id="path4896" style="stroke:#000000;stroke-width:9.9292;fill:none" inkscape:connector-curvature="0" d="m752.37 1724.7s25.15-10.541 31.64-3.2435c6.4903 7.2979 5.679 30.003 5.679 30.003v-1.6218"/>
    <path id="path4375" style="stroke:#000000;stroke-width:9.1094;fill:none" inkscape:connector-curvature="0" d="m1413.1 1135.4s-28.684-13.761-47.041-8.0273c-18.357 5.7338-34.42 21.788-61.956 24.082-27.536 2.2935-37.862-11.468-68.84-21.788-30.978-10.321-52.778-5.7338-74.577 2.2935-21.799 8.0274-21.799 19.495-41.304 9.1742s-51.63-47.017-78.019-37.843c-26.389 9.1741-71.135 32.109-91.787 20.642-20.652-11.468-26.389-34.403-118.18-44.724-91.787-10.321-105.55-17.202-129.65-8.0274-24.094 9.1741-60.809 25.229-61.956 33.256-1.1473 8.0273 1.1473 19.495 9.1787 27.522 8.0314 8.0274 22.947 14.908 16.063 24.082-6.884 9.1741-44.746 55.045-59.661 68.806s-42.451 35.55-37.862 58.485c4.5894 22.935 19.505 28.669 18.357 47.017-1.1473 18.348-20.652 27.522-17.21 113.53 3.442 86.007 14.915 106.65 14.915 106.65s6.884-61.925 24.094-87.154 39.009-53.898 39.009-53.898"/>
    <path id="path4890" style="stroke:#000000;stroke-width:.92889px;fill:#ffffff" inkscape:connector-curvature="0" d="m1879.6 1491.6s-1.5854-37.969-44.392-41.42c-42.806-3.4518-91.954-18.984-91.954-18.984s38.05 17.258 33.294 32.791c-4.7564 15.533-19.025 25.888-33.294 18.984-14.269-6.9033-57.075-32.791-57.075-32.791s9.5124 22.436 17.44 36.243c7.9271 13.807 42.806 18.984 42.806 27.614 0 8.6294-3.1709 22.436-15.854 31.065-12.683 8.6292-17.44 24.162-11.098 31.065 6.3417 6.9034 31.708 10.355 55.49 1.7258 23.781-8.6292 53.904-3.4517 44.392-20.71-9.5126-17.259-44.392-5.1776-38.05-15.533 6.3416-10.355 52.319-31.065 71.344-27.614 19.025 3.4518 30.123-6.9034 30.123-6.9034z"/>
    <path id="path4368" style="stroke:#000000;stroke-width:.91094px;fill:#000000" inkscape:connector-curvature="0" d="m952.22 1122.3s-2.2947 8.0274 4.5892 21.788c6.884 13.761 60.809 26.376 74.577 48.164s53.925 45.87 60.809 72.246 19.505 43.577 21.799 83.714c2.2947 40.137-3.442 61.925 12.621 53.898 16.063-8.0273 16.063-60.778 10.326-72.246-5.7367-11.468-19.505-43.577-6.884-38.99 12.621 4.5871 25.241 8.0273 33.273 14.908 8.0314 6.8806 19.505 16.055 21.799 8.0274 2.2947-8.0274-25.241-14.908-26.389-29.816-1.1474-14.908 8.0313-16.055 16.063-10.321 8.0314 5.7337 6.884 11.468 14.915 18.348 8.0313 6.8805 30.978 20.642 57.367 12.614 26.389-8.0274 49.335-6.8806 52.777-2.2936 3.442 4.5871 18.357 10.321 22.947 14.908 4.5894 4.587 16.063 1.1467 0-13.761s-27.536-11.468-43.599-21.788c-16.063-10.321-21.799-27.522-44.746-30.963-22.947-3.4403-26.389 9.1741-42.451 0-16.063-9.1741-45.893-36.696-63.103-43.577-17.21-6.8806-13.768-17.201-39.01-24.082-25.241-6.8806-43.599-1.1468-74.577-18.348s-49.335-11.468-50.483-24.082c-1.1473-12.614-12.621-18.348-12.621-18.348z"/>
    <path id="path4370" style="stroke:#000000;stroke-width:.91094px;fill:#000000" inkscape:connector-curvature="0" d="m1275.1 1349s12.621 9.1741 24.094 10.321c11.473 1.1467 28.683 13.761 29.831 27.522 1.1473 13.761-3.442 25.229-13.768 14.908s-11.473-20.642-18.357-27.522c-6.884-6.8806-21.799-25.229-21.799-25.229z"/>
    <path id="path4372" style="stroke:#000000;stroke-width:.91094px;fill:#000000" inkscape:connector-curvature="0" d="m1076.6 1291.7s-1.1473 26.376-21.799 42.43c-20.652 16.055-57.367 26.376-74.577 21.789-17.21-4.5871-28.683 3.4402-18.357 13.761s48.188 17.202 58.514 37.843c10.326 20.642 11.473 34.403 17.21 42.43 5.7366 8.0274 12.621 12.614 13.768-3.4402 1.1473-16.055-14.915-37.843-26.389-58.485-11.473-20.642-8.0313-18.348 9.1787-20.642 17.21-2.2935 39.009-8.0273 45.893-25.229s10.326-25.229 9.1786-33.256c-1.1473-8.0273-12.621-17.201-12.621-17.201z"/>
    <path id="path4981" style="fill:none" inkscape:connector-curvature="0" d="m1292.6 712.83s852.39-37.662 997.58 965.1l145.19 1002.8"/>
  </g>
  <metadata>
    <rdf:RDF>
      <cc:Work>
        <dc:format>image/svg+xml</dc:format>
        <dc:type rdf:resource="http://purl.org/dc/dcmitype/StillImage"/>
        <cc:license rdf:resource="http://creativecommons.org/licenses/publicdomain/"/>
        <dc:publisher>
          <cc:Agent rdf:about="http://openclipart.org/">
            <dc:title>Openclipart</dc:title>
          </cc:Agent>
        </dc:publisher>
      </cc:Work>
      <cc:License rdf:about="http://creativecommons.org/licenses/publicdomain/">
        <cc:permits rdf:resource="http://creativecommons.org/ns#Reproduction"/>
        <cc:permits rdf:resource="http://creativecommons.org/ns#Distribution"/>
        <cc:permits rdf:resource="http://creativecommons.org/ns#DerivativeWorks"/>
      </cc:License>
    </rdf:RDF>
  </metadata>
</svg>
