<?xml version="1.0" encoding="utf-8"?>
<!-- Generator: Adobe Illustrator 18.0.0, SVG Export Plug-In . SVG Version: 6.00 Build 0)  -->
<!DOCTYPE svg PUBLIC "-//W3C//DTD SVG 1.1//EN" "http://www.w3.org/Graphics/SVG/1.1/DTD/svg11.dtd">
<svg version="1.1" id="Pipe_Outline" xmlns="http://www.w3.org/2000/svg" xmlns:xlink="http://www.w3.org/1999/xlink" x="0px"
	 y="0px" viewBox="0 0 197 144.5" enable-background="new 0 0 197 144.5" xml:space="preserve">
<g>
	<g>
		<path d="M53.2,144.5c-12.1,0-28.9-3.7-39.8-21.2l-0.1-0.1c-0.7-1.4-18.1-34.5-12.2-55.7l0.3-1l2.1-0.4l-0.5,0.9
			C3,67.4,3,67.7,3,67.9c0,0.1,0.1,0.2,0.1,0.3l0.1,0.2l-0.1,0.2C-2.2,89,15.2,122,15.3,122.3c0.4,0.6,0.8,1.2,1.2,1.8l0.3,0.5
			c0.3,0.5,0.7,0.9,1,1.4l0.3,0.4c0.4,0.5,0.9,1.1,1.3,1.6l0.3,0.3c0.4,0.4,0.7,0.8,1.1,1.2l0.4,0.4c0.4,0.5,0.9,0.9,1.3,1.3
			c0.5,0.5,1,0.9,1.5,1.3l0.3,0.3c0.4,0.3,0.8,0.7,1.2,1l0.3,0.2c0.5,0.4,1,0.8,1.5,1.1l0.1,0.1c0.5,0.3,1,0.6,1.5,0.9l0.3,0.2
			c1.1,0.6,2.1,1.2,3.2,1.8l-0.1,0.5l0.2-0.5c0.5,0.3,1.1,0.5,1.6,0.7l0.1,0.1c1.1,0.5,2.3,0.9,3.4,1.3c4.8,1.6,10.1,2.3,15.6,2.3
			c12.1,0,21.8-3.7,21.9-3.7c38.4-9.3,47.3-51.5,47.4-51.9c1.8-10,4.2-19.3,7.3-27.6c0.2-0.7,0.5-1.3,0.7-1.9
			c0.1-0.3,0.2-0.6,0.3-0.9c0.2-0.4,0.3-0.9,0.5-1.3c0.2-0.6,0.5-1.2,0.8-1.8l0.3-0.6c0.3-0.8,0.7-1.5,1-2.3l0.5-1
			c0.2-0.4,0.4-0.8,0.6-1.2l0.5-0.9c0.2-0.4,0.4-0.8,0.6-1.2c0.2-0.3,0.3-0.6,0.5-0.9c0.2-0.4,0.4-0.8,0.7-1.2l0.5-0.9
			c0.2-0.4,0.5-0.9,0.7-1.3l0.1-0.1c0.1-0.2,0.2-0.4,0.3-0.6c0.4-0.6,0.7-1.2,1.1-1.8l0.4-0.7c0.2-0.4,0.5-0.8,0.8-1.2
			c0.2-0.3,0.3-0.5,0.5-0.8l0.1-0.2c0.2-0.3,0.4-0.6,0.6-0.8c0.2-0.3,0.4-0.5,0.5-0.8c0.2-0.3,0.5-0.6,0.7-0.9l0.5-0.7
			c0.2-0.3,0.5-0.6,0.7-1l0.5-0.6c0.4-0.5,0.8-1,1.2-1.5l0.4-0.5c0.3-0.3,0.6-0.6,0.8-1c0.2-0.2,0.3-0.3,0.5-0.5l0.1-0.1
			c0.3-0.3,0.5-0.5,0.7-0.8c0.2-0.2,0.4-0.4,0.6-0.6c0.2-0.2,0.5-0.5,0.7-0.7l0.6-0.6c0.2-0.2,0.5-0.5,0.7-0.7l0.5-0.5
			c0.3-0.3,0.6-0.6,0.9-0.8c0.2-0.2,0.4-0.4,0.6-0.6c0.3-0.3,0.6-0.6,0.9-0.8l0.6-0.5c0.2-0.2,0.5-0.4,0.7-0.6l0.6-0.5
			c0.2-0.2,0.5-0.4,0.7-0.6c0.2-0.2,0.4-0.3,0.6-0.5c0.2-0.2,0.5-0.4,0.7-0.5c0.2-0.1,0.4-0.3,0.6-0.4c0.2-0.2,0.5-0.3,0.7-0.5
			l0.5-0.4c0.4-0.3,0.8-0.5,1.2-0.8l5.5-3.2c0.4-0.2,0.8-0.4,1.1-0.6l0.5-0.2c0.2-0.1,0.5-0.2,0.7-0.3l3.4-1.4l0.3,0.4l-0.2-0.5
			l0.4-0.2c0.3-0.1,0.6-0.2,0.8-0.3l4.6-1.5l1-0.3c0.2-0.1,0.5-0.1,0.7-0.2l3.5-0.7c0.2,0,0.4-0.1,0.6-0.1l3.6-0.3l0.2,0.5l0-0.5
			l0.1,0l0.1,0.5l0-0.3L188,7.4c0,0,0,0,0.1,0l0.1,0c0.4-0.3,0.8-0.5,1.2-0.8c4.5-2.9,5.3-4,5.4-4.3c-0.1,0-0.2,0-0.4,0
			c-2,0-6.7,1.6-6.7,1.6l-0.1,0c-1.1,0.1-2.2,0.3-3.2,0.4c-0.2,0-0.4,0.1-0.6,0.1l-0.5,0.1c-0.7,0.1-1.3,0.2-2,0.3
			c-0.3,0-0.5,0.1-0.8,0.2L180,4.9c-0.6,0.1-1.2,0.2-1.8,0.4c-0.4,0.1-0.8,0.2-1.2,0.3c-0.7,0.1-1.3,0.3-1.8,0.4
			c-0.4,0.1-0.8,0.2-1.2,0.3l-0.1,0c-0.6,0.1-1.1,0.3-1.7,0.4c-0.4,0.1-0.9,0.2-1.3,0.4c-0.5,0.2-1.1,0.3-1.6,0.5
			c-0.4,0.1-0.8,0.3-1.3,0.4c-0.5,0.2-1.1,0.3-1.6,0.5c-0.4,0.1-0.8,0.3-1.2,0.4c-0.5,0.2-1,0.4-1.6,0.6l-0.1,0
			c-0.4,0.1-0.7,0.3-1.1,0.4c-0.5,0.2-1,0.4-1.6,0.6l-1.1,0.4c-0.5,0.2-1,0.4-1.4,0.6l-0.5,0.2c-0.2,0.1-0.4,0.2-0.6,0.3
			c-0.6,0.3-1.2,0.5-1.8,0.8l-0.7,0.3c-0.8,0.4-1.7,0.8-2.5,1.2l-0.2,0.1c-0.8,0.4-1.5,0.8-2.2,1.2l-0.7,0.4
			c-0.5,0.3-1.1,0.6-1.6,0.9l-0.8,0.5c-0.5,0.3-1,0.6-1.5,0.9c-0.3,0.2-0.6,0.4-0.8,0.5c-0.5,0.3-0.9,0.6-1.4,0.9l-0.9,0.6
			c-0.4,0.3-0.9,0.6-1.3,0.9c-0.3,0.2-0.6,0.4-0.8,0.6c-0.4,0.3-0.9,0.6-1.3,0.9l-0.8,0.6c-0.4,0.3-0.9,0.6-1.3,1l-0.4,0.3l-0.6,1.2
			c-4,7.6-7.8,15.3-12.2,24.4l-0.5,1l-8.9-4.4c-7.9,10.2-12.7,19.5-14.8,24.2c-0.3,0.7-0.6,1.3-0.8,1.8L98,73.2
			c-0.2,0.5-0.3,0.8-0.4,1l-0.1,0.2l-0.5-0.1l0.5,0.2l0,0.1c-0.3,0.6-0.7,1.3-1,1.9l-5.1,8.6l-4.1,6l-0.8,1
			c-0.2,0.2-0.3,0.4-0.5,0.6L85.8,93c-0.2,0.2-0.4,0.4-0.6,0.7l-0.1,0.1c-0.3,0.3-0.5,0.6-0.8,0.9l-0.2,0.2
			c-0.2,0.2-0.3,0.4-0.5,0.5l-0.9,0.9c-0.1,0.1-0.3,0.2-0.4,0.4l-2.1,1.8c-0.1,0.1-0.2,0.2-0.3,0.2l-0.3,0.2
			c-0.1,0.1-0.2,0.1-0.3,0.2l-1.3,0.8c-0.1,0.1-0.2,0.1-0.3,0.1l-0.2,0.1c-0.1,0-0.2,0.1-0.3,0.1l-0.2,0.1c-0.1,0-0.2,0.1-0.3,0.1
			l-0.1,0c-0.3,0.1-0.6,0.2-0.9,0.2l-0.1,0c-0.1,0-0.2,0-0.3,0l-0.1,0c-0.1,0-0.2,0-0.3,0c-0.3,0-0.5,0-0.7,0
			c-0.2,0-0.4-0.1-0.6-0.1c-0.2-0.1-0.4-0.1-0.6-0.2c-0.2-0.1-0.4-0.2-0.5-0.3c-0.2-0.1-0.4-0.2-0.5-0.3c-0.2-0.1-0.3-0.2-0.5-0.3
			c-0.2-0.1-0.3-0.3-0.4-0.4c-0.1-0.1-0.3-0.3-0.3-0.4c-0.1-0.1-0.2-0.3-0.3-0.4c-0.1-0.1-0.2-0.2-0.2-0.3c-0.1-0.1-0.2-0.2-0.2-0.3
			c-0.1-0.1-0.1-0.2-0.2-0.3l-0.3-0.7l0-0.2c0.7-21.8-7.2-34.8-8.9-37.2l-0.1-0.1l0-0.2c0-0.1-0.1-0.2-0.1-0.3l-0.1-0.2l0.1-0.2
			c0-0.1,0-0.3,0-0.4c0-0.1,0-0.2-0.1-0.3l-0.3-0.6l1.5-0.2l0.6,0.8c0.4,0.6,10.4,14,9.6,38.7c0.3,0.7,1.4,2.4,3.3,2.4
			c2.3,0,8.8-2.4,20.7-24.8c0.6-1.6,6.7-16.9,20.4-33c13.2-15.5,36.3-34.9,71.2-39c1.2-0.4,5.1-1.6,7.2-1.6c1.8,0,2.4,1,2.5,1.5
			c0.5,1.6-0.5,3.1-7.8,7.6l-0.5,0.3h-0.5c-2,0-50.2,0.9-63.6,77.8c-0.1,0.5-2.3,11.1-9.4,23.1c-6.6,11.1-18.7,25.4-39.5,30.4
			C74.8,141.1,65.3,144.5,53.2,144.5z M2.1,68.3c-5.5,20.8,11.5,53.1,12.2,54.5c10.6,17.1,27,20.7,38.9,20.7
			c11.9,0,21.2-3.4,22.2-3.8c20.5-5,32.5-19.1,38.9-30c7-11.8,9.1-22.3,9.2-22.8c13.6-77.7,62.5-78.6,64.6-78.6h0.2l0.2-0.1
			c7.2-4.5,7.5-5.7,7.3-6.5c-0.2-0.5-0.7-0.8-1.6-0.8c-2,0-6.1,1.3-7,1.6l-0.1,0c-34.7,4.1-57.5,23.3-70.6,38.7
			c-13.6,16-19.6,31.1-20.3,32.8C85.3,95,78.5,99.4,74.8,99.4c-2.6,0-3.9-2.3-4.2-3l0-0.1l0-0.1c0.7-22.7-7.7-35.7-9.2-37.9
			c0,0.1,0.1,0.2,0.1,0.4l0,0.1c1.8,2.7,9.6,15.9,8.9,37.6l0.2,0.5c0,0,0.1,0.1,0.1,0.2c0.1,0.1,0.1,0.2,0.2,0.3
			c0.1,0.1,0.1,0.2,0.2,0.3l0.1,0.1c0,0,0.1,0.1,0.2,0.2c0.1,0.1,0.2,0.2,0.3,0.3c0.1,0.1,0.2,0.2,0.3,0.3c0.1,0.1,0.3,0.2,0.4,0.3
			c0.2,0.1,0.3,0.2,0.4,0.3c0.2,0.1,0.3,0.2,0.5,0.2c0.2,0.1,0.3,0.1,0.5,0.2c0.2,0,0.3,0.1,0.5,0.1c0.2,0,0.4,0,0.6,0
			c0.1,0,0.2,0,0.2,0l0.2,0.5l0-0.5l0.2,0l0.2,0.5l-0.1-0.5c0.3,0,0.5-0.1,0.8-0.2l0.3,0.4l-0.1-0.5c0.1,0,0.2-0.1,0.3-0.1l0.3,0.4
			l-0.2-0.5c0.1,0,0.2-0.1,0.3-0.1l0.2-0.1c0.1-0.1,0.2-0.1,0.3-0.1l1.7-1c0.1-0.1,0.2-0.1,0.3-0.2l2-1.7c0.1-0.1,0.2-0.2,0.4-0.3
			l0.9-0.9c0.2-0.2,0.3-0.3,0.5-0.5l0.2-0.2c0.2-0.2,0.5-0.5,0.7-0.8l0.2-0.2c0.2-0.2,0.4-0.4,0.6-0.7l0.3-0.3
			c0.2-0.2,0.3-0.4,0.5-0.6l4.3-6.1l3.6-5.9l1.9-3.4c0.3-0.6,0.7-1.2,1-1.8l0.1-0.3c0.1-0.2,0.2-0.6,0.4-1c0.1-0.3,0.2-0.5,0.3-0.7
			c0.2-0.5,0.5-1.1,0.8-1.8c2.2-4.7,6.9-14,14.8-24.3l0,0l0.2-0.2c0.1-0.1,0.1-0.2,0.2-0.3c0.4-0.6,0.9-1.1,1.3-1.6l0.1-0.1
			c0.4-0.5,0.9-1,1.3-1.5l0.2-0.2c0.4-0.5,0.8-1,1.2-1.4l0.2-0.3c0.4-0.5,0.8-0.9,1.2-1.4l0.3-0.3c0.4-0.4,0.8-0.8,1.2-1.3l0.8,0.7
			l-0.1,0.1c-0.7,0.8-1.4,1.6-2.1,2.3l-0.3,0.4c-0.7,0.8-1.4,1.6-2.1,2.4l-0.4,0.5c-0.5,0.7-1.1,1.3-1.6,2l7.8,3.9l0-0.1
			c4.2-8.8,7.9-16.2,11.8-23.6c-0.4,0.3-0.8,0.7-1.2,1l-0.1,0.1l0,0c0,0,0,0,0,0l-0.6-0.8c0.3-0.3,0.7-0.6,1-0.8l0.6-0.5
			c0,0,0,0,0,0c0,0,0,0,0,0c0.5-0.4,1-0.8,1.5-1.2l1.8-1.4l0,0c0,0,0,0,0.1,0l0.8-0.6c0.4-0.3,0.9-0.6,1.3-0.9
			c0.3-0.2,0.6-0.4,0.8-0.6c0.4-0.3,0.9-0.6,1.3-0.9l0.9-0.6c0.5-0.3,0.9-0.6,1.4-0.9c0.3-0.2,0.6-0.4,0.9-0.5
			c0.5-0.3,1-0.6,1.5-0.9l0.8-0.5c0.5-0.3,1.1-0.6,1.6-0.9l0.7-0.4c0.7-0.4,1.5-0.8,2.3-1.2l0.2-0.1c0.8-0.4,1.7-0.8,2.5-1.2
			l0.7-0.3c0.6-0.3,1.2-0.6,1.8-0.8c0.2-0.1,0.4-0.2,0.6-0.3l0.5-0.2c0.5-0.2,1-0.4,1.5-0.6l1.1-0.4c0.5-0.2,1-0.4,1.6-0.6
			c0.4-0.1,0.7-0.3,1.1-0.4l0.1,0c0.5-0.2,1-0.4,1.6-0.6c0.4-0.1,0.8-0.3,1.2-0.4c0.5-0.2,1.1-0.3,1.6-0.5c0.4-0.1,0.8-0.3,1.3-0.4
			c0.5-0.2,1.1-0.3,1.6-0.5c0.4-0.1,0.9-0.2,1.3-0.4c0.6-0.1,1.1-0.3,1.7-0.4l0.1,0c0.4-0.1,0.8-0.2,1.2-0.3
			c0.6-0.1,1.2-0.3,1.8-0.4c0.5-0.1,0.9-0.2,1.3-0.3c0.6-0.1,1.2-0.2,1.9-0.4l0.4-0.1c0.3-0.1,0.5-0.1,0.8-0.2
			c0.7-0.1,1.3-0.2,2-0.3l0.5-0.1c0.2,0,0.4-0.1,0.7-0.1c1.1-0.2,2.1-0.3,3.2-0.4c0.5-0.2,4.9-1.6,7-1.6c0.8,0,1.3,0.2,1.4,0.7
			c0.2,0.7-0.1,1.7-5.9,5.5c-0.4,0.3-0.9,0.6-1.4,0.9l-0.1,0.1l-0.5,0l-0.1-0.5l0,0.5l-2.3,0.2L185.4,8l0.1,0.5l-1.1,0.1
			c-0.2,0-0.4,0.1-0.6,0.1l-3.4,0.7c-0.2,0.1-0.5,0.1-0.7,0.2l-4.4,1.3l-1.2,0.4c-0.3,0.1-0.6,0.2-0.8,0.3l-3.8,1.6
			c-0.2,0.1-0.5,0.2-0.7,0.3l-0.5,0.2c-0.4,0.2-0.7,0.4-1.1,0.6l-4.2,2.4l-1.2,0.8c-0.4,0.3-0.8,0.5-1.2,0.8l-0.5,0.3
			c-0.3,0.2-0.5,0.4-0.8,0.6c-0.2,0.1-0.4,0.3-0.6,0.4c-0.2,0.2-0.5,0.3-0.7,0.5c-0.2,0.1-0.4,0.3-0.6,0.5c-0.2,0.2-0.5,0.4-0.7,0.5
			l-0.6,0.5c-0.2,0.2-0.5,0.4-0.7,0.6l-0.5,0.5c-0.3,0.3-0.6,0.5-0.9,0.8c-0.2,0.2-0.4,0.4-0.6,0.6c-0.3,0.3-0.6,0.5-0.9,0.8
			l-0.5,0.5c-0.2,0.2-0.5,0.5-0.7,0.7l-0.6,0.6c-0.2,0.2-0.5,0.5-0.7,0.7c-0.2,0.2-0.4,0.4-0.6,0.6c-0.2,0.2-0.4,0.5-0.7,0.7
			l-0.1,0.2c-0.2,0.2-0.3,0.3-0.5,0.5c-0.3,0.3-0.5,0.6-0.8,1l-0.4,0.5c-0.4,0.5-0.8,1-1.2,1.4l-0.5,0.6c-0.2,0.3-0.5,0.6-0.7,1
			l-0.5,0.7c-0.2,0.3-0.5,0.6-0.7,0.9c-0.2,0.3-0.4,0.5-0.5,0.8c-0.2,0.3-0.4,0.5-0.6,0.8l-0.1,0.2c-0.2,0.3-0.3,0.5-0.5,0.8
			c-0.3,0.4-0.5,0.8-0.7,1.1l-0.4,0.7c-0.4,0.6-0.7,1.2-1.1,1.8c-0.1,0.2-0.2,0.4-0.3,0.6l-0.1,0.1c-0.2,0.4-0.5,0.8-0.7,1.3
			l-0.5,0.9c-0.2,0.4-0.4,0.8-0.6,1.2c-0.2,0.3-0.3,0.6-0.5,0.9c-0.2,0.4-0.4,0.8-0.6,1.2l-0.5,0.9c-0.2,0.4-0.4,0.8-0.6,1.2l-0.5,1
			c-0.3,0.7-0.7,1.5-1,2.2l-0.3,0.6c-0.2,0.6-0.5,1.2-0.7,1.8c-0.2,0.4-0.3,0.8-0.5,1.3c-0.1,0.3-0.2,0.6-0.3,0.9
			c-0.2,0.6-0.5,1.3-0.7,1.9c-3.1,8.3-5.5,17.5-7.3,27.5c-0.1,0.4-9,43.2-48.1,52.7c0,0-9.9,3.8-22.2,3.8c-5.7,0-11-0.8-15.9-2.4
			c-1.3-0.4-2.4-0.8-3.6-1.3l-0.1,0c-0.5-0.2-1.1-0.5-1.6-0.7l-0.1-0.1c-1.1-0.5-2.2-1.1-3.3-1.8l-0.2-0.1c-0.6-0.3-1.1-0.7-1.6-1
			c-0.6-0.4-1.1-0.8-1.6-1.2l-0.3-0.2c-0.4-0.3-0.9-0.7-1.3-1l-0.3-0.3c-0.5-0.4-1-0.9-1.5-1.3c-0.5-0.5-1-0.9-1.4-1.4l-0.4-0.4
			c-0.4-0.4-0.8-0.8-1.1-1.3l-0.3-0.3c-0.4-0.5-0.9-1.1-1.3-1.6l-0.3-0.4c-0.3-0.4-0.7-0.9-1-1.4l-0.4-0.5c-0.4-0.6-0.8-1.2-1.2-1.9
			c-0.2-0.4-17.6-33.5-12.3-54.2C2.1,68.5,2.1,68.4,2.1,68.3z M121.2,38l-0.7-0.7l0,0l0,0c0,0,0,0,0.1-0.1l0.2-0.2
			c0.5-0.5,0.9-1,1.4-1.5l0.9-0.9l0.7,0.7l-0.2,0.2C122.8,36.3,122.1,37.1,121.2,38L121.2,38l-0.2-0.3L121.2,38z M123.9,35.2
			l-0.7-0.7l0,0l0.8-0.8c1.8-1.7,3.6-3.4,5.4-5l0.3-0.3c0.5-0.4,1-0.9,1.6-1.3l0.6-0.5l0,0c0,0,0,0,0,0l0.7,0.7l-0.1,0.1
			c-1,0.8-1.9,1.6-2.8,2.4l-0.4,0.3c-0.9,0.8-1.8,1.6-2.7,2.4l-0.1,0.1c-0.9,0.8-1.7,1.7-2.5,2.5L123.9,35.2z"/>
	</g>
	<g>
		<path d="M53.2,142.8c-4.5,0-8.8-0.5-12.9-1.6l-0.2,0l-0.1-0.1c-19.7-25.7-29.4-49.2-29-69.8l0-0.5l0.5,0c1,0.1,2.1,0.1,3.3,0.1
			c5.3,0,11.5-0.6,18.1-1.7c7-1.2,13.6-2.8,18.7-4.7l0.5-0.2l0.1,0.5c0.7,2.6,1.8,5.4,2.9,8.2c1.4,3.5,2.9,7.2,3.5,10.6l0.1,0.3
			c1.7,10.2,4.3,25.5,13.2,25.5c0,0,0,0,0,0c1.6,0,3.4-0.5,5.4-1.5c29.8-15.2,33.7-27.1,38.7-42c1.2-3.7,2.5-7.5,4.2-11.6l0.2-0.5
			l9.9,5l-0.2,0.4c-3.1,8.3-5.5,17.6-7.3,27.6c-0.1,0.5-2.3,10.9-9.2,22.6c-6.4,10.8-18.3,24.8-38.5,29.7
			C75.2,139.1,65.3,142.8,53.2,142.8z M40.8,140.3c3.9,1,8.1,1.5,12.5,1.5c11.9,0,21.6-3.6,21.7-3.7l0.1,0
			c19.9-4.8,31.6-18.5,37.9-29.2c6.8-11.5,8.9-21.8,9-22.2c1.7-9.9,4.2-19.1,7.2-27.4l-8.2-4.1c-1.6,3.9-2.8,7.5-4,11
			c-5,15.2-9,27.2-39.2,42.6c-2.1,1.1-4.1,1.6-5.8,1.6c-9.8,0-12.4-15.9-14.2-26.3l-0.1-0.3c-0.6-3.3-2-6.9-3.4-10.4
			c-1-2.6-2.1-5.2-2.8-7.7C46.5,67.4,40,69,33.2,70.2c-6.6,1.1-13,1.7-18.3,1.7c-1,0-1.9,0-2.8-0.1C11.8,92,21.5,115.1,40.8,140.3z"
			/>
	</g>
	<g>
		<path d="M140.7,21.1l-0.6-0.8c0.4-0.3,0.9-0.6,1.3-0.9l0.6,0.8C141.6,20.5,141.2,20.8,140.7,21.1z"/>
	</g>
	<g>
		<path d="M138.6,22.6l-0.6-0.8c0.4-0.3,0.9-0.6,1.3-0.9l0.6,0.8C139.5,22,139,22.3,138.6,22.6z"/>
	</g>
	<g>
		<path d="M136.5,24.1l-0.6-0.8l0,0l0,0c0,0,0,0,0,0c0.4-0.3,0.9-0.7,1.3-1l0.6,0.8C137.4,23.5,136.9,23.8,136.5,24.1z"/>
	</g>
	<g>
		<path d="M142.9,19.7l-0.5-0.8c0,0,0,0,0,0l0,0h0c0.5-0.3,0.9-0.6,1.4-0.9l0.5,0.8C143.8,19.1,143.4,19.4,142.9,19.7z"/>
	</g>
	<g>
		<path d="M152.2,14.3l-0.5-0.9c0.8-0.4,1.7-0.8,2.5-1.2l0.4,0.9C153.8,13.5,153,13.9,152.2,14.3z"/>
	</g>
	<g>
		<path d="M155.4,12.8l-0.4-0.9c0.6-0.3,1.2-0.6,1.8-0.8l0,0h0l0.4,0.9C156.6,12.2,156,12.5,155.4,12.8L155.4,12.8L155.4,12.8z"/>
	</g>
	<g>
		<path d="M149.8,15.6l-0.5-0.9c0.7-0.4,1.5-0.8,2.3-1.2l0.5,0.9C151.3,14.8,150.5,15.2,149.8,15.6z"/>
	</g>
	<g>
		<path d="M145.2,18.3l-0.5-0.8l0,0c0.5-0.3,1-0.6,1.4-0.9l0,0c0,0,0,0,0,0l0.5,0.9l-0.2,0.1C146,17.8,145.6,18,145.2,18.3
			C145.2,18.3,145.2,18.3,145.2,18.3L145.2,18.3z"/>
	</g>
	<g>
		<path d="M147.4,16.9l-0.5-0.9c0.5-0.3,1.1-0.6,1.6-0.9c0,0,0,0,0,0l0,0l0.5,0.9C148.5,16.3,148,16.6,147.4,16.9
			C147.4,16.9,147.4,16.9,147.4,16.9C147.4,16.9,147.4,16.9,147.4,16.9z"/>
	</g>
	<g>
		<path d="M118.5,41l-0.8-0.6l0,0c0.4-0.5,0.8-0.9,1.2-1.4l0,0l0.7,0.7l0,0l0,0l-0.8-0.7l0.7,0.7L118.5,41z"/>
	</g>
	<g>
		<path d="M98,73.2l-0.9-0.4c0.1-0.2,0.2-0.4,0.3-0.7l0.9,0.4L98,73.2z"/>
	</g>
	<g>
		<path d="M97.6,74.2l-0.9-0.4c0,0,0,0,0,0l0,0c0,0,0,0,0,0c0.1-0.2,0.2-0.5,0.4-0.9l0.9,0.4C97.8,73.7,97.7,74,97.6,74.2z"/>
	</g>
	<g>
		<path d="M98.3,72.6l-0.9-0.4c0,0,0,0,0,0l0,0c0,0,0,0,0,0c0.2-0.5,0.5-1.1,0.8-1.8c0,0,0,0,0,0l0,0l0.9,0.4
			C98.8,71.5,98.5,72.1,98.3,72.6z"/>
	</g>
	<g>
		<polygon points="97.6,74.4 97.1,74.3 96.6,74.1 96.6,74 96.8,74.1 96.6,74 97.1,74.2 96.6,74 96.7,73.9 97.6,74.2 		"/>
	</g>
	<g>
		<polygon points="97.5,74.5 97,74.4 96.6,74.2 97,74.4 96.6,74.2 97,74.4 96.6,74.1 96.6,74.1 96.6,74.1 97.5,74.5 97.5,74.5 		"/>
	</g>
	<g>
		<path d="M115.6,44.5l-0.8-0.6l0,0c0.4-0.5,0.8-1,1.2-1.5l0,0l0.8,0.6l0,0l0,0l-0.8-0.6l0.8,0.6L115.6,44.5z"/>
	</g>
	<g>
		<path d="M158.2,11.5l-0.4-0.9l0.2-0.1c0.5-0.2,1-0.4,1.5-0.6c0,0,0,0,0,0l0,0l0.4,0.9c-0.5,0.2-0.9,0.4-1.4,0.6L158.2,11.5z"/>
	</g>
	<g>
		<path d="M114.2,46.2l-0.8-0.6l0,0c0.4-0.5,0.8-1,1.2-1.5l0.1-0.1l0.8,0.6l0,0l0,0l-0.8-0.6l0.8,0.6L114.2,46.2
			C114.2,46.2,114.2,46.2,114.2,46.2L114.2,46.2z"/>
	</g>
	<g>
		<path d="M120,39.4l-0.7-0.7c0.4-0.4,0.8-0.8,1.2-1.3l0,0l0.7,0.7L121,38l0.1,0.1l-0.6-0.5l0.6,0.5l-0.1,0.1
			c-0.3,0.3-0.5,0.6-0.8,0.9L120,39.4z"/>
	</g>
	<g>
		<path d="M117,42.8l-0.8-0.6l0,0l0,0c0,0,0,0,0,0c0.4-0.5,0.8-1,1.2-1.4l0.8,0.7c0,0,0,0,0,0C117.8,41.8,117.4,42.3,117,42.8z"/>
	</g>
	<g>
		<polygon points="185.7,8.5 185.6,7.5 185.9,7.4 186,8.4 186,8.4 186,8.4 185.9,7.5 186,8.4 		"/>
	</g>
	<g>
		<path d="M96.5,76.5L95.6,76c0.3-0.6,0.7-1.2,1-1.8l0.9,0.5C97.1,75.2,96.8,75.9,96.5,76.5C96.5,76.5,96.5,76.5,96.5,76.5
			C96.5,76.5,96.5,76.5,96.5,76.5z"/>
	</g>
	<g>
		<polygon points="186.2,8.4 186.1,7.4 186.4,7.4 186.5,8.4 		"/>
	</g>
	<g>
		<polygon points="160.9,10.4 160.5,9.5 160.5,9.5 162.1,8.9 162.5,9.8 		"/>
	</g>
	<g>
		<polygon points="187.2,8.3 187.1,7.8 187.2,7.7 187.1,7.3 187.1,7.3 187.1,7.3 187.3,7.3 187.4,8.3 		"/>
	</g>
	<g>
		<polygon points="187.6,8.3 187.5,7.3 187.7,7.3 187.7,8.3 187.7,8.3 187.7,8.3 187.6,7.3 187.6,8.3 187.6,8.3 		"/>
	</g>
	<g>
		<polygon points="184.5,8.6 184.4,7.6 184.8,7.6 184.9,8.6 		"/>
	</g>
	<g>
		<polygon points="185.2,8.5 185,7.5 185.4,7.5 185.5,8.5 		"/>
	</g>
	<g>
		<path d="M183.7,8.7l-0.2-1c0.2,0,0.4-0.1,0.6-0.1l0.1,1C184.1,8.7,183.9,8.7,183.7,8.7z"/>
	</g>
	<g>
		<rect x="182.6" y="8.1" transform="matrix(0.1699 0.9855 -0.9855 0.1699 160.1932 -173.5494)" width="1" height="0.4"/>
	</g>
	<g>
		<polygon points="187.8,8.3 187.8,7.3 187.8,7.8 187.8,7.3 187.8,7.3 187.8,7.3 187.9,7.8 187.9,8.3 187.9,8.3 187.9,8.3 
			187.8,7.8 187.8,8.3 187.8,8.3 		"/>
	</g>
	<g>
		<polygon points="186.7,8.4 186.6,7.4 187,7.3 187,8.3 		"/>
	</g>
	<g>
		<path d="M169.3,7.5l-0.3-1c0.5-0.2,1.1-0.3,1.6-0.5l0.3,1C170.3,7.2,169.8,7.4,169.3,7.5z"/>
	</g>
	<g>
		<path d="M175.1,6l-0.2-1c0,0,0,0,0,0l0,0l0,0c0.5-0.1,0.9-0.2,1.4-0.3c0,0,0,0,0,0l0.4-0.1l0.2,1l-0.4,0.1
			C176,5.7,175.6,5.8,175.1,6z"/>
	</g>
	<g>
		<path d="M172.2,6.7l-0.3-1l0.4-0.1c0,0,0,0,0,0c0.4-0.1,0.9-0.2,1.3-0.3l0.2,1c0,0,0,0,0,0l0,0c0,0,0,0,0,0
			c-0.4,0.1-0.9,0.2-1.3,0.3c0,0,0,0,0,0L172.2,6.7z"/>
	</g>
	<g>
		<path d="M166.4,8.4l-0.3-0.9c0.5-0.2,1.1-0.3,1.6-0.5l0.3,1C167.5,8.1,167,8.2,166.4,8.4z"/>
	</g>
	<g>
		<path d="M163.7,9.4l-0.3-0.9l0.4-0.1c0,0,0,0,0,0c0.4-0.1,0.8-0.3,1.2-0.4c0,0,0,0,0,0l0.3,0.9c-0.4,0.1-0.8,0.3-1.1,0.4
			L163.7,9.4z"/>
	</g>
	<g>
		<polygon points="188.3,8.3 188.2,7.8 188.1,7.3 188.3,7.3 		"/>
	</g>
	<g>
		<polygon points="188,8.3 188,7.3 188.1,7.3 188.1,8.3 188.1,7.8 188,8.3 188,8.3 		"/>
	</g>
	<g>
		<path d="M184.4,4.2l-0.1-1c1.1-0.2,2.2-0.3,3.2-0.4l0.1,1C186.5,3.9,185.4,4,184.4,4.2z"/>
	</g>
	<g>
		<path d="M178.1,5.3l-0.2-1c0.6-0.1,1.2-0.2,1.9-0.4l0.2,1C179.4,5,178.8,5.2,178.1,5.3z"/>
	</g>
	<g>
		<polygon points="182.2,9 182.1,8 182.1,8 182.5,7.9 182.7,8.9 		"/>
	</g>
	<g>
		<path d="M181.2,4.7l-0.2-1c0,0,0,0,0,0h0c0,0,0,0,0,0c0,0,0,0,0,0c0.7-0.1,1.3-0.2,2-0.3l0.2,1l0,0l0,0c0,0,0,0,0,0
			C182.5,4.5,181.9,4.6,181.2,4.7z"/>
	</g>
	<g>
		<path d="M74.8,100.6C74.8,100.6,74.8,100.6,74.8,100.6L74.8,100.6C74.8,100.6,74.8,100.6,74.8,100.6c-0.2,0-0.4,0-0.7,0l0.1-1
			c0,0,0,0,0,0l0,0c0,0,0,0,0,0c0.2,0,0.3,0,0.5,0L74.8,100.6z"/>
	</g>
	<g>
		<path d="M75.3,100.6l-0.1-1l0.2,0l0.2,1C75.5,100.5,75.4,100.5,75.3,100.6C75.3,100.6,75.3,100.6,75.3,100.6z"/>
	</g>
	<g>
		<path d="M74.1,100.5c-0.2,0-0.4-0.1-0.6-0.1l0.3-1c0.2,0,0.3,0.1,0.5,0.1L74.1,100.5z"/>
	</g>
	<g>
		<path d="M72.8,100.2C72.8,100.2,72.8,100.2,72.8,100.2L72.8,100.2C72.8,100.2,72.8,100.2,72.8,100.2c-0.2-0.1-0.3-0.1-0.5-0.2
			c0,0,0,0,0,0l0.5-0.9c0.1,0.1,0.3,0.1,0.4,0.2L72.8,100.2z"/>
	</g>
	<g>
		<path d="M73.4,100.4c-0.2-0.1-0.4-0.1-0.6-0.2l0.4-0.9c0.1,0.1,0.3,0.1,0.5,0.2L73.4,100.4z"/>
	</g>
	<g>
		<path d="M77.3,100.1l-0.3-0.9l0.3-0.1l0.4,0.9C77.5,100,77.4,100,77.3,100.1z"/>
	</g>
	<g>
		<path d="M77.8,99.9L77.4,99c0.1,0,0.2-0.1,0.3-0.1l0.4,0.9C78,99.8,77.9,99.8,77.8,99.9z"/>
	</g>
	<g>
		<path d="M75.7,100.5l-0.1-1l0,0l0,0c0,0,0,0,0,0c0.2,0,0.5-0.1,0.8-0.2l0.3,1c0,0,0,0,0,0C76.3,100.4,76,100.5,75.7,100.5z"/>
	</g>
	<g>
		<polygon points="78.3,99.6 77.9,98.7 78.1,98.6 78.6,99.5 		"/>
	</g>
	<g>
		<path d="M76.8,100.3l-0.3-1c0.1,0,0.2-0.1,0.3-0.1l0.3,0.9C77,100.2,76.9,100.2,76.8,100.3z"/>
	</g>
	<g>
		<path d="M72.3,99.9c-0.2-0.1-0.3-0.2-0.4-0.3l0.6-0.8c0.1,0.1,0.2,0.2,0.4,0.2L72.3,99.9z"/>
	</g>
	<g>
		<polygon points="69.6,96.9 69.5,96.8 70.4,96.4 70.5,96.5 		"/>
	</g>
	<g>
		<path d="M69.9,97.5c-0.1-0.1-0.1-0.2-0.1-0.3l0.9-0.5l0.1,0.2L69.9,97.5z"/>
	</g>
	<g>
		<polygon points="69.7,97.2 69.6,97 70.5,96.5 70.6,96.7 		"/>
	</g>
	<g>
		<polygon points="69.5,96.7 69.4,96.6 70.4,96.2 70.4,96.3 		"/>
	</g>
	<g>
		<polygon points="69.4,96.6 69.4,96.6 69.4,96.6 69.4,96.6 70.3,96.2 70.1,96.3 70.4,96.2 		"/>
	</g>
	<g>
		<path d="M71.8,99.6l-0.2-0.1c-0.1-0.1-0.2-0.1-0.2-0.2l0.6-0.8c0.1,0.1,0.1,0.1,0.2,0.2l0.1,0.1L71.8,99.6z"/>
	</g>
	<g>
		<path d="M70.1,97.8C70.1,97.8,70.1,97.8,70.1,97.8L70.1,97.8C70.1,97.8,70.1,97.8,70.1,97.8c-0.1-0.1-0.1-0.2-0.2-0.3l0.9-0.5
			c0.1,0.1,0.1,0.2,0.2,0.3L70.1,97.8z"/>
	</g>
	<g>
		<path d="M70.9,98.9c-0.1-0.1-0.2-0.2-0.3-0.3l0.8-0.7c0.1,0.1,0.2,0.2,0.3,0.3L70.9,98.9z"/>
	</g>
	<g>
		<path d="M70.6,98.5c-0.1-0.1-0.2-0.2-0.3-0.3l0.8-0.6c0.1,0.1,0.2,0.2,0.2,0.3c0,0,0,0,0,0L70.6,98.5z"/>
	</g>
	<g>
		<path d="M70.3,98.2c-0.1-0.1-0.2-0.2-0.2-0.3l0.8-0.6c0.1,0.1,0.1,0.2,0.2,0.3L70.3,98.2z"/>
	</g>
	<g>
		<path d="M83.7,95.4L83,94.7c0.2-0.2,0.3-0.3,0.5-0.5l0.7,0.7c0,0,0,0,0,0l0,0c0,0,0,0,0,0C84,95,83.9,95.2,83.7,95.4z"/>
	</g>
	<g>
		<path d="M89.2,88.4l-0.8-0.6l0.5-0.7l0.8,0.6C89.5,87.9,89.4,88.2,89.2,88.4z"/>
	</g>
	<g>
		<polygon points="90.1,87.1 89.2,86.6 89.7,85.9 90.5,86.4 		"/>
	</g>
	<g>
		<polygon points="86.8,91.7 86,91 86.5,90.5 87.3,91.1 		"/>
	</g>
	<g>
		<path d="M87.6,90.6L86.8,90l0.5-0.6l0.8,0.6C87.9,90.2,87.8,90.4,87.6,90.6L87.6,90.6z"/>
	</g>
	<g>
		<path d="M88.4,89.5L87.6,89l0.5-0.6l0.8,0.6C88.7,89.1,88.6,89.3,88.4,89.5z"/>
	</g>
	<g>
		<rect x="90.2" y="84.8" transform="matrix(0.8399 0.5427 -0.5427 0.8399 60.7683 -35.603)" width="1" height="0.9"/>
	</g>
	<g>
		<polygon points="91.8,84.5 90.9,84 90.9,84 91.4,83.2 92.3,83.7 		"/>
	</g>
	<g>
		<polygon points="93.6,81.5 92.7,81 93.3,80.1 94.1,80.6 		"/>
	</g>
	<g>
		<rect x="93.9" y="78.6" transform="matrix(0.8672 0.498 -0.498 0.8672 51.9607 -36.4927)" width="1" height="1.2"/>
	</g>
	<g>
		<polygon points="92.7,83 91.8,82.5 92.3,81.7 93.2,82.2 		"/>
	</g>
	<g>
		<path d="M79.4,99l-0.5-0.8l0.3-0.2l0.6,0.8C79.6,98.9,79.5,98.9,79.4,99z"/>
	</g>
	<g>
		<path d="M81.1,97.7L80.5,97l0.3-0.3l0.6,0.8C81.4,97.6,81.2,97.6,81.1,97.7z"/>
	</g>
	<g>
		<path d="M80.5,98.2l-0.6-0.8c0.1-0.1,0.2-0.2,0.3-0.2l0.6,0.8C80.8,98,80.6,98.1,80.5,98.2z"/>
	</g>
	<g>
		<polygon points="81.7,97.2 81.1,96.5 81.4,96.2 82.1,96.9 		"/>
	</g>
	<g>
		<path d="M78.8,99.3l-0.5-0.9l0.3-0.2l0.5,0.9C79,99.2,78.9,99.3,78.8,99.3z"/>
	</g>
	<g>
		<path d="M80,98.6l-0.6-0.8c0.1-0.1,0.2-0.1,0.3-0.2l0.6,0.8C80.2,98.5,80.1,98.6,80,98.6z"/>
	</g>
	<g>
		<polygon points="95.5,78.2 94.6,77.7 95.3,76.5 96.2,77 96.2,77 		"/>
	</g>
	<g>
		<path d="M85.2,93.6L84.5,93c0.2-0.2,0.4-0.4,0.6-0.7l0.8,0.6C85.6,93.2,85.4,93.4,85.2,93.6z"/>
	</g>
	<g>
		<polygon points="82.4,96.6 81.7,95.9 82.1,95.6 82.7,96.3 		"/>
	</g>
	<g>
		<path d="M84.4,94.6l-0.7-0.7c0.2-0.2,0.5-0.5,0.7-0.8l0.8,0.7C84.8,94.1,84.6,94.4,84.4,94.6z"/>
	</g>
	<g>
		<polygon points="86.1,92.6 85.3,92 85.7,91.4 86.5,92 86.5,92.1 		"/>
	</g>
	<g>
		<path d="M134.5,25.7l-0.6-0.8c0.4-0.3,0.9-0.7,1.3-1l0.6,0.8C135.3,25,134.9,25.4,134.5,25.7z"/>
	</g>
	<g>
		<path d="M26.8,135.9L26.8,135.9L26.8,135.9C26.8,135.9,26.8,135.9,26.8,135.9c-0.5-0.4-1-0.7-1.6-1.1c0,0,0,0,0,0l0.6-0.8
			c0.5,0.4,1,0.8,1.5,1.1L26.8,135.9z"/>
	</g>
	<g>
		<path d="M24.9,134.5c-0.4-0.3-0.9-0.7-1.3-1l0.6-0.8c0.4,0.3,0.8,0.7,1.2,1L24.9,134.5z"/>
	</g>
	<g>
		<path d="M28.3,136.9L28.3,136.9L28.3,136.9C28.3,136.9,28.3,136.9,28.3,136.9c-0.5-0.3-1-0.6-1.5-1l0.6-0.8c0.5,0.3,1,0.7,1.5,1
			L28.3,136.9z"/>
	</g>
	<g>
		<path d="M33.7,139.6c-0.5-0.2-1.1-0.5-1.6-0.7l0.4-0.9c0,0,0,0,0,0l0,0h0c0.5,0.3,1.1,0.5,1.6,0.7L33.7,139.6z"/>
	</g>
	<g>
		<path d="M31.9,138.9C31.9,138.9,31.9,138.9,31.9,138.9L31.9,138.9C31.9,138.8,31.9,138.8,31.9,138.9c-0.7-0.3-1.4-0.7-2-1.1
			c0,0,0,0,0,0c-0.4-0.2-0.9-0.5-1.3-0.7c0,0,0,0,0,0l0,0l0.5-0.9c0.4,0.3,0.8,0.5,1.3,0.7h0c0.7,0.4,1.3,0.7,2,1L31.9,138.9z"/>
	</g>
	<g>
		<path d="M23.3,133.2c-0.2-0.2-0.5-0.4-0.7-0.6c0,0,0,0,0,0c-0.3-0.2-0.5-0.5-0.8-0.7c0,0,0,0,0,0c0,0,0,0,0,0l0.7-0.7
			c0.3,0.2,0.5,0.5,0.8,0.7c0,0,0,0,0,0c0.2,0.2,0.5,0.4,0.7,0.6c0,0,0,0,0,0c0,0,0,0,0,0L23.3,133.2z"/>
	</g>
	<g>
		<path d="M20.1,130.1C20.1,130.1,20.1,130.1,20.1,130.1L20.1,130.1C20.1,130.1,20.1,130.1,20.1,130.1c-0.4-0.4-0.8-0.8-1.1-1.3
			l0.8-0.7c0.4,0.4,0.7,0.8,1.1,1.2L20.1,130.1z"/>
	</g>
	<g>
		<path d="M21.8,131.8c-0.5-0.4-0.9-0.9-1.4-1.3l0.7-0.7c0,0,0,0,0,0l0,0c0,0,0,0,0,0c0.4,0.5,0.9,0.9,1.3,1.3L21.8,131.8z"/>
	</g>
	<g>
		<path d="M18.7,128.5C18.7,128.5,18.7,128.5,18.7,128.5c-0.5-0.5-0.9-1.1-1.3-1.6c0,0,0,0,0,0l0.8-0.6c0.4,0.5,0.9,1.1,1.3,1.6
			L18.7,128.5z"/>
	</g>
	<g>
		<path d="M135.9,47.7l-0.9-0.5c0.2-0.4,0.4-0.8,0.6-1.2l0.9,0.5C136.3,46.9,136.1,47.3,135.9,47.7z"/>
	</g>
	<g>
		<path d="M137,45.6l-0.9-0.5c0,0,0,0,0,0l0,0c0,0,0,0,0,0c0.2-0.4,0.4-0.8,0.7-1.2l0.9,0.5C137.4,44.8,137.2,45.2,137,45.6z"/>
	</g>
	<g>
		<path d="M37.3,141c-1.2-0.4-2.4-0.8-3.5-1.3l0.4-0.9c0,0,0,0,0,0l0,0c0,0,0,0,0,0c1.1,0.5,2.3,0.9,3.4,1.3L37.3,141z"/>
	</g>
	<g>
		<path d="M138.1,43.5l-0.9-0.5l0,0l0,0c0,0,0,0,0,0c0.2-0.4,0.5-0.9,0.7-1.3l0.9,0.5c0,0,0,0,0,0l0,0c0,0,0,0,0,0
			C138.6,42.7,138.4,43.1,138.1,43.5z"/>
	</g>
	<g>
		<polygon points="131.5,57.6 130.6,57.2 130.9,56.3 131.8,56.7 		"/>
	</g>
	<g>
		<path d="M133.3,53.1l-0.9-0.4v0l0,0c0,0,0,0,0,0c0.3-0.8,0.7-1.5,1-2.2l0.9,0.4C134,51.6,133.7,52.3,133.3,53.1z"/>
	</g>
	<g>
		<path d="M134.8,50l-0.9-0.4l0,0c0,0,0,0,0,0l0.1-0.1c0.2-0.4,0.4-0.8,0.6-1.2c0,0,0,0,0,0c0,0,0,0,0,0l0.9,0.4
			C135.2,49.1,135,49.5,134.8,50L134.8,50z"/>
	</g>
	<g>
		<path d="M132.8,27l-0.6-0.8l0,0c0.3-0.3,0.7-0.6,1-0.8l0.6,0.8l-0.9,0.7l0,0C132.9,27,132.9,27,132.8,27L132.8,27L132.8,27z"/>
	</g>
	<g>
		<path d="M99.1,70.8l-0.9-0.4c2.2-4.8,6.2-12.4,12.4-21l0.2-0.3l0,0c0.8-1.1,1.6-2.2,2.4-3.2l0.1-0.1l0.8,0.6l-0.1,0.1c0,0,0,0,0,0
			l-1,1.3c-0.5,0.6-0.9,1.2-1.4,1.8l-0.3,0.4C105,58.9,101,66.8,99.1,70.8C99.1,70.7,99.1,70.8,99.1,70.8L99.1,70.8z"/>
	</g>
	<g>
		<polygon points="123.9,35.2 123.2,34.5 124,33.7 124.7,34.4 		"/>
	</g>
	<g>
		<path d="M83,96l-0.7-0.7l0.4-0.4l0.7,0.7c0,0,0,0,0,0l0,0C83.3,95.8,83.1,95.9,83,96z"/>
	</g>
	<g>
		<path d="M124.7,34.3l-0.7-0.7l0,0L124.7,34.3z M124.8,34.3l-0.7-0.7l0,0c1.7-1.7,3.5-3.4,5.4-5l0.7,0.8l0,0l-0.7,0.6
			c-0.9,0.8-1.8,1.6-2.7,2.4l-0.1,0.1C126,33.1,125.4,33.7,124.8,34.3z"/>
	</g>
	<g>
		<path d="M121.5,37.6l-0.8-0.6l0-0.1c0.4-0.5,0.9-1,1.4-1.4v0c0,0,0,0,0,0l0.7,0.7L121.5,37.6z"/>
	</g>
	<g>
		<path d="M139.2,41.6l-0.9-0.5c0.4-0.6,0.7-1.2,1.1-1.8l0.8,0.5c0,0,0,0,0,0l0,0h0C140,40.4,139.6,41,139.2,41.6z"/>
	</g>
	<g>
		<path d="M74.9,100.6v-1l0.2,0c0,0,0,0,0,0l0.1,1C75,100.6,74.9,100.6,74.9,100.6z"/>
	</g>
	<g>
		<path d="M71.3,99.3c-0.1-0.1-0.2-0.2-0.4-0.3l0.7-0.7c0.1,0.1,0.2,0.2,0.3,0.3L71.3,99.3z"/>
	</g>
	<g>
		<polygon points="181.5,9.1 181.3,8.2 181.7,8.1 181.9,9 		"/>
	</g>
	<g>
		<path d="M132.5,27.3l-0.7-0.7l0.1-0.1L132.5,27.3L132.5,27.3L132.5,27.3l-0.3-0.4L132.5,27.3L132.5,27.3L132.5,27.3z M132.6,27.3
			l-0.6-0.8l0.1,0.1l-0.1-0.1l0,0L132.6,27.3l-0.1-0.1L132.6,27.3z"/>
	</g>
	<g>
		<path d="M17,126.5c-0.3-0.4-0.7-0.9-1-1.4l0.8-0.6c0.3,0.5,0.7,0.9,1,1.4L17,126.5z"/>
	</g>
	<g>
		<path d="M189.9,7.3l-0.5-0.8c4.5-2.9,5.3-4,5.4-4.3c-0.1,0-0.2,0-0.4,0v-1c0,0,0,0,0,0c0.6,0,1,0.1,1.2,0.4
			c0.2,0.2,0.2,0.4,0.2,0.6l0,0l0,0c0,0,0,0,0,0C195.9,2.8,195.2,3.9,189.9,7.3C190,7.3,189.9,7.3,189.9,7.3L189.9,7.3z"/>
	</g>
	<g>
		<path d="M15.7,124.7c-0.4-0.6-0.8-1.2-1.2-1.9l0.8-0.5c0.4,0.6,0.8,1.2,1.2,1.8L15.7,124.7z"/>
	</g>
	<g>
		<path d="M151.2,26.1l-0.7-0.7c0.2-0.2,0.4-0.4,0.6-0.6l0.1-0.1l0.7,0.7l-0.1,0.1C151.6,25.7,151.4,25.9,151.2,26.1z"/>
	</g>
	<g>
		<path d="M130.4,29.1l-0.7-0.8c0.5-0.4,1-0.9,1.6-1.3l0,0l0,0l0.6,0.8L130.4,29.1z"/>
	</g>
	<g>
		<path d="M132.3,55.4l-0.9-0.4l0.1-0.2c0.2-0.5,0.4-0.9,0.6-1.4l0.1-0.2l0.9,0.4c0,0,0,0,0,0v0C132.8,54.3,132.6,54.8,132.3,55.4z"
			/>
	</g>
	<g>
		<path d="M156.7,21.1l-0.6-0.8c0.2-0.2,0.5-0.4,0.7-0.6l0,0c0,0,0,0,0,0l0.6,0.8C157.2,20.7,157,20.9,156.7,21.1z"/>
	</g>
	<g>
		<path d="M168.6,13.6l-0.4-0.9c0.2-0.1,0.5-0.2,0.7-0.3h0v0l0.4,0.9C169.1,13.3,168.9,13.4,168.6,13.6z"/>
	</g>
	<g>
		<polygon points="169.8,13 169.4,12.1 170.1,11.8 170.5,12.7 		"/>
	</g>
	<g>
		<path d="M167.1,14.3l-0.5-0.9c0,0,0,0,0,0l0,0c0,0,0,0,0,0c0.4-0.2,0.8-0.4,1.1-0.6l0.4,0.9C167.8,14,167.4,14.1,167.1,14.3z"/>
	</g>
	<g>
		<path d="M172.1,12l-0.4-0.9c0.2-0.1,0.4-0.2,0.6-0.2l0.4,0.9L172.1,12z"/>
	</g>
	<g>
		<polygon points="171,12.5 170.6,11.6 171.2,11.3 171.6,12.2 		"/>
	</g>
	<g>
		<polygon points="162.2,17.2 161.6,16.3 162.4,15.9 162.9,16.7 		"/>
	</g>
	<g>
		<polygon points="165.9,15 165.4,14.1 166.1,13.7 166.6,14.6 		"/>
	</g>
	<g>
		<path d="M163.5,16.4l-0.5-0.9l0,0l0,0c0.2-0.1,0.4-0.3,0.7-0.4l0.5,0.9L163.5,16.4C163.5,16.4,163.5,16.4,163.5,16.4z"/>
	</g>
	<g>
		<polygon points="164.7,15.6 164.2,14.8 164.8,14.4 165.3,15.3 165.3,15.3 		"/>
	</g>
	<g>
		<path d="M173.2,11.6l-0.4-0.9c0.3-0.1,0.6-0.2,0.8-0.3c0,0,0,0,0,0l0.3,0.9C173.7,11.4,173.4,11.5,173.2,11.6z"/>
	</g>
	<g>
		<polygon points="178.5,9.8 178.3,8.9 178.8,8.7 178.8,8.7 178.9,8.7 179.2,9.7 		"/>
	</g>
	<g>
		<polygon points="177.6,10.1 177.3,9.1 177.9,9 178.2,9.9 		"/>
	</g>
	<g>
		<path d="M179.6,9.6l-0.2-1l0,0c0,0,0,0,0.1,0c0.2-0.1,0.4-0.1,0.6-0.2c0,0,0,0,0,0l0,0l0.2,1L179.6,9.6
			C179.6,9.6,179.6,9.6,179.6,9.6z"/>
	</g>
	<g>
		<polygon points="180.6,9.3 180.4,8.3 180.4,8.3 180.9,8.2 181.1,9.2 		"/>
	</g>
	<g>
		<polygon points="176.7,10.4 176.4,9.4 176.9,9.3 177.2,10.2 		"/>
	</g>
	<g>
		<polygon points="174.6,11.1 174.3,10.6 174.2,10.1 174.9,9.9 175.2,10.9 		"/>
	</g>
	<g>
		<polygon points="175.6,10.7 175.3,9.8 175.5,10.2 175.3,9.8 175.9,9.6 176.2,10.5 		"/>
	</g>
	<g>
		<path d="M160.5,18.3l-0.6-0.8c0.4-0.3,0.8-0.5,1.2-0.8l0.5,0.8C161.3,17.8,160.9,18,160.5,18.3z"/>
	</g>
	<g>
		<path d="M159.3,19.2l-0.6-0.8c0.3-0.2,0.5-0.4,0.8-0.6l0.6,0.8C159.7,18.8,159.5,19,159.3,19.2C159.3,19.2,159.3,19.2,159.3,19.2z
			"/>
	</g>
	<g>
		<path d="M147.3,30.3l-0.4-0.3l-0.4-0.4c0.3-0.3,0.5-0.6,0.8-0.9l0.7,0.7C147.8,29.7,147.6,30,147.3,30.3z"/>
	</g>
	<g>
		<path d="M149.9,27.4l-0.7-0.7c0.2-0.2,0.5-0.5,0.7-0.7l0.7,0.7c0,0,0,0,0,0l0,0l0,0C150.4,26.9,150.2,27.2,149.9,27.4z"/>
	</g>
	<g>
		<path d="M148.7,28.8l-0.7-0.7l0.4,0.3l-0.4-0.3l0,0c0.2-0.2,0.4-0.5,0.7-0.7l0.7,0.7c0,0,0,0,0,0l0,0c0,0,0,0,0,0
			c-0.2,0.2-0.4,0.4-0.6,0.6L148.7,28.8z"/>
	</g>
	<g>
		<path d="M145.7,32.3l-0.8-0.6v0l0,0c0,0,0,0,0,0c0.4-0.5,0.8-1,1.2-1.5l0.8,0.6C146.5,31.3,146.1,31.8,145.7,32.3z"/>
	</g>
	<g>
		<path d="M143.3,35.5l-0.8-0.6c0.2-0.3,0.5-0.6,0.7-0.9l0.8,0.6C143.7,34.9,143.5,35.2,143.3,35.5
			C143.3,35.5,143.3,35.5,143.3,35.5C143.3,35.5,143.3,35.5,143.3,35.5C143.3,35.5,143.3,35.5,143.3,35.5z"/>
	</g>
	<g>
		<path d="M140.8,39.1l-0.8-0.5c0.3-0.4,0.5-0.8,0.8-1.2l0.8,0.6C141.3,38.3,141,38.7,140.8,39.1C140.8,39.1,140.8,39.1,140.8,39.1
			C140.8,39.1,140.8,39.1,140.8,39.1z"/>
	</g>
	<g>
		<path d="M144.5,33.8l-0.8-0.6c0.2-0.3,0.5-0.6,0.7-1l0.8,0.6C145,33.2,144.7,33.5,144.5,33.8z"/>
	</g>
	<g>
		<path d="M158,20.1l-0.6-0.8c0.2-0.2,0.5-0.4,0.7-0.5l0.6,0.8c0,0,0,0,0,0l0,0c0,0,0,0,0,0C158.5,19.8,158.2,19.9,158,20.1
			C158,20.1,158,20.1,158,20.1L158,20.1z"/>
	</g>
	<g>
		<path d="M154,23.5l-0.7-0.7c0.3-0.3,0.6-0.6,0.9-0.8c0,0,0,0,0,0l0.7,0.8C154.6,22.9,154.3,23.2,154,23.5
			C154,23.5,154,23.5,154,23.5C154,23.5,154,23.5,154,23.5z"/>
	</g>
	<g>
		<rect x="122.6" y="34.8" transform="matrix(0.7178 0.6963 -0.6963 0.7178 59.3193 -75.7316)" width="1" height="1"/>
	</g>
	<g>
		<path d="M142,37.2l-0.8-0.6l0.1-0.2c0.2-0.3,0.4-0.6,0.6-0.8c0,0,0,0,0,0c0,0,0,0,0,0l0.8,0.6C142.5,36.5,142.3,36.8,142,37.2
			L142,37.2z"/>
	</g>
	<g>
		<path d="M152.4,24.9l-0.7-0.7c0.3-0.3,0.6-0.6,0.9-0.8l0.7,0.7C153,24.3,152.7,24.6,152.4,24.9z"/>
	</g>
	<g>
		<path d="M155.5,22.2l-0.6-0.8c0.2-0.2,0.5-0.4,0.7-0.6l0.6,0.8l0,0l0,0v0C155.9,21.8,155.7,22,155.5,22.2z"/>
	</g>
	<g>
		<path d="M53.2,143.4c-3.8,0-7.5-0.4-10.9-1.1l0,0l-1.4-0.3c-0.3-0.1-0.6-0.1-0.9-0.2c-0.9-0.2-1.8-0.5-2.6-0.8c0,0,0,0,0,0l0.3-1
			c0.7,0.2,1.4,0.4,2.1,0.6l-0.6-0.8l1.4,0.4c4,1,8.2,1.5,12.6,1.5c11.9,0,21.6-3.6,21.7-3.7l0.1,0c19.9-4.8,31.6-18.5,37.9-29.2
			c6.8-11.5,8.9-21.8,9-22.2c1.8-10.1,4.2-19.4,7.3-27.8l0.2-0.5l1.4,0.7l-0.2,0.4c-3.1,8.3-5.5,17.5-7.3,27.5
			c-0.1,0.4-9,43.2-48.1,52.7C75.4,139.7,65.5,143.4,53.2,143.4z"/>
	</g>
	<g>
		<polygon points="111.6,49.7 110.8,49.1 110.9,49 111.7,49.5 		"/>
	</g>
	<g>
		<polygon points="120.2,39.1 119.8,38.8 119.4,38.5 119.5,38.4 		"/>
	</g>
	<g>
		<rect x="112.3" y="46.9" transform="matrix(0.7942 0.6076 -0.6076 0.7942 51.9005 -58.8489)" width="1" height="0.5"/>
	</g>
	<g>
		<path d="M72,110.5C72,110.5,72,110.5,72,110.5c-9.8,0-12.4-15.9-14.2-26.3l-0.1-0.3c-0.6-3.3-2-6.9-3.4-10.4
			c-1.1-2.7-2.2-5.6-3-8.3l-0.1-0.4l0.4-0.2c6.6-2.4,8.8-4.5,8.8-5.6l-0.1-1.8l1,1.5c1.6,2.4,9.7,15.7,9,37.7l0.2,0.4
			c0.1,0.1,0.1,0.2,0.1,0.3c0.1,0.1,0.1,0.2,0.2,0.3c0.1,0.1,0.1,0.2,0.2,0.3c0.1,0.1,0.2,0.2,0.2,0.3c0.1,0.1,0.2,0.2,0.3,0.3
			c0.1,0.1,0.2,0.2,0.3,0.3c0.1,0.1,0.3,0.2,0.4,0.3c0.2,0.1,0.3,0.2,0.4,0.3c0.2,0.1,0.3,0.2,0.5,0.2c0.2,0.1,0.3,0.1,0.5,0.2
			c0.2,0,0.3,0.1,0.5,0.1c0.2,0,0.4,0,0.6,0l0.3,0l0.2,0.5l0-0.5c0.1,0,0.2,0,0.3,0l0.2,0.5l-0.1-0.5c0.3,0,0.5-0.1,0.8-0.2l0.3,0.4
			l-0.1-0.5l0.5-0.2c0.1,0,0.2-0.1,0.3-0.1l0.1-0.1c0.1-0.1,0.2-0.1,0.3-0.1l1.7-1c0.1-0.1,0.2-0.2,0.3-0.2l0.2-0.2
			c0.1-0.1,0.2-0.2,0.3-0.2l2.1-1.9c0.1-0.1,0.2-0.2,0.4-0.4l0.3-0.3c0.2-0.2,0.3-0.3,0.5-0.5l0.2-0.2c0.2-0.2,0.4-0.5,0.7-0.8
			l0.2-0.2c0.2-0.2,0.4-0.4,0.5-0.7l2.6-3.3l0.8-1.2c0.2-0.2,0.3-0.4,0.5-0.7l3-4.6l3.8-6.5c0.3-0.6,0.7-1.2,1-1.8l0.1-0.3
			c0.1-0.2,0.2-0.6,0.4-1l0.3-0.7c0.2-0.6,0.5-1.2,0.8-1.9c1.8-4,5.9-12,12.4-21l0.2-0.3l10.5,5.2l-0.1,0.5c-1.7,4.1-3,7.9-4.2,11.5
			c-5,15.2-9,27.2-39.2,42.6C75.8,109.9,73.8,110.5,72,110.5z M52.5,65.3c0.7,2.5,1.8,5.2,2.8,7.7c1.4,3.5,2.9,7.2,3.5,10.6l0.1,0.3
			c1.7,10.2,4.3,25.5,13.2,25.5c0,0,0,0,0,0c1.6,0,3.4-0.5,5.4-1.5c29.8-15.2,33.7-27.1,38.7-42c1.2-3.6,2.4-7.2,4-11.2l-8.9-4.4
			c-6.3,8.8-10.2,16.6-12,20.4c-0.3,0.7-0.6,1.3-0.8,1.8L98,73.2c-0.2,0.5-0.3,0.8-0.4,1l-0.2,0.4c-0.3,0.6-0.7,1.3-1,1.9l-4.2,7.2
			l-2.6,4.1c-0.2,0.2-0.3,0.5-0.5,0.7L85.8,93c-0.2,0.2-0.4,0.4-0.6,0.7l-0.2,0.2c-0.2,0.3-0.5,0.5-0.7,0.8l-0.2,0.2
			c-0.2,0.2-0.3,0.4-0.5,0.5l-0.2,0.3c-0.2,0.2-0.3,0.3-0.4,0.4L80.9,98c-0.1,0.1-0.2,0.2-0.3,0.3l-0.3,0.2
			c-0.1,0.1-0.2,0.2-0.3,0.2l-1.9,1.1c-0.1,0.1-0.2,0.1-0.3,0.1l-0.2,0.1c-0.1,0-0.2,0.1-0.3,0.1l-0.7,0.2c-0.3,0.1-0.6,0.2-0.9,0.2
			l-0.1,0c-0.1,0-0.2,0-0.3,0l-0.1,0c-0.2,0-0.2,0-0.3,0c-0.3,0-0.5,0-0.7,0c-0.2,0-0.4-0.1-0.6-0.1c-0.2-0.1-0.4-0.1-0.6-0.2
			c-0.2-0.1-0.4-0.2-0.5-0.2c-0.2-0.1-0.4-0.2-0.5-0.3c-0.2-0.1-0.3-0.2-0.5-0.3c-0.2-0.1-0.3-0.3-0.4-0.4c-0.1-0.2-0.3-0.3-0.3-0.4
			c-0.1-0.1-0.2-0.3-0.3-0.4c-0.1-0.1-0.2-0.2-0.2-0.3c-0.1-0.1-0.2-0.2-0.2-0.3c-0.1-0.1-0.1-0.2-0.2-0.3c-0.1-0.1-0.1-0.2-0.1-0.3
			l-0.2-0.6C70,76.6,63.5,64,61.1,60.1C60,62.1,56,64,52.5,65.3z"/>
	</g>
	<g>
		<rect x="130.2" y="28" transform="matrix(0.6524 0.7579 -0.7579 0.6524 66.7907 -89.2241)" width="1" height="0.3"/>
	</g>
	<g>
		<polygon points="133.3,26.6 132.7,25.9 132.8,25.8 133.2,26.1 133.5,26.5 		"/>
	</g>
	<g>
		<polygon points="124.1,35 123.4,34.2 123.5,34.2 123.9,34.5 124.3,34.8 		"/>
	</g>
	<g>
		<polygon points="114.7,45.6 113.9,45 114.1,44.7 114.9,45.3 		"/>
	</g>
	<g>
		<polygon points="122,37.1 121.3,36.4 121.6,36.2 122.3,36.9 		"/>
	</g>
	<g>
		<polygon points="116.5,43.4 115.7,42.8 115.8,42.7 116.6,43.3 		"/>
	</g>
	<g>
		<path d="M42.3,142.3l-1.4-0.3c-1.2-0.3-2.4-0.6-3.6-1c-1.3-0.4-2.4-0.8-3.6-1.3l-0.1,0c-0.5-0.2-1.1-0.5-1.6-0.7l-0.1-0.1
			c-1.1-0.5-2.2-1.1-3.3-1.8l-0.3-0.2c-0.5-0.3-1-0.6-1.5-1c-0.6-0.4-1.1-0.8-1.6-1.2l-0.3-0.2c-0.4-0.3-0.9-0.7-1.3-1l-0.3-0.3
			c-0.5-0.4-1-0.9-1.5-1.3c-0.5-0.5-1-0.9-1.4-1.4l-0.4-0.4c-0.4-0.4-0.8-0.8-1.1-1.3l-0.3-0.3c-0.4-0.5-0.9-1.1-1.3-1.6l-0.3-0.4
			c-0.3-0.5-0.7-0.9-1-1.4l-0.4-0.5c-0.4-0.6-0.8-1.2-1.2-1.9c-0.2-0.4-17.7-33.7-12.2-54.4l0.3-1.1l0.6,1c0.1,0.2,0.4,0.5,0.8,0.7
			L4,69c1,0.9,3.7,1.6,7.5,1.8l0.5,0l0,0.5c-0.4,20.4,9.3,43.6,28.8,69.2L42.3,142.3z M32.5,138c0.5,0.3,1.1,0.5,1.6,0.7l0.1,0.1
			c1.1,0.5,2.2,0.9,3.4,1.3c0.7,0.2,1.5,0.5,2.2,0.6c-19.3-25.4-29-48.5-28.7-68.9c-3.9-0.3-6.5-0.9-7.7-2c-0.1-0.1-0.3-0.2-0.4-0.3
			c-4.7,20.4,12.2,52.5,12.3,52.8c0.4,0.6,0.8,1.2,1.2,1.8l0.3,0.5c0.3,0.5,0.7,0.9,1,1.4l0.3,0.4c0.4,0.5,0.9,1.1,1.3,1.6l0.3,0.3
			c0.4,0.4,0.7,0.8,1.1,1.2l0.4,0.4c0.4,0.5,0.9,0.9,1.3,1.3c0.5,0.5,1,0.9,1.5,1.3l0.3,0.3c0.4,0.3,0.8,0.7,1.2,1l0.3,0.2
			c0.5,0.4,1,0.8,1.5,1.1l0.1,0.1c0.5,0.3,1,0.6,1.5,0.9l0.3,0.2c1.1,0.6,2.2,1.2,3.2,1.8l-0.1,0.5L32.5,138z"/>
	</g>
	<g>
		<path d="M14.9,71.9c-1.2,0-2.3,0-3.3-0.1c-4.2-0.2-7-0.9-8.2-2.1L2,68.4l-1.2,1.3l0.9-1.6l-1.3-1.2l1.5,0.8L2.8,66
			c1.8-3.5,13.6-7.7,28-10.2c6.6-1.1,13-1.7,18.3-1.7c4.8,0,10.8,0.5,12,2.8c0.1,0.2,0.2,0.4,0.2,0.6c0,0.2,0,0.4,0,0.6
			c0.1,0.2,0.2,0.4,0.2,0.5l0,0.2c0.2,2.6-5,5-9.4,6.6c-5.1,1.9-11.8,3.5-18.9,4.7C26.5,71.3,20.2,71.9,14.9,71.9z M2.3,68l1.6,0.9
			c1.7,1,5.3,1.5,10.3,1.5c5.3,0,11.5-0.6,18.1-1.7c7.7-1.3,14.8-3.1,20-5.2c5.7-2.3,7.6-4.2,7.4-5.2c-0.2-1.2-3.2-2.5-11.2-2.5
			c-5.3,0-11.5,0.6-18.1,1.7c-13,2.2-24.1,5.9-26.9,9.1L2.3,68z"/>
	</g>
	<g>
		<path d="M14.2,70.8c-7.1,0-11.3-1-11.6-2.9c-0.3-2,3.9-4.2,7.6-5.6c5.3-2.1,12.5-3.9,20.2-5.2c6.6-1.1,12.9-1.7,18.2-1.7
			c7.1,0,11.3,1,11.6,2.9c0.3,1.6-2.5,3.6-7.7,5.6c-5.3,2.1-12.4,3.9-20.1,5.2C25.8,70.3,19.5,70.8,14.2,70.8z M48.6,56.4
			c-5.2,0-11.5,0.6-18,1.7c-7.7,1.3-14.8,3.1-20,5.2c-5.7,2.2-7.1,3.9-7,4.5c0.1,0.5,2.2,2,10.6,2c5.2,0,11.5-0.6,18-1.7
			c7.6-1.3,14.7-3.1,19.9-5.2c6-2.4,7.1-4.1,7.1-4.5C59.1,57.9,57,56.4,48.6,56.4z M19.8,68.9c-3.6,0-8-0.4-8.4-2.4
			c-0.5-3,9.3-6.3,19.2-8c4.5-0.8,8.8-1.2,12.4-1.2c3.6,0,8,0.4,8.4,2.4c0.5,3-9.3,6.3-19.2,8C27.7,68.5,23.4,68.9,19.8,68.9z
			 M43,58.4c-3.5,0-7.8,0.4-12.2,1.1c-11.8,2-18.6,5.3-18.4,6.8c0.1,0.6,1.8,1.6,7.4,1.6c3.6,0,7.8-0.4,12.2-1.1
			c11.8-2,18.6-5.3,18.4-6.8C50.3,59.4,48.6,58.4,43,58.4z"/>
	</g>
	<g>
		<path d="M14.2,71.4c-3.6,0-8.4-0.3-10.8-1.6c-0.5-0.3-0.9-0.7-1.2-1c-0.1-0.2-0.2-0.5-0.3-0.7c-0.1-0.4,0-0.9,0.3-1.4
			c0.1-0.3,0.3-0.5,0.5-0.7c2.9-3.3,14.2-7.2,27.5-9.4c6.6-1.1,13-1.7,18.3-1.7c5.3,0,11.7,0.6,12.2,3.3c0.4,2.4-4.2,4.7-8,6.3
			c-5.3,2.1-12.5,3.9-20.2,5.2C25.9,70.8,19.5,71.4,14.2,71.4z M48.6,56.4c-5.2,0-11.5,0.6-18,1.7c-7.7,1.3-14.8,3.1-20,5.2
			c-5.7,2.2-7.1,3.9-7,4.5c0.1,0.5,2.2,2,10.6,2c5.2,0,11.5-0.6,18-1.7c7.6-1.3,14.7-3.1,19.9-5.2c6-2.4,7.1-4.1,7.1-4.5
			C59.1,57.9,57,56.4,48.6,56.4z"/>
	</g>
	<g>
		<path d="M19.8,68.3c-4.7,0-7.6-0.7-7.8-1.9c-0.2-1,1.7-2.4,5.2-3.8c3.5-1.4,8.4-2.6,13.6-3.5C35.1,58.4,39.5,58,43,58
			c4.7,0,7.6,0.7,7.8,1.9c0.2,1.1-1.5,2.3-5,3.7c-3.6,1.4-8.4,2.7-13.7,3.6C27.7,67.9,23.3,68.3,19.8,68.3z M43,59
			c-3.5,0-7.8,0.4-12.1,1.1c-5.1,0.9-9.9,2.1-13.4,3.5c-4.2,1.7-4.5,2.7-4.5,2.7c0.2,0.2,1.8,1,6.8,1c3.5,0,7.8-0.4,12.1-1.1
			c11.7-2,17.8-5.2,17.9-6.2C49.7,59.8,48,59,43,59z"/>
	</g>
	<g>
		<path d="M19.8,68.3c-4.7,0-7.6-0.7-7.8-1.9c-0.2-1,1.7-2.4,5.2-3.8c3.5-1.4,8.4-2.6,13.6-3.5C35.1,58.4,39.5,58,43,58
			c4.7,0,7.6,0.7,7.8,1.9c0.2,1.1-1.5,2.3-5,3.7c-3.6,1.4-8.4,2.7-13.7,3.6C27.7,67.9,23.3,68.3,19.8,68.3z M43,59
			c-3.5,0-7.8,0.4-12.1,1.1c-5.1,0.9-9.9,2.1-13.4,3.5c-4.2,1.7-4.5,2.7-4.5,2.7c0.2,0.2,1.8,1,6.8,1c3.5,0,7.8-0.4,12.1-1.1
			c11.7-2,17.8-5.2,17.9-6.2C49.7,59.8,48,59,43,59z"/>
	</g>
	<g>
		<path d="M19.8,68.9c-3.6,0-8-0.4-8.4-2.4c-0.5-3,9.3-6.3,19.2-8c4.5-0.8,8.8-1.2,12.4-1.2c3.6,0,8,0.4,8.4,2.4
			c0.5,3-9.3,6.3-19.2,8C27.7,68.5,23.4,68.9,19.8,68.9z M43,59c-3.5,0-7.8,0.4-12.1,1.1c-5.1,0.9-9.9,2.1-13.4,3.5
			c-4.2,1.7-4.5,2.7-4.5,2.7c0.2,0.2,1.8,1,6.8,1c3.5,0,7.8-0.4,12.1-1.1c11.7-2,17.8-5.2,17.9-6.2C49.7,59.8,48,59,43,59z"/>
	</g>
	<g>
		<path d="M130.6,60L120,54.8l0.1-0.5c0.6-1.4,1.3-2.8,1.9-4.2l0.2-0.5l10.3,5.1l-0.3,0.7c-0.2,0.4-0.3,0.8-0.5,1.3l-0.3,0.9
			c-0.2,0.6-0.5,1.3-0.7,1.9L130.6,60z M121.3,54.3l8.7,4.3c0.2-0.5,0.4-1,0.5-1.4l0.3-0.9c0.1-0.4,0.3-0.7,0.4-1.1l-8.5-4.2
			C122.3,52.1,121.8,53.2,121.3,54.3z"/>
	</g>
	<g>
		<polygon points="110.8,50.2 110.8,50.2 111.1,49.2 		"/>
	</g>
	<g>
		<polygon points="110.8,50.2 110.8,50.2 111.1,49.2 		"/>
	</g>
	<g>
		<rect x="115.3" y="46.7" width="1" height="10.8"/>
	</g>
	<g>
		<rect x="115.3" y="46.7" width="1" height="10.8"/>
	</g>
	<g>
		<path d="M120.9,55.2l-10.1-5l-0.6-0.2l0.7-0.9l0.5,0.2l-0.4-0.3c0.4-0.6,0.9-1.2,1.4-1.9l0.5-0.7c0.2-0.3,0.4-0.5,0.6-0.8l0.3-0.3
			l0.4,0.2l9.2,4.6l-0.2,0.4c-0.6,1.3-1.3,2.7-1.9,4.2L120.9,55.2z M111.7,49.5l8.7,4.3c0.5-1.1,1-2.2,1.5-3.3l-8-4
			c-0.1,0.2-0.2,0.3-0.3,0.4l-0.5,0.7C112.6,48.3,112.2,48.9,111.7,49.5z"/>
	</g>
	<g>
		<path d="M120.9,55.2l-10.1-5l-0.6-0.2l0.7-0.9l0.5,0.2l-0.4-0.3c0.4-0.6,0.9-1.2,1.4-1.9l0.5-0.7c0.2-0.3,0.4-0.5,0.6-0.8l0.3-0.3
			l0.4,0.2l9.2,4.6l-0.2,0.4c-0.6,1.3-1.3,2.7-1.9,4.2L120.9,55.2z M111.7,49.5l8.7,4.3c0.5-1.1,1-2.2,1.5-3.3l-8-4
			c-0.1,0.2-0.2,0.3-0.3,0.4l-0.5,0.7C112.6,48.3,112.2,48.9,111.7,49.5z"/>
	</g>
	<g>
		<path d="M131.9,54.9l-9.8-4.9l0.2-0.4c4.4-9.1,8.1-16.7,12.2-24.4l0.1-0.2C150.2,12.9,168,5.6,187.6,3.3c0.9-0.3,5-1.6,6.9-1.6
			c0.2,0,0.3,0,0.4,0l0.7,0.1l-0.4,0.6c-0.5,0.8-2.2,2.1-5,4c-0.5,0.4-1.1,0.7-1.8,1.1l-0.1,0.1l-0.1,0c-3.7,0-37.1,1.8-56,46.7
			L131.9,54.9z M123.5,49.6l7.9,4C150.4,9,183.6,6.8,188,6.7c0.6-0.4,1.1-0.7,1.6-1.1c2.1-1.4,3.3-2.3,3.9-2.9
			c-2,0.3-5.2,1.3-5.6,1.5l-0.2,0.1c-19.4,2.2-36.9,9.5-52.3,21.4C131.4,33.3,127.8,40.7,123.5,49.6z"/>
	</g>
	<g>
		<path d="M124,35l-0.7-0.7l0,0c0,0,0,0,0,0l0.7-0.7c0.6-0.6,1.3-1.2,1.9-1.9c0,0,0,0,0,0l0,0l0.7,0.7C125.7,33.4,124.9,34.2,124,35
			z"/>
	</g>
	<g>
		<path d="M129.7,29.7l-0.7-0.8l0,0l1.6-1.4c0,0,0,0,0,0l1.2-1c0,0,0,0,0,0l0,0l0.6,0.8c-0.4,0.3-0.8,0.7-1.2,1l-0.7,0.6v0l0,0
			C130.3,29.2,130,29.4,129.7,29.7z"/>
	</g>
	<g>
		<path d="M121.2,38l-0.7-0.7l0.4-0.4c0.3-0.3,0.6-0.6,0.9-1c0,0,0,0,0,0l1-1.1c0,0,0,0,0,0l0,0l0.7,0.7l0,0l0,0l-0.4-0.3l0.4,0.3
			c0,0,0,0,0,0v0c-0.3,0.3-0.7,0.7-1,1L121.2,38z"/>
	</g>
	<g>
		<path d="M118.9,40.5l-0.8-0.7l0.1-0.2c0.2-0.2,0.4-0.5,0.6-0.7l0.5-0.5c0.3-0.4,0.6-0.7,0.9-1l0.7,0.7l0,0l0,0c0,0,0,0,0,0
			C120.3,39,119.6,39.8,118.9,40.5L118.9,40.5L118.9,40.5z"/>
	</g>
	<g>
		<path d="M114.2,46.2l-0.8-0.6l0,0c0.3-0.4,0.7-0.9,1-1.3l0,0l0.9-1.1l0.8,0.6l0,0l0,0l-0.4-0.3l0.4,0.3c-0.3,0.4-0.6,0.7-0.9,1.1
			L114.2,46.2C114.2,46.2,114.2,46.2,114.2,46.2L114.2,46.2L114.2,46.2z"/>
	</g>
	<g>
		<path d="M126.7,32.4l-0.7-0.7v0l0,0c0,0,0,0,0,0c0.9-0.8,1.8-1.6,2.7-2.5c0,0,0,0,0,0l0.7,0.7C128.4,30.8,127.6,31.6,126.7,32.4z"
			/>
	</g>
	<g>
		<path d="M116.5,43.3l-0.8-0.6l0.5-0.6c0.4-0.5,0.8-1,1.2-1.5l0.3-0.4v0c0,0,0,0,0-0.1l0,0l0.4,0.3l-0.4-0.3l0,0l0.8,0.7l0,0l0,0
			l-0.4-0.3l0.4,0.3c0,0,0,0,0,0l0,0C117.9,41.7,117.2,42.5,116.5,43.3z"/>
	</g>
	<g>
		<path d="M132.2,55.7l-18.7-9.3l0.4-0.9l8.3,4.2l0.2-0.5l8.8,4.4C150.4,9,183.6,6.8,188,6.7c0.6-0.4,1.1-0.7,1.6-1.1
			c2.1-1.4,3.3-2.3,3.9-2.9c-1.6,0.2-4.2,1-5.6,1.5l-0.2,0.1c-19.4,2.2-37,9.5-52.4,21.5l-1.8,1.4l0.7-1.3l-1.2,1l-0.6-0.8l1.3-1.1
			c0.6-0.4,1.1-0.9,1.7-1.3l1.8-1.4l0,0.1c0,0,0,0,0.1,0l0.8-0.6c0.4-0.3,0.9-0.6,1.3-0.9c0.3-0.2,0.6-0.4,0.8-0.6
			c0.4-0.3,0.9-0.6,1.3-0.9c0.3-0.2,0.6-0.4,0.9-0.6c0.5-0.3,0.9-0.6,1.4-0.9c0.3-0.2,0.6-0.4,0.9-0.5c0.5-0.3,1-0.6,1.5-0.9
			l0.8-0.5c0.5-0.3,1.1-0.6,1.6-0.9l0.2-0.1c0.2-0.1,0.4-0.2,0.6-0.3c0.7-0.4,1.5-0.8,2.3-1.2l0.2-0.1c0.8-0.4,1.7-0.8,2.5-1.2
			l0.7-0.3c0.6-0.3,1.2-0.6,1.8-0.8l1-0.4c0.5-0.2,1.1-0.5,1.6-0.7l1.1-0.4c0.5-0.2,1-0.4,1.6-0.6c0.4-0.1,0.8-0.3,1.1-0.4
			c0.6-0.2,1.1-0.4,1.6-0.6c0.4-0.1,0.8-0.3,1.2-0.4c0.5-0.2,1.1-0.3,1.6-0.5c0.4-0.1,0.8-0.3,1.3-0.4c0.5-0.2,1.1-0.3,1.6-0.5
			c0.5-0.1,0.9-0.2,1.3-0.4c0.6-0.1,1.1-0.3,1.7-0.4c0.4-0.1,0.9-0.2,1.3-0.3c0.6-0.1,1.2-0.3,1.8-0.4l0.3-0.1
			c0.3-0.1,0.6-0.1,1-0.2c0.6-0.1,1.2-0.2,1.9-0.4l0.4-0.1c0.3-0.1,0.5-0.1,0.8-0.2c0.7-0.1,1.3-0.2,2-0.3l0.5-0.1
			c0.2,0,0.4-0.1,0.7-0.1c1.1-0.2,2.1-0.3,3.2-0.4c0.5-0.2,4.9-1.6,7-1.6c0.8,0,1.3,0.2,1.4,0.7c0.2,0.7-0.1,1.7-5.9,5.5
			c-0.4,0.3-0.9,0.6-1.4,0.9l-0.1,0.1l-0.4,0l-0.1-0.5l0,0.5l-3.6,0.3l-4,0.8c-0.3,0.1-0.5,0.1-0.8,0.2l-4.4,1.3
			c-0.2,0.1-0.5,0.2-0.7,0.2l-0.5,0.2c-0.3,0.1-0.6,0.2-0.8,0.3l-3.8,1.6c-0.2,0.1-0.5,0.2-0.7,0.3l-0.5,0.2
			c-0.4,0.2-0.7,0.4-1.1,0.6l-4.2,2.4c-0.2,0.1-0.4,0.3-0.6,0.4l-0.6,0.4c-0.4,0.3-0.8,0.5-1.2,0.8l-0.5,0.3
			c-0.3,0.2-0.5,0.4-0.8,0.6l-0.6,0.4c-0.2,0.2-0.5,0.3-0.7,0.5c-0.2,0.1-0.4,0.3-0.6,0.4c-0.2,0.2-0.5,0.4-0.7,0.5l-0.6,0.5
			c-0.2,0.2-0.5,0.4-0.7,0.6l-0.5,0.5c-0.3,0.3-0.6,0.5-0.9,0.8c-0.2,0.2-0.4,0.4-0.6,0.6c-0.3,0.3-0.6,0.5-0.9,0.8l-0.6,0.6
			c-0.2,0.2-0.4,0.4-0.6,0.6l-0.6,0.6c-0.2,0.2-0.5,0.5-0.7,0.7c-0.2,0.2-0.4,0.4-0.6,0.6c-0.2,0.3-0.5,0.5-0.7,0.8l-0.5,0.6
			c-0.3,0.3-0.5,0.6-0.8,0.9l-0.5,0.5c-0.4,0.5-0.8,1-1.2,1.4l-0.5,0.6c-0.2,0.3-0.5,0.6-0.7,1c-0.2,0.2-0.3,0.4-0.5,0.6
			c-0.3,0.4-0.5,0.7-0.7,1c-0.2,0.3-0.4,0.5-0.5,0.8c-0.2,0.3-0.5,0.7-0.7,1l-0.5,0.8c-0.3,0.4-0.5,0.8-0.7,1.1l-0.4,0.7
			c-0.4,0.6-0.7,1.2-1.1,1.8l-0.4,0.7c-0.2,0.4-0.5,0.8-0.7,1.3l-0.6,1c-0.2,0.3-0.4,0.7-0.5,1c-0.2,0.3-0.3,0.6-0.5,0.9
			c-0.2,0.4-0.4,0.8-0.6,1.2l-0.5,0.9c-0.2,0.4-0.4,0.8-0.6,1.2l-0.5,1c-0.3,0.7-0.7,1.5-1,2.2l-0.4,0.9c-0.2,0.4-0.4,0.8-0.5,1.3
			L132.2,55.7z"/>
	</g>
</g>
</svg>
