<?xml version="1.0" encoding="utf-8"?>
<!-- Generator: Adobe Illustrator 14.0.0, SVG Export Plug-In . SVG Version: 6.00 Build 43363)  -->
<!DOCTYPE svg PUBLIC "-//W3C//DTD SVG 1.1//EN" "http://www.w3.org/Graphics/SVG/1.1/DTD/svg11.dtd">
<svg version="1.1" id="Layer_1" xmlns="http://www.w3.org/2000/svg" xmlns:xlink="http://www.w3.org/1999/xlink" x="0px" y="0px"
	 width="1025.611px" height="886.409px" viewBox="0 0 1025.611 886.409" enable-background="new 0 0 1025.611 886.409"
	 xml:space="preserve">
<path d="M1014.602,755.199c-3.932-1.128-10.393-0.273-14.051-3.008c-11.109-8.342-5.195-7.556-20.033-12
	c-3.623-1.094-5.539-5.436-8.99-7.009c-2.6-1.196-17.266-5.606-18.051-6.017c-3.316-1.812-4.514-6.529-8-8.034
	c-2.188-0.923-4.684-0.513-7.01-0.991c-1.846-0.376-2.289-3.214-3.998-4c-2.77-1.265-6.326,0.342-9.025-0.991
	c-2.154-1.094-2.154-4.479-4-6.017c-7.043-5.847-6.189-2.496-13.025-4c-3.795-0.854-6.258-4.991-10.018-6.017
	c-3.932-1.095-8.648,0.239-12-2.018c-3.727-2.462-8.889-1.401-13.025-3.009c-3.555-1.367-5.367-5.914-9.025-7.008
	c-4.273-1.265-8.957-1.197-13.025-3.009c-2.631-1.162-4.273-4.103-7.008-4.991c-2.598-0.889-5.4-1.128-8-2.017
	c1.266-8.923,3.01-16.82,3.01-26.017c0-14.666-9.607-36.067-27.043-36.067c-3.418,0-6.975,0.479-10.018,2.018
	c-3.623,1.777-5.025,6.974-5.025,11.008c0,2.53,1.881,4.718,3.01,7.008c1.195,2.394,2.803,4.581,4,7.009
	c-7.043,7.043-15.59,18.974-21.025,28.033l-87.143-35.042c5.709-5.709,11.691-14.7,17.025-20.033
	c4.033-4.068,8.068-6.939,12.033-12.034c2.018-2.598,7.111-13.538,8.992-15.008c14.734-11.623,38.426-23.076,55.109-33.059
	c21.914-13.162,41.502-27.657,62.082-42.05c12.104-8.479,26.529-17.812,38.051-28.067c12.889-11.453,22.77-25.367,34.051-38.051
	c13.879-15.589,27.623-36.717,33.059-57.092c1.539-5.777,2.018-14.017,2.018-20.034c0-8.888-0.377-9.641,6.016-16.033l-12.033-5.983
	l-36.066,19.008c-9.779,4.889-22.256,13.948-32.033,20.034l-140.236,82.151v-2.017c10.564-6.325,27.076-23.077,30.051-36.068
	c2.633-11.35,3.418-23.828,6.018-35.042c1.469-6.359,4-13.299,4-20.034c0-5.538-4.924-9.812-8.992-13.025l-14.051-11.008
	l1.025-14.017c10.598,0,18.496-3.624,25.025-12.034c5.299-6.803,6.598-17.846,10.016-26.05c4.068-9.744,12.035-8.137,12.035-20.034
	c0-5.06-3.01-11.965-3.01-15.008c0-8.41,1.301-12.957,0-22.051c-0.684-4.718-4.307-18.837-7.008-22.016
	c-2.496-2.906-7.18-3.692-9.025-7.008c-7.316-13.196-4.957-34.7-11.008-45.059c-1.914-3.316-5.471-5.538-7.008-9.025
	c-3.863-8.684-2.941-22.939-10.018-30.05c-4.922-4.923-12.137-8.82-17.025-15.042c-5.572-7.008-8.342-19.896-12.033-28.033
	c-2.256-4.991-8.273-16.479-11.008-21.025c-15.521-25.879-38.564-42.187-66.119-54.083c-12.102-5.231-41.844-3.316-56.066-4
	c-31.451-1.572-63.689-5.025-95.176-5.025c-8.512,0-19.794-0.171-28.033,1.026c-10.871,1.538-23.384,9.333-34.05,11.999
	c-11.384,2.838-27.179-0.41-36.067,2.018c-6.906,1.88-17.059,18.598-24.033,24.033c-12,9.333-28.546,14.529-40.067,24.033
	c-1.606,1.333-23.76,38.085-24.033,40.067c-1.026,7.111,0.991,15.248,0.991,22.017c0,9.88-0.103,13.06-8.991,16.034
	c0.787,2.427-0.991,5.504-3.008,7.008c-2.085,1.573-4.171,3.18-6.017,5.026c-1.982,1.982-4.308,3.726-6.017,5.982
	c-1.607,2.154-4,4.342-4,7.042c0,1.367,0.034,3.008,0.991,4c0.855,0.854,1.47,1.914,2.017,3.008c0.547,1.06,1.163,2.154,2.017,2.974
	c0.718,0.752,0.991,1.949,0.991,3.009c0,1.504-2.017,2.53-2.017,4.034c0,1.675-0.445,3.384-0.992,4.991
	c-1.128,3.418-2.53,6.735-4,10.017c-1.299,2.872-4.034,5.025-5.025,8c-0.991,3.008-3.008,5.846-3.008,9.025
	c0,2.427,0.923,4.82,2.017,7.008s2.017,4.581,2.017,7.008c0,4.82-10.598,23.623-14.017,27.042
	c0.752,3.829,2.975,15.658,2.975,19.042c0,13.504-4.547,21.367-17.025,27.042c-8.512,3.863-21.025,9.265-21.025,22.017
	c0,5.709,5.025,16.068,8.034,21.059c-2.53,2.496-5.539,4.479-8.034,7.009c-2.222,2.222-4.991,4.854-4.991,8
	c0,8.205,4.376,9.47,7.008,16.034c3.042,7.658,4.684,11.795,8.991,19.042c4.923,8.136,7.145,9.025,16.034,12
	c-6.564,6.564-8.889,10.461-14.017,19.042c-3.248,5.402-5.915,16.684-8,23.042c-12.991-4.342-18.598-12.307-30.05-18.05
	c-22.495-11.248-46.289-22.358-67.109-37.059l-61.092-43.075c-4.615-3.214-9.88-9.846-14.017-14.017
	c-5.573-5.538-7.111-9.436-15.042-11.008l-4.991,2.017c0,30.222,7.282,53.024,24.034,78.118
	c14.734,22.119,23.965,40.683,44.067,59.075c8.102,7.452,19.965,15.999,29.025,23.042c4.752,3.692,12.205,7.281,17.025,11.008
	c3.316,2.564,9.675,8.957,13.025,11.043c12.957,7.965,27.726,15.11,39.076,25.024c2.667,2.324,10.188,27.418,13.025,33.059
	c9.162,18.324,26.495,28.17,29.024,51.076c2.188,1.094,4.581,2.017,7.008,2.017c2.564,0,4.992-1.504,7.042-3.009
	c2.291-1.743,4.274-4.102,7.009-5.025c-0.752,5.196-8.854,29.88-12.034,33.06c-4.82,4.819-8.752,3.76-15.008,5.024
	c-5.094,0.992-11.658,4.924-17.025,5.983c-1.812-5.367-11.042-16.82-11.042-20.034c0-1.196,1.163-2.153,2.017-3.008
	c0.65-0.649,1.333-1.334,1.983-1.983c1.504-1.504,2.017-3.897,2.017-6.017c0-11.555-15.453-22.017-26.05-22.017
	c-2.599,0-13.606,7.658-15.008,10.018c-2.154,3.555-5.025,16.102-5.025,19.999c0,10.666,3.589,30.016,9.025,39.075
	c-3.556,1.197-7.385,2.359-10.017,5.026c-2.188,2.153-3.214,5.709-6.017,7.008c-3.966,1.778-9.025-0.786-13.025,0.991
	c-6.256,2.77-8.889,5.642-16,8l-9.025,3.009c-2.667,0.889-3.624,4.512-6.017,6.017c-4,2.496-9.709,0.068-14.017,2.017
	c-10.837,4.787-19.281,13.436-32.033,16c-9.196,1.846-10.256,4.479-18.051,8.034c-2.974,1.333-6.188,2.29-8.991,4
	c-2.667,1.572-3.385,5.401-6.018,7.008c-8.717,5.299-21.469,9.675-31.042,14.017c-4.649,2.12-10.632,4.82-15.042,7.009
	c-3.863,1.948-8,8.889-8,13.025c0,2.529,11.042,33.229,13.025,35.041c7.487,6.872,17.436,13.606,24.034,22.051
	c4,5.128,5.846,8.444,11.008,13.025c2.906,2.563,7.042,3.453,10.017,6.017c9.094,7.761,17.401,14.153,28.034,20.034
	c14.427,7.931,33.708,11.999,50.083,11.999c34.358,0,66.221-13.333,98.151-23.042c14.119-4.308,39.042-20.17,46.084-33.059
	c5.743-10.529,8-28.272,8-40.033c0-12.443-0.923-18.871-6.017-30.05c-3.795-8.41-8.991-15.692-14.017-24.034
	c16.786-2.427,37.812-9.606,54.084-15.042c5.06-1.675,12.957-5.641,17.025-7.008l66.118-22.051
	c13.367,10.7,23.281,28.614,34.05,42.084c11.008,13.777,32.854,19.042,50.084,19.042c16,0,33.092-1.777,49.059-3.009
	c12.58-0.991,27.145,1.163,39.074-3.008c10.119-3.556,16.684-9.196,25.025-15.042c6.119-4.273,14.256-7.521,20.033-12
	c7.898-6.119,14.871-10.871,22.051-18.051c35.932,16.581,74.631,29.811,113.193,40.067c-1.094,5.367-5.162,11.315-7.043,16.033
	c-5.504,13.812-8.99,32.272-8.99,47.076c0,8.923,1.266,16.819,4.99,25.024c1.471,3.248,5.197,4.991,7.01,8.034
	c2.016,3.351,1.605,7.932,4.033,11.008c3.42,4.41,27.111,18.222,33.025,21.025c14.221,6.734,31.896,9.846,47.074,12.033
	c16.172,2.291,30.119,7.009,47.076,7.009c35.896,0,67.725-11.623,93.16-37.059c4.17-4.205,15.145-14.7,18.016-19.042
	c1.676-2.462,1.916-5.881,4-8c2.053-2.051,3.557-4.547,5.025-7.009c3.385-5.675,4.615-10.358,8-16.033
	c4.342-7.214,12.035-27.794,12.035-36.067C1025.611,760.122,1016.961,755.883,1014.602,755.199z M771.191,463.755
	c19.076-10.905,38.494-22.358,57.092-34.05c6.564-4.137,13.4-6.701,20.033-10.017c16.41-8.239,35.008-19.862,51.076-29.059
	c7.555-4.308,15.314-12.034,24.033-16.034l22.051-10.017c-2.838,34.119-12.957,47.076-32.033,73.126
	c-13.266,18.051-32.957,39.759-51.109,53.092c-41.982,30.803-86.973,56.477-131.211,84.135c-1.709-12.068-2.975-20.752-2.975-33.06
	v-11.008c0-3.487,0.514-7.556,2.975-10.017c7.967,0,20.17-6.906,27.076-11.043c8.41-5.06,17.813-10.563,26.018-15.999
	c7.213-4.82,13.332-7.521,21.023-11.042c9.813-4.444,20.479-12.547,30.051-18.017c11.076-6.325,23.008-12.137,34.051-19.043
	l16.033-10.017c2.324-1.436,12.033-7.589,12.033-11.008c0-3.009-1.094-2.735-2.016-4.992l-166.252,94.151
	c1.402-7.008-0.068-12.717,0.992-19.042c1.299-7.726,2.598-11.18,9.025-15.042C749.242,473.703,760.592,469.807,771.191,463.755z
	 M772.217,381.604c-1.881,13.025-4.582,38.324-11.043,49.092c-4.855,8.137-25.264,25.265-33.025,33.059
	c-26.084-4.752-49.16-27.042-77.125-27.042c-17.641,0-21.025,13.641-21.025,29.025c0,7.829,0.514,11.589,2.975,19.042
	c1.881,5.606,5.025,11.11,5.025,17.024c0,3.761-5.676,5.061-8,8c-2.461,3.077-4.033,7.111-4.033,11.043
	c-4.068-2.462-14.564-8.034-19.008-8.034c-1.402,0-2.701,0.581-4.035,1.025c-1.127,0.376-1.914,1.437-2.975,1.983
	c-1.094,0.547-2.152,1.162-3.008,2.017s-1.813,1.983-3.008,1.983c-1.506,0-2.6-1.539-4-1.983c-1.367-0.444-1.813-2.29-3.01-3.009
	c-2.939-1.743-6.631-2.017-10.016-2.017c-3.863,0-11.316,4.308-14.018,7.009c-1.059-2.12-3.965-2.872-5.025-4.992
	c-0.99-2.017-3.76-3.008-6.016-3.008c-1.471,0-2.941,0.957-4,2.017c-0.855,0.821-2.154,1.129-3.01,1.983
	c-7.316-7.316-10.393-9.538-21.023-6.018c-1.096-2.153-1.711-5.23-4-5.982c-1.949-0.649-4-1.025-6.018-1.025
	c-2.667,0-6.359,3.111-9.026,4c-2.94-5.88-4.444-8.991-12.991-8.991c-1.573,0-10.325,5.846-12.034,7.008
	c-2.633-7.862-6.359-10.017-15.008-10.017c-2.051,0-4.103,0.342-6.017,0.991c-1.436,0.479-2.53,2.018-4,2.018
	c-1.23,0-2.632-0.854-3.008-2.018c-0.41-1.128-1.162-2.153-2.017-3.008c-0.854-0.854-0.854-2.633-2.017-3.009
	c-0.991-0.308-1.948-0.991-2.974-0.991c-2.974,0-7.897,1.948-11.042,3.008c4.376-13.059,11.555-8.614,16.034-22.05
	c-4.854-4.854-27.486-25.025-34.05-25.025c-5.025,0-7.658,3.658-13.025,5.025l9.025-49.092c4.034,2.701,6.529,5.538,10.017,9.025
	c1.504,1.504,3.487,2.496,4.991,4c1.333,1.333,2.12,4,4,4c3.282,0,11.077-5.436,15.042-7.008c5.572-2.222,12.341-5.436,18.017-8
	c8.341-3.795,25.845-9.812,32.067-16.034c12.82-12.854,18.017-60.443,18.017-78.117c0-6.051,0.342-11.077-0.992-17.025
	c-0.684-3.008-0.649-6.291-2.017-9.025c-1.196-2.427-2.803-4.615-4-7.008c-13.298-4.444-35.896-4.444-47.075-10.017
	c-6.427,1.299-15.76-0.479-23.042,0c-12.923,0.854-27.042,8-38.05,8c0-11.829,4.342-18.085,8-29.025c3.351,0,6.872,1.026,10.017,0
	c3.145-1.06,6.017-2.667,9.025-4.034c5.128-2.324,12.546-4.17,18.017-5.982c12.751-4.273,25.606-5.88,38.084-10.017
	c8.376,8.375,21.504,14.7,32.034,21.025c4.58,2.735,10.838,5.88,15.043,9.025c1.641,1.231,11.725,8.992,11.998,10.017
	c1.164,4.513-0.375,9.333,0,14.017c1.025,12.41,4.342,21.435,7.01,33.059c1.059,4.581,0.648,9.47,2.016,14.017
	c2.291,7.658,9.676,18.905,14.018,26.017c19.314,31.657,31.486,48.101,72.1,48.101c19.281,0,40.922-5.436,58.119-14.017
	c-0.992,1.88-1.025,7.727-1.025,10.017l10.016,4.991c-1.059,2.153-2.939,3.863-4,6.017c-1.094,2.153-2.018,4.581-2.018,7.008
	c0,2.837,8.342,17.025,11.043,17.025c1.025,0,1.949-0.991,3.01-0.991c1.469,0,2.598-1.47,3.998-2.017
	c2.189-0.889,2.873-3.966,4.992-4.992c-1.197-2.427-2.803-4.615-4-7.042c-1.129-2.257-3.008-4.444-3.008-7.009
	c0-2.017,5.127-9.401,6.016-12.991c-5.162-5.162-5.914-4.957-12.033-8.034c7.453-22.324,23.385-41.708,34.051-63.109
	c1.846,0.923,4,1.025,6.016,1.025c2.258,0,4,1.983,6.018,3.008c-3.111,9.299-4.99,19.145-4.99,29.025
	C748.184,364.168,766.541,378.219,772.217,381.604z M548.838,528.848c3.385,1.128,6.189,3.965,8.035,7.008
	c1.605,2.701,1.982,6.017,3.008,9.025l3.008-1.025l-1.025,22.051c-1.162,2.324-5.881,3.008-8,3.008
	c-2.289,0-6.768-2.256-9.025-3.008c-0.785-3.146-1.982-10.975-1.982-14.017c0-4.239,0.684-9.401,4-12.034
	C549.762,537.531,550.035,532.402,548.838,528.848z M547.848,609.974c1.742-0.445,1.914-0.992,4-0.992
	c2.084,0,16.135,0.787,17.025,0.992c4.854,1.06,6.016,11.35,6.016,15.008c0,6.188-0.992,13.401-0.992,20.033
	c-4.135,0-8.785-0.41-12.033-2.975c-3.043-2.461-3.828-6.803-5.982-10.017h-6.018c-0.922-3.691-3.008-11.657-3.008-15.042
	C546.855,614.383,547.848,613.289,547.848,609.974z M571.881,562.897v-9.025c0-8.82,2.119-19.281,1.025-27.042
	c4.205,0.854,10.734,4.308,14.016,7.008c5.23,4.377,1.779,7.146,4,13.025c1.471,3.966,4,7.795,4,12.034
	c0,2.359-2.701,4.547-4.99,4.991c-2.975,0.615-6.018,1.026-9.025,1.026C577.828,564.915,571.881,565.291,571.881,562.897z
	 M590.922,600.947h16.035c2.904,4.41,4,7.351,4,13.025c0,6.257-11.488,18.051-17.025,18.051c-2.668,0-6.018-4.854-6.018-7.042
	C587.914,618.075,588.734,607.546,590.922,600.947z M604.939,546.863c-0.992-3.008-2.018-5.982-3.008-8.99
	c4.033-4.068,4.033-4.958,2.016-11.043c6.529,3.932,10.086,6.428,16.035,11.043c2.426,1.88,4.82,3.828,7.008,5.982
	c2.223,2.256,3.008,5.846,3.008,9.025c0,3.486-6.598,3.486-10.016,3.009c-3.146-0.445-6.154-1.71-9.025-3.009
	C608.357,551.719,605.828,549.564,604.939,546.863z M632.973,592.947c4,0,6.393,0.992,10.018,0.992
	c0.375,2.119,1.025,3.453,1.025,6.017c0,6.632-0.104,23.042-9.025,23.042c-2.701,0-5.402-1.846-7.01-4
	c-1.709-2.324-3.418-4.615-5.025-7.008c-1.4-2.12-1.367-13.88-1.982-17.025C622.955,594.452,630.955,592.947,632.973,592.947z
	 M639.98,548.881c0-10.632-1.982-21.265-1.982-32.067c3.965,11.966,8,18.769,8,32.067H639.98z M532.838,549.872
	c0.445,2.325,0.992,4.649,0.992,7.009c0,3.863-0.787,9.025-6.018,9.025c-4.615,0-8.955-0.991-14.016-0.991
	c9.264-15.487,7.691-26.119,13.025-42.085c1.914,0.958,4.033,2.086,4.99,4c1.025,2.018,3.01,3.795,3.01,6.018
	c0,1.812-1.436,3.315-1.984,5.025c-0.58,1.675-2.016,3.213-2.016,4.991C530.822,545.291,532.359,547.479,532.838,549.872z
	 M504.771,560.881h-8c2.393-12.034,7.829-33.777,14.017-44.067c0.821,4.171,3.009,12,3.009,16.034
	C513.797,546.077,511.301,550.043,504.771,560.881z M510.788,602.965c2.154-0.376,3.933-0.991,6.017-0.991
	c3.727,0,8.104,1.777,10.018,4.991c1.949,3.281,2.154,7.315,3.008,11.008c1.949,8.547,4.24,15.727,7.01,24.067
	c-13.744-1.982-19.01-2.871-21.025-17.059h-7.009C509.899,617.118,510.788,611.067,510.788,602.965z M486.755,554.897
	c-3.795,3.248-10.017,0.992-15.008,0.992c5.572-9.3,7.589-15.829,11.008-26.051c1.06-3.214,1.983-6.599,1.983-10.017
	c0-3.146,1.88-8,5.025-8c3.863,0,4.991,7.487,4.991,10.017C494.754,529.086,492.737,549.77,486.755,554.897z M494.754,633.015
	c-8.068,4.034-10.085,2.906-16-3.008c-4.513-4.513-6.017-9.504-6.017-16.034c0-4.786,0.821-17.024,7.009-17.024
	c1.777,0,9.436,3.965,11.008,5.025C492.361,613.221,491.028,621.768,494.754,633.015z M421.663,541.872
	c0-3.999-0.513-8.034,0-12.033c0.479-4,3.316-7.351,4.991-11.009c1.368-3.008,2.325-6.188,4-9.025
	c1.709-2.837,3.727-7.008,7.042-7.008c3.145,0,8,7.453,8,10.017c0,3.282-2.975,5.914-4,9.025c-1.504,4.479-2.564,9.47-7.008,11.999
	C430.346,536.334,426.107,539.65,421.663,541.872z M430.654,589.939c0,8.342-4.923,25.982-11.008,32.067
	c-5.299-2.667-8-6.393-8-13.025c0-5.367,2.701-27.042,11.008-27.042C427.133,581.939,430.654,585.461,430.654,589.939z
	 M444.705,596.948c0.923-1.402,2.325-3.009,4-3.009c8.171,0,11.008,3.009,11.008,11.042c0,5.948,0.991,12.479,0.991,18.017
	c0,2.94,0.308,4-3.008,4c-4.034,0-8.786-6.803-10.017-10.017c-0.957-2.564-1.982-5.265-1.982-8c0-2.256-0.992-5.025-3.009-6.017
	C443.645,601.084,443.508,598.726,444.705,596.948z M450.688,544.881c-0.958-0.991-0.992-2.632-0.992-4v-4.034
	c0-12.308,3.966-19.965,10.017-30.05c4.615,1.162,8.615,2.358,10.017,8.033c0.649,2.599,0.479,5.368,0.992,8
	c0.376,1.914,3.008,3.077,3.008,5.025c0,5.334-4.752,19.008-12,19.008C459.097,546.863,453.115,545.667,450.688,544.881z
	 M344.537,636.023c-8.957,12.273-48.443,23.555-63.109,25.025c4.957-19.829,18.324-44.443,20.034-64.101
	c1.47-16.82-1.333-35.657,0.992-52.067c3.248-22.563,6.393-29.641,18.051-49.093c3.282,9.915,6.461,19.18,11.008,29.06
	c4.752,10.256,12.205,17.641,16.034,29.024c4.581,13.812,6.017,17.982,6.017,33.059c0,16.034-4.444,20.889-7.042,35.076
	C345.699,626.622,347.306,632.194,344.537,636.023z M315.478,430.696c-5.47-10.188-8.786-26.563-14.017-38.05
	c-3.555-7.829-2.906-4.136-9.025-9.025c-2.598-2.085-5.982-4.684-5.982-8c0-2.051,10.461-12.034,13.025-12.034
	c1.914,0,11.11,3.214,12.991,4c2.085,0.889,4.034,2.017,6.017,3.009c1.88,0.957,3.897,2.017,6.017,2.017
	c1.368,0,3.043-0.034,4-1.026c0.855-0.854,2.154-1.128,3.009-1.983c5.128,5.094,6.734,4.854,13.025,8
	c-0.82,4.069-5.025,12.342-5.025,15.042c0,5.299,10.94,25.846,14.051,31.042c0.855-1.744,2.12-3.282,2.974-5.025
	c1.06-2.085,1.026-4.65,1.026-7.008c0-3.419-2.085-7.248-5.025-8.991c-3.077-1.881-4-6.428-4-10.017
	c0-3.077,1.402-6.017,2.017-9.025c0.513-2.701,1.983-5.265,1.983-8c0-3.556-3.829-6.427-7.008-8.034l-6.017-3.008
	c-1.915-0.957-3.042-3.077-4-4.991c3.863-3.863,4-5.094,4-11.008c0-12.136-2.12-16.136-11.008-23.042
	c-4.308-3.384-5.983-4-10.017-8.034c-3.146-3.145-3.009-8.546-3.009-13.025c12.171-4.034,14.188-5.88,22.051-15.999
	c5.504-7.077,11.316-15.111,18.017-21.025c8.034-7.145,32.819-19.589,43.076-21.059c-4.752,14.222-6.017,14.735-6.017,31.042
	c-9.743,5.846-19.623,8.649-31.042,7.042c0,1.915-2.017,5.812-2.017,10.017c0,3.453,2.701,6.53,3.008,9.982
	c0.718,7.829-0.479,15.418-0.991,23.042c-0.752,11.111,2.051,20.683,4.991,31.076c1.333,4.581,2.256,9.265,4.034,14.017
	c1.265,3.384,4.854,9.538,8,12c2.325,1.812,20.273,8.444,25.025,10.017c1.812,3.556,2.017,0.171,2.017,6.017
	c0,4.376-4.068,21.127-4.991,26.05l-5.025,26.017c-7.18,2.393-15.384,4.033-23.042,4.033
	C353.801,456.746,324.948,448.234,315.478,430.696z M762.199,310.495c-1.881,3.111-3.453,6.461-6.018,9.025
	c-29.502-18.769-55.109-44.545-90.15-54.083c-11.623-3.18-25.059-4.205-37.059-5.026c-11.521-0.752-27.727-1.709-39.041-0.992
	c-9.641,0.616-20.582,1.505-30.051,0c-4.648-0.717-18.906-11.794-23.041-15.008c-8.344-6.495-14.805-12.513-24.035-18.051
	c47.794,0,96.613,7.214,144.236,14.017c8.135,1.197,18.152,2.223,26.016,4.034c5.949,1.368,12.102,4.615,18.051,5.983
	c10.529,2.461,21.947,3.692,32.033,8.034c13.811,5.914,31.041,26.119,31.041,41.058
	C764.182,303.213,764.113,307.315,762.199,310.495z M338.52,104.176c4.513-9.914,7.76-9.777,14.017-16.033
	c4.102-4.068,4.41-9.436,10.017-14.017c10.188-8.308,24.751-10.735,35.076-21.025c3.829-3.863,13.675-19.521,17.025-21.025
	c8.513-3.897,27.486,0.992,38.05-2.017c4.718-1.367,10.7-5.299,15.008-7.008c15.111-6.051,31.008-7.008,47.077-7.008
	c13.537,0,28.477,2.085,42.084,3.008c15.965,1.06,31.965,0.376,48.066,1.983c13.436,1.368,27.486,1.983,41.059,3.009
	c11.043,0.854,28.854,8.683,38.084,15.042c7.316,5.06,12.717,10.701,19.008,17.025c6.188,6.188,8.684,13.812,13.025,21.025
	c8.307,13.846,13.025,30.836,21.025,45.058c9.025,16.034,19.486,8.103,23.041,33.059c-4.547,0.649-16.613,6.017-19.041,6.017
	c-10.529,0-20.033-14.427-33.025-17.025c1.299,3.965,2.359,4.068,4,9.025l1.982-2.017c2.668,13.333,20.82,23.042,33.059,23.042
	h5.027c1.367,0,2.768-0.376,3.998-0.992c2.154-1.094,4.582-2.017,7.01-2.017c2.871,0,6.084,2.291,7.008,4.991
	c0.957,2.94,1.402,6.017,2.018,9.026c1.23,6.222,1.605,13.025,3.008,19.042c1.094,4.889,3.896,13.06,7.008,17.025
	c3.01,3.863,12,7.385,12,12c0,2.359-4.684,0.547-7.008,1.025c-1.777,0.342-3.385,1.197-4.992,1.983c2.189,6.667,12,32.648,12,38.084
	c0,6.769-10.803,17.367-13.025,24.033c-1.4,4.239-2.291,9.47-4,14.017c-2.051,5.47-4.957,8.957-9.025,13.025h-1.982
	c4.82-8.068,9.025-18.495,9.025-28.067c0-15.556-27.418-49.469-42.084-54.084c-22.188-6.974-53.502-17.504-76.1-20.034
	c-19.043-2.085-39.145-3.487-58.119-5.982c-34.666-4.65-65.809-7.008-101.159-7.008c-1.333,0-3.042-0.958-4,0
	c-0.855,0.82-1.812,1.982-3.009,1.982c-3.726,0-6.667-3.351-10.017-4.991c-2.974-1.504-7.897-5.162-11.008-7.008
	c-5.504-3.316-11.248-4.308-16.034-8.034c-13.914-10.804-28.238-15.146-43.076-24.034c23.384-10.393,40.854-32.375,63.109-46.084
	c7.179-4.41,19.418-4.547,28.067-5.982c3.932-0.684,8.034-0.444,12-1.025c3.59-0.513,9.025-2.393,9.025-5.983
	c0-2.154-3.932-4.034-5.025-4.034c-4.273,0-16.991,1.163-23.042,2.017c-4.854,0.684-18.222,2.12-22.017,3.008
	c-4.991,1.163-18.153,12.649-24.033,16.034c-11.829,6.735-17.504,11.487-27.042,21.025c-5.606,5.606-20.034,14.017-28.067,14.017
	c-3.146,0-5.983-2.017-8.991-3.009c-2.837-0.957-5.299-2.769-8.034-4c-12.444-5.675-29.708-8.205-41.059-15.008
	C339.921,126.021,333.973,114.159,338.52,104.176z M262.419,395.655c-3.521-5.846-12.034-21.572-12.034-28.068
	c0-1.948,1.915-3.385,3.008-4.991c0.923-1.401,2.804-1.846,4-3.008c1.333-1.333,2.974-2.427,4-4
	c0.923-1.401,3.008-2.359,3.008-4.034c0-2.086-0.513-4.513-1.983-5.983c-1.368-1.333-3.179-2.324-4.034-4.034
	c-1.846-3.692-3.008-7.863-3.008-12c0-1.47,7.555-10.974,9.025-12.034c4.034-2.872,9.265-5.094,13.025-8
	c4.718-3.692,17.025-19.589,17.025-25.025c0-2.461-1.539-4.649-2.017-7.042c-0.444-2.291-0.991-4.649-0.991-7.008
	c0-3.146,1.846-6.051,3.008-8.991c1.06-2.667,1.744-5.47,3.008-8.034c1.333-2.667,2.906-5.23,4-8c1.06-2.667,3.008-5.162,3.008-8
	c0-3.042-0.41-6.051-0.991-9.025c-0.479-2.393-2.017-4.581-2.017-7.008c0-3.829,8.239-20.751,10.017-26.051
	c3.384,2.257,6.256,5.402,10.017,7.009c2.222,0.957,4.615,2.496,7.008,2.017c1.675-0.342,3.487-0.239,5.025-0.992v-4.034
	l-14.051-11.008c-3.521-2.769-8.991-10.393-8.991-15.008c0-2.154,2.496-3.521,4-5.025s2.632-3.351,4-4.992
	c2.051-2.461,8.341-7.35,11.008-10.016c14.427,2.051,30.084,11.35,44.101,15.999c-10.667,10.667-24.478,24.239-38.084,31.076
	c2.256,4.479,0,1.709,0,5.983c4.82,0,5.197,2.017,10.017,2.017c6.085,0,8.889-2.974,15.042-4.991
	c5.573-1.88,8.889-3.692,14.017-6.017c5.163-2.359,9.299-4.581,13.025-9.025c1.504-1.812,7.555-8,10.017-8
	c7.863,0,62.528,33.059,72.101,39.042c-13.128,4.375-27.521,5.88-41.059,9.025c-7.726,1.778-16.307,5.607-24.033,7.008
	c-4.616,0.821-9.539-1.299-14.017,0c-1.846,0.513-2.325,3.146-4.034,4c-1.88,0.958-4.068,1.163-5.983,2.017
	c-3.59,1.539-6.701,4-10.017,6.017c-7.556,4.513-25.777,11.726-32.067,18.017c-6.427,6.427-10.085,15.862-18.017,22.016
	c-3.727,2.906-8.923,5.675-13.025,8.034c-5.948,3.384-7.008,4.581-7.008,12c0,4.684,0.479,9.367,0.991,14.051
	c1.163,10.496,0.308,5.812,7.008,11.008c7.487,5.813,13.982,10.872,17.025,20.034c-3.59-1.231-7.351-1.983-11.008-3.008
	c-3.761-1.094-6.119-6.017-10.017-6.017c-4.752,0-16.786,13.846-20.033,18.017c-2.735,3.555-7.111,6.563-10.017,10.017
	c-3.829,4.615-4.992,6.667-4.992,13.025c0,1.812,0.718,3.726,1.983,5.025c1.025,0.991,2.017,1.983,3.009,3.008l-0.992,3.009H262.419
	z M227.344,498.797c-3.18,6.975-5.538,16.581-8,24.033l-48.067-30.05c-3.213-1.983-5.162-5.538-8.034-8
	c-3.897-3.351-10.837-5.777-15.008-9.025c-4.479-3.453-8.308-7.316-13.025-11.008c-13.402-10.428-21.196-19.419-31.042-33.059
	c-19.931-27.589-32.854-53.229-41.093-86.118c21.094,21.06,47.555,39.315,72.135,56.067c17.572,12,37.913,22.734,57.092,33.059
	c5.436,2.94,47.076,27.076,47.076,31.042c0,3.828-2.564,13.436-4,17.025C233.429,487.618,229.532,493.977,227.344,498.797z
	 M272.436,602.965c-4.513-13.47-14.495-24.033-23.042-35.042c-9.299-11.931-13.025-23.931-13.025-39.075
	c0-23.076,12.922-35.727,18.017-56.102c2.837-11.315,2.188-22.563,6.017-34.05c3.727-11.179,9.743-21.88,20.034-28.034
	c0,12.547-1.812,26.393-7.008,38.05c-1.641,3.692-5.026,6.974-5.026,11.042c0,2.052,0.616,3.009,1.026,4.992
	c3.077,0,6.837,0.171,8.991-2.018c1.709-1.675,2.735-4,4-5.983l9.025-14.05c4.889,8.136,6.017,15.521,6.017,25.059
	s-0.991,19.247-0.991,29.025c0,11.452-8.991,30.768-11.042,43.075c-1.778,10.666-1.709,24.375-0.991,35.076
	C285.461,590.35,286.009,594.828,272.436,602.965z M246.386,667.065c2.154-1.094,13.743-4.547,16.034-5.025
	c0,2.051-1.675,4.103-1.025,6.017c0.479,1.437,0.957,2.975,2.017,4c-12.307,4.103-19.145,7.658-21.025,21.06h-1.025
	c0-4.103-1.983-9.47-1.983-13.025C239.377,676.604,243.001,668.74,246.386,667.065z M98.151,851.367
	c-13.094-4.376-14.598-8.718-25.059-16.033c-7.008-4.923-16-12-22.016-18.051c3.521-1.162,6.427-3.966,10.017-4.991
	c4.273-1.23,9.196-0.718,13.025-3.009c3.248-1.948,4.889-5.846,7.008-9.025c2.223-3.351,7.556-2.906,11.009-4.991
	c9.812-5.88,20.272-8.991,31.042-13.025c1.846-0.684,3.282-2.119,5.025-3.009c1.675-0.854,2.256-3.315,4-3.999
	c2.803-1.129,6.325,0.342,9.025-0.992c3.453-1.743,6.12-5.572,10.017-6.017c4.41-0.479,9.196-0.718,12.991-3.009
	c7.35-4.41,24.102-8.614,33.059-11.008c3.76-1.025,6.256-5.06,10.017-6.017c3.692-0.924,7.863-0.889,11.008-3.009l21.059,23.042
	c6.53,7.146,13.025,16.889,13.025,27.042c0,2.394-10.051,20.067-12.034,22.017c-3.111,3.111-11.931,6.666-16.034,8.034
	c-13.606,4.547-28.785,6.188-42.05,11.999c-9.367,4.103-16.375,11.146-25.059,14.051c-8.41,2.804-18.939,4-29.025,4
	C117.261,855.367,108.578,854.82,98.151,851.367z M134.218,867.367v-0.991l10.017,0.991H134.218z M275.411,759.199
	c3.384,7.453,5.025,19.931,5.025,28.067c0,30.734-23.179,48.99-50.084,57.093c-14.119,4.205-26.153,9.572-41.059,12.991
	c-3.214,0.752-5.812,3.384-9.025,4.033c-6.769,1.334-28.443,5.983-34.05,5.983c-0.752,0-1.333-0.649-1.983-0.991v-0.992
	c6.564-0.957,13.914-1.265,20-4c10.837-4.923,17.846-13.982,30.05-18.05c10.017-3.316,21.538-4.513,32.067-8
	c12.273-4.103,19.042-9.025,28.034-18.051c1.607,0.82,3.213,2.017,5.025,2.017c1.88,0,3.248-2.256,4-4
	c0.958-2.256,1.504-4.649,1.983-7.008c0.479-2.325-0.991-4.649-0.991-7.009c0-6.495-1.47-15.965-4.991-22.051
	c-3.727-6.393-37.503-45.058-43.076-45.058c-3.316,0-5.539,1.025-7.008,3.999c-15.316-3.076-12,8-18.051,8
	c-1.196,0-1.846-1.606-2.974-1.982c-1.333-0.444-2.633-0.991-4.034-0.991c-5.641,0-8.991,4.923-10.017,9.982
	c-1.504,0.513-0.821,1.025-2.975,1.025c-1.23,0-1.88-1.641-3.008-2.017c-1.025-0.342-1.949-0.992-3.008-0.992
	c-3.556,0-9.367,5.676-11.042,9.025c-1.026-1.06-2.564-1.538-4-2.017c-1.299-0.444-2.632-0.991-4-0.991
	c-2.769,0-6.051,0.034-8,1.982s-2.018,5.265-2.018,8.034c-9.436-3.146-13.88-2.428-17.025,7.008
	c-4.205-1.401-3.897-3.008-9.025-3.008c-1.06,0-8.273,3.282-8.991,4l0.992,7.008c-1.812-0.581-9.709-3.009-11.008-3.009
	c-0.923,0-6.496,2.257-8.034,3.009v7.009c-3.795-1.266-8.854-1.505-12,0.991c-3.316,2.667-2.974,7.932-4,12.034
	c-2.256-0.753-6.734-3.009-9.025-3.009c-3.76,0-6.974,4.854-8,9.025c-1.231-0.41-8.889-4-9.025-4c-3.556,0-6.017,4.752-6.017,8
	c-7.179-7.18-9.675-9.538-13.025-20.034l-7.008-22.016c7.794-4.685,9.777-4.718,19.042-6.018c1.778-3.59,1.983-0.171,1.983-6.017
	c3.692,0,7.35,0.991,11.042,0.991c3.589,0,7.008-2.018,10.017-4l-2.017-6.017c3.658,0,7.384,0.615,11.008,0
	c3.008-0.479,4.034-9.06,4.034-11.009c7.829,2.633,13.025,4.308,18.016-3.999l-3.008-3.009c0.889-0.171,4.581-0.991,4.991-0.991
	c1.812,0,3.316,1.436,5.026,1.982c0.991,0.342,1.949,1.025,3.008,1.025c2.598,0,8.649-3.452,11.008-5.025l-1.983-4.991
	c1.539-1.06,12.205-2.017,12.991-2.017c5.026,0,8.034-2.94,8.034-8c4,0,8.205,0.239,12-1.025c1.949-0.615,4.581,0.444,6.017-0.991
	c1.812-1.813,1.88-4.753,3.008-7.009c4.205,1.06,8.889,2.359,13.025,0.991c2.017-0.684,3.487-2.496,4.992-4
	c1.606-1.572,1.025-4.991,3.008-6.017c5.299,0,13.914,2.462,18.051,2.018c2.325-0.274,3.932-2.906,4.991-5.026
	c1.196-2.393,0-5.333,0-8h2.017c8.17,8.205,8.068,7.146,13.025,18.018c3.624,8.067,7.556,11.35,16,13.024
	c-8.683-26.084-29.024-45.263-29.024-74.117c0-10.974,3.863-26.016,18.017-26.016c3.384,0,7.008,3.726,7.008,7.008
	c0,2.667-2.12,5.094-4,7.009c-0.854,0.82-2.154,1.128-3.008,1.982c-0.855,0.854-2.017,1.812-2.017,3.009
	c0,2.427,1.88,4.923,4.034,6.017c2.325,1.162,4.444,2.906,5.983,4.991c3.795,5.06,5.06,11.145,7.008,17.025
	c-6.119,6.153-8,11.281-8,20.033c0,21.743,17.162,53.093,41.059,53.093c2.256,3.351,2.427,7.932,5.025,11.008
	C269.838,750.276,273.154,754.174,275.411,759.199z M304.469,711.133l-44.067,12.033l-10.017-11.042v-1.983h-0.991l-1.026-3.008
	c-2.222-1.129-2.974-3.214-2.974-6.018c2.222,1.129,2.974,3.214,2.974,6.018h1.026l0.991,3.008h0.991c2.291,2.257,5.265,4,9.025,4
	c3.214,0,10.017,0.034,10.017-6.017c0-1.538-8.103-14.563-9.025-21.025c12.649-7.589,31.179-10.222,45.093-16.033
	c5.743-2.394,9.606-7.385,14.017-10.017c9.572-5.744,21.503-9.71,32.033-16.034c3.282,4.957,3.521,6.53,8.034,11.043
	c9.23,9.229,0.958,0.957,7.008,11.008c2.325,3.897,18.358,8.342,25.025,15.008C362.314,690.347,334.144,703.03,304.469,711.133z
	 M421.663,678.073l-34.05-20.033c-2.222-1.265-19.315-22.153-21.059-25.025c0.854-0.854,2.154-1.162,3.008-2.017
	c0.752-0.752,1.026-1.948,1.026-3.009c-1.915-0.923-3.966-1.47-6.017-1.982c-1.641-0.41-3.008-2.359-3.008-4
	c0-7.315,3.453-12.308,4.991-19.042c1.744-7.521,3.008-13.299,3.008-21.025c0-18.563-4.547-37.298-14.017-53.092
	c-4.103-6.838-9.641-13.743-14.017-21.025c-3.59-5.982-8-16.067-8-23.042c0-5.846,2.085-12.205,4.992-17.025
	c16.478,5.504,21.572,6.496,39.076,4c-3.419,5.709-7.008,12-7.008,19.042c0,3.146,1.812,6.051,3.008,8.991
	c1.025,2.667,2.974,5.162,2.974,8.034c0,6.324-2.325,10.427-2.974,17.025c-0.479,4.443-1.025,11.691-1.025,16.033
	c0,13.265,0.136,31.999,2.017,45.059c1.333,9.47,1.333,13.743,7.008,21.025c5.846,7.521,8.649,7.042,14.017,14.017
	c7.863,10.222,6.188,26.393,11.008,37.059c2.872,6.324,10.085,12.103,15.042,17.025V678.073z M638.99,689.082
	c-8.137,8.171-19.316,13.265-28.033,20.033c-11.078,8.615-26.701,19.589-40.068,24.067v-2.017
	c6.803-6.804,12.035-16.752,12.035-27.042c0-2.017,0.479-4.068,0-6.017c-0.445-1.744-2.018-3.214-2.018-4.991
	c0-1.402,0.033-3.043,0.99-4.034c0.855-0.82,1.471-1.915,2.018-2.975c1.23-2.461,1.982-5.265,1.982-8.034
	c0-1.914-1.914-2.563-2.973-4c-4.957,4.957-11.043,14.358-11.043,22.051c0,2.428,1.539,4.615,2.016,7.009
	c0.445,2.29,0.992,4.649,0.992,7.008c0,5.334-12.512,21.025-17.025,23.042c-4.58,2.018-10.016,0.616-15.008,0.992
	c-8.17,0.615-16.854-0.548-25.059,0c-6.701,0.444-15.453,1.982-22.017,1.982c-15.316,0-34.563-7.761-44.067-19.999
	c-4.342-5.573-8.41-15.077-13.025-21.06c-3.213-4.137-4.273-3.385-8.034-8.991c-3.145-4.752-1.162-8.205-2.974-14.051
	c-2.222-7.009-7.658-6.393-12.034-12c-1.641-2.085-4.239-9.333-5.025-12.033c-1.196-4.205-0.615-8.854-1.983-13.025
	c12.923,0,15.794-0.752,25.025-10.017c2.188,3.281,4.615,7.76,8.034,10.017c1.47,1.025,3.282,1.436,4.991,2.017
	c1.812,0.581,2.12,4,4,4c2.154,0,9.367-3.35,12.034-4c2.769,4.615,11.589,13.025,18.017,13.025c5.949,0,16.957-5.982,23.042-8
	c2.085,10.359,17.777,15.009,27.042,15.009c2.77,0,5.469-0.991,8-2.018c2.803-1.094,5.195-3.042,8.033-4
	c3.896,6.496,9.539,8.034,17.025,8.034c7.932,0,8.102-0.068,15.008-4.034c4.615-2.632,5.744-5.606,11.043-7.999
	c10.904-4.958,15.35-9.231,25.023-15.009c3.42,3.419,8.582,5.982,14.018,5.982c11.008,0,18.016-7.247,24.033-15.008
	c2.359-3.008,4.924-5.846,7.008-9.025c2.258-3.351,1.711-8.718,5.025-11.008c2.941-2.018,12.855-3.932,18.018-7.009
	c6.906-4.137,11.213-10.222,13.025-18.017c2.018-8.82-1.197-13.641,0-22.05c1.436-9.949,5.025-16.171,5.025-27.042
	c0-7.214-1.744-15.248-4.035-22.051c-1.709-5.128-3.998-16.615-3.998-22.017c0-7.009,1.367-10.7,8.033-14.017l18.016,8.991
	c-9.674,19.384-10.016,42.631-10.016,64.101c0,8.513-0.205,15.623,0.99,24.067c0.889,6.052,3.01,16.205,3.01,22.017
	c0,3.932-11.967,17.982-15.008,21.025c-4.514,4.512-16.479,15.657-20.035,21.059C665.279,651.202,655.434,672.638,638.99,689.082z
	 M754.166,726.141c-32.615-7.521-69.811-21.265-100.135-35.042l23.008-28.033l79.143,31.042c3.795,1.504,8,8.171,8,13.025
	c0,3.589-2.563,7.862-5.982,9.025c-2.256,0.718-4.752,0.41-7.043,0.991c-1.605,0.41-2.973,2.324-2.973,4
	c0,1.196,0.854,2.632,1.982,3.008c1.299,0.444,2.633,0.992,4,0.992V726.141z M757.174,728.157
	c15.59-2.222,16.238-3.042,24.033-16.033c0-12.479-3.521-17.709-14.016-24.033c-8.924-5.368-17.367-9.299-27.043-13.025
	c-17.641-6.77-39.145-15.897-57.092-21.025l7.008-12c14.496,9.642,39.385,18.051,56.102,24.034
	c7.965,2.837,19.453,6.563,27.041,10.017c4.719,2.119,9.471,2.837,11.01,8.991c1.127,4.547,1.025,9.333,1.025,14.017
	c0,13.538-4.445,24.443-14.051,34.084c-1.061-2.188-3.625-3.555-5.984-4.033C762.541,728.636,759.875,728.157,757.174,728.157z
	 M1004.586,796.258c-2.291,4.991-2.838,8.239-6.018,13.025c-2.324,3.487-1.949,12-6.018,11.009c-1.641-0.377,0-3.316,0-4.992
	c0-1.675-2.324-3.008-4-3.008c-3.588,0-6.939-2.154-10.016-4c-3.111-1.881-6.461-3.453-9.025-6.017c-1.334-1.334-2.188-3.556-4-4
	c-1.982-0.513-4.172-0.171-6.018-0.992c-2.564-1.196-3.486-4.752-6.016-6.017c-3.59-1.812-8.137-2.153-11.01-5.025
	c-2.836-2.838-7.145-3.829-11.008-4.991c-3.623-1.094-4.684-6.222-8.033-8.034c-2.633-1.436-6.119-0.034-8.992-0.991
	c-2.836-0.957-5.299-2.804-8.033-4c-3.965-1.777-9.266,1.23-12.99-0.991c-3.248-1.949-4.309-7.351-8.035-8.034
	c-6.666-1.196-8.033,0-14.016-4c-3.727-2.495-8.992-2.29-13.025-3.008c-3.658-0.65-9.094,1.196-11.01-1.983
	c-1.469-2.461-3.418-4.889-6.016-6.017c-3.658-1.642-8.068,0.649-12,0c-3.76-0.649-6.666-4.034-9.025-7.009
	c-1.914-2.427-6.018-1.401-9.025-2.017c-1.676-0.342,1.334-3.351,1.025-4.991c-0.479-2.359-3.623-4.034-6.018-4.034
	c-8.203,10.563-50.186,71.246-44.066,83.143c1.881,3.658,2.564,11.453,5.982,14.017c10.666,8,23.727,16.171,37.059,19.042
	c8.377,1.778,18.939,4.308,27.043,7.009c9.332,3.111,18.836,3.692,28.066,6.017c11.795,2.94,22.564,6.872,34.051,10.017
	c10.77,2.94,25.469,2.462,36.068,0c13.947-3.281,49.674-34.118,59.074-45.092h2.018v2.017
	c-30.633,37.435-57.059,51.007-107.176,48.066c-21.094-1.23-43.385-7.862-64.102-11.999c-18.871-3.795-38.357-16.581-54.084-27.042
	c-1.813-9.094-9.23-18.598-10.018-29.059c-0.615-7.829,4.924-48.99,10.018-54.084c1.881-1.881,5.607,1.196,8,0
	c5.572-2.77,9.674-5.642,14.016-10.018c6.121-6.119,9.779-15.794,12.035-24.033c3.418-12.615,3.486-22.734-2.018-35.041
	c-1.539-3.487-7.795-5.3-7.008-9.025c0.512-2.325,8.547-11.043,10.016-13.025c1.916-2.53,3.385-5.299,5.025-8
	c1.232-2.085,4.445-2.188,6.018-4.034c6.223-7.282-4.033-8.41-4.033-14.017c0-6.358,10.904-9.128,15.041-4.991
	c3.043,3.043,4,16.238,4,20.033c-1.947,13.641-3.418,32.718-9.025,45.059c-2.324,5.162-5.094,11.18-8,16.034
	c-1.299,2.188-4.137,4.718-3.008,7.008c0.65,1.265,3.008,1.573,3.008,3.009c0,1.06,0.035,3.419,0.992,3.009
	c10.633-4.787,9.709,0.308,15.043-13.025c1.879-4.719,2.631-10.223,5.982-14.017c1.127-1.266,2.359-3.009,4.033-3.009
	c2.324,0,4.957-1.162,7.008,0c8.992,5.128-0.717,6.017,15.01,6.017c13.264,0,4.785,5.572,15.041,8.991c2.531,0.854,5.402-0.649,8,0
	c2.531,0.649,3.488,4.308,6.018,5.025c6.018,1.676,9.264-2.769,15.008,3.009c6.939,6.905,6.359-0.513,14.018,3.009
	c2.393,1.06,2.768,4.684,5.025,5.982c4.957,2.838,9.742,4.615,15.008,7.009c10.119,4.614,4.615-1.368,12.033,6.017
	c8.443,8.479,1.471,0.239,12,5.025c2.393,1.06,3.486,4.444,6.018,4.991c10.426,2.325,7.588,3.863,17.023,7.009
	c10.941,3.657,8.137,6.085,16.035,11.008c3.418,2.153,8.717,1.709,11.008,5.025C1014.67,774.07,1007.148,790.583,1004.586,796.258z
	 M977.543,818.309c-14.563,17.47-36.613,33.059-60.1,33.059c-11.352,0-26.666-6.017-38.086-9.025
	c-18.426-4.854-36.443-7.281-55.074-13.024c-10.256-3.146-17.264-3.146-27.043-9.025c-9.605-5.744-13.879-7.863-22.016-16
	c2.393-21.777,19.35-38.905,28.033-59.109c3.521,0.889,11.727,0.718,14.018,3.009c2.701,2.7,5.4,5.812,9.025,7.008
	c2.904,0.957,11.246,0.342,14.016,2.018c3.248,1.948,5.299,6.188,9.025,7.008c3.898,0.82,8.068-0.718,12,0
	c3.965,0.718,7.658,2.77,11.008,4.991c3.727,2.462,8.752,1.744,13.025,3.009c3.658,1.094,5.471,5.606,9.025,7.008
	c3.111,1.231,6.803-0.923,10.018,0c2.426,0.719,4.82,1.71,7.008,3.009c2.701,1.642,6.154,1.642,9.025,3.009
	c3.008,1.436,5.23,4.171,8,6.017c2.633,1.743,6.256,1.436,9.025,3.009c3.281,1.88,5.537,5.436,8.99,7.008
	C957.92,806.479,966.535,814.65,977.543,818.309z M708.115,142.226l-2.018,3.009v-3.009H708.115z M510.788,166.294
	c16.854,0,42.085,4.649,58.085,9.982c8.785,2.94,19.109,4.958,28.066,7.043c8.889,2.051,18.084,6.188,21.025,15.008
	c-0.889,0.444-3.18,2.017-4,2.017c-4.24,0-7.863-3.282-12.033-4.034c-8.65-1.573-12.752,0.582-20.035,0
	c-5.436-0.41-13.469-3.692-20.033-4c-15.93-0.718-37.844-3.521-53.058-0.992c-13.914,2.325-13.367-1.504-25.059-5.026
	c-3.897-1.162-8.205-0.546-12-1.982c-2.256-0.854-7.418-8.615-8.034-11.008C472.978,167.73,499.267,166.294,510.788,166.294z
	 M620.973,182.293l-3.008,1.026v-2.018c1.332,0,2.666,0,4,0c1.195,0,3.008-0.786,3.008-2.017c26.666,0,50.904,1.572,76.135,11.042
	c11.795,4.41,23.281,9.094,35.041,13.025c7.078,2.359,9.572,4.513,17.025,5.983c5.881,1.197,10.324,4.615,13.025,10.017
	c-1.197,1.196-1.607,3.076-3.008,4c-1.607,1.094-3.283,2.154-4.992,3.008c0.787,1.607,1.471,2.77,4,4.034l-4,4.991l-1.025-3.008
	v3.008c-13.4-4.479-24.41-11.281-37.059-17.025c-4.033-1.846-8.752-1.744-13.025-3.008c-12.307-3.692-23.246-8.854-35.041-13.025
	c-9.197-3.248-18.529-5.641-28.033-7.009c-11.043-1.572-14.598-4.273-24.033-9.025L620.973,182.293z M558.855,396.646
	c4.238,5.436,21.059,37.264,21.059,43.076c0,8.718-1.914,20.923-8.033,27.042c-7.385,7.35-15.145,9.299-25.025,5.982
	c-0.922,3.727-1.709,12.547-3.008,16.034c-2.291,6.119-6.086,7.829-12.035,9.025c-3.932-11.795,0.686-22.051-4-36.067
	c-4.648,2.324-8.684,6.017-11.998,10.017c-1.197,1.436-7.283,8-9.026,8c-2.598,0-4.513-3.453-4.991-5.982
	c-0.513-2.564-2.427-6.018-5.025-6.018c-2.12,0-4.137,1.06-6.017,1.983c-1.743,0.889-3.042,3.008-4.991,3.008
	c-2.222,0-4-4.273-4-5.982c0-4.649,4.889-12.239,7.008-16.033c2.701-4.89,7.829-11.214,10.017-15.043
	c6.667-11.692,2.188-22.221,7.008-31.042c1.744-3.18,12.068-13.23,15.008-17.025c6.941-8.923,4.24-8.376,6.018-18.017
	c0.684-3.829,3.828-6.769,6.016-10.017c3.658,0.923,7.521,5.06,8.992,8c1.744,3.487,2.393,7.453,4.033,11.008
	C549.111,385.774,554.172,390.595,558.855,396.646z"/>
</svg>
