<?xml version="1.0" encoding="iso-8859-1"?>
<!-- Generator: Adobe Illustrator 15.1.0, SVG Export Plug-In . SVG Version: 6.00 Build 0)  -->
<!DOCTYPE svg PUBLIC "-//W3C//DTD SVG 1.1//EN" "http://www.w3.org/Graphics/SVG/1.1/DTD/svg11.dtd">
<svg version="1.1" id="RIP_with_Crow" xmlns="http://www.w3.org/2000/svg" xmlns:xlink="http://www.w3.org/1999/xlink" x="0px"
	 y="0px" width="494.513px" height="207.403px" viewBox="0 0 494.513 207.403" style="enable-background:new 0 0 494.513 207.403;"
	 xml:space="preserve">
<g>
	<path d="M422.496,192.449c3.987-4.078,3.537-6.166,2.128-10.571l-2.498,10.685C422.249,192.523,422.372,192.49,422.496,192.449z"/>
	<path d="M438.601,112.606c-0.007-0.003-0.014-0.006-0.021-0.009l0.332,0.151C438.802,112.681,438.696,112.631,438.601,112.606z"/>
	<path d="M440.089,115.723l-0.194,0.834C439.994,116.266,440.055,115.988,440.089,115.723z"/>
	<path d="M174.967,172.788c0.543-0.18,1.126-0.472,1.776-0.905c1.225-0.819,1.959-1.646,2.373-2.56
		c-1.198,0.414-2.408,0.802-3.628,1.166L174.967,172.788z"/>
	<path d="M437.955,103.813c-0.898-0.532-1.545-0.974-1.733-1.164c0.172-2.396-1.498-5.278-1.811-0.924
		c-0.128,1.854-1.409,3.09-3.268,3.677c-0.195,0.627-0.326,1.305-0.414,2.016C433.144,107.145,435.874,106.668,437.955,103.813z"/>
	<path d="M369.807,55.591l-1.072,0.861c0.894-0.546,1.756-0.967,2.594-1.299C370.714,55.25,370.198,55.396,369.807,55.591z"/>
	<path d="M100.926,98.07c1.914-1.048,1.526-5.594-0.475-5.828c-2-0.233-4.273-1.17-5.544,0.411c-1.27,1.58-1.275,4.894,0,6.249
		C96.182,100.257,99.011,99.118,100.926,98.07z"/>
	<path d="M126.425,97.092c1.85-1.146,0.228-6.605-1.702-6.914c-1.931-0.309-3.337-4.789-4.346-3.06
		c-1.009,1.73-1.133,8.724-0.071,10.273S124.574,98.236,126.425,97.092z"/>
	<path d="M439.895,116.557l0.194-0.834c0.193-1.501-0.558-2.584-1.177-2.974l-0.332-0.151c-9.168-4.176-6.332,6.052-6.08,6.02
		c-0.664,0.903-0.324,2.305-0.09,3.347c-1.134,0-2.199-2.378-2.221-3.321c0.033,0.026,0.066,0.011,0.099-0.018l-0.306,0.001
		c-0.655,0.903-0.317,2.299-0.085,3.338c-1.134,0-2.199-2.378-2.221-3.321c0.029,0.023,0.059,0.012,0.088-0.009l-0.31,0.001
		c-0.648,0.903-0.313,2.293-0.08,3.329c-1.135,0-2.199-2.378-2.222-3.321c-1.146-1.479-1.895-4.405-1.183-6.899
		c-5.284-1.152-4.001,4.874-3.426,6.45c0.233,0.077,0.458,0.396,0.57,0.424c-0.664,0.903-0.324,2.305-0.09,3.347
		c-1.135,0-2.2-2.378-2.222-3.321c0.047,0.037,0.094-0.002,0.14-0.057l-0.382,0.004c0.013,0.009,0.03,0.024,0.041,0.027
		c-0.664,0.903-0.324,2.305-0.09,3.347c-1.135,0-2.199-2.378-2.222-3.321c0.038,0.03,0.077,0.009,0.115-0.029l-0.327,0.004l0,0
		c-0.663,0.903-0.323,2.305-0.09,3.347c-1.134,0-2.199-2.378-2.221-3.321c-0.07-0.166-0.132-0.339-0.196-0.51l-1.213,8.264
		l-16.136-0.889l-5.609,10.753l1.092,16.588l16.766,0.033l-4.618,31.461c-7.727-1.289-15.56-0.061-22.686,3.57
		c-4.342-1.056-4.365-2.349-0.72-5.184c-2.584-0.786-6.159,0.415-9.648,2.592c2.94-4.497,5.23-5.843,10.368-7.056
		c-3.251-2.927-10.849-1.984-14.904-1.296c-0.223-2.223,0.369-4.085,3.24-4.608c-7.837-2.613-11.01,3.326-16.2,2.088
		c0-2.531,0.375-3.603,1.296-5.903c-2.399,1.408-4.215,2.174-5.76,4.535c-3.284-4.639-6.558-8.707-10.296-12.96
		c0.753,4.523,1.396,9.227-0.275,13.496c-3.57-3.954-4.987-0.21-10.093-3.128c0,2.824,0.307,4.206-2.52,5.185
		c-5.229-2.403,0.954-4.885-2.664-6.408c-0.431,3.66-3.812,4.501-7.056,2.52c5.063-5.145,7.598-6.479,14.832-6.479
		c-8.885-5.814-16.152-5.618-26.424-4.464c0-1.851,0.95-2.939,1.872-4.536c-3.912,1.717-6.844,3.259-10.368,5.76
		c0.95-3.324,1.513-6.245,1.944-9.647c-7.151,5.074-12.634,6.162-21.312,7.703c1.266-3.799,2.762-5.631,1.944-9.72
		c-8.125,11.759-24.998,7.69-33.552,20.088c0-3.122-0.144-4.327,1.296-7.128c-3.367-0.725-4.689,5.172-8.496,4.536
		c1.01-5.455,2.585-7.348,7.2-10.368c-10.505,0.867-19.276,5.668-26.568,12.96c-1.168-1.497-1.401-4.095,1.296-6.479
		c-5.134,0.667-6.189,6.582-9.72,7.775c-0.808-1.616-0.648-2.74-0.648-4.536c-2.518,3.357-2.937,4.83-6.952,5.388
		c-3.199-2.616-6.3-4.577-9.825-6.755l5.576,8.762c-4.511-4.87-8.56-2.351-13.949-7.202c-1.711-1.541-3.556-3.818-5.595-7.32
		c0.72,4.321,1.62,7.013,0.628,9.202c-0.413,0.913-1.147,1.74-2.373,2.56c-0.65,0.434-1.233,0.726-1.776,0.905l0.521-2.299
		l9.991-44.066l31.711,10.374l4.458-9.949l-3.321-8.491l-29.104-8.453l5.612-24.754l-7.818-3.127l-10.164,3.127l-3.413,20.17
		l-20.489-5.951l-3.041,8.604l4.542,8.301l16.235,5.312l-6.814,40.271c-6.129-2.182-12.05-1.86-19.588-1.014
		c0-1.831,0.97-2.975,1.872-4.536c-1.207,0.529-2.298,1.035-3.341,1.55l-2.851-30.71c-2.881-24.171,0.573-86.521-37.276-85.236
		c-6.56,1.562-19.765,2.309-27.596,6.108c-6.632,5.09-11.517,10.359-15.098,15.864c-10.219,15.712-9.728,33.359-8.23,54.336
		c0.392,11.369,0.552,22.137,0.352,32.93L41.481,42.311l33.498-15.197l-3.438-10.347l-8.186-4.014L39.734,24.438L37.402,0.58
		L29.001,0l-8.715,6.093l3.357,26.306L2.337,42.938l3.573,8.396l8.958,3.049l10.947-4.966L41.42,171.709
		c-2.446-2.473-4.509-5.706-9.02-5.827c5.292,3.733,3.009,4.774,4.464,7.199c-6.287-0.896-4.464-7.199-15.48-9.72
		c2.703,4.17,5.522,7.271,4.536,12.313c-2.125-1.417-3.984-2.685-5.832-4.464c0,5.468,0,6.926-5.184,9
		c-11.86,3.114-15.389,9.955-1.296,10.943c4.715,0.319,20.001,1.412,7.167,7C15.867,199.53,0,203.813,0,207.403h160.056h158.81
		h160.056c8.054-2.569-2.312-5.834-5.954-7.25c-8.071-2.959-18.66,3.866-28.512-1.224c0.509-2.546,0.295-3.018,2.592-4.464
		c-5.54-1.385-6.654,4.663-12.239,1.224c0.697-5.497-0.146-7.015-3.168-11.592c0,2.17,0.068,3.636-0.721,5.688
		c-1.884-3.663-3.399-6.248-6.004-9.16l6.476-27.697l24.085,0.049l6.673-9.895l-0.196-13.955l-24.68-1.359l2.617-11.196l0,0
		C439.893,116.566,439.893,116.562,439.895,116.557z M163.115,166.359l-0.512,3.025l-6.722,2.4
		C158.653,168.968,160.671,167.298,163.115,166.359z M109.879,98.955c-0.333-6.083-1.763-10.875-0.42-11.763
		c2.389-1.58,2.951-5.101,3.672-0.326c0.721,4.775,0.721,19.743,0,24.646c-0.721,4.902-2.951,5.1-3.672,0.325
		C109.145,109.749,110.138,103.688,109.879,98.955z M130.567,92.901c0,6.78-5.454,8.253-7.869,8.467s-2.915-2.822-3.422-0.805
		c-0.507,2.018,1.857,8.143,1.029,10.313c-0.828,2.17-2.951,5.1-3.672,0.325c-0.721-4.775-2.123-16.008-0.887-21.29
		c1.236-5.283,3.551-6.677,6.565-6.943C125.327,82.701,130.567,86.121,130.567,92.901z M77.714,84.606
		c5.793-19.286,10.418-27.694,24.8-39.42c7.562-1.01,13.284,1.359,17.644,5.912c-3.891-3.129-8.752-4.621-14.854-3.789
		C91.416,58.864,86.95,67.15,81.354,86.157c-1.986,22.406-0.985,44.858-0.386,67.311c0.333-0.352,0.683-0.697,1.058-1.035
		c7.806-5.066,18.275-8.059,24.787,2.651c3.729-1.38,6.324,5.713,4.794,10.507c1.02,1.206,2.576,2.881,2.576,4.232
		c-0.765,3.162-4.258,8.926-9.46,8.518c-1.261,0.767-7.854-1.275-9.945-4.335c-4.6-1.345-2.274,8.905-9.69,3.06
		c-3.361-3.361-5.583-6.552-6.792-9.544c-0.223,0.126-0.445,0.242-0.668,0.37c0-0.015,0-0.029-0.001-0.044
		c0.09-0.482,0.187-0.929,0.287-1.358c-0.911-2.756-0.942-5.335-0.192-7.714c-0.085,0.023-0.172,0.043-0.258,0.066
		C76.896,134.081,75.479,109.316,77.714,84.606z M94.907,113.127c-0.818,2.363-2.955,5.102-3.676,0.326
		c-0.722-4.775-1.69-19.108,0-24.646s4.656-0.413,7.733-0.686c3.077-0.272,7.145,1.328,7.145,6.275s-5.015,3.084-4.803,7.283
		c0.212,4.198,6.037,7.134,6.281,10.323c0.245,3.189-2.379,2.649-4.392,0.389c-2.013-2.261-5.219-12.16-8.288-9.554
		S95.726,110.765,94.907,113.127z M422.496,192.449c-0.124,0.041-0.247,0.074-0.37,0.113l2.498-10.685
		C426.033,186.283,426.483,188.371,422.496,192.449z"/>
	<path d="M425.229,118.643h-0.076C425.179,118.662,425.204,118.657,425.229,118.643z"/>
	<path d="M413.845,118.642l-0.076,0.001C413.794,118.663,413.819,118.656,413.845,118.642z"/>
	<path d="M106.541,166.474c-0.381-0.35-2.872-1.813-2.968-1.756c0.885,1.38,1.532,2.424,2.238,3.805
		c0.809,1.579,0.005,3.325,2.092,4.048c2.64,0.914,3.783-2.336,1.849-4.048C108.792,167.671,107.458,167.316,106.541,166.474z"/>
	<path d="M97.344,165.498c-1.395,0.143-2.499,2.903-2.19,4.146c0.31,1.246,1.542,2.585,2.92,2.585c1.668,0,4.187-2.221,4.72-3.756
		C103.718,165.812,99.056,165.323,97.344,165.498z"/>
	<path d="M105.178,162.133c0.271,0.7,1.354,2.089,2.19,2.39c0.934,0.336,2.298-0.529,2.725-1.122
		c0.815-1.133,1.261-2.836,0.584-4.194c-0.25-0.501-2.552-2.91-2.871-2.146C105.428,158.103,104.25,159.724,105.178,162.133z"/>
	<path d="M494.513,36.339c-3.403-5.999-12.279-3.807-17.376-5.838c9.663-1.462,14.156-1.398,17.224-10.765
		c-4.259-0.305-10.833,5.346-17.748,4.851c-0.297-1.006,13.25-5.41,12.633-12.122c-4.467,3.425-11.62,7.379-17.36,8.71
		c2.068-1.926,14.818-11.111,11.052-16.244c-21.196,14.661-31.854,16.928-62.606,13.42c-12.606-0.902-30.771-3.063-14.637,10.863
		l1.785,2.293c0.901,4.648,0.575,6.754-4.571,6.386l-0.651-3.006l-2.154,0.856l0.465-1.292l-3.409,0.07l0.507-1.724l-2.303,1.596
		l-1.01-2.021l-3.083,1.729l0.122-1.763l-3.066,1.552l0.139-1.939l-3.155,1.724l0.139-1.939l-2.093,1.005l0.083-1.148l-3.155,1.723
		l0.139-1.938l-4.161,2.661l0.129-1.795l-3.155,2.733l-2.945-0.211l-0.056,0.79l-1.017,2.093l-2.211,1.646l0.718,3.083l-0.533,1.502
		l-1.345-0.481l-0.079,3.587l-1.553,1.061l-1.016,2.093l-0.057,0.79l2.283-1.641l0.262,1.284l0.584,5.064l2.025-1.222l0.441,2.039
		l1.072-0.861c0.391-0.195,0.907-0.341,1.522-0.438c9.607-3.808,15.627,5.445,19.415,4.932c-1.841,6.401-5.556,10.775-9.126,15.075
		l0,0c7.622,17.396,24.853,24.498,33.208,20.832c1.454,4.491,4.868,7.385,8.446,8.793c1.112-0.548,2.178-1.4,3.116-2.856
		c0.593-2.217,5.358-0.461,5.758,1.568c-0.468,0.527-0.777,1.183-1.003,1.904c1.858-0.587,3.14-1.822,3.268-3.677
		c0.313-4.354,1.982-1.472,1.811,0.924c0.188,0.19,0.835,0.632,1.733,1.164c0.316-0.434,0.624-0.902,0.906-1.455
		c0.593-2.217,5.358-0.461,5.758,1.569c-0.602,0.679-0.967,1.543-1.214,2.495c2.313,0.802,4.316,0.952,4.44-0.775
		c3.431,0.245,0.313-0.139,2.309-2.001c1.154,0.083,6.124-0.322,2.067-0.646c-1.612-2.219-1.939-0.926,0.154-2.155
		c0.092-1.281-1.57-1.293-2.79-2.365c0.511-7.135,11.558-2.54,14.49,1.539c1.138,2.08,3.215,3.405,5.894,3.381
		c-1.315-1.193-1.984-2.642-2.877-4.176c2.821,0.202,15.455,4.771,15.876,5.106c2.986-2.588-3.797-5.294-5.54-6.315
		c5.648,0.404,8.076,1.203,12.928-2.106c-6.098-0.437-11.709-1.951-17.661-3.357c4.955,0.354,9.91,0.709,14.865,1.063
		c-2.891-3.336-6.572-4.272-10.571-5.593c-10.596-2.123-18.836-6.813-25.857-14.916c-6.207-7.165-14.683-10.986-21.419-17.413
		c0.974-13.602,10.962,6.48,11.423,6.809c0.213-2.969-0.004-6.978-1.134-10.193c5.591,1.814,4.585,9.942,3.979,11.407
		c3.649-1.679,3.918-3.686,4.571-7.054c1.675,2.57,1.156,5.733,0.13,9.34c4.891-1.228,4.51-5.755,4.73-8.612
		c2.282,1.277,3.742,4.476,4.104,6.588c3.28-2.112,2.54-7.519,0.976-10.989c2.459,0.868,4.995,3.193,5.84,6.402
		c2.801-5.067-3.191-10.94-2.839-13.197c0.586-3.763,5.67,0.296,7.695,1.569c4.263,3.162,11.034-0.067,16.518,2.193
		c0.525-2.433-10.721-4.169-9.335-8.753c6.468,4.637,12.278,2.613,14.444,6.953c0.608-8.497-8.222-9.468-14.233-9.897
		C478.166,33.328,488.789,37.891,494.513,36.339z M383.136,53.411c-1.941-0.14-3.403-1.826-3.264-3.768
		c0.139-1.94,1.826-3.402,3.767-3.263c1.941,0.139,3.402,1.825,3.263,3.767C386.764,52.088,385.077,53.55,383.136,53.411z"/>
	<path d="M368.735,56.452l-1.427-0.102l-2.06,1.403l-0.52-6.713l-2.252,1.21l-0.289-2.951l1.092-2.225l1.447-0.903l0.054-4.256
		l1.728,0.373l-0.866-4.031l2.478-1.339l0.683-1.467l0.056-0.79c-2.829,1.66-8.616,4.628-10.198-0.73
		c-1.438-4.703-4.787-9.675-8.623-3.576c-4.207,3.336-3.616,12.117-7.359,19.107c-5.497,9.375-10.698,8.527-17.721,14.612
		c3.606,6.142,15.948-2.555,19.157-5.463c-1.896,3.863-8.74,9.503-12.771,11.045c4.937,4.884,13.64-2.532,17.442-5.682
		c0.528,2.745-3.734,8.022-8.748,11.284c4.753,4.011,11.314-2.523,14.228-5.981c1.408,4.123-5.093,12.087-6.821,13.441
		c4.307,2.46,9.577-5.732,12.182-8.651c2.322,1.58,0.889,7.579,1.001,11.023c3.51-3.565,4.624-7.621,4.254-11.014l1.8,3.089
		c0.8-1.349,1.354-2.317,2.133-3.227C368.154,68.416,368.041,62.372,368.735,56.452z"/>
	<circle cx="382.91" cy="50.785" r="2.191"/>
	<path d="M378.333,77.878c0.367-5.13,4.017-11.533,7.219-15.408c-5.17,4.488-8.297,9.933-10.302,17.231
		c-0.642,2.339-0.465,5.032-1.103,7.243l0.002-0.002c0.048-0.139,0.11-0.266,0.161-0.403c0.133-0.362,0.276-0.717,0.424-1.066
		c0.135-0.319,0.271-0.637,0.417-0.946c0.161-0.341,0.332-0.674,0.506-1.004c0.158-0.301,0.318-0.6,0.487-0.892
		c0.184-0.32,0.375-0.636,0.57-0.947c0.18-0.287,0.361-0.573,0.548-0.854c0.204-0.305,0.412-0.606,0.624-0.904
		c0.101-0.142,0.194-0.289,0.296-0.43C378.244,78.983,378.292,78.445,378.333,77.878z"/>
</g>
</svg>
