<?xml version="1.0" encoding="iso-8859-1"?>
<!-- Generator: Adobe Illustrator 15.0.0, SVG Export Plug-In . SVG Version: 6.00 Build 0)  -->
<!DOCTYPE svg PUBLIC "-//W3C//DTD SVG 1.1//EN" "http://www.w3.org/Graphics/SVG/1.1/DTD/svg11.dtd">
<svg version="1.1" id="santa_and_reindeer_5" xmlns="http://www.w3.org/2000/svg" xmlns:xlink="http://www.w3.org/1999/xlink"
	 x="0px" y="0px" width="309.831px" height="88.708px" viewBox="0 0 309.831 88.708"
	 style="enable-background:new 0 0 309.831 88.708;" xml:space="preserve">
<path style="fill-rule:evenodd;clip-rule:evenodd;" d="M9.004,32.527c0,0,4.529,1.536,2.19,6.964
	C8.855,44.919-4.162,56.337,14.776,64.91c18.937,8.573,25.373,7.609,33.835,7.726c8.462,0.116,11.8-4.258,12.932-6.885
	s1.059-3.904-0.342-4.507s-5.358,0.391-6.654-2.867c-1.296-3.257-2.942-6.665-2.888-8.718c0.054-2.053-1.419-3.934-3.346-4.764
	c-1.926-0.83-4.731-0.584-3.877-2.085c0.854-1.501,3.576,2.786,5.914-2.643c2.339-5.429,2.74-5.879,2.845-8.532
	c0.105-2.654-1.402-0.605-2.574-3.186c-1.172-2.581-5.046-6.119-8.548-7.627c-3.502-1.509-10.017,1.083-10.017,1.083
	s-2.373-2.684-3.529-0.482c-1.157,2.201-0.86,4.404,1.217,4.884c2.077,0.479,3.435-2.672,3.435-2.672s7.889-0.961,7.032,1.991
	c-0.857,2.953-4.271,7.503-5.922,6.999c-1.651-0.503-4.343,6.227-7.63,10.001c-3.287,3.773-2.5-1.908-2.171-3.635
	c0.329-1.727,3.193-6.929-2.257-11.146c-5.45-4.216-9.034-2.646-9.034-2.646s1.951,1.255-0.081,3.079S9.003,32.527,9.004,32.527z"/>
<path style="fill-rule:evenodd;clip-rule:evenodd;" d="M0.052,52.337c0,0-0.572,10.965,17.767,18.036
	c18.338,7.07,32.31,6.446,34.99,5.524c2.681-0.921,7.161-0.236,8.87-3.237c1.708-3.002,4.473-8.455,4.473-8.455
	s2.499,15.403-16.428,14.515C30.798,77.833-1.463,72.239,0.052,52.337z"/>
<path style="fill-rule:evenodd;clip-rule:evenodd;" d="M105.904,62.303c-3.049,1.957-6.567,3.535-6.567,3.535l-1.083,1.488
	c0,0,2.787,2.403,3.28,2.993c0.492,0.59,2.912,4.362,3.461,4.688c0.55,0.328,1.38,1.268,1.528,1.852s-0.065,2.193-0.065,2.193
	s-3.745-0.542-3.997-1.286c-0.252-0.745-0.955-2.899-1.618-4.287c-0.663-1.387-2.219-4.693-2.992-4.31
	c-0.773,0.382-5.216-2.657-5.216-2.657s0.843-1.334,1.657-2.536c0.815-1.202,1-2.68,0.835-3.82c-0.166-1.14-2.105-3.634-1.062-4.302
	c1.043-0.669,1.676-3.568,1.676-3.568l-2.811-2.615c0,0,1.851-1.527,3.34-0.444c1.489,1.084,1.868,0.615,3.443-0.283
	s7.968-0.468,9.72,0.672c1.752,1.142,6.029,3.041,7.41,2.721c1.381-0.319,6.228-0.71,6.228-0.71l5.984-4.973l1.24-2.834
	l-2.244-1.731l4.365-0.082l2.258-0.542c0,0-4.426-2.484-7.232-3.856s-4.5-2.776-5.882-6.873c-1.383-4.096,7.237-10.082,7.237-10.082
	s-6.861,5.195-5.747,7.992c1.115,2.796,0.823,2.871,1.424,3.277c0.601,0.408,0.74-1.494,1.629-2.404s5.286-4.297,5.286-4.297
	s-3.16,3.727-4.043,5.879c-0.884,2.153-0.129,2.801,0.569,3.712c0.698,0.911,2.817,0.684,2.817,0.684s0.009,2.486,1.311,2.218
	c1.301-0.268,0.573-1.048,1.6-2.273c1.026-1.226,3.681-3.268,3.681-3.268s-3.401,5.468-2.761,6.642
	c0.641,1.175,1.248,1.239,1.248,1.239s4.123,0.072,4.854-2.322c0.729-2.394,0.057-6.266,0.057-6.266l-2.378-6.178
	c0,0,3.667,5.009,4.251,6.448c0.583,1.438,1.893-2.347,2.735-3.68c0.843-1.335,0.563-3.534,0.563-3.534s2.442,5.569,0.086,7.195
	c-2.355,1.625-1.816,1.052-2.482,2.839c-0.666,1.786-0.11,1.769-1.377,3.148c-1.268,1.379-1.967,2.055-1.556,2.697
	c0.412,0.642,1.954,0.22,2.888-0.266c0.934-0.487,4.23-2.941,3.881-2.604s-1.269,2.966-3.898,3.634
	c-2.63,0.667-4.055-1.023-4.641,0.712c-0.586,1.735,0.428,2.784,1.567,2.619c1.14-0.166,3.419,1.091,4.042,1.71
	c0.625,0.619,1.74,1.829,0.297,2.755c-1.445,0.927-3.982,0.856-3.982,0.856s-4.079,0.352-7.037,3.156
	c-2.958,2.805-3.87,3.503-5.161,6.257c-1.292,2.755-0.708,4.192-0.708,4.192s4.235,4.306,4.939,4.874
	c0.704,0.568,3.346-0.788,2.482,3.164c-0.861,3.951-0.405,6.605-2.303,7.708c-1.897,1.104-5.726,3.788-7.507,4.364
	c-1.783,0.577-4.238-1.132-2.146-2.814c2.092-1.683,1.915-2.134,3.129-2.008c1.215,0.127,2.246,0.145,2.929-1.086
	c0.683-1.231,0.74-1.495,1.269-2.966c0.528-1.472,2.306-3.292,0.679-4.061c-1.626-0.769-2.521,0.484-3.963-0.175
	c-1.443-0.66-4.459-3.596-4.848-4.025c-0.39-0.43-8.937-0.156-10.613-2.593C110.179,61.373,105.904,62.303,105.904,62.303z"/>
<path style="fill-rule:evenodd;clip-rule:evenodd;" d="M155.086,66.805c0,0-7.351,5.675-8.489,5.5
	c-1.139-0.174-5.868,0.268-6.742,0.038c-0.875-0.23-3.496-0.575-3.757-0.177c-0.261,0.399-1.93,2.954-2.189,3.353
	c-0.262,0.398-1.77,3.058-3.215,4.049s-4.514,0.81-4.514,0.81l1.495-4.034l2.428-0.578c0,0,2.96-2.962,3.927-4.268
	c0.966-1.305,0.959-1.992,2.061-2.981c1.102-0.989,2.4-0.709,3.639-1.039c1.24-0.329,2.581-1.161,3.342-1.804
	c0.762-0.642,0.608-0.058,1.433-2.367c0.824-2.308,1.45-3.266,1.45-3.266s-1.302-0.623-2.26-1.249
	c-0.958-0.626-1.32-2.685-0.363-2.059c0.958,0.625,1.836,1.2,2.68,0.953c0.844-0.246,3.998-2.285,4.529-2.052
	c0.531,0.233,4.56-1.577,6.076-0.586c1.517,0.991,5.436,1.615,6.494,1.737c1.06,0.122,6.806-1.703,6.806-1.703l3.521-2.599
	l1.824-2.793l0.092-1.535l-2.03-2.123c0,0,1.313-0.964,2.268-0.683s3.584-1.303,3.584-1.303s-7.786-2.637-8.664-3.21
	s-7.011-3.212-6.242-5.785c0.77-2.572,7.564-8.269,7.564-8.269s-6.142,4.87-5.508,7.562c0.633,2.691,2.604,4.207,3.163,4.571
	c0.559,0.365-0.523-2.163-0.343-2.614c0.182-0.452,5.03-7.875,5.03-7.875s-3.403,6.431-2.988,8.411
	c0.415,1.979-0.603,3.363,1.029,2.608c1.632-0.756,3.48-3.761,3.48-3.761s-0.276,4.648-0.659,5.718s-1.142-0.517,1.059,0.123
	c2.201,0.639,1.982-0.071,2.16-0.867c0.178-0.795,2.336-4.623,2.336-4.623c0.001,0-1.102,6.569,0.132,5.552
	c1.233-1.017,1.626-1.443,2.2-2.321c0.573-0.878,0.496-0.586,0.187-2.726c-0.312-2.139-1.169-3.268-1.623-3.792
	c-0.455-0.525-0.849-3.06-0.849-3.06s2.317,1.856,2.73,3.491c0.411,1.636,0.636,3.035,1.265,2.421
	c0.63-0.614,0.477-0.031,1.203-1.492c0.726-1.461,1.766-3.4,1.173-4.585c-0.594-1.185-1.026-2.265-0.679-1.924
	c0.347,0.341,3.151,0.579,2.015,3.366c-1.138,2.787-3.598,5.508-2.64,6.133s0.756,1.632,0.339,2.271
	c-0.417,0.639-2.19,3.353-2.19,3.353s0.529-0.11,1.372-0.357c0.845-0.246,0.607-0.058,1.602-1.231
	c0.993-1.173,2.975-4.206,2.975-4.206c0.001,0-0.701,4.211-1.882,5.147c-1.181,0.937-2.712,1.189-3.341,1.804
	c-0.629,0.613-1.433,2.367-0.609,2.676c0.822,0.309,3.071,0.526,3.95,1.1c0.877,0.574,2.314,1.512,1.975,1.859
	c-0.341,0.347,0.666,0.549-1.813,1.207c-2.479,0.658-2.854,0.185-3.615,0.827c-0.761,0.642-2.202,1.977-3.037,3.254
	c-0.834,1.277-3.896,4.744-4.021,5.459c-0.125,0.715,1.475,2.101,1.294,2.553c-0.181,0.451,0.177,1.823,1.904,2.838
	c1.729,1.015,5.104,0.031,7.263,1.782c2.157,1.752,4.94,5.164,4.395,6.173c-0.547,1.01,0.045,4.812,0.045,4.812l-2.926-1.797
	l0.148-3.889l-2.89-3.595l-8.197-0.002c0,0-2.065-0.324-4.11-1.205c-2.044-0.88-4.374-1.148-4.374-1.148
	c0.001,0-3.154,2.039-5.174,0.947C162.765,66.64,155.646,65.861,155.086,66.805z"/>
<path style="fill-rule:evenodd;clip-rule:evenodd;" d="M152.835,68.177c0,0,1.635,2.469,0.669,3.506
	c-0.967,1.038-4.527,3.76-2.726,4.64c1.801,0.879,4.64,1.999,5.428,2.339c0.789,0.339,5.064,2.701,5.125,3.765
	s1.386,2.569,2.173,2.908c0.788,0.34,2.827,0.907,3.179,0.332c0.353-0.575,0.114-0.988-0.535-1.891
	c-0.648-0.903,1.041-0.486-1.598-1.831c-2.64-1.345-4.928-2.539-5.302-3.115s-0.92-3.407-0.92-3.407s0.992-1.337,2.507-1.723
	c1.516-0.386,4.511-2.52,5.199-2.432c0.689,0.089,0.502-0.199,2.256-0.896c1.753-0.698,3.604,0.308,4.293,0.396
	c0.688,0.089,5.281,0.511,7.67,1.956c2.388,1.443,6.078,3.241,6.754,3.117s2.767-0.157,2.754,0.355
	c-0.014,0.513,0.008,2.392-0.044,2.993c-0.051,0.6,1.601,1.104-0.092,2.14c-1.691,1.036-2.946,2.26-3.384,2.072
	c-0.438-0.189-1.953,0.196-1.953,0.196s-1.486,4.654-0.961,4.881c0.526,0.226,1.904-0.322,2.432-1.548
	c0.528-1.227,2.396-2.187,3.234-2.448c0.84-0.261,2.455-0.396,3.034-2.223s0.422-4.593,1.037-5.781
	c0.616-1.189,2.258-2.349,0.194-3.342c-2.063-0.994-7.056-2.417-7.479-3.845c-0.424-1.428,0.156-3.255,0.998-4.968
	s-0.92-3.407,2.877-5.715c3.799-2.309,2.649-3.738,5.49-3.344c2.841,0.393,4.905,1.386,5.961-1.065
	c1.057-2.452,1.782-2.45,0.206-3.129c-1.576-0.679-6.479-2.792-6.479-2.792l0.015-1.24c0,0,1.302,0.354,2.854-0.119
	c1.554-0.473,4.59-4.147,4.59-4.147s-2.773,3.061-4.424,2.557c-1.652-0.504-1.962-2.194-1.058-3.57
	c0.904-1.375,2.646-2.285,2.646-2.285s1.832-2.325,1.922-3.74c0.091-1.415-1.804-5.449-1.804-5.449s0.996,2.506,0.152,4.944
	c-0.843,2.44-1.758,2.877-2.419,1.761s-4.756-7.032-4.756-7.032s2.506,5.751,2.979,6.578c0.475,0.827,1.389,0.391,0.835,1.917
	s-0.807,3.078-1.561,4.103c-0.753,1.025,0.333,2.842-1.956,1.648c-2.288-1.193-2.965-1.07-2.965-1.07l2.637-3.95l-2.733,2.248
	l1.299-4.942c0,0-1.163,5.831-2.214,5.379c-1.05-0.453-1.147-2.156-0.694-3.207c0.453-1.05,0.27-3.518,0.043-2.992
	c-0.226,0.525,0.312,6.986-2.589,5.528c-2.901-1.458-3.991-1.096-2.095-4.536c1.897-3.438,2.965-5.677,2.965-5.677
	s-4.878,4.334-6.033,6.535c-1.156,2.201-2.135,3.026-2.043,0.886c0.092-2.141,0.258-3.73,1.086-4.931
	c0.829-1.201,5.458-6.161,5.458-6.161s-6.692,3.968-7.586,6.282c-0.893,2.314,0.392,4.632-1.458,2.902
	c-1.85-1.731-5.267-1.751-3.444-5.74c1.823-3.99,6.285-6.635,6.285-6.635c0,0-9.321,3.562-8.455,9.022
	c0.866,5.46,4.683,5.755,5.822,6.246c1.139,0.49,3.026,1.408,4.34,1.974s1.328-0.674,3.578,1.333c2.249,2.007,4.75,3.188,4.75,3.188
	s1.165,0.191,0.976,0.628c-0.188,0.437-2.568,1.384-3.357,1.044c-0.788-0.339-1.427,0.423-1.427,0.423l2.101,0.905
	c0,0,0.351,0.15-0.779,2.051s-2.611,3.65-3.776,4.187c-1.166,0.536-1.179,1.049-3.434,1.946c-2.255,0.897-6.127,2.655-9.191,1.335
	s-2.899-2.91-5.868-1.802s-6.778,3.205-8.217,2.688c-1.438-0.516-3.638-2.397-4.642-1.272c-1.003,1.125-5.087,2.168-3.772,2.734
	c1.312,0.565,4.955,0.786,5.518,0.924c0.564,0.139-0.534-1.892,0.159,2.041c0.693,3.932,0.015,4.917,0.015,4.917L152.835,68.177z"/>
<path style="fill-rule:evenodd;clip-rule:evenodd;" d="M208.237,66.64c-2.802,2.296-6.114,4.271-6.114,4.271l-0.904,1.604
	c0,0,3.047,2.064,3.604,2.594c0.557,0.529,3.397,3.995,3.98,4.257c0.584,0.261,1.518,1.099,1.732,1.662s0.189,2.187,0.189,2.187
	s-3.783-0.104-4.12-0.815c-0.335-0.711-1.283-2.77-2.102-4.071c-0.82-1.3-2.747-4.405-3.472-3.935s-5.488-2.035-5.488-2.035
	s0.683-1.422,1.354-2.711c0.67-1.289,0.682-2.778,0.387-3.891c-0.297-1.113-2.512-3.366-1.553-4.151
	c0.958-0.785,1.252-3.737,1.252-3.737l-3.095-2.272c0,0,1.662-1.732,3.266-0.828c1.604,0.904,1.926,0.394,3.388-0.68
	c1.462-1.075,7.86-1.388,9.732-0.457s6.341,2.323,7.676,1.846c1.334-0.478,6.103-1.427,6.103-1.427l5.369-5.632l0.904-2.958
	l-2.43-1.46l4.325-0.586l2.18-0.8c0,0-4.684-1.956-7.628-2.993c-2.946-1.038-4.791-2.236-6.64-6.146
	c-1.847-3.91,6.023-10.851,6.023-10.851s-6.214,5.954-4.783,8.603s1.148,2.757,1.793,3.091c0.644,0.335,0.562-1.57,1.34-2.577
	c0.777-1.007,4.752-4.88,4.752-4.88s-2.706,4.066-3.336,6.308c-0.629,2.241,0.196,2.797,0.995,3.621
	c0.8,0.825,2.879,0.354,2.879,0.354s0.297,2.469,1.557,2.051c1.262-0.417,0.45-1.107,1.327-2.442
	c0.878-1.336,3.278-3.672,3.278-3.672s-2.747,5.824-1.975,6.918c0.772,1.092,1.382,1.085,1.382,1.085s4.105-0.406,4.553-2.868
	c0.448-2.462-0.668-6.231-0.668-6.231l-3.077-5.86c0,0,4.223,4.552,4.969,5.913c0.746,1.361,1.608-2.55,2.291-3.973
	c0.684-1.423,0.151-3.576,0.151-3.576c0.001,0,3.07,5.25,0.919,7.137c-2.153,1.886-1.684,1.255-2.139,3.107
	c-0.455,1.853,0.096,1.771-1.004,3.288c-1.099,1.517-1.716,2.269-1.231,2.858c0.482,0.59,1.965-0.008,2.837-0.599
	c0.872-0.591,3.861-3.411,3.553-3.035c-0.309,0.376-0.917,3.092-3.452,4.061c-2.534,0.968-4.146-0.547-4.526,1.244
	s0.746,2.716,1.859,2.42c1.113-0.296,3.522,0.688,4.214,1.231c0.691,0.542,1.939,1.615,0.612,2.703
	c-1.327,1.087-3.855,1.311-3.855,1.311s-4.012,0.821-6.625,3.949c-2.613,3.127-3.438,3.926-4.402,6.811s-0.219,4.246-0.219,4.246
	s4.705,3.787,5.471,4.27c0.765,0.482,3.231-1.169,2.832,2.855c-0.399,4.025,0.361,6.608-1.396,7.923
	c-1.757,1.316-5.249,4.425-6.952,5.205c-1.703,0.779-4.341-0.635-2.458-2.548c1.884-1.913,1.655-2.342,2.877-2.356
	c1.221-0.015,2.247-0.116,2.782-1.417c0.536-1.302,0.562-1.57,0.916-3.093c0.355-1.523,1.91-3.537,0.206-4.112
	c-1.705-0.576-2.447,0.772-3.958,0.284c-1.51-0.489-4.846-3.055-5.282-3.437c-0.436-0.382-8.894,0.879-10.84-1.347
	C212.377,65.222,208.237,66.64,208.237,66.64z"/>
<path style="fill-rule:evenodd;clip-rule:evenodd;" d="M268.887,53.937c0,0-4.54,8.1-5.655,8.385
	c-1.116,0.287-5.295,2.545-6.189,2.676c-0.895,0.131-3.441,0.84-3.525,1.309c-0.084,0.47-0.617,3.474-0.702,3.943
	c-0.083,0.47-0.43,3.507-1.371,4.986c-0.94,1.478-3.836,2.513-3.836,2.513l-0.203-4.297l2.007-1.483c0,0,1.562-3.886,1.939-5.464
	c0.379-1.58,0.104-2.209,0.729-3.55c0.626-1.342,1.932-1.594,2.942-2.382c1.012-0.788,1.919-2.079,2.367-2.967
	c0.449-0.889,0.537-0.292,0.392-2.739c-0.146-2.447,0.054-3.573,0.054-3.573s-1.44-0.062-2.567-0.263
	c-1.126-0.201-2.267-1.953-1.141-1.752s2.159,0.384,2.838-0.172c0.681-0.557,2.784-3.669,3.363-3.662
	c0.58,0.005,3.578-3.237,5.362-2.919c1.783,0.317,5.634-0.644,6.656-0.946c1.021-0.302,5.595-4.234,5.595-4.234l2.22-3.77
	l0.585-3.285l-0.518-1.448l-2.699-1.158c0,0,0.831-1.402,1.819-1.516c0.988-0.115,2.787-2.604,2.787-2.604s-8.197,0.625-9.229,0.44
	c-1.033-0.184-7.71-0.209-8.011-2.877c-0.3-2.668,3.721-10.571,3.721-10.571s-3.743,6.887-2.105,9.114
	c1.637,2.229,4.044,2.85,4.701,2.967c0.656,0.117-1.329-1.786-1.339-2.271c-0.011-0.487,1.542-9.216,1.542-9.216
	c0.001,0-0.612,7.251,0.546,8.909c1.158,1.659,0.764,3.331,1.97,1.996c1.205-1.335,1.729-4.824,1.729-4.824s1.566,4.385,1.632,5.52
	c0.067,1.134-1.253-0.029,1.023-0.303c2.275-0.273,1.795-0.842,1.647-1.644c-0.148-0.801,0.338-5.169,0.338-5.169
	s1.56,6.475,2.296,5.057s0.932-1.965,1.114-2.997c0.185-1.033,0.228-0.734-0.896-2.581c-1.124-1.846-2.355-2.549-2.979-2.854
	c-0.623-0.304-1.979-2.482-1.979-2.482s2.859,0.8,3.88,2.143c1.019,1.343,1.773,2.543,2.112,1.732
	c0.338-0.812,0.426-0.215,0.521-1.844c0.097-1.629,0.293-3.822-0.717-4.679c-1.009-0.857-1.831-1.681-1.378-1.504
	c0.452,0.177,3.126-0.703,3.172,2.307c0.045,3.01-1.152,6.477-0.025,6.678c1.125,0.2,1.334,1.205,1.201,1.956
	c-0.135,0.751-0.702,3.943-0.702,3.943s0.442-0.309,1.123-0.866c0.68-0.557,0.535-0.292,0.99-1.761
	c0.456-1.469,1.09-5.035,1.09-5.035s1.005,4.149,0.285,5.473s-2.029,2.156-2.368,2.968c-0.338,0.811-0.391,2.738,0.487,2.701
	c0.879-0.038,3.033-0.72,4.066-0.536c1.032,0.185,2.722,0.485,2.544,0.938c-0.177,0.452,0.828,0.243-1.195,1.82
	c-2.023,1.577-2.554,1.289-3.002,2.177c-0.448,0.889-1.252,2.682-1.519,4.185c-0.268,1.501-1.726,5.89-1.562,6.598
	c0.165,0.707,2.18,1.356,2.189,1.842c0.011,0.486,0.877,1.608,2.864,1.865s4.708-1.971,7.381-1.205
	c2.672,0.767,6.568,2.816,6.461,3.958c-0.106,1.144,1.927,4.41,1.927,4.41l-3.396-0.507l-1.386-3.637l-4.067-2.175l-7.543,3.209
	c0,0-2.027,0.511-4.253,0.502c-2.227-0.009-4.475,0.656-4.475,0.656s-2.104,3.112-4.39,2.899
	C275.889,50.776,269.032,52.849,268.887,53.937z"/>
<path style="fill-rule:evenodd;clip-rule:evenodd;" d="M277.733,53.681c-1.434,3.327-3.467,6.604-3.467,6.604l-0.066,1.84
	c0,0,3.654,0.432,4.393,0.646c0.738,0.214,4.854,1.987,5.491,1.951c0.639-0.037,1.853,0.279,2.303,0.681
	c0.45,0.401,1.173,1.854,1.173,1.854s-3.407,1.646-4.032,1.169c-0.625-0.477-2.414-1.87-3.738-2.649
	c-1.326-0.779-4.465-2.65-4.892-1.9c-0.428,0.75-5.811,0.716-5.811,0.716s-0.047-1.578-0.044-3.03
	c0.004-1.452-0.67-2.78-1.445-3.633c-0.774-0.853-3.776-1.835-3.287-2.974c0.491-1.138-0.605-3.894-0.605-3.894l-3.792-0.596
	c0,0,0.681-2.302,2.521-2.236c1.839,0.066,1.891-0.535,2.695-2.161c0.804-1.625,6.343-4.845,8.434-4.878
	c2.091-0.034,6.699-0.852,7.665-1.889c0.966-1.038,4.765-4.072,4.765-4.072l2.181-7.469l-0.559-3.043l-2.827-0.18l3.571-2.51
	l1.568-1.712c0,0-5.059,0.416-8.151,0.848s-5.283,0.215-8.721-2.408s0.362-12.405,0.362-12.405s-2.783,8.144-0.295,9.839
	s2.287,1.919,3.013,1.921c0.727,0-0.222-1.653,0.007-2.904c0.227-1.251,1.978-6.519,1.978-6.519s-0.535,4.856-0.064,7.136
	c0.473,2.279,1.46,2.394,2.549,2.759c1.089,0.365,2.719-1.008,2.719-1.008s1.398,2.056,2.326,1.105s-0.109-1.189,0.056-2.779
	s1.224-4.768,1.224-4.768s0.236,6.435,1.426,7.051c1.188,0.616,1.727,0.328,1.727,0.328s3.46-2.246,2.726-4.639
	c-0.733-2.393-3.458-5.227-3.458-5.227l-5.426-3.792c0,0,5.842,2.102,7.13,2.969c1.288,0.866,0.257-3.004,0.209-4.582
	C291.216,1.667,289.754,0,289.754,0s5.139,3.252,4.095,5.917c-1.044,2.664-0.917,1.889-0.471,3.742
	c0.447,1.854,0.898,1.528,0.619,3.38c-0.278,1.853-0.48,2.804,0.22,3.105c0.701,0.302,1.741-0.91,2.245-1.836
	c0.502-0.925,1.861-4.803,1.76-4.327c-0.101,0.475,0.607,3.168-1.198,5.193c-1.807,2.024-3.934,1.419-3.449,3.185
	c0.485,1.767,1.912,2.069,2.764,1.295c0.854-0.775,3.445-1.007,4.309-0.843s2.465,0.543,1.786,2.119
	c-0.679,1.577-2.822,2.937-2.822,2.937s-3.185,2.573-4.068,6.552s-1.249,5.067-0.779,8.073c0.471,3.006,1.758,3.872,1.758,3.872
	s5.919,1.201,6.82,1.278c0.901,0.076,2.333-2.524,3.828,1.234s3.356,5.702,2.401,7.678c-0.955,1.976-2.628,6.342-3.782,7.816
	c-1.155,1.476-4.146,1.432-3.353-1.133c0.792-2.565,0.392-2.84,1.471-3.415c1.077-0.574,1.942-1.135,1.819-2.538
	s-0.223-1.653-0.607-3.168c-0.385-1.516,0.071-4.019-1.707-3.747c-1.779,0.272-1.819,1.812-3.385,2.072
	c-1.565,0.26-5.708-0.486-6.271-0.625c-0.562-0.139-7.495,4.868-10.247,3.786C280.756,50.519,277.733,53.681,277.733,53.681z"/>
<polygon style="fill-rule:evenodd;clip-rule:evenodd;" points="16.562,59.917 12.261,67.828 14.54,68.979 "/>
<path style="fill-rule:evenodd;clip-rule:evenodd;" d="M49.569,48.963c0,0,10.585,4.972,35.55,9.29
	c24.965,4.317,31.77,3.814,31.77,3.814S73.878,61.166,49.569,48.963z"/>
<path style="fill-rule:evenodd;clip-rule:evenodd;" d="M48.471,51.785c0,0,9.349,4.972,31.397,9.29
	c22.048,4.317,28.058,3.813,28.058,3.813S69.94,63.988,48.471,51.785z"/>
<path style="fill-rule:evenodd;clip-rule:evenodd;" d="M224.961,70.393c0,0-6.271,6.848-7.424,6.871
	c-1.151,0.023-5.736,1.266-6.638,1.189c-0.9-0.077-3.543,0.03-3.73,0.468c-0.189,0.438-1.396,3.24-1.585,3.677
	c-0.188,0.438-1.221,3.315-2.475,4.54c-1.254,1.225-4.31,1.57-4.31,1.57l0.784-4.23l2.293-0.985c0,0,2.409-3.426,3.139-4.876
	c0.729-1.451,0.605-2.127,1.521-3.29c0.917-1.163,2.243-1.11,3.408-1.646c1.165-0.536,2.344-1.585,2.983-2.348
	c0.641-0.763,0.589-0.162,1.007-2.577c0.417-2.416,0.87-3.466,0.87-3.466c0,0-1.389-0.391-2.439-0.844
	c-1.051-0.452-1.76-2.419-0.71-1.966c1.051,0.452,2.014,0.868,2.804,0.48c0.789-0.386,3.549-2.935,4.111-2.796
	c0.563,0.139,4.224-2.333,5.887-1.616c1.664,0.717,5.632,0.662,6.696,0.601c1.064-0.061,6.415-2.842,6.415-2.842l3.023-3.162
	l1.319-3.064l-0.172-1.528l-2.363-1.745c0,0,1.13-1.174,2.118-1.06c0.989,0.114,3.308-1.896,3.308-1.896s-8.122-1.268-9.085-1.683
	s-7.457-1.966-7.139-4.633c0.317-2.666,6.039-9.44,6.039-9.44s-5.219,5.849-4.135,8.392c1.085,2.543,3.285,3.699,3.898,3.964
	c0.613,0.264-0.885-2.042-0.784-2.518c0.101-0.476,3.609-8.618,3.609-8.618s-2.254,6.918-1.507,8.798
	c0.748,1.879-0.018,3.417,1.461,2.393c1.479-1.023,2.787-4.3,2.787-4.3c0,0,0.521,4.627,0.327,5.747
	c-0.195,1.12-1.214-0.315,1.064-0.06c2.277,0.254,1.94-0.41,1.979-1.224c0.04-0.814,1.512-4.955,1.512-4.955s0.037,6.66,1.079,5.448
	c1.041-1.212,1.355-1.7,1.771-2.663c0.415-0.964,0.389-0.663-0.283-2.717c-0.672-2.055-1.71-3.02-2.247-3.459
	s-1.358-2.87-1.358-2.87s2.602,1.433,3.286,2.973c0.687,1.541,1.146,2.882,1.661,2.169c0.516-0.712,0.464-0.112,0.93-1.676
	c0.466-1.563,1.158-3.652,0.372-4.718s-1.398-2.056-0.998-1.78s3.204,0.032,2.561,2.972c-0.644,2.94-2.603,6.042-1.552,6.495
	c1.05,0.452,1.023,1.479,0.722,2.179s-1.585,3.678-1.585,3.678s0.502-0.2,1.291-0.587c0.789-0.386,0.589-0.161,1.367-1.486
	c0.779-1.326,2.212-4.653,2.212-4.653s0.029,4.269-0.974,5.394c-1.004,1.125-2.47,1.635-2.984,2.348s-1.006,2.577-0.143,2.741
	s3.117-0.006,4.08,0.408c0.963,0.416,2.539,1.094,2.264,1.495c-0.277,0.4,0.749,0.427-1.581,1.499
	c-2.33,1.072-2.78,0.671-3.421,1.434c-0.639,0.762-1.832,2.324-2.436,3.726c-0.603,1.4-3.026,5.339-3.027,6.065
	c-0.002,0.727,1.812,1.818,1.71,2.294c-0.101,0.476,0.485,1.767,2.361,2.471s5.034-0.842,7.46,0.515
	c2.426,1.357,5.75,4.243,5.385,5.331c-0.364,1.088,0.868,4.734,0.868,4.734l-3.189-1.271l-0.52-3.856l-3.461-3.049l-8.078,1.4
	c0,0-2.09,0.033-4.255-0.484c-2.164-0.517-4.506-0.384-4.506-0.384s-2.759,2.549-4.936,1.819
	C232.5,68.917,225.351,69.367,224.961,70.393z"/>
<path style="fill-rule:evenodd;clip-rule:evenodd;" d="M109.305,69.821c0,0-2.914,5.077-7.983,4.554
	c-5.069-0.522-8.56-1.819-9.174-1.357c-0.614,0.462-2.904-0.006-3.293,0.657c-0.389,0.664-1.557,1.926-1.858,2.626
	c-0.302,0.7-2.523,3.688-2.523,3.688l-2.792,0.458l-2.095,2.211c0,0-1.372-2.355-1.07-3.056s2.142-0.635,4.637-2.57
	c2.495-1.936,1.254-1.225,2.886-3.325c1.631-2.1,0.03-2.479,2.06-3.577c2.03-1.098,2.82-1.485,4.435-1.619
	c1.616-0.134,3.632-0.718,4.259-1.694c0.628-0.975,1.171-3.44,1.435-4.053c0.264-0.613-2.337-2.045-2.337-2.045
	s-4.04-1.948,0.554-1.526c4.594,0.422,4.04,1.948,5.62,0.449c1.581-1.5,1.107-3.052,2.584-2.624
	c1.477,0.428,5.596,0.023,9.636,1.971c4.04,1.949,9.389-0.107,10.866-0.405c1.479-0.297,4.061-2.195,4.476-3.158
	c0.415-0.963,1.421-3.54,1.685-4.153c0.264-0.614-0.657-3.294-0.657-3.294l2.54,1.094c0,0-1.66-2.895-7.229-3.944
	c-5.568-1.05-5.808-4.111-4.342-7.632c1.465-3.521,3.76-5.958,3.76-5.958s-3.166,5.903-2.807,8.082
	c0.359,2.179-0.005,2.542,0.871,2.556c0.876,0.014,0.965-0.312,1.443-1.663c0.478-1.352,0.251-3.836,2.932-4.758
	s3.522-2.272,3.522-2.272s-3.866,5.602-4.244,6.477c-0.377,0.875-0.268,2.428,0.039,2.56c0.307,0.132,0.326,0.088,0.841-0.987
	s2.002-2.719,2.002-2.719s-2.549,3.988-1.442,4.673c1.106,0.685,1.216-1.137,1.771,0.347s1.254,2.15,1.692,2.338
	c0.438,0.188,1.069,0.409,1.69-0.31c0.621-0.718,0.318-3.028,0.318-3.028s2.493,2.527,2.987,2.584
	c0.494,0.057,1.395-2.876-0.005-4.206c-1.399-1.33-0.604-1.247-0.604-1.247s2.189,0.217,2.627,1.132
	c0.437,0.915,0.594,0.307,0.99-0.612c0.396-0.919-1.392-2.675-2.191-3.591c-0.799-0.916-3.906-2.617-3.906-2.617
	s3.898,0.227,5.299,1.556c1.4,1.33,1.992,2.363,1.992,2.363l-1.426-3.677l-2.875-5.495c0,0,3.839,2.173,4.545,5.592
	c0.707,3.418,1.646-2.613,2.088-4.603c0.441-1.99-0.531-4.07-0.531-4.07s3.596,5.39,1.598,9.305c-1.998,3.914-1.061,4.63-2.04,6.18
	c-0.979,1.55-2.574,4.289-3.179,5.689c-0.604,1.4-0.305,2.153-0.305,2.153s-0.214,0.738,1.525,1.28s3.044-0.558,3.053,1.107
	c0.01,1.666,0.297,1.479-0.242,2.491c-0.541,1.013-3.848,2.183-5.188,1.918c-1.338-0.266-2.244,1.836-4.189,4.424
	s-4.726,3.984-4.19,5.15c0.536,1.165,0.821,2.43,1.396,2.781s7.054,3.87,8.404,4.347c1.351,0.479,2.026,0.355,2.476,1.482
	c0.449,1.127,2.488,1.695,1.821,3.484s0.819,3.882,0.819,3.882s-1.318,1.612-1.969,1.436c-0.65-0.177-1.573-2.132-2.058-3.897
	c-0.485-1.766-0.382-3.694-2.445-4.687c-2.063-0.993-1.687-1.869-4.979-1.211c-3.294,0.657-5.035,0.841-8.537-0.667
	c-3.502-1.51-3.152-1.358-5.342-1.575c-2.19-0.217-5.868-1.801-5.868-1.801S108.856,68.33,109.305,69.821z"/>
<path style="fill-rule:evenodd;clip-rule:evenodd;" d="M106.916,59.749c0,0,11.25,3.194,36.584,3.415
	c25.334,0.222,31.969-1.376,31.969-1.376C175.469,61.787,132.879,67.858,106.916,59.749z"/>
<path style="fill-rule:evenodd;clip-rule:evenodd;" d="M113.797,63.608c0,0,10.053,3.326,32.514,3.868
	c22.46,0.541,28.3-0.968,28.3-0.968S137.016,72.02,113.797,63.608z"/>
<path style="fill-rule:evenodd;clip-rule:evenodd;" d="M181.242,58.29c0,0,10.053,3.326,32.515,3.868
	c22.46,0.541,28.299-0.968,28.299-0.968S204.461,66.702,181.242,58.29z"/>
<path style="fill-rule:evenodd;clip-rule:evenodd;" d="M173.811,61.997c0,0,11.251,3.194,36.585,3.415s31.968-1.376,31.968-1.376
	S199.773,70.106,173.811,61.997z"/>
<path style="fill-rule:evenodd;clip-rule:evenodd;" d="M226.586,62.471c0,0,11.571-1.695,34.773-11.869
	c23.203-10.174,28.601-14.349,28.601-14.349S253.592,59.234,226.586,62.471z"/>
<path style="fill-rule:evenodd;clip-rule:evenodd;" d="M232.94,62.002c0,0,10.559-0.801,31.496-8.948
	c20.938-8.147,25.745-11.788,25.745-11.788S257.606,60.826,232.94,62.002z"/>
</svg>
