<?xml version="1.0" encoding="iso-8859-1"?>
<!-- Generator: Adobe Illustrator 15.0.0, SVG Export Plug-In . SVG Version: 6.00 Build 0)  -->
<!DOCTYPE svg PUBLIC "-//W3C//DTD SVG 1.1//EN" "http://www.w3.org/Graphics/SVG/1.1/DTD/svg11.dtd">
<svg version="1.1" id="soda" xmlns="http://www.w3.org/2000/svg" xmlns:xlink="http://www.w3.org/1999/xlink" x="0px" y="0px"
	 width="93.347px" height="189.264px" viewBox="0 0 93.347 189.264" style="enable-background:new 0 0 93.347 189.264;"
	 xml:space="preserve">
<path d="M24.166,6.523l2.587,0.959c0.385,0.143,0.58,0.57,0.438,0.953c-0.111,0.299-0.395,0.484-0.695,0.484
	c-0.087,0-0.174-0.014-0.258-0.047l-2.578-0.957C23.943,7.516,24.118,7.039,24.166,6.523z M36.782,35.463
	c1.859,0,3.364-1.506,3.364-3.365c0-1.857-1.505-3.365-3.364-3.365c-1.858,0-3.365,1.508-3.365,3.365
	C33.417,33.957,34.924,35.463,36.782,35.463z M20.852,24.967c0,2.359,1.912,4.271,4.271,4.271c2.358,0,4.271-1.912,4.271-4.271
	c0-2.357-1.912-4.27-4.271-4.27C22.764,20.697,20.852,22.609,20.852,24.967z M40.609,16.283c2.769,0,5.011-2.244,5.011-5.012
	S43.378,6.26,40.609,6.26s-5.012,2.244-5.012,5.012S37.841,16.283,40.609,16.283z M23.379,12.121c0.093,0,0.187-0.018,0.277-0.053
	c0.38-0.152,0.563-0.584,0.411-0.965L23.04,8.547c-0.394,0.297-0.864,0.488-1.378,0.549l1.029,2.561
	C22.808,11.945,23.085,12.121,23.379,12.121z M32.8,48.955c1.586,0,2.871-1.285,2.871-2.871s-1.285-2.871-2.871-2.871
	s-2.871,1.285-2.871,2.871S31.214,48.955,32.8,48.955z M93.347,66.871v12.797h-8.404l-0.573,8.551H16.47l-0.319-4.375h-4.78
	l0.321,4.375H8.977l-0.573-8.551H0V66.871h10.577l4.973-7.713h27.146V37.426c0-0.727,0.026-1.424,0.074-2.098l5.927,0.281
	c-0.041,0.578-0.069,1.176-0.069,1.816v21.732h27.146l4.973,7.713H93.347z M14.04,66.871h63.244l-3.098-4.803h-57.05L14.04,66.871z
	 M90.436,69.781H2.91v6.975h87.525V69.781z M56.207,24.848l-2.2-5.508c-1.652,0.75-3.262,1.648-4.725,2.789l3.532,4.744
	C53.786,26.104,54.915,25.445,56.207,24.848z M50.37,29.635c0.385-0.646,0.829-1.232,1.338-1.764l-3.559-4.781
	c-1.265,1.172-2.383,2.562-3.271,4.254L50.37,29.635z M42.918,33.852l5.943,0.281c0.177-1.189,0.455-2.242,0.839-3.17l-5.45-2.275
	C43.627,30.188,43.169,31.896,42.918,33.852z M58.521,23.889c8.964-3.375,24.986-8.164,25.147-8.213l-1.695-5.684
	c-0.665,0.199-16.383,4.896-25.543,8.346c-0.354,0.135-0.707,0.273-1.061,0.416l2.2,5.51C57.882,24.137,58.194,24.012,58.521,23.889
	z M46.673,160.689c-12.362,0-22.758-8.498-25.584-19.916h-0.782l2.88,39.455l31.043,3.461h-35.53l-3.149-42.916H12.5l3.25,48.49
	h30.923h30.923l3.251-48.49h-8.59C69.43,152.191,59.034,160.689,46.673,160.689z M46.673,154.74
	c11.249,0,20.399-9.064,20.399-20.207c0-11.145-9.15-20.211-20.399-20.211c-11.248,0-20.4,9.066-20.4,20.211
	C26.272,145.676,35.425,154.74,46.673,154.74z M19.395,128.287h1.694c2.828-11.416,13.224-19.912,25.584-19.912
	c12.361,0,22.756,8.496,25.584,19.912h9.427l2.206-32.916H16.991L19.395,128.287z M12.216,95.371h-2.76l2.207,32.916h2.97
	L12.216,95.371z M17.84,10.605c-0.212,0.35-0.098,0.807,0.253,1.018c0.119,0.072,0.25,0.105,0.381,0.105
	c0.252,0,0.497-0.127,0.637-0.359l1.422-2.361c-0.49-0.141-0.93-0.4-1.274-0.758L17.84,10.605z M23.954,5.119l2.152-1.705
	c0.32-0.254,0.375-0.721,0.12-1.041s-0.721-0.375-1.041-0.121l-2.159,1.711C23.428,4.262,23.753,4.656,23.954,5.119z M21.321,3.389
	c0.234,0,0.459,0.037,0.677,0.09l-0.063-2.752c-0.009-0.408-0.369-0.754-0.758-0.725c-0.41,0.01-0.734,0.35-0.724,0.76l0.063,2.756
	C20.772,3.441,21.039,3.389,21.321,3.389z M18.653,5.215c0.187-0.473,0.496-0.879,0.887-1.189l-2.219-1.639
	c-0.331-0.244-0.795-0.172-1.037,0.156C16.04,2.873,16.11,3.338,16.44,3.58L18.653,5.215z M15.955,8.293
	c0.058,0,0.116-0.006,0.174-0.02l2.682-0.646c-0.222-0.408-0.36-0.869-0.36-1.367c0-0.025,0.007-0.047,0.007-0.072L15.782,6.83
	c-0.397,0.096-0.643,0.496-0.547,0.895C15.316,8.064,15.621,8.293,15.955,8.293z"/>
</svg>
