<?xml version="1.0" encoding="iso-8859-1"?>
<!-- Generator: Adobe Illustrator 15.1.0, SVG Export Plug-In . SVG Version: 6.00 Build 0)  -->
<!DOCTYPE svg PUBLIC "-//W3C//DTD SVG 1.1//EN" "http://www.w3.org/Graphics/SVG/1.1/DTD/svg11.dtd">
<svg version="1.1" id="Speaker" xmlns="http://www.w3.org/2000/svg" xmlns:xlink="http://www.w3.org/1999/xlink" x="0px" y="0px"
	 width="272.733px" height="397.451px" viewBox="0 0 272.733 397.451" style="enable-background:new 0 0 272.733 397.451;"
	 xml:space="preserve">
<g>
	<g>
		<path d="M154.295,363.067c-16.786,3.457-33.328,6.886-49.575,10.271c-8.124,1.692-16.174,3.375-24.144,5.045l-0.013,0.003
			l-0.371-2.998l-0.748-6.015l-1.487-11.934c-7.909-63.305-15.381-121.023-21.828-169.846
			C43.234,89.949,34.437,27.887,34.437,27.887c8.092,70.358,16.386,138.845,24.274,201.997c3.944,31.577,7.788,61.82,11.455,90.297
			c1.833,14.238,3.622,28.035,5.357,41.337l1.291,9.882l0.638,4.87l0.316,2.417l0.061,0.462c0.137,0.005,0.274,0.057,0.384,0.184
			c0.642,0.743,1.391,1.362,2.171,1.947l0.088-0.02c6.305-1.369,12.479-2.712,18.519-4.028
			c96.633-21.057,158.545-35.155,158.545-35.155C222.416,349.119,187.867,356.151,154.295,363.067z"/>
	</g>
	<g>
		<path d="M180.8,12.656l-0.962-3.909l-0.133-0.539c-0.805-0.622-1.621-1.23-2.405-1.879l-1.617,0.207l-7.753,0.996
			c-5.105,0.657-10.084,1.299-14.928,1.926c-9.689,1.254-18.845,2.448-27.422,3.572c-17.153,2.248-31.992,4.219-44.154,5.848
			c-24.322,3.258-37.936,5.148-37.936,5.148c30.875-3.345,61.338-6.75,91.01-10.147c14.44-1.653,28.688-3.305,42.71-4.947
			l0.047,0.199l0.311,1.32l0.62,2.637l1.236,5.255l2.461,10.439c1.636,6.927,3.26,13.787,4.87,20.575
			c12.89,54.307,24.949,103.994,35.3,146.107c20.702,84.228,34.57,138.161,34.57,138.161
			C228.954,211.059,201.418,96.537,180.8,12.656z"/>
	</g>
	<g>
		<path d="M271.805,346.645l-1.998-8.029c-5.319-21.381-10.58-42.512-15.778-63.375c-10.396-41.728-20.541-82.383-30.393-121.817
			s-19.411-77.647-28.639-114.489c-2.307-9.21-4.593-18.334-6.857-27.371l-1.694-6.761l-0.795-3.167
			c-0.741-0.556-1.49-1.103-2.251-1.634l-0.689,0.063l-1.724,0.158l-13.711,1.257c-18.188,1.668-36.006,3.306-53.433,4.909
			C96.415,7.991,79.378,9.561,62.75,11.095c-8.313,0.767-16.524,1.525-24.632,2.274l-11.637,1.075
			c-0.664,0.915-1.297,1.852-1.95,2.773l0.119,0.967l0.368,2.976l0.732,5.921c3.896,31.474,7.587,61.237,11.053,89.138
			c6.933,55.801,12.966,104.148,17.928,143.811c9.925,79.324,15.569,123.909,15.569,123.909
			C58.49,283.224,46.762,184.095,35.28,87.729c-2.841-23.835-5.665-47.499-8.472-70.977l0.593-0.052l2.23-0.197l4.456-0.394
			l8.899-0.787L60.73,13.75c11.804-1.045,23.558-2.087,35.259-3.126c23.402-2.077,46.595-4.14,69.559-6.187l17.18-1.533l0.31-0.027
			l0.372,1.501l1.034,4.167l2.064,8.316c2.749,11.075,5.484,22.091,8.206,33.047c21.773,87.649,42.655,171.439,62.338,250.221
			c2.46,9.848,4.901,19.617,7.323,29.306l3.619,14.473l1.584,6.336l-1.454,0.331l-3.595,0.816
			c-19.15,4.351-37.969,8.628-56.436,12.829c-36.935,8.401-72.467,16.495-106.452,24.246c-8.496,1.938-16.896,3.854-25.196,5.748
			l-3.108,0.709c0.134,0.156-1.736-0.394-2.504-0.556l-6.145-1.515l-12.177-3.001l-12.025-2.963l-5.956-1.468l-2.778-0.684
			l-0.002-0.02l-0.133-1.515c-0.71-8.068-1.41-16.031-2.102-23.886c-2.766-31.419-5.388-61.11-7.85-88.928
			c-4.925-55.634-9.212-103.77-12.74-143.224C5.398,87.712,2.631,56.939,0.745,36.03c-0.118-1.307-0.232-2.575-0.343-3.805
			c-0.186-1.387-0.437-2.36,0.979-2.799c1.944-1.253,3.756-2.42,5.434-3.501c3.355-2.163,6.175-3.98,8.443-5.442
			c4.536-2.925,6.866-4.428,6.866-4.428L6.249,26.091l-3.965,2.507l-1.981,1.253c-0.631,0.69-0.065,1.532-0.156,2.292l0.764,9.339
			l3.053,37.271c2.035,24.798,4.067,49.496,6.096,74.073c4.057,49.156,8.097,97.832,12.104,145.874
			c2.005,24.021,4.001,47.883,5.986,71.567l0.744,8.873l0.372,4.431l0.134,1.599c0.645,0.605,1.259,1.238,1.844,1.898l0.19,0.048
			l1.077,0.27l17.192,4.306l17.125,4.286l4.27,1.068c0.977,0.107,0.83,0.514,2.728,0.376l2.145-0.481l8.567-1.925
			c45.646-10.255,90.518-20.354,134.463-30.263c10.986-2.477,21.915-4.941,32.783-7.394l16.258-3.669l3.038-0.686l0.506-0.114
			c0.003,0.07,0.07,0.006,0.172-0.132c0.302-0.802,0.625-1.596,0.977-2.377L271.805,346.645z"/>
	</g>
	<g>
		<path d="M148.882,358.519l-0.557-2.681l-1.1-5.234l-0.543-2.551l-0.27-1.259l-0.021-0.095c-0.949-0.688-1.896-1.378-2.798-2.125
			c-3.019,0.486-5.947,0.966-8.746,1.433c-24.621,4.108-40.34,7.334-40.34,7.334c9.004-0.898,17.853-1.884,26.443-2.922
			c4.295-0.519,8.526-1.05,12.68-1.59l6.172-0.815l3.039-0.411l0.707-0.097c0.71,3.672,1.418,7.266,2.121,10.771l-0.085,0.017
			l-2.766,0.54l-5.408,1.07c-7.098,1.419-13.735,2.796-19.813,4.093c-6.077,1.296-11.596,2.511-16.455,3.604
			c-2.429,0.546-4.693,1.063-6.78,1.543l-0.254,0.059c-0.002-0.026,0.01-0.041,0.043-0.039l-0.357-1.46
			c-0.234-0.95-0.458-1.854-0.67-2.712c-1.703-6.858-2.721-10.686-2.721-10.686c0.693,4.419,1.408,8.804,2.139,13.143
			c0.742,1.032-0.887,2.283,1.805,3.127l3.232-0.517l6.404-1.048c8.48-1.409,16.723-2.863,24.62-4.318
			c3.948-0.729,7.812-1.457,11.575-2.181l5.57-1.083l1.368-0.269l0.084-0.017c0.537-0.811,1.112-1.594,1.738-2.341L148.882,358.519z
			"/>
	</g>
	<g>
		<path d="M42.539,372.708c0,0,10.919-0.919,21.607,5.314C64.146,378.022,53.096,378.909,42.539,372.708z"/>
	</g>
	<g>
		<path d="M43.566,361.422c0,0,8.896-3.015,18.649,1.028C62.216,362.45,53.207,365.459,43.566,361.422z"/>
	</g>
	<g>
		<path d="M43.268,342.65c0,0,7.177-4.349,16.236-1.868C59.504,340.782,52.229,345.143,43.268,342.65z"/>
	</g>
	<g>
		<path d="M6.004,60.778c0,0,7.203-7.892,19.014-10.318C25.018,50.46,17.699,58.414,6.004,60.778z"/>
	</g>
	<g>
		<path d="M7.813,70.314c0,0,8.567-6.506,20.704-6.818C28.518,63.496,19.825,70.044,7.813,70.314z"/>
	</g>
	<g>
		<path d="M12.339,79.43c0,0,7.75-4.594,17.624-2.412C29.963,77.018,22.106,81.626,12.339,79.43z"/>
	</g>
	<g>
		<path d="M139.032,75.836c-1.477-5.369-5.991-8.703-10.131-10.163c-8.753-2.943-16.385,1.297-18.942,5.35
			c-1.753,2.596-2.19,4.734-2.32,5.947c0.051-0.001,0.103-0.003,0.153-0.004c3.374-11.853,19.618-12.599,25.541-5.203
			c7.433,7.812,0.506,18.954-7.294,19.711c-7.749,1.677-14.291-2.524-16.492-6.466c-1.711-2.872-1.92-5.218-1.964-6.303
			c-0.043,0-0.086,0.001-0.129,0.001c-0.579,5.927,3.462,11.896,8.985,14.088c5.637,2.6,12.435,1.8,17.278-1.666
			C138.624,87.61,140.795,81.098,139.032,75.836z"/>
	</g>
	<g>
		<path d="M159.72,70.147c-3.522-13.263-13.982-22.564-24.594-26.616c-22.323-8.348-42.069,3.173-48.781,13.543
			c-5.537,7.91-6.317,14.336-6.521,17.048c2.382-15.571,15.573-27.452,29.835-30.24c14.75-3.202,30.371,2.134,39.416,12.69
			c9.405,10.415,11.061,25.529,5.857,36.816c-5.149,11.469-15.979,18.646-26.481,20.902c-21.976,4.715-39.341-8.676-44.571-19.689
			c-4.372-8.416-4.358-14.914-4.23-17.659c-0.053-0.017-0.104-0.037-0.155-0.054c-1.376,15.938,9.334,31.28,23.554,37.182
			c14.577,6.461,32.14,4.045,43.779-5.48C158.852,99.328,163.502,83.177,159.72,70.147z"/>
	</g>
	<g>
		<path d="M174.656,67.92c-4.51-17.378-18.063-29.749-31.985-35.157c-14.141-5.535-28.692-4.604-39.861-0.405
			c-11.34,4.138-19.362,11.407-24.257,18.235c-7.017,10.067-8.271,18.324-8.614,22.114c3.143-20.426,20.281-36.331,39.132-40.189
			c19.601-4.448,40.48,2.721,52.459,16.908c12.486,13.989,14.588,34.212,7.715,49.34c-6.828,15.373-21.206,25.076-35.217,28.101
			c-29.329,6.342-52.289-11.879-59.01-26.567c-6.396-12.697-5.446-22.042-5.3-24.635c-0.049,0.011-0.097,0.023-0.145,0.034
			c-2.263,21.443,11.872,42.226,30.899,50.159c19.182,8.539,42.29,5.168,57.421-7.475C173.531,106.075,179.48,84.997,174.656,67.92z
			"/>
	</g>
	<g>
		<path d="M124.795,222.883c0.237,0.129-0.523-4.361,3.488-10.68c3.525-6.084,14.837-13.444,27.904-8.439
			c6.199,2.41,12.112,8.06,14.041,15.837c2.048,7.645-0.502,17.033-7.37,22.652c-6.635,5.768-17.011,7.308-25.368,3.279
			C129.069,241.737,123.365,232.152,124.795,222.883c0.24-0.104-0.826,4.379,2.445,10.817c2.851,6.224,12.566,13.948,24.717,11.016
			c5.804-1.381,11.569-5.607,14.277-11.97c2.696-6.276,1.975-14.522-3.006-20.448c-4.761-5.999-13.385-9.233-21.613-7.388
			C133.421,206.572,125.984,213.695,124.795,222.883z"/>
	</g>
	<g>
		<path d="M82.599,224.731c0.581,0.29-0.781-12.909,10.138-32.156c5.65-9.259,14.897-19.753,29.054-26.428
			c13.888-6.715,33.288-8.486,51.115-0.021c17.845,8.087,32.693,26.351,37.095,48.782c4.441,22.178-1.512,48.472-19.607,66.556
			c-17.316,18.473-48.171,25.494-72.467,12.408C93.509,281.519,79.219,252.416,82.599,224.731c0.622-0.206-2.67,12.854,5.21,33.429
			c4.174,9.959,11.643,21.607,24.364,30.108c12.433,8.526,30.707,12.983,48.879,7.613c18.133-5.005,34.929-20.117,42.599-40.63
			c7.673-20.309,6.286-46.099-7.822-66.051c-13.308-20.188-40.848-31.9-66.113-23.965C104.45,172.483,85.179,197.287,82.599,224.731
			z"/>
	</g>
	<g>
		<path d="M68.965,222.151c0.759,0.418-1.07-15.453,12.894-37.624c7.094-10.693,18.692-22.453,35.745-29.483
			c16.738-7.109,39.25-8.826,60.501,0.419c21.112,8.898,40.117,29.186,46.044,55.609c6.171,26.037-1.711,57.472-24.207,77.602
			c-21.679,20.588-57.422,27.311-86.402,13.187C84.391,288.537,65.042,255.152,68.965,222.151
			c0.829-0.306-3.436,15.349,6.971,39.315c5.313,11.634,14.886,24.934,30.404,34.317c15.184,9.435,36.634,14.427,58.395,8.823
			c21.656-5.221,42.742-21.778,52.57-45.914c9.764-23.823,7.453-54.796-10.601-77.532c-17.182-23.024-49.736-35.408-79.816-27.192
			C96.82,161.43,71.938,189.439,68.965,222.151z"/>
	</g>
</g>
</svg>
