<?xml version="1.0" encoding="utf-8"?>
<!-- Generator: Adobe Illustrator 14.0.0, SVG Export Plug-In . SVG Version: 6.00 Build 43363)  -->
<!DOCTYPE svg PUBLIC "-//W3C//DTD SVG 1.1//EN" "http://www.w3.org/Graphics/SVG/1.1/DTD/svg11.dtd">
<svg version="1.1" id="Layer_1" xmlns="http://www.w3.org/2000/svg" xmlns:xlink="http://www.w3.org/1999/xlink" x="0px" y="0px"
	 width="100.00px" height="94.98px" viewBox="0 0 92.405 87.763" enable-background="new 0 0 92.405 87.763" xml:space="preserve">
<g>
	<g>
		<ellipse fill="#0C0C0C" cx="47.982" cy="44.442" rx="16.025" ry="16.436"/>
		<path fill="#0C0C0C" d="M50.437,23.362c0,1.543-1.251,2.793-2.793,2.793l0,0c-1.544,0-2.795-1.25-2.795-2.793v-4.439
			c0-1.541,1.251-2.793,2.795-2.793l0,0c1.542,0,2.793,1.252,2.793,2.793V23.362z"/>
		<path fill="#0C0C0C" d="M76.404,44.317c0,1.5-1.214,2.713-2.712,2.713h-4.436c-1.498,0-2.713-1.213-2.713-2.713l0,0
			c0-1.498,1.215-2.711,2.713-2.711h4.436C75.19,41.606,76.404,42.819,76.404,44.317L76.404,44.317z"/>
		<path fill="#0C0C0C" d="M50.107,70.042c0,1.178-0.957,2.135-2.136,2.135l0,0c-1.181,0-2.138-0.957-2.138-2.135V65.11
			c0-1.182,0.957-2.137,2.138-2.137l0,0c1.179,0,2.136,0.955,2.136,2.137V70.042z"/>
		<path fill="#0C0C0C" d="M29.892,44.235c0,1.18-0.957,2.137-2.137,2.137h-4.931c-1.179,0-2.136-0.957-2.136-2.137l0,0
			c0-1.18,0.957-2.137,2.136-2.137h4.931C28.935,42.098,29.892,43.055,29.892,44.235L29.892,44.235z"/>
		<path fill="#0C0C0C" d="M67.454,63.02c-0.765,1.014-2.209,1.213-3.223,0.447l-3.41-2.58c-1.014-0.764-1.213-2.207-0.446-3.221l0,0
			c0.767-1.014,2.209-1.215,3.222-0.447l3.41,2.576C68.021,60.563,68.22,62.004,67.454,63.02L67.454,63.02z"/>
		<path fill="#0C0C0C" d="M35.608,56.985c0.856,0.811,0.893,2.164,0.082,3.021l-3.727,3.939c-0.812,0.857-2.164,0.895-3.022,0.084
			l0,0c-0.857-0.812-0.894-2.164-0.083-3.021l3.728-3.939C33.397,56.211,34.75,56.176,35.608,56.985L35.608,56.985z"/>
		<path fill="#0C0C0C" d="M68.751,25.266c0.816,1.033,0.642,2.531-0.393,3.348l-4.125,3.262c-1.034,0.816-2.533,0.639-3.35-0.393
			l0,0c-0.816-1.033-0.641-2.533,0.393-3.348l4.127-3.26C66.437,24.059,67.935,24.233,68.751,25.266L68.751,25.266z"/>
		<path fill="#0C0C0C" d="M35.168,31.252c-0.898,1.141-2.553,1.34-3.693,0.439l-2.97-2.338c-1.14-0.898-1.338-2.553-0.44-3.691l0,0
			c0.899-1.145,2.552-1.34,3.694-0.441l2.971,2.338C35.871,28.458,36.067,30.11,35.168,31.252L35.168,31.252z"/>
	</g>
	<g>
		<path fill="#0C0C0C" d="M75.675,32.557l2.069-8.338l9.25,2.93l-2.819,1.795c0,0,13.449,27.617-13.908,48.822l-4.593-6.076
			c0,0,20.562-12.377,13.425-39.691L75.675,32.557z"/>
		<path fill="#0C0C0C" d="M64.687,69.454l8.59,0.215l-0.859,9.662l-2.361-2.361c0,0-24.051,19.111-50.677-3.006l4.939-5.799
			c0,0,16.534,17.393,41.657,4.51L64.687,69.454z"/>
		<path fill="#0C0C0C" d="M26.119,66.903l1.483,8.463l-9.641,1.064l1.848-2.781c0,0-23.48-19.807-7.052-50.273l6.657,3.697
			c0,0-13.787,19.643,3.801,41.729L26.119,66.903z"/>
		<path fill="#0C0C0C" d="M28.841,18.032l-8.591-0.047l0.672-9.678l2.406,2.314c0,0,23.675-19.57,50.726,2.027l-4.826,5.893
			c0,0-16.867-17.072-41.737-3.703L28.841,18.032z"/>
	</g>
</g>
</svg>
