<?xml version="1.0" encoding="utf-8"?>
<!-- Generator: Adobe Illustrator 14.0.0, SVG Export Plug-In . SVG Version: 6.00 Build 43363)  -->
<!DOCTYPE svg PUBLIC "-//W3C//DTD SVG 1.1//EN" "http://www.w3.org/Graphics/SVG/1.1/DTD/svg11.dtd">
<svg version="1.1" id="Layer_1" xmlns="http://www.w3.org/2000/svg" xmlns:xlink="http://www.w3.org/1999/xlink" x="0px" y="0px"
	 width="959.55px" height="552.785px" viewBox="0 0 959.55 552.785" enable-background="new 0 0 959.55 552.785"
	 xml:space="preserve">
<path d="M956.462,224.984c-8.134-17.284-45.244-2.033-48.803-13.726c-4.575-15.759-22.876-41.177-42.193-39.652
	c-6.609,1.017-10.168-32.027-11.185-37.11c-5.084-27.451-15.759-41.686-43.719-47.277c-2.033,0-9.659-1.525-10.676-4.576
	c-38.335-104.5-141.344-112.439-187.5-9.26c-19.202,42.922-27.258,95.317-32.447,131.797c-0.967,6.807-0.427,13.45-2.206,19.804
	c-0.508,2.542-6.608,4.952-8.134,4.952c-74.729,0-149.458,5.724-224.695,4.707c-11.692,0-22.368,3.559-23.893-10.675
	c-7.327-53.093-21.925-142.108-64.77-185.045c-49.854-49.958-118.234-8.768-125.865,64.056c0.508,5.592-3.05,8.642-6.609,12.2
	c-12.201,13.218-16.267,25.418-20.842,42.194c-4.067,16.268-1.525,41.177-12.201,52.361c-5.592,7.117-13.726,17.284-13.726,26.435
	c0,9.659-15.741,4.921-21.859,5.083c-17.022,0.455-32.026-3.05-43.21,7.625c-15.631,15.251-14.356,34.637-5.042,48.242
	c6.993,10.211,11.078,12.892,22.974,12.993c18.193,0.156,45.366-5.254,49.131,7.394c4.787,16.091,4.513,25.594,14.528,39.802
	c3.042,4.319,5.72,9.785,6.745,19.718c3.178,30.796,0.477,64.086,30.572,93.679c2.069,2.035,5.146,4.307,6.61,8.016
	c6.313,15.981,11.194,25.258,21.726,39.2c33.368,44.163,89.137,47.905,120.487,2.403c30.536-44.319,43.715-114.427,46.943-167.232
	c0.508-5.592-0.681-25.714,7.961-26.223c25.074-0.757,169.189-7.267,225.206-4.964c12.595,0.519,18.343-1.955,20.984,11.261
	c8.256,68.813,40.829,237.277,145.749,206.162c42.952-12.737,56.732-51.585,69.315-84.564
	c53.315-13.119,61.615-42.214,70.214-86.573c2.139-11.048,5.531-21.199,11.123-21.199c23.385,0,29.994-26.943,33.552-45.244
	c7.117-33.552,31.011-5.083,44.228-27.451C960.528,265.653,961.037,234.643,956.462,224.984z M28.989,280.565
	c-1.289,14.636-13.516,25.422-16.858,2.031c-0.348-2.438-0.71-4.649-0.71-6.269C12.706,248.021,30.612,262.121,28.989,280.565z
	 M40.397,299.713c-5.846,1.271-4.319-3.431-2.16-10.359c4.077-13.073,3.428-20.146-2.416-31.834
	c-5.083-9.659,25.926-6.609,30.501-7.117c16.776-0.508,32.535-5.592,39.144,12.201c2.542,7.117,3.559,15.251,0,21.859
	C95.3,305.305,59.715,296.154,40.397,299.713z M91.742,315.98c0-7.117-1.017-7.117,5.592-9.15
	c26.943-6.608,22.876-64.562-1.525-64.562c-14.743,0,3.05-30.502,18.81-34.061c15.25-3.24,25.142,7.674,31.142,23.813
	c9.424,25.354,13.659,72.679,0.112,97.908C129.667,360.104,93.583,353.297,91.742,315.98z M140.036,452.221
	c-23.385-2.033-24.397-63.137-24.397-82.454c0-8.896,6.606-7.361,14.412-9.852c26.086-8.319,32.519-42.081,34.23-63.521
	c3.274-40.981-6.154-93.694-39.496-98.878c-8.134-1.017-16.776,3.575-16.776-7.101c1.042-45.348,35.737-96.014,74.969-53.284
	c47.383,51.611,53.86,186.06,25.596,262.122C197.254,429.723,176.942,456.138,140.036,452.221z M269.646,508.723
	c-27.558,42.662-69.545,41.186-97.331,5.024c-9.376-12.203-16.329-22.154-18.553-36.616c-1.525-9.659-1.593-10.523,8.134-12.201
	c30.523-5.26,47.015-31.195,56.93-57.805c30.505-81.856,26.683-223.028-25.718-281.729c-9.775-10.95-23.224-17.979-38.329-20.384
	c-12.709-1.525-10.675-4.067-7.625-16.268c11.692-48.294,58.97-85.843,101.164-42.124
	C322.515,130.739,340.244,399.428,269.646,508.723z M586.193,308.587c-68.794,2.717-189.634,2.474-237.846,4.941
	c-23.082,1.182-17.482-9.452-19.202-30.083c-1.829-40.46-7.625-37.618,50.328-37.618c62.528,0,124.828-4.638,190.502-4.095
	c20.111,0.164,49.43-4.863,54.019,11.08c4.81,16.706,5.592,23.516,1.525,40.8C620.998,313.963,604.16,307.879,586.193,308.587z
	 M623.486,236.168c-3.559-4.575,23.385-21.351,28.977-15.759c9.15,8.642,15.251,24.909,15.251,36.602
	c0,5.592,1.524,11.692,4.575,16.776c0.508,0.508,1.524,2.542,2.033,0.508c8.134-16.776-10.676-53.378-7.117-64.053
	c2.858-7.385,8.021-1.899,12.839,6.06c17.931,29.629,19.332,86.129,3.225,122.528c-1.733,3.919-4.293,6.049-6.913,6.127
	c-9.659-5.592-35.585-31.01-46.77-31.01c-4.002,0-0.706-6.055,1.894-14.024C638.526,278.32,638.442,256.11,623.486,236.168z
	 M633.145,333.265c6.609,1.017,27.452,19.826,32.027,24.91c36.602,42.193,51.41-100.722,23.889-150.979
	c-16.718-30.525-24.487-22.063-37.669-7.605c-7.449,8.173-15.739,17.024-20.28,19.293c-16.268,8.642-5.084-42.702-4.066-50.836
	c13.229-103.247,88.967-124.909,108.126-14.723c14.032,80.697,18.699,186.756-5.864,263.469
	c-17.224,53.792-65.83,64.369-82.944-0.667C639.754,389.185,631.111,361.732,633.145,333.265z M789.672,436.153
	c-11.266,44.134-33.258,83.191-66.039,93.338c-106.756,33.552-138.782-195.21-126.073-205.886
	c13.218-10.167,18.301,37.11,19.826,44.736c2.78,12.112,6.568,31.984,12.667,51.7c24.245,78.378,85.316,78.359,110.57-0.639
	c17.074-53.411,18.625-131.941,15.229-190.098c-2.525-43.25-21.665-203.788-91.188-169.03
	c-32.535,17.285-55.411,122.515-55.411,154.542c0,14.234-5.084,14.234-17.793,11.692c-2.033,0-0.508-16.776-0.508-19.318
	c2.607-37.398,9.097-89.255,28.56-130.701c42.53-90.564,133.354-89.601,164.146,6.799
	C817.737,189.983,816.693,330.307,789.672,436.153z M851.065,391.422c-3.801,22.956-19.962,41.457-42.028,45.04
	c-6.521,1.057-6.608,0-5.083-6.609c26.767-90.598,25.039-225.859,1.524-325.858c-1.524-4.575-0.508-3.558,5.084-3.05
	c27.96,4.067,33.552,33.043,37.619,55.919C857.521,223.735,865.563,303.855,851.065,391.422z M876.649,329.198
	c-7.117,0-5.592-36.094-6.101-41.178c-0.508-19.317-0.508-39.144-2.542-58.461c-1.303-17.602-2.424-37.086-1.017-47.786
	c19.382,0,28.761,29.066,31.176,43.623C904.577,264,902.193,330.341,876.649,329.198z M947.819,266.538
	c-2.542,2.542-23.893,6.741-29.484,6.741c-3.559,0-2.542-47.786,1.524-49.311c9.15-3.558,24.91,0,28.977,6.101
	C954.428,239.218,953.92,260.945,947.819,266.538z"/>
</svg>
