<?xml version="1.0" encoding="utf-8"?>
<!-- Generator: Adobe Illustrator 14.0.0, SVG Export Plug-In . SVG Version: 6.00 Build 43363)  -->
<!DOCTYPE svg PUBLIC "-//W3C//DTD SVG 1.1//EN" "http://www.w3.org/Graphics/SVG/1.1/DTD/svg11.dtd">
<svg version="1.1" id="Layer_1" xmlns="http://www.w3.org/2000/svg" xmlns:xlink="http://www.w3.org/1999/xlink" x="0px" y="0px"
	 width="261.925px" height="96.811px" viewBox="0 0 261.925 96.811" enable-background="new 0 0 261.925 96.811"
	 xml:space="preserve">
<path fill-rule="evenodd" clip-rule="evenodd" fill="#1B181C" d="M135.296,26.951c16.959,0,31.901-11.753,37.141-26.951h89.488
	c-14.368,23.913-84.333,18.488-84.333,18.488l49.151,29.301c-8.979,14.945-60.882-19.687-60.882-19.687l21.819,44.073
	c-14.354,3.579-37.994-40.956-37.994-40.956l-14.391,65.591V26.951z M126.628,26.951c-16.959,0-31.902-11.753-37.14-26.951H0
	c14.368,23.913,84.333,18.488,84.333,18.488L35.181,47.789c8.98,14.945,60.881-19.687,60.881-19.687L74.243,72.176
	c14.355,3.579,37.995-40.956,37.995-40.956l14.391,65.591V26.951z"/>
</svg>
