<?xml version="1.0" encoding="utf-8"?>
<!-- Generator: Adobe Illustrator 14.0.0, SVG Export Plug-In . SVG Version: 6.00 Build 43363)  -->
<!DOCTYPE svg PUBLIC "-//W3C//DTD SVG 1.1//EN" "http://www.w3.org/Graphics/SVG/1.1/DTD/svg11.dtd">
<svg version="1.1" id="Layer_1" xmlns="http://www.w3.org/2000/svg" xmlns:xlink="http://www.w3.org/1999/xlink" x="0px" y="0px"
	 width="39.64px" height="100.00px" viewBox="0 0 29.976 75.628" enable-background="new 0 0 29.976 75.628" xml:space="preserve">
<path fill-rule="evenodd" clip-rule="evenodd" d="M15.579,53.219c0.398,0.396,0.444,0.656,1.075,0.727
	C16.291,54.49,15.388,53.727,15.579,53.219L15.579,53.219z M12.097,46.768c1.359,3.141-0.249,9.68,2.589,18.881
	c1.103,3.574-0.015,3.258-0.015,5.48c0.396,0.031,0.607,0.48,0.786,0.805c1.188-4.918-1.592-14.924-1.649-20.744
	c-0.014-1.479-0.318-2.928-0.618-4.367C12.877,46.73,12.426,46.768,12.097,46.768L12.097,46.768z M14.461,47.211
	c0.357,0.16,0.715,0.32,1.072,0.48c-0.45,1.967-0.316,3.924-0.197,5.92c0.222,0.338,0.545,0.547,0.924,0.621
	c-0.165,5.234-0.318,11.223,0.969,16.275c0.146,0.574,0.15,1.121,0.15,1.707c0.336-0.387,0.721-0.771,1.212-0.934
	c-0.036,0.045-0.072,0.09-0.108,0.135c0.062-0.043,0.125-0.086,0.188-0.127c-1.846-4.309,0.718-8.316-0.821-15.83
	c-0.601-2.936-0.104-5.488,0.196-8.398C16.742,47.434,15.78,47.611,14.461,47.211L14.461,47.211z M19.473,42.594
	c-0.159,1.133-0.261,2.289-0.37,3.43C19.45,44.947,19.397,43.711,19.473,42.594L19.473,42.594z M19.473,27.093
	c0.29,0.485,0.816,1.417,0.815,2.248c2.915-1.176,4.02-6.949,7.357-6.949c0.025,0.035,0.051,0.071,0.076,0.106
	c-3.549,1.29-3.922,5.44-7.298,7.04c0,0.418,0.038,0.82,0.09,1.234c3.488-2.461,2.674-1.566,6.087-5.156
	c0.832-0.875,1.67-1.677,2.711-2.301c-0.081,0.264-0.162,0.526-0.242,0.79c0.676-0.947,0.782-1.432,0.314-2.142
	c-1.84-0.32-3.363,0.536-4.434,1.608c-0.865-0.599-2.412-3.686-4.133-5.102C19.73,20.71,18.292,25.116,19.473,27.093L19.473,27.093z
	 M4.074,21.112c-0.127,0.089-0.253,0.178-0.38,0.266c0.753,1.405,3.172,7.147,4.058,7.677c0.451,0.27,1.151,0.535,1.492,0.924
	c0.218-2.069,0.67-2.293,1.003-2.964c0.906-1.825-0.184-6.137-0.678-8.059c-1.996,0.332-3.247,2.435-4.799,3.588
	C4.969,22.229,4.692,21.324,4.074,21.112L4.074,21.112z M14.323,7.342c1.618,1.977,2.821,0.642,2.552-1.643
	c-0.111-0.954-0.682-2.085-1.25-3.247c-0.138-0.28-0.275-0.56-0.413-0.84c-2.129,2.135-1.1,3.488-0.298,4.186
	c-0.412,0-0.845-0.365-1.06-0.772c-0.172,0.862,0.268,1.475,0.621,2.181C14.286,7.236,14.263,7.369,14.323,7.342L14.323,7.342z
	 M14.304,7.538c0.006,0.168,0.013,0.337,0.019,0.505c0.021,0.009,0.041,0.018,0.061,0.027c0,0.251,0.381,0.588,0.136,0.832
	c0,0.17,0.012,0.924-0.227,0.924c-0.083,0.167-0.056,0.152,0,0.333c-0.518,2.531,0.563,5.734,1.538,8.073
	c0.073-0.33,0.146-0.661,0.218-0.992c-0.03,0.117-0.061,0.235-0.091,0.353c0.276-2.163,0.933-4.367,0.714-6.556
	c-0.789,0.149-1.323,0.117-2.289-0.182c1.829-0.095,2.072-0.47,2.009-2.602C15.478,8.69,15.009,8.306,14.304,7.538L14.304,7.538z
	 M15.693,2.021c-0.089-0.166-0.246-0.278-0.394-0.394C15.431,1.758,15.562,1.889,15.693,2.021L15.693,2.021z M12.133,6.301
	c0.532-2.366-0.308-4.91,2.417-6.044c0.31-0.129,0.586,0.084,0.969,0.048c0.418-0.791,2.26-0.014,2.816,1.98
	c0.57,2.051-0.094,2.03,0.862,4.239c0.134,0.31,0.547,2.812,0.757,2.302c0.086,0.087-0.048,0.28,0,0.408
	c-0.369,0.369-0.303,0.94-0.947,1.109c1.015,0.152,2.396,0.511,3.238,0.615c0.418-0.698,2.801,5.781,6.471,9.335
	c2.445,2.368,1.298,4.032-3.16,7.685c-1.612,1.321-3.268,2.317-4.572,3.951c-0.838,0.84,0.438,3.727-0.166,4.937
	c-0.113-0.031-0.227-0.062-0.339-0.092c-0.933,1.932-0.663,7.444-1.251,9.993c-0.389,0.096-0.777,0.193-1.166,0.289
	c0.046,0.014,0.092,0.029,0.137,0.045c-0.315,6.938-0.861,3.031,0.408,10.477c0.768,4.494-1.376,9.156,0.121,13.582
	c0.399,1.178,1.628,2.58,0.479,3.729c0.017,0.023,0.034,0.047,0.051,0.07c-1.431,2.148-2.668-1.455-2.795-2.725
	c-0.009-0.002-0.017-0.004-0.024-0.004c-0.136,1.621-0.01,2.705-2.056,3.078c-2.827-2.77,1.647-3.99,0.227-9.131
	c-2.409-8.717-1.757-7.277-1.983-15.654c-0.034-1.258-0.223-2.471-0.621-3.664c0.03-0.031,0.061-0.061,0.091-0.092
	c-0.373,0-0.753-0.049-1.121-0.105c-0.422-3.219-2.949-11.635-1.62-14.292c-0.233,0.233-0.49,0.442-0.757,0.621
	c-1.277-1.446-2.01-1.202-3.634-3.755c-1.899-2.986-4.759-5.934-4.618-9.751c0,2.258,2.077,5.862,3.331,7.691
	c1.018,1.485,3.464,5.802,5.647,5.026c-0.063-0.503-0.055-1.017-0.132-1.521c-0.001,0.038-0.002,0.075-0.004,0.113
	c-5.195-4.065-0.605,1.493-4.784-6.057c-0.868-1.567-1.874-3.055-2.892-4.526c0.121-0.161,0.39-0.24,0.553-0.362
	C1.419,19.586,0.688,19.526,0,19.44c0.649-2.109,4.995-3.372,8.236-8.464c0.121-0.177,0.242-0.353,0.363-0.529
	c0.548,0,2.388,0.095,2.71-0.228C10.15,8.383,10.748,7.489,12.133,6.301L12.133,6.301z"/>
</svg>
