<?xml version="1.0" encoding="utf-8"?>
<!-- Generator: Adobe Illustrator 18.1.1, SVG Export Plug-In . SVG Version: 6.00 Build 0)  -->
<svg version="1.1" id="Layer_1" xmlns="http://www.w3.org/2000/svg" xmlns:xlink="http://www.w3.org/1999/xlink" x="0px" y="0px"
	 viewBox="19.8 108 576 577.8" enable-background="new 19.8 108 576 577.8" xml:space="preserve">
<g id="Layer_3" display="none">
	<rect x="-194.4" y="-39.6" display="inline" stroke="#FFFFFF" stroke-miterlimit="10" width="1472.4" height="1209.6"/>
</g>
<g id="zoom-in">
	<g>
		<g>
			<path fill="#FFFFFF" d="M234,190.8c-7.2,0-18,7.2-18,14.4V306H115.2c-7.2,0-14.4,10.8-14.4,18s7.2,18,14.4,18H216v100.8
				c0,7.2,9,14.4,16.2,14.4c3.6,0,10.8-1.8,12.6-3.6c1.8-1.8,7.2-5.4,7.2-10.8V342h100.8c3.6,0,7.2-3.6,10.8-5.4
				c1.8-1.8,3.6-9,3.6-12.6c0-7.2-7.2-16.2-14.4-16.2H252V205.2C252,196.2,241.2,190.8,234,190.8z"/>
		</g>
		<g>
			<path fill="#FFFFFF" d="M401.4,462.6c32.4-37.8,50.4-86.4,50.4-138.6c0-118.8-97.2-216-216-216s-216,97.2-216,216
				s97.2,216,216,216c52.2,0,100.8-19.8,138.6-50.4l190.8,190.8c3.6,3.6,9,5.4,12.6,5.4c3.6,0,9-1.8,12.6-5.4c7.2-7.2,7.2-18,0-25.2
				L401.4,462.6z M237.6,504c-99,0-180-81-180-180s81-180,180-180s180,81,180,180S336.6,504,237.6,504z"/>
		</g>
	</g>
</g>
<g id="zoom-out" display="none">
	<g display="inline">
		<g>
			<path fill="#FFFFFF" d="M216,306H115.2c-7.2,0-14.4,10.8-14.4,18s7.2,18,14.4,18H216h36h100.8c3.6,0,7.2-3.6,10.8-5.4
				c1.8-1.8,3.6-9,3.6-12.6c0-7.2-7.2-16.2-14.4-16.2H252h-36V306z"/>
		</g>
		<g>
			<path fill="#FFFFFF" d="M401.4,462.6c32.4-37.8,50.4-86.4,50.4-138.6c0-118.8-97.2-216-216-216s-216,97.2-216,216
				s97.2,216,216,216c52.2,0,100.8-19.8,138.6-50.4l190.8,190.8c3.6,3.6,9,5.4,12.6,5.4c3.6,0,9-1.8,12.6-5.4c7.2-7.2,7.2-18,0-25.2
				L401.4,462.6z M237.6,504c-99,0-180-81-180-180s81-180,180-180s180,81,180,180S336.6,504,237.6,504z"/>
		</g>
	</g>
</g>
</svg>
